<?xml version="1.0" standalone="no"?>
<svg width="1050" height="1050" version="1.1"
xmlns="http://www.w3.org/2000/svg">
<rect width="1050" height="1050" style="fill:rgb(255,255,255); stroke-width:10;  stroke:rgb(255,255,255)"/>
<circle r="2" cx="428" cy="71" stroke="black" stroke-width="2" fill="red"/>
<circle r="2" cx="71" cy="71" stroke="black" stroke-width="2" fill="red"/>
<circle r="2" cx="428" cy="71" stroke="black" stroke-width="2" fill="red"/>
<circle r="2" cx="71" cy="71" stroke="black" stroke-width="2" fill="red"/>
<circle r="2" cx="450" cy="71" stroke="black" stroke-width="2" fill="red"/>
<circle r="2" cx="126" cy="71" stroke="black" stroke-width="2" fill="red"/>
<circle r="2" cx="450" cy="71" stroke="black" stroke-width="2" fill="red"/>
<circle r="2" cx="126" cy="71" stroke="black" stroke-width="2" fill="red"/>
<circle r="2" cx="49" cy="71" stroke="black" stroke-width="2" fill="red"/>
<circle r="2" cx="373" cy="71" stroke="black" stroke-width="2" fill="red"/>
<circle r="2" cx="49" cy="71" stroke="black" stroke-width="2" fill="red"/>
<circle r="2" cx="373" cy="71" stroke="black" stroke-width="2" fill="red"/>
<circle r="2" cx="428" cy="93" stroke="black" stroke-width="2" fill="red"/>
<circle r="2" cx="71" cy="93" stroke="black" stroke-width="2" fill="red"/>
<circle r="2" cx="428" cy="93" stroke="black" stroke-width="2" fill="red"/>
<circle r="2" cx="71" cy="93" stroke="black" stroke-width="2" fill="red"/>
<circle r="2" cx="428" cy="49" stroke="black" stroke-width="2" fill="red"/>
<circle r="2" cx="71" cy="49" stroke="black" stroke-width="2" fill="red"/>
<circle r="2" cx="428" cy="49" stroke="black" stroke-width="2" fill="red"/>
<circle r="2" cx="71" cy="49" stroke="black" stroke-width="2" fill="red"/>
<circle r="2" cx="470" cy="71" stroke="black" stroke-width="2" fill="red"/>
<circle r="2" cx="176" cy="71" stroke="black" stroke-width="2" fill="red"/>
<circle r="2" cx="470" cy="71" stroke="black" stroke-width="2" fill="red"/>
<circle r="2" cx="176" cy="71" stroke="black" stroke-width="2" fill="red"/>
<circle r="2" cx="29" cy="71" stroke="black" stroke-width="2" fill="red"/>
<circle r="2" cx="323" cy="71" stroke="black" stroke-width="2" fill="red"/>
<circle r="2" cx="29" cy="71" stroke="black" stroke-width="2" fill="red"/>
<circle r="2" cx="323" cy="71" stroke="black" stroke-width="2" fill="red"/>
<circle r="2" cx="451" cy="94" stroke="black" stroke-width="2" fill="red"/>
<circle r="2" cx="129" cy="87" stroke="black" stroke-width="2" fill="red"/>
<circle r="2" cx="451" cy="94" stroke="black" stroke-width="2" fill="red"/>
<circle r="2" cx="129" cy="87" stroke="black" stroke-width="2" fill="red"/>
<circle r="2" cx="451" cy="48" stroke="black" stroke-width="2" fill="red"/>
<circle r="2" cx="129" cy="55" stroke="black" stroke-width="2" fill="red"/>
<circle r="2" cx="48" cy="94" stroke="black" stroke-width="2" fill="red"/>
<circle r="2" cx="370" cy="87" stroke="black" stroke-width="2" fill="red"/>
<circle r="2" cx="451" cy="48" stroke="black" stroke-width="2" fill="red"/>
<circle r="2" cx="129" cy="55" stroke="black" stroke-width="2" fill="red"/>
<circle r="2" cx="48" cy="94" stroke="black" stroke-width="2" fill="red"/>
<circle r="2" cx="370" cy="87" stroke="black" stroke-width="2" fill="red"/>
<circle r="2" cx="48" cy="48" stroke="black" stroke-width="2" fill="red"/>
<circle r="2" cx="370" cy="55" stroke="black" stroke-width="2" fill="red"/>
<circle r="2" cx="48" cy="48" stroke="black" stroke-width="2" fill="red"/>
<circle r="2" cx="370" cy="55" stroke="black" stroke-width="2" fill="red"/>
<circle r="2" cx="428" cy="113" stroke="black" stroke-width="2" fill="red"/>
<circle r="2" cx="71" cy="113" stroke="black" stroke-width="2" fill="red"/>
<circle r="2" cx="428" cy="113" stroke="black" stroke-width="2" fill="red"/>
<circle r="2" cx="71" cy="113" stroke="black" stroke-width="2" fill="red"/>
<circle r="2" cx="428" cy="29" stroke="black" stroke-width="2" fill="red"/>
<circle r="2" cx="71" cy="29" stroke="black" stroke-width="2" fill="red"/>
<circle r="2" cx="428" cy="29" stroke="black" stroke-width="2" fill="red"/>
<circle r="2" cx="71" cy="29" stroke="black" stroke-width="2" fill="red"/>
<circle r="2" cx="486" cy="71" stroke="black" stroke-width="2" fill="red"/>
<circle r="2" cx="215" cy="71" stroke="black" stroke-width="2" fill="red"/>
<circle r="2" cx="486" cy="71" stroke="black" stroke-width="2" fill="red"/>
<circle r="2" cx="215" cy="71" stroke="black" stroke-width="2" fill="red"/>
<circle r="2" cx="13" cy="71" stroke="black" stroke-width="2" fill="red"/>
<circle r="2" cx="284" cy="71" stroke="black" stroke-width="2" fill="red"/>
<circle r="2" cx="13" cy="71" stroke="black" stroke-width="2" fill="red"/>
<circle r="2" cx="284" cy="71" stroke="black" stroke-width="2" fill="red"/>
<circle r="2" cx="473" cy="95" stroke="black" stroke-width="2" fill="red"/>
<circle r="2" cx="183" cy="80" stroke="black" stroke-width="2" fill="red"/>
<circle r="2" cx="473" cy="95" stroke="black" stroke-width="2" fill="red"/>
<circle r="2" cx="183" cy="80" stroke="black" stroke-width="2" fill="red"/>
<circle r="2" cx="473" cy="47" stroke="black" stroke-width="2" fill="red"/>
<circle r="2" cx="183" cy="62" stroke="black" stroke-width="2" fill="red"/>
<circle r="2" cx="26" cy="95" stroke="black" stroke-width="2" fill="red"/>
<circle r="2" cx="316" cy="80" stroke="black" stroke-width="2" fill="red"/>
<circle r="2" cx="473" cy="47" stroke="black" stroke-width="2" fill="red"/>
<circle r="2" cx="183" cy="62" stroke="black" stroke-width="2" fill="red"/>
<circle r="2" cx="26" cy="95" stroke="black" stroke-width="2" fill="red"/>
<circle r="2" cx="316" cy="80" stroke="black" stroke-width="2" fill="red"/>
<circle r="2" cx="26" cy="47" stroke="black" stroke-width="2" fill="red"/>
<circle r="2" cx="316" cy="62" stroke="black" stroke-width="2" fill="red"/>
<circle r="2" cx="26" cy="47" stroke="black" stroke-width="2" fill="red"/>
<circle r="2" cx="316" cy="62" stroke="black" stroke-width="2" fill="red"/>
<circle r="2" cx="452" cy="116" stroke="black" stroke-width="2" fill="red"/>
<circle r="2" cx="132" cy="100" stroke="black" stroke-width="2" fill="red"/>
<circle r="2" cx="452" cy="116" stroke="black" stroke-width="2" fill="red"/>
<circle r="2" cx="132" cy="100" stroke="black" stroke-width="2" fill="red"/>
<circle r="2" cx="452" cy="26" stroke="black" stroke-width="2" fill="red"/>
<circle r="2" cx="132" cy="41" stroke="black" stroke-width="2" fill="red"/>
<circle r="2" cx="47" cy="116" stroke="black" stroke-width="2" fill="red"/>
<circle r="2" cx="367" cy="100" stroke="black" stroke-width="2" fill="red"/>
<circle r="2" cx="452" cy="26" stroke="black" stroke-width="2" fill="red"/>
<circle r="2" cx="132" cy="41" stroke="black" stroke-width="2" fill="red"/>
<circle r="2" cx="47" cy="116" stroke="black" stroke-width="2" fill="red"/>
<circle r="2" cx="367" cy="100" stroke="black" stroke-width="2" fill="red"/>
<circle r="2" cx="47" cy="26" stroke="black" stroke-width="2" fill="red"/>
<circle r="2" cx="367" cy="41" stroke="black" stroke-width="2" fill="red"/>
<circle r="2" cx="47" cy="26" stroke="black" stroke-width="2" fill="red"/>
<circle r="2" cx="367" cy="41" stroke="black" stroke-width="2" fill="red"/>
<circle r="2" cx="71" cy="129" stroke="black" stroke-width="2" fill="red"/>
<circle r="2" cx="428" cy="129" stroke="black" stroke-width="2" fill="red"/>
<circle r="2" cx="71" cy="129" stroke="black" stroke-width="2" fill="red"/>
<circle r="2" cx="428" cy="129" stroke="black" stroke-width="2" fill="red"/>
<circle r="2" cx="71" cy="13" stroke="black" stroke-width="2" fill="red"/>
<circle r="2" cx="428" cy="13" stroke="black" stroke-width="2" fill="red"/>
<circle r="2" cx="71" cy="13" stroke="black" stroke-width="2" fill="red"/>
<circle r="2" cx="428" cy="13" stroke="black" stroke-width="2" fill="red"/>
<circle r="2" cx="496" cy="71" stroke="black" stroke-width="2" fill="red"/>
<circle r="2" cx="241" cy="71" stroke="black" stroke-width="2" fill="red"/>
<circle r="2" cx="496" cy="71" stroke="black" stroke-width="2" fill="red"/>
<circle r="2" cx="241" cy="71" stroke="black" stroke-width="2" fill="red"/>
<circle r="2" cx="3" cy="71" stroke="black" stroke-width="2" fill="red"/>
<circle r="2" cx="258" cy="71" stroke="black" stroke-width="2" fill="red"/>
<circle r="2" cx="3" cy="71" stroke="black" stroke-width="2" fill="red"/>
<circle r="2" cx="258" cy="71" stroke="black" stroke-width="2" fill="red"/>
<circle r="2" cx="489" cy="96" stroke="black" stroke-width="2" fill="red"/>
<circle r="2" cx="223" cy="75" stroke="black" stroke-width="2" fill="red"/>
<circle r="2" cx="489" cy="96" stroke="black" stroke-width="2" fill="red"/>
<circle r="2" cx="223" cy="75" stroke="black" stroke-width="2" fill="red"/>
<circle r="2" cx="489" cy="46" stroke="black" stroke-width="2" fill="red"/>
<circle r="2" cx="223" cy="67" stroke="black" stroke-width="2" fill="red"/>
<circle r="2" cx="10" cy="96" stroke="black" stroke-width="2" fill="red"/>
<circle r="2" cx="276" cy="75" stroke="black" stroke-width="2" fill="red"/>
<circle r="2" cx="489" cy="46" stroke="black" stroke-width="2" fill="red"/>
<circle r="2" cx="223" cy="67" stroke="black" stroke-width="2" fill="red"/>
<circle r="2" cx="10" cy="96" stroke="black" stroke-width="2" fill="red"/>
<circle r="2" cx="276" cy="75" stroke="black" stroke-width="2" fill="red"/>
<circle r="2" cx="10" cy="46" stroke="black" stroke-width="2" fill="red"/>
<circle r="2" cx="276" cy="67" stroke="black" stroke-width="2" fill="red"/>
<circle r="2" cx="10" cy="46" stroke="black" stroke-width="2" fill="red"/>
<circle r="2" cx="276" cy="67" stroke="black" stroke-width="2" fill="red"/>
<circle r="2" cx="474" cy="117" stroke="black" stroke-width="2" fill="red"/>
<circle r="2" cx="186" cy="87" stroke="black" stroke-width="2" fill="red"/>
<circle r="2" cx="474" cy="117" stroke="black" stroke-width="2" fill="red"/>
<circle r="2" cx="186" cy="87" stroke="black" stroke-width="2" fill="red"/>
<circle r="2" cx="474" cy="25" stroke="black" stroke-width="2" fill="red"/>
<circle r="2" cx="186" cy="55" stroke="black" stroke-width="2" fill="red"/>
<circle r="2" cx="25" cy="117" stroke="black" stroke-width="2" fill="red"/>
<circle r="2" cx="313" cy="87" stroke="black" stroke-width="2" fill="red"/>
<circle r="2" cx="474" cy="25" stroke="black" stroke-width="2" fill="red"/>
<circle r="2" cx="186" cy="55" stroke="black" stroke-width="2" fill="red"/>
<circle r="2" cx="25" cy="117" stroke="black" stroke-width="2" fill="red"/>
<circle r="2" cx="313" cy="87" stroke="black" stroke-width="2" fill="red"/>
<circle r="2" cx="25" cy="25" stroke="black" stroke-width="2" fill="red"/>
<circle r="2" cx="313" cy="55" stroke="black" stroke-width="2" fill="red"/>
<circle r="2" cx="25" cy="25" stroke="black" stroke-width="2" fill="red"/>
<circle r="2" cx="313" cy="55" stroke="black" stroke-width="2" fill="red"/>
<circle r="2" cx="453" cy="132" stroke="black" stroke-width="2" fill="red"/>
<circle r="2" cx="132" cy="111" stroke="black" stroke-width="2" fill="red"/>
<circle r="2" cx="453" cy="132" stroke="black" stroke-width="2" fill="red"/>
<circle r="2" cx="132" cy="111" stroke="black" stroke-width="2" fill="red"/>
<circle r="2" cx="453" cy="10" stroke="black" stroke-width="2" fill="red"/>
<circle r="2" cx="132" cy="31" stroke="black" stroke-width="2" fill="red"/>
<circle r="2" cx="46" cy="132" stroke="black" stroke-width="2" fill="red"/>
<circle r="2" cx="367" cy="111" stroke="black" stroke-width="2" fill="red"/>
<circle r="2" cx="453" cy="10" stroke="black" stroke-width="2" fill="red"/>
<circle r="2" cx="132" cy="31" stroke="black" stroke-width="2" fill="red"/>
<circle r="2" cx="46" cy="132" stroke="black" stroke-width="2" fill="red"/>
<circle r="2" cx="367" cy="111" stroke="black" stroke-width="2" fill="red"/>
<circle r="2" cx="46" cy="10" stroke="black" stroke-width="2" fill="red"/>
<circle r="2" cx="367" cy="31" stroke="black" stroke-width="2" fill="red"/>
<circle r="2" cx="46" cy="10" stroke="black" stroke-width="2" fill="red"/>
<circle r="2" cx="367" cy="31" stroke="black" stroke-width="2" fill="red"/>
<circle r="2" cx="428" cy="139" stroke="black" stroke-width="2" fill="red"/>
<circle r="2" cx="71" cy="139" stroke="black" stroke-width="2" fill="red"/>
<circle r="2" cx="428" cy="139" stroke="black" stroke-width="2" fill="red"/>
<circle r="2" cx="71" cy="139" stroke="black" stroke-width="2" fill="red"/>
<circle r="2" cx="428" cy="3" stroke="black" stroke-width="2" fill="red"/>
<circle r="2" cx="71" cy="3" stroke="black" stroke-width="2" fill="red"/>
<circle r="2" cx="428" cy="3" stroke="black" stroke-width="2" fill="red"/>
<circle r="2" cx="71" cy="3" stroke="black" stroke-width="2" fill="red"/>
<circle r="2" cx="500" cy="71" stroke="black" stroke-width="2" fill="red"/>
<circle r="2" cx="250" cy="71" stroke="black" stroke-width="2" fill="red"/>
<circle r="2" cx="0" cy="71" stroke="black" stroke-width="2" fill="red"/>
<circle r="2" cx="250" cy="71" stroke="black" stroke-width="2" fill="red"/>
<circle r="2" cx="496" cy="93" stroke="black" stroke-width="2" fill="red"/>
<circle r="2" cx="241" cy="72" stroke="black" stroke-width="2" fill="red"/>
<circle r="2" cx="496" cy="49" stroke="black" stroke-width="2" fill="red"/>
<circle r="2" cx="241" cy="70" stroke="black" stroke-width="2" fill="red"/>
<circle r="2" cx="3" cy="93" stroke="black" stroke-width="2" fill="red"/>
<circle r="2" cx="258" cy="72" stroke="black" stroke-width="2" fill="red"/>
<circle r="2" cx="3" cy="49" stroke="black" stroke-width="2" fill="red"/>
<circle r="2" cx="258" cy="70" stroke="black" stroke-width="2" fill="red"/>
<circle r="2" cx="486" cy="113" stroke="black" stroke-width="2" fill="red"/>
<circle r="2" cx="215" cy="79" stroke="black" stroke-width="2" fill="red"/>
<circle r="2" cx="486" cy="29" stroke="black" stroke-width="2" fill="red"/>
<circle r="2" cx="215" cy="63" stroke="black" stroke-width="2" fill="red"/>
<circle r="2" cx="13" cy="113" stroke="black" stroke-width="2" fill="red"/>
<circle r="2" cx="284" cy="79" stroke="black" stroke-width="2" fill="red"/>
<circle r="2" cx="13" cy="29" stroke="black" stroke-width="2" fill="red"/>
<circle r="2" cx="284" cy="63" stroke="black" stroke-width="2" fill="red"/>
<circle r="2" cx="470" cy="129" stroke="black" stroke-width="2" fill="red"/>
<circle r="2" cx="176" cy="95" stroke="black" stroke-width="2" fill="red"/>
<circle r="2" cx="470" cy="13" stroke="black" stroke-width="2" fill="red"/>
<circle r="2" cx="176" cy="47" stroke="black" stroke-width="2" fill="red"/>
<circle r="2" cx="29" cy="129" stroke="black" stroke-width="2" fill="red"/>
<circle r="2" cx="323" cy="95" stroke="black" stroke-width="2" fill="red"/>
<circle r="2" cx="29" cy="13" stroke="black" stroke-width="2" fill="red"/>
<circle r="2" cx="323" cy="47" stroke="black" stroke-width="2" fill="red"/>
<circle r="2" cx="450" cy="139" stroke="black" stroke-width="2" fill="red"/>
<circle r="2" cx="126" cy="118" stroke="black" stroke-width="2" fill="red"/>
<circle r="2" cx="450" cy="3" stroke="black" stroke-width="2" fill="red"/>
<circle r="2" cx="126" cy="24" stroke="black" stroke-width="2" fill="red"/>
<circle r="2" cx="49" cy="139" stroke="black" stroke-width="2" fill="red"/>
<circle r="2" cx="373" cy="118" stroke="black" stroke-width="2" fill="red"/>
<circle r="2" cx="49" cy="3" stroke="black" stroke-width="2" fill="red"/>
<circle r="2" cx="373" cy="24" stroke="black" stroke-width="2" fill="red"/>
<circle r="2" cx="428" cy="142" stroke="black" stroke-width="2" fill="red"/>
<circle r="2" cx="71" cy="142" stroke="black" stroke-width="2" fill="red"/>
<circle r="2" cx="428" cy="0" stroke="black" stroke-width="2" fill="red"/>
<circle r="2" cx="71" cy="0" stroke="black" stroke-width="2" fill="red"/>
<circle r="2" cx="428" cy="71" stroke="black" stroke-width="2" fill="red"/>
<circle r="2" cx="71" cy="71" stroke="black" stroke-width="2" fill="red"/>
<circle r="2" cx="428" cy="71" stroke="black" stroke-width="2" fill="red"/>
<circle r="2" cx="71" cy="71" stroke="black" stroke-width="2" fill="red"/>
<circle r="2" cx="450" cy="71" stroke="black" stroke-width="2" fill="red"/>
<circle r="2" cx="126" cy="71" stroke="black" stroke-width="2" fill="red"/>
<circle r="2" cx="450" cy="71" stroke="black" stroke-width="2" fill="red"/>
<circle r="2" cx="126" cy="71" stroke="black" stroke-width="2" fill="red"/>
<circle r="2" cx="49" cy="71" stroke="black" stroke-width="2" fill="red"/>
<circle r="2" cx="373" cy="71" stroke="black" stroke-width="2" fill="red"/>
<circle r="2" cx="49" cy="71" stroke="black" stroke-width="2" fill="red"/>
<circle r="2" cx="373" cy="71" stroke="black" stroke-width="2" fill="red"/>
<circle r="2" cx="428" cy="93" stroke="black" stroke-width="2" fill="red"/>
<circle r="2" cx="71" cy="93" stroke="black" stroke-width="2" fill="red"/>
<circle r="2" cx="428" cy="93" stroke="black" stroke-width="2" fill="red"/>
<circle r="2" cx="71" cy="93" stroke="black" stroke-width="2" fill="red"/>
<circle r="2" cx="428" cy="49" stroke="black" stroke-width="2" fill="red"/>
<circle r="2" cx="71" cy="49" stroke="black" stroke-width="2" fill="red"/>
<circle r="2" cx="428" cy="49" stroke="black" stroke-width="2" fill="red"/>
<circle r="2" cx="71" cy="49" stroke="black" stroke-width="2" fill="red"/>
<circle r="2" cx="470" cy="71" stroke="black" stroke-width="2" fill="red"/>
<circle r="2" cx="176" cy="71" stroke="black" stroke-width="2" fill="red"/>
<circle r="2" cx="470" cy="71" stroke="black" stroke-width="2" fill="red"/>
<circle r="2" cx="176" cy="71" stroke="black" stroke-width="2" fill="red"/>
<circle r="2" cx="29" cy="71" stroke="black" stroke-width="2" fill="red"/>
<circle r="2" cx="323" cy="71" stroke="black" stroke-width="2" fill="red"/>
<circle r="2" cx="29" cy="71" stroke="black" stroke-width="2" fill="red"/>
<circle r="2" cx="323" cy="71" stroke="black" stroke-width="2" fill="red"/>
<circle r="2" cx="451" cy="94" stroke="black" stroke-width="2" fill="red"/>
<circle r="2" cx="129" cy="87" stroke="black" stroke-width="2" fill="red"/>
<circle r="2" cx="451" cy="94" stroke="black" stroke-width="2" fill="red"/>
<circle r="2" cx="129" cy="87" stroke="black" stroke-width="2" fill="red"/>
<circle r="2" cx="451" cy="48" stroke="black" stroke-width="2" fill="red"/>
<circle r="2" cx="129" cy="55" stroke="black" stroke-width="2" fill="red"/>
<circle r="2" cx="48" cy="94" stroke="black" stroke-width="2" fill="red"/>
<circle r="2" cx="370" cy="87" stroke="black" stroke-width="2" fill="red"/>
<circle r="2" cx="451" cy="48" stroke="black" stroke-width="2" fill="red"/>
<circle r="2" cx="129" cy="55" stroke="black" stroke-width="2" fill="red"/>
<circle r="2" cx="48" cy="94" stroke="black" stroke-width="2" fill="red"/>
<circle r="2" cx="370" cy="87" stroke="black" stroke-width="2" fill="red"/>
<circle r="2" cx="48" cy="48" stroke="black" stroke-width="2" fill="red"/>
<circle r="2" cx="370" cy="55" stroke="black" stroke-width="2" fill="red"/>
<circle r="2" cx="48" cy="48" stroke="black" stroke-width="2" fill="red"/>
<circle r="2" cx="370" cy="55" stroke="black" stroke-width="2" fill="red"/>
<circle r="2" cx="428" cy="113" stroke="black" stroke-width="2" fill="red"/>
<circle r="2" cx="71" cy="113" stroke="black" stroke-width="2" fill="red"/>
<circle r="2" cx="428" cy="113" stroke="black" stroke-width="2" fill="red"/>
<circle r="2" cx="71" cy="113" stroke="black" stroke-width="2" fill="red"/>
<circle r="2" cx="428" cy="29" stroke="black" stroke-width="2" fill="red"/>
<circle r="2" cx="71" cy="29" stroke="black" stroke-width="2" fill="red"/>
<circle r="2" cx="428" cy="29" stroke="black" stroke-width="2" fill="red"/>
<circle r="2" cx="71" cy="29" stroke="black" stroke-width="2" fill="red"/>
<circle r="2" cx="486" cy="71" stroke="black" stroke-width="2" fill="red"/>
<circle r="2" cx="215" cy="71" stroke="black" stroke-width="2" fill="red"/>
<circle r="2" cx="486" cy="71" stroke="black" stroke-width="2" fill="red"/>
<circle r="2" cx="215" cy="71" stroke="black" stroke-width="2" fill="red"/>
<circle r="2" cx="13" cy="71" stroke="black" stroke-width="2" fill="red"/>
<circle r="2" cx="284" cy="71" stroke="black" stroke-width="2" fill="red"/>
<circle r="2" cx="13" cy="71" stroke="black" stroke-width="2" fill="red"/>
<circle r="2" cx="284" cy="71" stroke="black" stroke-width="2" fill="red"/>
<circle r="2" cx="473" cy="95" stroke="black" stroke-width="2" fill="red"/>
<circle r="2" cx="183" cy="80" stroke="black" stroke-width="2" fill="red"/>
<circle r="2" cx="473" cy="95" stroke="black" stroke-width="2" fill="red"/>
<circle r="2" cx="183" cy="80" stroke="black" stroke-width="2" fill="red"/>
<circle r="2" cx="473" cy="47" stroke="black" stroke-width="2" fill="red"/>
<circle r="2" cx="183" cy="62" stroke="black" stroke-width="2" fill="red"/>
<circle r="2" cx="26" cy="95" stroke="black" stroke-width="2" fill="red"/>
<circle r="2" cx="316" cy="80" stroke="black" stroke-width="2" fill="red"/>
<circle r="2" cx="473" cy="47" stroke="black" stroke-width="2" fill="red"/>
<circle r="2" cx="183" cy="62" stroke="black" stroke-width="2" fill="red"/>
<circle r="2" cx="26" cy="95" stroke="black" stroke-width="2" fill="red"/>
<circle r="2" cx="316" cy="80" stroke="black" stroke-width="2" fill="red"/>
<circle r="2" cx="26" cy="47" stroke="black" stroke-width="2" fill="red"/>
<circle r="2" cx="316" cy="62" stroke="black" stroke-width="2" fill="red"/>
<circle r="2" cx="26" cy="47" stroke="black" stroke-width="2" fill="red"/>
<circle r="2" cx="316" cy="62" stroke="black" stroke-width="2" fill="red"/>
<circle r="2" cx="452" cy="116" stroke="black" stroke-width="2" fill="red"/>
<circle r="2" cx="132" cy="100" stroke="black" stroke-width="2" fill="red"/>
<circle r="2" cx="452" cy="116" stroke="black" stroke-width="2" fill="red"/>
<circle r="2" cx="132" cy="100" stroke="black" stroke-width="2" fill="red"/>
<circle r="2" cx="452" cy="26" stroke="black" stroke-width="2" fill="red"/>
<circle r="2" cx="132" cy="41" stroke="black" stroke-width="2" fill="red"/>
<circle r="2" cx="47" cy="116" stroke="black" stroke-width="2" fill="red"/>
<circle r="2" cx="367" cy="100" stroke="black" stroke-width="2" fill="red"/>
<circle r="2" cx="452" cy="26" stroke="black" stroke-width="2" fill="red"/>
<circle r="2" cx="132" cy="41" stroke="black" stroke-width="2" fill="red"/>
<circle r="2" cx="47" cy="116" stroke="black" stroke-width="2" fill="red"/>
<circle r="2" cx="367" cy="100" stroke="black" stroke-width="2" fill="red"/>
<circle r="2" cx="47" cy="26" stroke="black" stroke-width="2" fill="red"/>
<circle r="2" cx="367" cy="41" stroke="black" stroke-width="2" fill="red"/>
<circle r="2" cx="47" cy="26" stroke="black" stroke-width="2" fill="red"/>
<circle r="2" cx="367" cy="41" stroke="black" stroke-width="2" fill="red"/>
<circle r="2" cx="71" cy="129" stroke="black" stroke-width="2" fill="red"/>
<circle r="2" cx="428" cy="129" stroke="black" stroke-width="2" fill="red"/>
<circle r="2" cx="71" cy="129" stroke="black" stroke-width="2" fill="red"/>
<circle r="2" cx="428" cy="129" stroke="black" stroke-width="2" fill="red"/>
<circle r="2" cx="71" cy="13" stroke="black" stroke-width="2" fill="red"/>
<circle r="2" cx="428" cy="13" stroke="black" stroke-width="2" fill="red"/>
<circle r="2" cx="71" cy="13" stroke="black" stroke-width="2" fill="red"/>
<circle r="2" cx="428" cy="13" stroke="black" stroke-width="2" fill="red"/>
<circle r="2" cx="496" cy="71" stroke="black" stroke-width="2" fill="red"/>
<circle r="2" cx="241" cy="71" stroke="black" stroke-width="2" fill="red"/>
<circle r="2" cx="496" cy="71" stroke="black" stroke-width="2" fill="red"/>
<circle r="2" cx="241" cy="71" stroke="black" stroke-width="2" fill="red"/>
<circle r="2" cx="3" cy="71" stroke="black" stroke-width="2" fill="red"/>
<circle r="2" cx="258" cy="71" stroke="black" stroke-width="2" fill="red"/>
<circle r="2" cx="3" cy="71" stroke="black" stroke-width="2" fill="red"/>
<circle r="2" cx="258" cy="71" stroke="black" stroke-width="2" fill="red"/>
<circle r="2" cx="489" cy="96" stroke="black" stroke-width="2" fill="red"/>
<circle r="2" cx="223" cy="75" stroke="black" stroke-width="2" fill="red"/>
<circle r="2" cx="489" cy="96" stroke="black" stroke-width="2" fill="red"/>
<circle r="2" cx="223" cy="75" stroke="black" stroke-width="2" fill="red"/>
<circle r="2" cx="489" cy="46" stroke="black" stroke-width="2" fill="red"/>
<circle r="2" cx="223" cy="67" stroke="black" stroke-width="2" fill="red"/>
<circle r="2" cx="10" cy="96" stroke="black" stroke-width="2" fill="red"/>
<circle r="2" cx="276" cy="75" stroke="black" stroke-width="2" fill="red"/>
<circle r="2" cx="489" cy="46" stroke="black" stroke-width="2" fill="red"/>
<circle r="2" cx="223" cy="67" stroke="black" stroke-width="2" fill="red"/>
<circle r="2" cx="10" cy="96" stroke="black" stroke-width="2" fill="red"/>
<circle r="2" cx="276" cy="75" stroke="black" stroke-width="2" fill="red"/>
<circle r="2" cx="10" cy="46" stroke="black" stroke-width="2" fill="red"/>
<circle r="2" cx="276" cy="67" stroke="black" stroke-width="2" fill="red"/>
<circle r="2" cx="10" cy="46" stroke="black" stroke-width="2" fill="red"/>
<circle r="2" cx="276" cy="67" stroke="black" stroke-width="2" fill="red"/>
<circle r="2" cx="474" cy="117" stroke="black" stroke-width="2" fill="red"/>
<circle r="2" cx="186" cy="87" stroke="black" stroke-width="2" fill="red"/>
<circle r="2" cx="474" cy="117" stroke="black" stroke-width="2" fill="red"/>
<circle r="2" cx="186" cy="87" stroke="black" stroke-width="2" fill="red"/>
<circle r="2" cx="474" cy="25" stroke="black" stroke-width="2" fill="red"/>
<circle r="2" cx="186" cy="55" stroke="black" stroke-width="2" fill="red"/>
<circle r="2" cx="25" cy="117" stroke="black" stroke-width="2" fill="red"/>
<circle r="2" cx="313" cy="87" stroke="black" stroke-width="2" fill="red"/>
<circle r="2" cx="474" cy="25" stroke="black" stroke-width="2" fill="red"/>
<circle r="2" cx="186" cy="55" stroke="black" stroke-width="2" fill="red"/>
<circle r="2" cx="25" cy="117" stroke="black" stroke-width="2" fill="red"/>
<circle r="2" cx="313" cy="87" stroke="black" stroke-width="2" fill="red"/>
<circle r="2" cx="25" cy="25" stroke="black" stroke-width="2" fill="red"/>
<circle r="2" cx="313" cy="55" stroke="black" stroke-width="2" fill="red"/>
<circle r="2" cx="25" cy="25" stroke="black" stroke-width="2" fill="red"/>
<circle r="2" cx="313" cy="55" stroke="black" stroke-width="2" fill="red"/>
<circle r="2" cx="453" cy="132" stroke="black" stroke-width="2" fill="red"/>
<circle r="2" cx="132" cy="111" stroke="black" stroke-width="2" fill="red"/>
<circle r="2" cx="453" cy="132" stroke="black" stroke-width="2" fill="red"/>
<circle r="2" cx="132" cy="111" stroke="black" stroke-width="2" fill="red"/>
<circle r="2" cx="453" cy="10" stroke="black" stroke-width="2" fill="red"/>
<circle r="2" cx="132" cy="31" stroke="black" stroke-width="2" fill="red"/>
<circle r="2" cx="46" cy="132" stroke="black" stroke-width="2" fill="red"/>
<circle r="2" cx="367" cy="111" stroke="black" stroke-width="2" fill="red"/>
<circle r="2" cx="453" cy="10" stroke="black" stroke-width="2" fill="red"/>
<circle r="2" cx="132" cy="31" stroke="black" stroke-width="2" fill="red"/>
<circle r="2" cx="46" cy="132" stroke="black" stroke-width="2" fill="red"/>
<circle r="2" cx="367" cy="111" stroke="black" stroke-width="2" fill="red"/>
<circle r="2" cx="46" cy="10" stroke="black" stroke-width="2" fill="red"/>
<circle r="2" cx="367" cy="31" stroke="black" stroke-width="2" fill="red"/>
<circle r="2" cx="46" cy="10" stroke="black" stroke-width="2" fill="red"/>
<circle r="2" cx="367" cy="31" stroke="black" stroke-width="2" fill="red"/>
<circle r="2" cx="428" cy="139" stroke="black" stroke-width="2" fill="red"/>
<circle r="2" cx="71" cy="139" stroke="black" stroke-width="2" fill="red"/>
<circle r="2" cx="428" cy="139" stroke="black" stroke-width="2" fill="red"/>
<circle r="2" cx="71" cy="139" stroke="black" stroke-width="2" fill="red"/>
<circle r="2" cx="428" cy="3" stroke="black" stroke-width="2" fill="red"/>
<circle r="2" cx="71" cy="3" stroke="black" stroke-width="2" fill="red"/>
<circle r="2" cx="428" cy="3" stroke="black" stroke-width="2" fill="red"/>
<circle r="2" cx="71" cy="3" stroke="black" stroke-width="2" fill="red"/>
<circle r="2" cx="500" cy="71" stroke="black" stroke-width="2" fill="red"/>
<circle r="2" cx="250" cy="71" stroke="black" stroke-width="2" fill="red"/>
<circle r="2" cx="0" cy="71" stroke="black" stroke-width="2" fill="red"/>
<circle r="2" cx="250" cy="71" stroke="black" stroke-width="2" fill="red"/>
<circle r="2" cx="496" cy="93" stroke="black" stroke-width="2" fill="red"/>
<circle r="2" cx="241" cy="72" stroke="black" stroke-width="2" fill="red"/>
<circle r="2" cx="496" cy="49" stroke="black" stroke-width="2" fill="red"/>
<circle r="2" cx="241" cy="70" stroke="black" stroke-width="2" fill="red"/>
<circle r="2" cx="3" cy="93" stroke="black" stroke-width="2" fill="red"/>
<circle r="2" cx="258" cy="72" stroke="black" stroke-width="2" fill="red"/>
<circle r="2" cx="3" cy="49" stroke="black" stroke-width="2" fill="red"/>
<circle r="2" cx="258" cy="70" stroke="black" stroke-width="2" fill="red"/>
<circle r="2" cx="486" cy="113" stroke="black" stroke-width="2" fill="red"/>
<circle r="2" cx="215" cy="79" stroke="black" stroke-width="2" fill="red"/>
<circle r="2" cx="486" cy="29" stroke="black" stroke-width="2" fill="red"/>
<circle r="2" cx="215" cy="63" stroke="black" stroke-width="2" fill="red"/>
<circle r="2" cx="13" cy="113" stroke="black" stroke-width="2" fill="red"/>
<circle r="2" cx="284" cy="79" stroke="black" stroke-width="2" fill="red"/>
<circle r="2" cx="13" cy="29" stroke="black" stroke-width="2" fill="red"/>
<circle r="2" cx="284" cy="63" stroke="black" stroke-width="2" fill="red"/>
<circle r="2" cx="470" cy="129" stroke="black" stroke-width="2" fill="red"/>
<circle r="2" cx="176" cy="95" stroke="black" stroke-width="2" fill="red"/>
<circle r="2" cx="470" cy="13" stroke="black" stroke-width="2" fill="red"/>
<circle r="2" cx="176" cy="47" stroke="black" stroke-width="2" fill="red"/>
<circle r="2" cx="29" cy="129" stroke="black" stroke-width="2" fill="red"/>
<circle r="2" cx="323" cy="95" stroke="black" stroke-width="2" fill="red"/>
<circle r="2" cx="29" cy="13" stroke="black" stroke-width="2" fill="red"/>
<circle r="2" cx="323" cy="47" stroke="black" stroke-width="2" fill="red"/>
<circle r="2" cx="450" cy="139" stroke="black" stroke-width="2" fill="red"/>
<circle r="2" cx="126" cy="118" stroke="black" stroke-width="2" fill="red"/>
<circle r="2" cx="450" cy="3" stroke="black" stroke-width="2" fill="red"/>
<circle r="2" cx="126" cy="24" stroke="black" stroke-width="2" fill="red"/>
<circle r="2" cx="49" cy="139" stroke="black" stroke-width="2" fill="red"/>
<circle r="2" cx="373" cy="118" stroke="black" stroke-width="2" fill="red"/>
<circle r="2" cx="49" cy="3" stroke="black" stroke-width="2" fill="red"/>
<circle r="2" cx="373" cy="24" stroke="black" stroke-width="2" fill="red"/>
<circle r="2" cx="428" cy="142" stroke="black" stroke-width="2" fill="red"/>
<circle r="2" cx="71" cy="142" stroke="black" stroke-width="2" fill="red"/>
<circle r="2" cx="428" cy="0" stroke="black" stroke-width="2" fill="red"/>
<circle r="2" cx="71" cy="0" stroke="black" stroke-width="2" fill="red"/>
</svg>
