<?xml version="1.0" standalone="no"?>
<svg width="1050" height="1050" version="1.1"
xmlns="http://www.w3.org/2000/svg">
<rect width="1050" height="1050" style="fill:rgb(255,255,255); stroke-width:10;  stroke:rgb(255,255,255)"/>
<circle r="2" cx="78" cy="92" stroke="black" stroke-width="2" fill="red"/>
<circle r="2" cx="145" cy="219" stroke="black" stroke-width="2" fill="red"/>
<circle r="2" cx="301" cy="167" stroke="black" stroke-width="2" fill="red"/>
<circle r="2" cx="157" cy="399" stroke="black" stroke-width="2" fill="red"/>
<circle r="2" cx="358" cy="259" stroke="black" stroke-width="2" fill="red"/>
<circle r="2" cx="197" cy="158" stroke="black" stroke-width="2" fill="red"/>
<circle r="2" cx="143" cy="212" stroke="black" stroke-width="2" fill="red"/>
<circle r="2" cx="210" cy="338" stroke="black" stroke-width="2" fill="red"/>
<circle r="2" cx="433" cy="153" stroke="black" stroke-width="2" fill="red"/>
<circle r="2" cx="219" cy="420" stroke="black" stroke-width="2" fill="red"/>
<circle r="2" cx="147" cy="141" stroke="black" stroke-width="2" fill="red"/>
<circle r="2" cx="214" cy="268" stroke="black" stroke-width="2" fill="red"/>
<circle r="2" cx="204" cy="233" stroke="black" stroke-width="2" fill="red"/>
<circle r="2" cx="271" cy="359" stroke="black" stroke-width="2" fill="red"/>
<circle r="2" cx="427" cy="308" stroke="black" stroke-width="2" fill="red"/>
<circle r="2" cx="56" cy="312" stroke="black" stroke-width="2" fill="red"/>
<circle r="2" cx="290" cy="105" stroke="black" stroke-width="2" fill="red"/>
<circle r="2" cx="357" cy="232" stroke="black" stroke-width="2" fill="red"/>
<circle r="2" cx="232" cy="321" stroke="black" stroke-width="2" fill="red"/>
<circle r="2" cx="300" cy="447" stroke="black" stroke-width="2" fill="red"/>
<circle r="2" cx="273" cy="79" stroke="black" stroke-width="2" fill="red"/>
<circle r="2" cx="129" cy="311" stroke="black" stroke-width="2" fill="red"/>
<circle r="2" cx="285" cy="260" stroke="black" stroke-width="2" fill="red"/>
<circle r="2" cx="352" cy="386" stroke="black" stroke-width="2" fill="red"/>
<circle r="2" cx="364" cy="307" stroke="black" stroke-width="2" fill="red"/>
<circle r="2" cx="158" cy="160" stroke="black" stroke-width="2" fill="red"/>
<circle r="2" cx="314" cy="109" stroke="black" stroke-width="2" fill="red"/>
<circle r="2" cx="77" cy="387" stroke="black" stroke-width="2" fill="red"/>
<circle r="2" cx="278" cy="247" stroke="black" stroke-width="2" fill="red"/>
<circle r="2" cx="345" cy="374" stroke="black" stroke-width="2" fill="red"/>
<circle r="2" cx="63" cy="200" stroke="black" stroke-width="2" fill="red"/>
<circle r="2" cx="130" cy="326" stroke="black" stroke-width="2" fill="red"/>
<circle r="2" cx="369" cy="108" stroke="black" stroke-width="2" fill="red"/>
<circle r="2" cx="226" cy="340" stroke="black" stroke-width="2" fill="red"/>
<circle r="2" cx="382" cy="289" stroke="black" stroke-width="2" fill="red"/>
<circle r="2" cx="221" cy="188" stroke="black" stroke-width="2" fill="red"/>
<circle r="2" cx="141" cy="188" stroke="black" stroke-width="2" fill="red"/>
<circle r="2" cx="208" cy="314" stroke="black" stroke-width="2" fill="red"/>
<circle r="2" cx="364" cy="263" stroke="black" stroke-width="2" fill="red"/>
<circle r="2" cx="221" cy="495" stroke="black" stroke-width="2" fill="red"/>
<circle r="2" cx="216" cy="82" stroke="black" stroke-width="2" fill="red"/>
<circle r="2" cx="283" cy="209" stroke="black" stroke-width="2" fill="red"/>
<circle r="2" cx="228" cy="263" stroke="black" stroke-width="2" fill="red"/>
<circle r="2" cx="295" cy="389" stroke="black" stroke-width="2" fill="red"/>
<circle r="2" cx="496" cy="249" stroke="black" stroke-width="2" fill="red"/>
<circle r="2" cx="54" cy="288" stroke="black" stroke-width="2" fill="red"/>
<circle r="2" cx="211" cy="237" stroke="black" stroke-width="2" fill="red"/>
<circle r="2" cx="278" cy="363" stroke="black" stroke-width="2" fill="red"/>
<circle r="2" cx="301" cy="262" stroke="black" stroke-width="2" fill="red"/>
<circle r="2" cx="368" cy="388" stroke="black" stroke-width="2" fill="red"/>
<circle r="2" cx="251" cy="64" stroke="black" stroke-width="2" fill="red"/>
<circle r="2" cx="107" cy="296" stroke="black" stroke-width="2" fill="red"/>
<circle r="2" cx="308" cy="155" stroke="black" stroke-width="2" fill="red"/>
<circle r="2" cx="375" cy="282" stroke="black" stroke-width="2" fill="red"/>
<circle r="2" cx="227" cy="383" stroke="black" stroke-width="2" fill="red"/>
<circle r="2" cx="66" cy="282" stroke="black" stroke-width="2" fill="red"/>
<circle r="2" cx="289" cy="97" stroke="black" stroke-width="2" fill="red"/>
<circle r="2" cx="146" cy="329" stroke="black" stroke-width="2" fill="red"/>
<circle r="2" cx="302" cy="277" stroke="black" stroke-width="2" fill="red"/>
<circle r="2" cx="369" cy="404" stroke="black" stroke-width="2" fill="red"/>
<circle r="2" cx="131" cy="141" stroke="black" stroke-width="2" fill="red"/>
<circle r="2" cx="198" cy="268" stroke="black" stroke-width="2" fill="red"/>
<circle r="2" cx="354" cy="216" stroke="black" stroke-width="2" fill="red"/>
<circle r="2" cx="140" cy="483" stroke="black" stroke-width="2" fill="red"/>
<circle r="2" cx="383" cy="260" stroke="black" stroke-width="2" fill="red"/>
<circle r="2" cx="222" cy="158" stroke="black" stroke-width="2" fill="red"/>
<circle r="2" cx="168" cy="212" stroke="black" stroke-width="2" fill="red"/>
<circle r="2" cx="235" cy="339" stroke="black" stroke-width="2" fill="red"/>
<circle r="2" cx="435" cy="199" stroke="black" stroke-width="2" fill="red"/>
<circle r="2" cx="292" cy="430" stroke="black" stroke-width="2" fill="red"/>
<circle r="2" cx="220" cy="151" stroke="black" stroke-width="2" fill="red"/>
<circle r="2" cx="287" cy="278" stroke="black" stroke-width="2" fill="red"/>
<circle r="2" cx="229" cy="234" stroke="black" stroke-width="2" fill="red"/>
<circle r="2" cx="296" cy="360" stroke="black" stroke-width="2" fill="red"/>
<circle r="2" cx="452" cy="309" stroke="black" stroke-width="2" fill="red"/>
<circle r="2" cx="36" cy="267" stroke="black" stroke-width="2" fill="red"/>
<circle r="2" cx="236" cy="127" stroke="black" stroke-width="2" fill="red"/>
<circle r="2" cx="303" cy="254" stroke="black" stroke-width="2" fill="red"/>
<circle r="2" cx="249" cy="308" stroke="black" stroke-width="2" fill="red"/>
<circle r="2" cx="316" cy="434" stroke="black" stroke-width="2" fill="red"/>
<circle r="2" cx="322" cy="0" stroke="black" stroke-width="2" fill="red"/>
<circle r="2" cx="77" cy="282" stroke="black" stroke-width="2" fill="red"/>
<circle r="2" cx="233" cy="231" stroke="black" stroke-width="2" fill="red"/>
<circle r="2" cx="300" cy="357" stroke="black" stroke-width="2" fill="red"/>
<circle r="2" cx="290" cy="322" stroke="black" stroke-width="2" fill="red"/>
<circle r="2" cx="130" cy="221" stroke="black" stroke-width="2" fill="red"/>
<circle r="2" cx="286" cy="170" stroke="black" stroke-width="2" fill="red"/>
<circle r="2" cx="142" cy="401" stroke="black" stroke-width="2" fill="red"/>
<circle r="2" cx="365" cy="217" stroke="black" stroke-width="2" fill="red"/>
<circle r="2" cx="432" cy="343" stroke="black" stroke-width="2" fill="red"/>
<circle r="2" cx="80" cy="205" stroke="black" stroke-width="2" fill="red"/>
<circle r="2" cx="147" cy="331" stroke="black" stroke-width="2" fill="red"/>
<circle r="2" cx="347" cy="191" stroke="black" stroke-width="2" fill="red"/>
<circle r="2" cx="204" cy="423" stroke="black" stroke-width="2" fill="red"/>
<circle r="2" cx="360" cy="371" stroke="black" stroke-width="2" fill="red"/>
<circle r="2" cx="200" cy="270" stroke="black" stroke-width="2" fill="red"/>
<circle r="2" cx="228" cy="158" stroke="black" stroke-width="2" fill="red"/>
<circle r="2" cx="295" cy="284" stroke="black" stroke-width="2" fill="red"/>
<circle r="2" cx="451" cy="233" stroke="black" stroke-width="2" fill="red"/>
<circle r="2" cx="238" cy="500" stroke="black" stroke-width="2" fill="red"/>
<circle r="2" cx="165" cy="86" stroke="black" stroke-width="2" fill="red"/>
<circle r="2" cx="232" cy="213" stroke="black" stroke-width="2" fill="red"/>
<circle r="2" cx="178" cy="267" stroke="black" stroke-width="2" fill="red"/>
<circle r="2" cx="245" cy="393" stroke="black" stroke-width="2" fill="red"/>
<circle r="2" cx="467" cy="208" stroke="black" stroke-width="2" fill="red"/>
<circle r="2" cx="96" cy="213" stroke="black" stroke-width="2" fill="red"/>
<circle r="2" cx="252" cy="161" stroke="black" stroke-width="2" fill="red"/>
<circle r="2" cx="320" cy="288" stroke="black" stroke-width="2" fill="red"/>
<circle r="2" cx="216" cy="300" stroke="black" stroke-width="2" fill="red"/>
<circle r="2" cx="283" cy="426" stroke="black" stroke-width="2" fill="red"/>
<circle r="2" cx="211" cy="147" stroke="black" stroke-width="2" fill="red"/>
<circle r="2" cx="68" cy="379" stroke="black" stroke-width="2" fill="red"/>
<circle r="2" cx="302" cy="172" stroke="black" stroke-width="2" fill="red"/>
<circle r="2" cx="369" cy="298" stroke="black" stroke-width="2" fill="red"/>
<circle r="2" cx="314" cy="352" stroke="black" stroke-width="2" fill="red"/>
<circle r="2" cx="154" cy="251" stroke="black" stroke-width="2" fill="red"/>
<circle r="2" cx="354" cy="111" stroke="black" stroke-width="2" fill="red"/>
<circle r="2" cx="140" cy="378" stroke="black" stroke-width="2" fill="red"/>
<circle r="2" cx="297" cy="326" stroke="black" stroke-width="2" fill="red"/>
<circle r="2" cx="364" cy="453" stroke="black" stroke-width="2" fill="red"/>
<circle r="2" cx="148" cy="146" stroke="black" stroke-width="2" fill="red"/>
<circle r="2" cx="215" cy="272" stroke="black" stroke-width="2" fill="red"/>
<circle r="2" cx="371" cy="221" stroke="black" stroke-width="2" fill="red"/>
<circle r="2" cx="228" cy="453" stroke="black" stroke-width="2" fill="red"/>
<circle r="2" cx="428" cy="313" stroke="black" stroke-width="2" fill="red"/>
<circle r="2" cx="213" cy="157" stroke="black" stroke-width="2" fill="red"/>
<circle r="2" cx="88" cy="246" stroke="black" stroke-width="2" fill="red"/>
<circle r="2" cx="156" cy="372" stroke="black" stroke-width="2" fill="red"/>
<circle r="2" cx="399" cy="146" stroke="black" stroke-width="2" fill="red"/>
<circle r="2" cx="256" cy="378" stroke="black" stroke-width="2" fill="red"/>
<circle r="2" cx="184" cy="99" stroke="black" stroke-width="2" fill="red"/>
<circle r="2" cx="251" cy="225" stroke="black" stroke-width="2" fill="red"/>
<circle r="2" cx="241" cy="190" stroke="black" stroke-width="2" fill="red"/>
<circle r="2" cx="308" cy="317" stroke="black" stroke-width="2" fill="red"/>
<circle r="2" cx="464" cy="265" stroke="black" stroke-width="2" fill="red"/>
<circle r="2" cx="0" cy="316" stroke="black" stroke-width="2" fill="red"/>
<circle r="2" cx="222" cy="132" stroke="black" stroke-width="2" fill="red"/>
<circle r="2" cx="289" cy="258" stroke="black" stroke-width="2" fill="red"/>
<circle r="2" cx="235" cy="312" stroke="black" stroke-width="2" fill="red"/>
<circle r="2" cx="302" cy="439" stroke="black" stroke-width="2" fill="red"/>
<circle r="2" cx="275" cy="71" stroke="black" stroke-width="2" fill="red"/>
<circle r="2" cx="131" cy="303" stroke="black" stroke-width="2" fill="red"/>
<circle r="2" cx="287" cy="251" stroke="black" stroke-width="2" fill="red"/>
<circle r="2" cx="355" cy="378" stroke="black" stroke-width="2" fill="red"/>
<circle r="2" cx="307" cy="311" stroke="black" stroke-width="2" fill="red"/>
<circle r="2" cx="147" cy="210" stroke="black" stroke-width="2" fill="red"/>
<circle r="2" cx="303" cy="159" stroke="black" stroke-width="2" fill="red"/>
<circle r="2" cx="160" cy="390" stroke="black" stroke-width="2" fill="red"/>
<circle r="2" cx="360" cy="250" stroke="black" stroke-width="2" fill="red"/>
<circle r="2" cx="427" cy="377" stroke="black" stroke-width="2" fill="red"/>
<circle r="2" cx="99" cy="158" stroke="black" stroke-width="2" fill="red"/>
<circle r="2" cx="167" cy="284" stroke="black" stroke-width="2" fill="red"/>
<circle r="2" cx="389" cy="99" stroke="black" stroke-width="2" fill="red"/>
<circle r="2" cx="176" cy="366" stroke="black" stroke-width="2" fill="red"/>
<circle r="2" cx="332" cy="315" stroke="black" stroke-width="2" fill="red"/>
<circle r="2" cx="171" cy="214" stroke="black" stroke-width="2" fill="red"/>
<circle r="2" cx="161" cy="179" stroke="black" stroke-width="2" fill="red"/>
<circle r="2" cx="228" cy="305" stroke="black" stroke-width="2" fill="red"/>
<circle r="2" cx="384" cy="254" stroke="black" stroke-width="2" fill="red"/>
<circle r="2" cx="241" cy="486" stroke="black" stroke-width="2" fill="red"/>
<circle r="2" cx="253" cy="40" stroke="black" stroke-width="2" fill="red"/>
<circle r="2" cx="320" cy="166" stroke="black" stroke-width="2" fill="red"/>
<circle r="2" cx="164" cy="271" stroke="black" stroke-width="2" fill="red"/>
<circle r="2" cx="231" cy="398" stroke="black" stroke-width="2" fill="red"/>
<circle r="2" cx="431" cy="257" stroke="black" stroke-width="2" fill="red"/>
<circle r="2" cx="60" cy="262" stroke="black" stroke-width="2" fill="red"/>
<circle r="2" cx="216" cy="210" stroke="black" stroke-width="2" fill="red"/>
<circle r="2" cx="283" cy="337" stroke="black" stroke-width="2" fill="red"/>
<circle r="2" cx="295" cy="257" stroke="black" stroke-width="2" fill="red"/>
<circle r="2" cx="363" cy="384" stroke="black" stroke-width="2" fill="red"/>
<circle r="2" cx="291" cy="105" stroke="black" stroke-width="2" fill="red"/>
<circle r="2" cx="77" cy="372" stroke="black" stroke-width="2" fill="red"/>
<circle r="2" cx="278" cy="231" stroke="black" stroke-width="2" fill="red"/>
<circle r="2" cx="345" cy="358" stroke="black" stroke-width="2" fill="red"/>
<circle r="2" cx="290" cy="412" stroke="black" stroke-width="2" fill="red"/>
<circle r="2" cx="84" cy="265" stroke="black" stroke-width="2" fill="red"/>
<circle r="2" cx="318" cy="58" stroke="black" stroke-width="2" fill="red"/>
<circle r="2" cx="175" cy="290" stroke="black" stroke-width="2" fill="red"/>
<circle r="2" cx="331" cy="239" stroke="black" stroke-width="2" fill="red"/>
<circle r="2" cx="398" cy="365" stroke="black" stroke-width="2" fill="red"/>
<circle r="2" cx="90" cy="138" stroke="black" stroke-width="2" fill="red"/>
<circle r="2" cx="157" cy="264" stroke="black" stroke-width="2" fill="red"/>
<circle r="2" cx="313" cy="213" stroke="black" stroke-width="2" fill="red"/>
<circle r="2" cx="170" cy="445" stroke="black" stroke-width="2" fill="red"/>
<circle r="2" cx="392" cy="260" stroke="black" stroke-width="2" fill="red"/>
<circle r="2" cx="232" cy="159" stroke="black" stroke-width="2" fill="red"/>
<circle r="2" cx="177" cy="213" stroke="black" stroke-width="2" fill="red"/>
<circle r="2" cx="244" cy="339" stroke="black" stroke-width="2" fill="red"/>
<circle r="2" cx="445" cy="199" stroke="black" stroke-width="2" fill="red"/>
<circle r="2" cx="208" cy="478" stroke="black" stroke-width="2" fill="red"/>
<circle r="2" cx="136" cy="199" stroke="black" stroke-width="2" fill="red"/>
<circle r="2" cx="203" cy="325" stroke="black" stroke-width="2" fill="red"/>
<circle r="2" cx="235" cy="207" stroke="black" stroke-width="2" fill="red"/>
<circle r="2" cx="302" cy="333" stroke="black" stroke-width="2" fill="red"/>
<circle r="2" cx="458" cy="282" stroke="black" stroke-width="2" fill="red"/>
<circle r="2" cx="87" cy="286" stroke="black" stroke-width="2" fill="red"/>
<circle r="2" cx="287" cy="146" stroke="black" stroke-width="2" fill="red"/>
<circle r="2" cx="355" cy="272" stroke="black" stroke-width="2" fill="red"/>
<circle r="2" cx="230" cy="361" stroke="black" stroke-width="2" fill="red"/>
<circle r="2" cx="297" cy="488" stroke="black" stroke-width="2" fill="red"/>
</svg>
