<?xml version="1.0" standalone="no"?>
<svg width="1050" height="1050" version="1.1"
xmlns="http://www.w3.org/2000/svg">
<rect width="1050" height="1050" style="fill:rgb(255,255,255); stroke-width:10;  stroke:rgb(255,255,255)"/>
<circle r="2" cx="0" cy="250" stroke="black" stroke-width="2" fill="red"/>
<circle r="2" cx="0" cy="124" stroke="black" stroke-width="2" fill="red"/>
<circle r="2" cx="1" cy="377" stroke="black" stroke-width="2" fill="red"/>
<circle r="2" cx="1" cy="61" stroke="black" stroke-width="2" fill="red"/>
<circle r="2" cx="2" cy="314" stroke="black" stroke-width="2" fill="red"/>
<circle r="2" cx="2" cy="187" stroke="black" stroke-width="2" fill="red"/>
<circle r="2" cx="3" cy="440" stroke="black" stroke-width="2" fill="red"/>
<circle r="2" cx="3" cy="29" stroke="black" stroke-width="2" fill="red"/>
<circle r="2" cx="4" cy="282" stroke="black" stroke-width="2" fill="red"/>
<circle r="2" cx="4" cy="156" stroke="black" stroke-width="2" fill="red"/>
<circle r="2" cx="5" cy="409" stroke="black" stroke-width="2" fill="red"/>
<circle r="2" cx="5" cy="92" stroke="black" stroke-width="2" fill="red"/>
<circle r="2" cx="6" cy="345" stroke="black" stroke-width="2" fill="red"/>
<circle r="2" cx="6" cy="219" stroke="black" stroke-width="2" fill="red"/>
<circle r="2" cx="7" cy="472" stroke="black" stroke-width="2" fill="red"/>
<circle r="2" cx="7" cy="13" stroke="black" stroke-width="2" fill="red"/>
<circle r="2" cx="8" cy="266" stroke="black" stroke-width="2" fill="red"/>
<circle r="2" cx="8" cy="140" stroke="black" stroke-width="2" fill="red"/>
<circle r="2" cx="9" cy="393" stroke="black" stroke-width="2" fill="red"/>
<circle r="2" cx="9" cy="77" stroke="black" stroke-width="2" fill="red"/>
<circle r="2" cx="10" cy="330" stroke="black" stroke-width="2" fill="red"/>
<circle r="2" cx="10" cy="203" stroke="black" stroke-width="2" fill="red"/>
<circle r="2" cx="11" cy="456" stroke="black" stroke-width="2" fill="red"/>
<circle r="2" cx="11" cy="45" stroke="black" stroke-width="2" fill="red"/>
<circle r="2" cx="12" cy="298" stroke="black" stroke-width="2" fill="red"/>
<circle r="2" cx="12" cy="171" stroke="black" stroke-width="2" fill="red"/>
<circle r="2" cx="13" cy="424" stroke="black" stroke-width="2" fill="red"/>
<circle r="2" cx="13" cy="108" stroke="black" stroke-width="2" fill="red"/>
<circle r="2" cx="14" cy="361" stroke="black" stroke-width="2" fill="red"/>
<circle r="2" cx="14" cy="235" stroke="black" stroke-width="2" fill="red"/>
<circle r="2" cx="15" cy="488" stroke="black" stroke-width="2" fill="red"/>
<circle r="2" cx="15" cy="5" stroke="black" stroke-width="2" fill="red"/>
<circle r="2" cx="16" cy="258" stroke="black" stroke-width="2" fill="red"/>
<circle r="2" cx="16" cy="132" stroke="black" stroke-width="2" fill="red"/>
<circle r="2" cx="17" cy="385" stroke="black" stroke-width="2" fill="red"/>
<circle r="2" cx="17" cy="69" stroke="black" stroke-width="2" fill="red"/>
<circle r="2" cx="18" cy="322" stroke="black" stroke-width="2" fill="red"/>
<circle r="2" cx="18" cy="195" stroke="black" stroke-width="2" fill="red"/>
<circle r="2" cx="19" cy="448" stroke="black" stroke-width="2" fill="red"/>
<circle r="2" cx="19" cy="37" stroke="black" stroke-width="2" fill="red"/>
<circle r="2" cx="20" cy="290" stroke="black" stroke-width="2" fill="red"/>
<circle r="2" cx="20" cy="164" stroke="black" stroke-width="2" fill="red"/>
<circle r="2" cx="21" cy="416" stroke="black" stroke-width="2" fill="red"/>
<circle r="2" cx="21" cy="100" stroke="black" stroke-width="2" fill="red"/>
<circle r="2" cx="22" cy="353" stroke="black" stroke-width="2" fill="red"/>
<circle r="2" cx="22" cy="227" stroke="black" stroke-width="2" fill="red"/>
<circle r="2" cx="23" cy="480" stroke="black" stroke-width="2" fill="red"/>
<circle r="2" cx="23" cy="21" stroke="black" stroke-width="2" fill="red"/>
<circle r="2" cx="24" cy="274" stroke="black" stroke-width="2" fill="red"/>
<circle r="2" cx="24" cy="148" stroke="black" stroke-width="2" fill="red"/>
<circle r="2" cx="25" cy="401" stroke="black" stroke-width="2" fill="red"/>
<circle r="2" cx="25" cy="84" stroke="black" stroke-width="2" fill="red"/>
<circle r="2" cx="26" cy="337" stroke="black" stroke-width="2" fill="red"/>
<circle r="2" cx="26" cy="211" stroke="black" stroke-width="2" fill="red"/>
<circle r="2" cx="27" cy="464" stroke="black" stroke-width="2" fill="red"/>
<circle r="2" cx="27" cy="53" stroke="black" stroke-width="2" fill="red"/>
<circle r="2" cx="28" cy="306" stroke="black" stroke-width="2" fill="red"/>
<circle r="2" cx="28" cy="179" stroke="black" stroke-width="2" fill="red"/>
<circle r="2" cx="29" cy="432" stroke="black" stroke-width="2" fill="red"/>
<circle r="2" cx="29" cy="116" stroke="black" stroke-width="2" fill="red"/>
<circle r="2" cx="30" cy="369" stroke="black" stroke-width="2" fill="red"/>
<circle r="2" cx="30" cy="243" stroke="black" stroke-width="2" fill="red"/>
<circle r="2" cx="31" cy="496" stroke="black" stroke-width="2" fill="red"/>
<circle r="2" cx="31" cy="1" stroke="black" stroke-width="2" fill="red"/>
<circle r="2" cx="32" cy="254" stroke="black" stroke-width="2" fill="red"/>
<circle r="2" cx="32" cy="128" stroke="black" stroke-width="2" fill="red"/>
<circle r="2" cx="33" cy="381" stroke="black" stroke-width="2" fill="red"/>
<circle r="2" cx="33" cy="65" stroke="black" stroke-width="2" fill="red"/>
<circle r="2" cx="34" cy="318" stroke="black" stroke-width="2" fill="red"/>
<circle r="2" cx="34" cy="191" stroke="black" stroke-width="2" fill="red"/>
<circle r="2" cx="35" cy="444" stroke="black" stroke-width="2" fill="red"/>
<circle r="2" cx="35" cy="33" stroke="black" stroke-width="2" fill="red"/>
<circle r="2" cx="36" cy="286" stroke="black" stroke-width="2" fill="red"/>
<circle r="2" cx="36" cy="160" stroke="black" stroke-width="2" fill="red"/>
<circle r="2" cx="37" cy="413" stroke="black" stroke-width="2" fill="red"/>
<circle r="2" cx="37" cy="96" stroke="black" stroke-width="2" fill="red"/>
<circle r="2" cx="38" cy="349" stroke="black" stroke-width="2" fill="red"/>
<circle r="2" cx="38" cy="223" stroke="black" stroke-width="2" fill="red"/>
<circle r="2" cx="39" cy="476" stroke="black" stroke-width="2" fill="red"/>
<circle r="2" cx="39" cy="17" stroke="black" stroke-width="2" fill="red"/>
<circle r="2" cx="40" cy="270" stroke="black" stroke-width="2" fill="red"/>
<circle r="2" cx="40" cy="144" stroke="black" stroke-width="2" fill="red"/>
<circle r="2" cx="41" cy="397" stroke="black" stroke-width="2" fill="red"/>
<circle r="2" cx="41" cy="81" stroke="black" stroke-width="2" fill="red"/>
<circle r="2" cx="42" cy="333" stroke="black" stroke-width="2" fill="red"/>
<circle r="2" cx="43" cy="207" stroke="black" stroke-width="2" fill="red"/>
<circle r="2" cx="43" cy="460" stroke="black" stroke-width="2" fill="red"/>
<circle r="2" cx="44" cy="49" stroke="black" stroke-width="2" fill="red"/>
<circle r="2" cx="44" cy="302" stroke="black" stroke-width="2" fill="red"/>
<circle r="2" cx="45" cy="175" stroke="black" stroke-width="2" fill="red"/>
<circle r="2" cx="45" cy="428" stroke="black" stroke-width="2" fill="red"/>
<circle r="2" cx="46" cy="112" stroke="black" stroke-width="2" fill="red"/>
<circle r="2" cx="46" cy="365" stroke="black" stroke-width="2" fill="red"/>
<circle r="2" cx="47" cy="239" stroke="black" stroke-width="2" fill="red"/>
<circle r="2" cx="47" cy="492" stroke="black" stroke-width="2" fill="red"/>
<circle r="2" cx="48" cy="9" stroke="black" stroke-width="2" fill="red"/>
<circle r="2" cx="48" cy="262" stroke="black" stroke-width="2" fill="red"/>
<circle r="2" cx="49" cy="136" stroke="black" stroke-width="2" fill="red"/>
<circle r="2" cx="49" cy="389" stroke="black" stroke-width="2" fill="red"/>
<circle r="2" cx="50" cy="73" stroke="black" stroke-width="2" fill="red"/>
<circle r="2" cx="50" cy="326" stroke="black" stroke-width="2" fill="red"/>
<circle r="2" cx="51" cy="199" stroke="black" stroke-width="2" fill="red"/>
<circle r="2" cx="51" cy="452" stroke="black" stroke-width="2" fill="red"/>
<circle r="2" cx="52" cy="41" stroke="black" stroke-width="2" fill="red"/>
<circle r="2" cx="52" cy="294" stroke="black" stroke-width="2" fill="red"/>
<circle r="2" cx="53" cy="167" stroke="black" stroke-width="2" fill="red"/>
<circle r="2" cx="53" cy="420" stroke="black" stroke-width="2" fill="red"/>
<circle r="2" cx="54" cy="104" stroke="black" stroke-width="2" fill="red"/>
<circle r="2" cx="54" cy="357" stroke="black" stroke-width="2" fill="red"/>
<circle r="2" cx="55" cy="231" stroke="black" stroke-width="2" fill="red"/>
<circle r="2" cx="55" cy="484" stroke="black" stroke-width="2" fill="red"/>
<circle r="2" cx="56" cy="25" stroke="black" stroke-width="2" fill="red"/>
<circle r="2" cx="56" cy="278" stroke="black" stroke-width="2" fill="red"/>
<circle r="2" cx="57" cy="152" stroke="black" stroke-width="2" fill="red"/>
<circle r="2" cx="57" cy="405" stroke="black" stroke-width="2" fill="red"/>
<circle r="2" cx="58" cy="88" stroke="black" stroke-width="2" fill="red"/>
<circle r="2" cx="58" cy="341" stroke="black" stroke-width="2" fill="red"/>
<circle r="2" cx="59" cy="215" stroke="black" stroke-width="2" fill="red"/>
<circle r="2" cx="59" cy="468" stroke="black" stroke-width="2" fill="red"/>
<circle r="2" cx="60" cy="57" stroke="black" stroke-width="2" fill="red"/>
<circle r="2" cx="60" cy="310" stroke="black" stroke-width="2" fill="red"/>
<circle r="2" cx="61" cy="183" stroke="black" stroke-width="2" fill="red"/>
<circle r="2" cx="61" cy="436" stroke="black" stroke-width="2" fill="red"/>
<circle r="2" cx="62" cy="120" stroke="black" stroke-width="2" fill="red"/>
<circle r="2" cx="62" cy="373" stroke="black" stroke-width="2" fill="red"/>
<circle r="2" cx="63" cy="247" stroke="black" stroke-width="2" fill="red"/>
<circle r="2" cx="63" cy="500" stroke="black" stroke-width="2" fill="red"/>
<circle r="2" cx="64" cy="0" stroke="black" stroke-width="2" fill="red"/>
<circle r="2" cx="64" cy="252" stroke="black" stroke-width="2" fill="red"/>
<circle r="2" cx="65" cy="126" stroke="black" stroke-width="2" fill="red"/>
<circle r="2" cx="65" cy="379" stroke="black" stroke-width="2" fill="red"/>
<circle r="2" cx="66" cy="63" stroke="black" stroke-width="2" fill="red"/>
<circle r="2" cx="66" cy="316" stroke="black" stroke-width="2" fill="red"/>
<circle r="2" cx="67" cy="189" stroke="black" stroke-width="2" fill="red"/>
<circle r="2" cx="67" cy="442" stroke="black" stroke-width="2" fill="red"/>
<circle r="2" cx="68" cy="31" stroke="black" stroke-width="2" fill="red"/>
<circle r="2" cx="68" cy="284" stroke="black" stroke-width="2" fill="red"/>
<circle r="2" cx="69" cy="158" stroke="black" stroke-width="2" fill="red"/>
<circle r="2" cx="69" cy="411" stroke="black" stroke-width="2" fill="red"/>
<circle r="2" cx="70" cy="94" stroke="black" stroke-width="2" fill="red"/>
<circle r="2" cx="70" cy="347" stroke="black" stroke-width="2" fill="red"/>
<circle r="2" cx="71" cy="221" stroke="black" stroke-width="2" fill="red"/>
<circle r="2" cx="71" cy="474" stroke="black" stroke-width="2" fill="red"/>
<circle r="2" cx="72" cy="15" stroke="black" stroke-width="2" fill="red"/>
<circle r="2" cx="72" cy="268" stroke="black" stroke-width="2" fill="red"/>
<circle r="2" cx="73" cy="142" stroke="black" stroke-width="2" fill="red"/>
<circle r="2" cx="73" cy="395" stroke="black" stroke-width="2" fill="red"/>
<circle r="2" cx="74" cy="79" stroke="black" stroke-width="2" fill="red"/>
<circle r="2" cx="74" cy="332" stroke="black" stroke-width="2" fill="red"/>
<circle r="2" cx="75" cy="205" stroke="black" stroke-width="2" fill="red"/>
<circle r="2" cx="75" cy="458" stroke="black" stroke-width="2" fill="red"/>
<circle r="2" cx="76" cy="47" stroke="black" stroke-width="2" fill="red"/>
<circle r="2" cx="76" cy="300" stroke="black" stroke-width="2" fill="red"/>
<circle r="2" cx="77" cy="173" stroke="black" stroke-width="2" fill="red"/>
<circle r="2" cx="77" cy="426" stroke="black" stroke-width="2" fill="red"/>
<circle r="2" cx="78" cy="110" stroke="black" stroke-width="2" fill="red"/>
<circle r="2" cx="78" cy="363" stroke="black" stroke-width="2" fill="red"/>
<circle r="2" cx="79" cy="237" stroke="black" stroke-width="2" fill="red"/>
<circle r="2" cx="79" cy="490" stroke="black" stroke-width="2" fill="red"/>
<circle r="2" cx="80" cy="7" stroke="black" stroke-width="2" fill="red"/>
<circle r="2" cx="80" cy="260" stroke="black" stroke-width="2" fill="red"/>
<circle r="2" cx="81" cy="134" stroke="black" stroke-width="2" fill="red"/>
<circle r="2" cx="81" cy="387" stroke="black" stroke-width="2" fill="red"/>
<circle r="2" cx="82" cy="71" stroke="black" stroke-width="2" fill="red"/>
<circle r="2" cx="82" cy="324" stroke="black" stroke-width="2" fill="red"/>
<circle r="2" cx="83" cy="197" stroke="black" stroke-width="2" fill="red"/>
<circle r="2" cx="83" cy="450" stroke="black" stroke-width="2" fill="red"/>
<circle r="2" cx="84" cy="39" stroke="black" stroke-width="2" fill="red"/>
<circle r="2" cx="84" cy="292" stroke="black" stroke-width="2" fill="red"/>
<circle r="2" cx="85" cy="166" stroke="black" stroke-width="2" fill="red"/>
<circle r="2" cx="86" cy="418" stroke="black" stroke-width="2" fill="red"/>
<circle r="2" cx="86" cy="102" stroke="black" stroke-width="2" fill="red"/>
<circle r="2" cx="87" cy="355" stroke="black" stroke-width="2" fill="red"/>
<circle r="2" cx="87" cy="229" stroke="black" stroke-width="2" fill="red"/>
<circle r="2" cx="88" cy="482" stroke="black" stroke-width="2" fill="red"/>
<circle r="2" cx="88" cy="23" stroke="black" stroke-width="2" fill="red"/>
<circle r="2" cx="89" cy="276" stroke="black" stroke-width="2" fill="red"/>
<circle r="2" cx="89" cy="150" stroke="black" stroke-width="2" fill="red"/>
<circle r="2" cx="90" cy="403" stroke="black" stroke-width="2" fill="red"/>
<circle r="2" cx="90" cy="86" stroke="black" stroke-width="2" fill="red"/>
<circle r="2" cx="91" cy="339" stroke="black" stroke-width="2" fill="red"/>
<circle r="2" cx="91" cy="213" stroke="black" stroke-width="2" fill="red"/>
<circle r="2" cx="92" cy="466" stroke="black" stroke-width="2" fill="red"/>
<circle r="2" cx="92" cy="55" stroke="black" stroke-width="2" fill="red"/>
<circle r="2" cx="93" cy="308" stroke="black" stroke-width="2" fill="red"/>
<circle r="2" cx="93" cy="181" stroke="black" stroke-width="2" fill="red"/>
<circle r="2" cx="94" cy="434" stroke="black" stroke-width="2" fill="red"/>
<circle r="2" cx="94" cy="118" stroke="black" stroke-width="2" fill="red"/>
<circle r="2" cx="95" cy="371" stroke="black" stroke-width="2" fill="red"/>
<circle r="2" cx="95" cy="245" stroke="black" stroke-width="2" fill="red"/>
<circle r="2" cx="96" cy="498" stroke="black" stroke-width="2" fill="red"/>
<circle r="2" cx="96" cy="3" stroke="black" stroke-width="2" fill="red"/>
<circle r="2" cx="97" cy="256" stroke="black" stroke-width="2" fill="red"/>
<circle r="2" cx="97" cy="130" stroke="black" stroke-width="2" fill="red"/>
<circle r="2" cx="98" cy="383" stroke="black" stroke-width="2" fill="red"/>
<circle r="2" cx="98" cy="67" stroke="black" stroke-width="2" fill="red"/>
<circle r="2" cx="99" cy="320" stroke="black" stroke-width="2" fill="red"/>
<circle r="2" cx="99" cy="193" stroke="black" stroke-width="2" fill="red"/>
<circle r="2" cx="100" cy="446" stroke="black" stroke-width="2" fill="red"/>
<circle r="2" cx="100" cy="35" stroke="black" stroke-width="2" fill="red"/>
</svg>
