<?xml version="1.0" standalone="no"?>
<svg width="1050" height="1050" version="1.1"
xmlns="http://www.w3.org/2000/svg">
<rect width="1050" height="1050" style="fill:rgb(255,255,255); stroke-width:10;  stroke:rgb(255,255,255)"/>
<circle r="2" cx="25" cy="106" stroke="black" stroke-width="2" fill="red"/>
<circle r="2" cx="337" cy="88" stroke="black" stroke-width="2" fill="red"/>
<circle r="2" cx="29" cy="123" stroke="black" stroke-width="2" fill="red"/>
<circle r="2" cx="348" cy="99" stroke="black" stroke-width="2" fill="red"/>
<circle r="2" cx="497" cy="58" stroke="black" stroke-width="2" fill="red"/>
<circle r="2" cx="223" cy="69" stroke="black" stroke-width="2" fill="red"/>
<circle r="2" cx="28" cy="10" stroke="black" stroke-width="2" fill="red"/>
<circle r="2" cx="346" cy="39" stroke="black" stroke-width="2" fill="red"/>
<circle r="2" cx="24" cy="93" stroke="black" stroke-width="2" fill="red"/>
<circle r="2" cx="336" cy="81" stroke="black" stroke-width="2" fill="red"/>
<circle r="2" cx="15" cy="102" stroke="black" stroke-width="2" fill="red"/>
<circle r="2" cx="311" cy="81" stroke="black" stroke-width="2" fill="red"/>
<circle r="2" cx="39" cy="72" stroke="black" stroke-width="2" fill="red"/>
<circle r="2" cx="372" cy="72" stroke="black" stroke-width="2" fill="red"/>
<circle r="2" cx="56" cy="38" stroke="black" stroke-width="2" fill="red"/>
<circle r="2" cx="416" cy="41" stroke="black" stroke-width="2" fill="red"/>
<circle r="2" cx="446" cy="31" stroke="black" stroke-width="2" fill="red"/>
<circle r="2" cx="94" cy="38" stroke="black" stroke-width="2" fill="red"/>
<circle r="2" cx="448" cy="127" stroke="black" stroke-width="2" fill="red"/>
<circle r="2" cx="100" cy="116" stroke="black" stroke-width="2" fill="red"/>
<circle r="2" cx="450" cy="94" stroke="black" stroke-width="2" fill="red"/>
<circle r="2" cx="105" cy="89" stroke="black" stroke-width="2" fill="red"/>
<circle r="2" cx="447" cy="119" stroke="black" stroke-width="2" fill="red"/>
<circle r="2" cx="98" cy="110" stroke="black" stroke-width="2" fill="red"/>
<circle r="2" cx="447" cy="55" stroke="black" stroke-width="2" fill="red"/>
<circle r="2" cx="96" cy="58" stroke="black" stroke-width="2" fill="red"/>
<circle r="2" cx="452" cy="58" stroke="black" stroke-width="2" fill="red"/>
<circle r="2" cx="109" cy="61" stroke="black" stroke-width="2" fill="red"/>
<circle r="2" cx="500" cy="87" stroke="black" stroke-width="2" fill="red"/>
<circle r="2" cx="228" cy="73" stroke="black" stroke-width="2" fill="red"/>
<circle r="2" cx="54" cy="119" stroke="black" stroke-width="2" fill="red"/>
<circle r="2" cx="409" cy="112" stroke="black" stroke-width="2" fill="red"/>
<circle r="2" cx="476" cy="27" stroke="black" stroke-width="2" fill="red"/>
<circle r="2" cx="170" cy="52" stroke="black" stroke-width="2" fill="red"/>
<circle r="2" cx="441" cy="42" stroke="black" stroke-width="2" fill="red"/>
<circle r="2" cx="81" cy="45" stroke="black" stroke-width="2" fill="red"/>
<circle r="2" cx="444" cy="24" stroke="black" stroke-width="2" fill="red"/>
<circle r="2" cx="91" cy="31" stroke="black" stroke-width="2" fill="red"/>
<circle r="2" cx="34" cy="47" stroke="black" stroke-width="2" fill="red"/>
<circle r="2" cx="359" cy="57" stroke="black" stroke-width="2" fill="red"/>
<circle r="2" cx="52" cy="70" stroke="black" stroke-width="2" fill="red"/>
<circle r="2" cx="406" cy="70" stroke="black" stroke-width="2" fill="red"/>
<circle r="2" cx="474" cy="85" stroke="black" stroke-width="2" fill="red"/>
<circle r="2" cx="164" cy="77" stroke="black" stroke-width="2" fill="red"/>
<circle r="2" cx="440" cy="108" stroke="black" stroke-width="2" fill="red"/>
<circle r="2" cx="80" cy="104" stroke="black" stroke-width="2" fill="red"/>
<circle r="2" cx="54" cy="56" stroke="black" stroke-width="2" fill="red"/>
<circle r="2" cx="409" cy="58" stroke="black" stroke-width="2" fill="red"/>
<circle r="2" cx="48" cy="101" stroke="black" stroke-width="2" fill="red"/>
<circle r="2" cx="395" cy="94" stroke="black" stroke-width="2" fill="red"/>
<circle r="2" cx="438" cy="125" stroke="black" stroke-width="2" fill="red"/>
<circle r="2" cx="74" cy="122" stroke="black" stroke-width="2" fill="red"/>
<circle r="2" cx="460" cy="22" stroke="black" stroke-width="2" fill="red"/>
<circle r="2" cx="129" cy="39" stroke="black" stroke-width="2" fill="red"/>
<circle r="2" cx="31" cy="127" stroke="black" stroke-width="2" fill="red"/>
<circle r="2" cx="353" cy="103" stroke="black" stroke-width="2" fill="red"/>
<circle r="2" cx="435" cy="28" stroke="black" stroke-width="2" fill="red"/>
<circle r="2" cx="67" cy="29" stroke="black" stroke-width="2" fill="red"/>
<circle r="2" cx="54" cy="74" stroke="black" stroke-width="2" fill="red"/>
<circle r="2" cx="409" cy="73" stroke="black" stroke-width="2" fill="red"/>
<circle r="2" cx="33" cy="32" stroke="black" stroke-width="2" fill="red"/>
<circle r="2" cx="357" cy="48" stroke="black" stroke-width="2" fill="red"/>
<circle r="2" cx="470" cy="89" stroke="black" stroke-width="2" fill="red"/>
<circle r="2" cx="154" cy="80" stroke="black" stroke-width="2" fill="red"/>
<circle r="2" cx="55" cy="52" stroke="black" stroke-width="2" fill="red"/>
<circle r="2" cx="411" cy="54" stroke="black" stroke-width="2" fill="red"/>
<circle r="2" cx="443" cy="111" stroke="black" stroke-width="2" fill="red"/>
<circle r="2" cx="87" cy="106" stroke="black" stroke-width="2" fill="red"/>
<circle r="2" cx="469" cy="35" stroke="black" stroke-width="2" fill="red"/>
<circle r="2" cx="153" cy="52" stroke="black" stroke-width="2" fill="red"/>
<circle r="2" cx="454" cy="70" stroke="black" stroke-width="2" fill="red"/>
<circle r="2" cx="115" cy="70" stroke="black" stroke-width="2" fill="red"/>
<circle r="2" cx="47" cy="47" stroke="black" stroke-width="2" fill="red"/>
<circle r="2" cx="391" cy="53" stroke="black" stroke-width="2" fill="red"/>
<circle r="2" cx="441" cy="22" stroke="black" stroke-width="2" fill="red"/>
<circle r="2" cx="82" cy="27" stroke="black" stroke-width="2" fill="red"/>
<circle r="2" cx="466" cy="94" stroke="black" stroke-width="2" fill="red"/>
<circle r="2" cx="143" cy="84" stroke="black" stroke-width="2" fill="red"/>
<circle r="2" cx="52" cy="133" stroke="black" stroke-width="2" fill="red"/>
<circle r="2" cx="406" cy="124" stroke="black" stroke-width="2" fill="red"/>
<circle r="2" cx="448" cy="111" stroke="black" stroke-width="2" fill="red"/>
<circle r="2" cx="100" cy="103" stroke="black" stroke-width="2" fill="red"/>
<circle r="2" cx="0" cy="43" stroke="black" stroke-width="2" fill="red"/>
<circle r="2" cx="275" cy="67" stroke="black" stroke-width="2" fill="red"/>
<circle r="2" cx="0" cy="104" stroke="black" stroke-width="2" fill="red"/>
<circle r="2" cx="274" cy="76" stroke="black" stroke-width="2" fill="red"/>
<circle r="2" cx="18" cy="77" stroke="black" stroke-width="2" fill="red"/>
<circle r="2" cx="320" cy="73" stroke="black" stroke-width="2" fill="red"/>
<circle r="2" cx="434" cy="92" stroke="black" stroke-width="2" fill="red"/>
<circle r="2" cx="65" cy="92" stroke="black" stroke-width="2" fill="red"/>
<circle r="2" cx="486" cy="111" stroke="black" stroke-width="2" fill="red"/>
<circle r="2" cx="194" cy="83" stroke="black" stroke-width="2" fill="red"/>
<circle r="2" cx="19" cy="63" stroke="black" stroke-width="2" fill="red"/>
<circle r="2" cx="323" cy="68" stroke="black" stroke-width="2" fill="red"/>
<circle r="2" cx="10" cy="64" stroke="black" stroke-width="2" fill="red"/>
<circle r="2" cx="301" cy="69" stroke="black" stroke-width="2" fill="red"/>
<circle r="2" cx="469" cy="69" stroke="black" stroke-width="2" fill="red"/>
<circle r="2" cx="151" cy="70" stroke="black" stroke-width="2" fill="red"/>
<circle r="2" cx="45" cy="0" stroke="black" stroke-width="2" fill="red"/>
<circle r="2" cx="388" cy="17" stroke="black" stroke-width="2" fill="red"/>
<circle r="2" cx="34" cy="8" stroke="black" stroke-width="2" fill="red"/>
<circle r="2" cx="360" cy="33" stroke="black" stroke-width="2" fill="red"/>
<circle r="2" cx="444" cy="0" stroke="black" stroke-width="2" fill="red"/>
<circle r="2" cx="89" cy="9" stroke="black" stroke-width="2" fill="red"/>
<circle r="2" cx="450" cy="69" stroke="black" stroke-width="2" fill="red"/>
<circle r="2" cx="106" cy="69" stroke="black" stroke-width="2" fill="red"/>
<circle r="2" cx="481" cy="59" stroke="black" stroke-width="2" fill="red"/>
<circle r="2" cx="182" cy="67" stroke="black" stroke-width="2" fill="red"/>
<circle r="2" cx="16" cy="96" stroke="black" stroke-width="2" fill="red"/>
<circle r="2" cx="316" cy="80" stroke="black" stroke-width="2" fill="red"/>
<circle r="2" cx="452" cy="92" stroke="black" stroke-width="2" fill="red"/>
<circle r="2" cx="109" cy="87" stroke="black" stroke-width="2" fill="red"/>
<circle r="2" cx="47" cy="66" stroke="black" stroke-width="2" fill="red"/>
<circle r="2" cx="393" cy="67" stroke="black" stroke-width="2" fill="red"/>
<circle r="2" cx="48" cy="58" stroke="black" stroke-width="2" fill="red"/>
<circle r="2" cx="396" cy="61" stroke="black" stroke-width="2" fill="red"/>
<circle r="2" cx="440" cy="1" stroke="black" stroke-width="2" fill="red"/>
<circle r="2" cx="80" cy="8" stroke="black" stroke-width="2" fill="red"/>
<circle r="2" cx="31" cy="60" stroke="black" stroke-width="2" fill="red"/>
<circle r="2" cx="352" cy="65" stroke="black" stroke-width="2" fill="red"/>
<circle r="2" cx="22" cy="84" stroke="black" stroke-width="2" fill="red"/>
<circle r="2" cx="329" cy="77" stroke="black" stroke-width="2" fill="red"/>
<circle r="2" cx="30" cy="99" stroke="black" stroke-width="2" fill="red"/>
<circle r="2" cx="350" cy="87" stroke="black" stroke-width="2" fill="red"/>
<circle r="2" cx="31" cy="126" stroke="black" stroke-width="2" fill="red"/>
<circle r="2" cx="352" cy="101" stroke="black" stroke-width="2" fill="red"/>
<circle r="2" cx="14" cy="37" stroke="black" stroke-width="2" fill="red"/>
<circle r="2" cx="310" cy="60" stroke="black" stroke-width="2" fill="red"/>
<circle r="2" cx="13" cy="122" stroke="black" stroke-width="2" fill="red"/>
<circle r="2" cx="309" cy="87" stroke="black" stroke-width="2" fill="red"/>
<circle r="2" cx="442" cy="63" stroke="black" stroke-width="2" fill="red"/>
<circle r="2" cx="85" cy="64" stroke="black" stroke-width="2" fill="red"/>
<circle r="2" cx="476" cy="94" stroke="black" stroke-width="2" fill="red"/>
<circle r="2" cx="169" cy="81" stroke="black" stroke-width="2" fill="red"/>
<circle r="2" cx="437" cy="114" stroke="black" stroke-width="2" fill="red"/>
<circle r="2" cx="73" cy="112" stroke="black" stroke-width="2" fill="red"/>
<circle r="2" cx="33" cy="54" stroke="black" stroke-width="2" fill="red"/>
<circle r="2" cx="358" cy="61" stroke="black" stroke-width="2" fill="red"/>
<circle r="2" cx="448" cy="75" stroke="black" stroke-width="2" fill="red"/>
<circle r="2" cx="99" cy="74" stroke="black" stroke-width="2" fill="red"/>
<circle r="2" cx="477" cy="102" stroke="black" stroke-width="2" fill="red"/>
<circle r="2" cx="173" cy="84" stroke="black" stroke-width="2" fill="red"/>
<circle r="2" cx="11" cy="53" stroke="black" stroke-width="2" fill="red"/>
<circle r="2" cx="303" cy="66" stroke="black" stroke-width="2" fill="red"/>
<circle r="2" cx="454" cy="68" stroke="black" stroke-width="2" fill="red"/>
<circle r="2" cx="116" cy="69" stroke="black" stroke-width="2" fill="red"/>
<circle r="2" cx="451" cy="7" stroke="black" stroke-width="2" fill="red"/>
<circle r="2" cx="107" cy="22" stroke="black" stroke-width="2" fill="red"/>
<circle r="2" cx="468" cy="28" stroke="black" stroke-width="2" fill="red"/>
<circle r="2" cx="149" cy="48" stroke="black" stroke-width="2" fill="red"/>
<circle r="2" cx="25" cy="48" stroke="black" stroke-width="2" fill="red"/>
<circle r="2" cx="336" cy="60" stroke="black" stroke-width="2" fill="red"/>
<circle r="2" cx="434" cy="25" stroke="black" stroke-width="2" fill="red"/>
<circle r="2" cx="65" cy="26" stroke="black" stroke-width="2" fill="red"/>
<circle r="2" cx="435" cy="15" stroke="black" stroke-width="2" fill="red"/>
<circle r="2" cx="67" cy="16" stroke="black" stroke-width="2" fill="red"/>
<circle r="2" cx="36" cy="37" stroke="black" stroke-width="2" fill="red"/>
<circle r="2" cx="365" cy="50" stroke="black" stroke-width="2" fill="red"/>
<circle r="2" cx="461" cy="83" stroke="black" stroke-width="2" fill="red"/>
<circle r="2" cx="131" cy="79" stroke="black" stroke-width="2" fill="red"/>
<circle r="2" cx="471" cy="61" stroke="black" stroke-width="2" fill="red"/>
<circle r="2" cx="156" cy="66" stroke="black" stroke-width="2" fill="red"/>
<circle r="2" cx="38" cy="96" stroke="black" stroke-width="2" fill="red"/>
<circle r="2" cx="370" cy="88" stroke="black" stroke-width="2" fill="red"/>
<circle r="2" cx="477" cy="98" stroke="black" stroke-width="2" fill="red"/>
<circle r="2" cx="172" cy="82" stroke="black" stroke-width="2" fill="red"/>
<circle r="2" cx="437" cy="43" stroke="black" stroke-width="2" fill="red"/>
<circle r="2" cx="71" cy="45" stroke="black" stroke-width="2" fill="red"/>
<circle r="2" cx="28" cy="49" stroke="black" stroke-width="2" fill="red"/>
<circle r="2" cx="344" cy="60" stroke="black" stroke-width="2" fill="red"/>
<circle r="2" cx="463" cy="116" stroke="black" stroke-width="2" fill="red"/>
<circle r="2" cx="138" cy="98" stroke="black" stroke-width="2" fill="red"/>
<circle r="2" cx="31" cy="63" stroke="black" stroke-width="2" fill="red"/>
<circle r="2" cx="353" cy="66" stroke="black" stroke-width="2" fill="red"/>
<circle r="2" cx="435" cy="62" stroke="black" stroke-width="2" fill="red"/>
<circle r="2" cx="66" cy="63" stroke="black" stroke-width="2" fill="red"/>
<circle r="2" cx="58" cy="38" stroke="black" stroke-width="2" fill="red"/>
<circle r="2" cx="419" cy="41" stroke="black" stroke-width="2" fill="red"/>
<circle r="2" cx="51" cy="44" stroke="black" stroke-width="2" fill="red"/>
<circle r="2" cx="402" cy="49" stroke="black" stroke-width="2" fill="red"/>
<circle r="2" cx="28" cy="82" stroke="black" stroke-width="2" fill="red"/>
<circle r="2" cx="344" cy="76" stroke="black" stroke-width="2" fill="red"/>
<circle r="2" cx="11" cy="71" stroke="black" stroke-width="2" fill="red"/>
<circle r="2" cx="302" cy="71" stroke="black" stroke-width="2" fill="red"/>
<circle r="2" cx="486" cy="41" stroke="black" stroke-width="2" fill="red"/>
<circle r="2" cx="194" cy="62" stroke="black" stroke-width="2" fill="red"/>
<circle r="2" cx="29" cy="102" stroke="black" stroke-width="2" fill="red"/>
<circle r="2" cx="347" cy="87" stroke="black" stroke-width="2" fill="red"/>
<circle r="2" cx="26" cy="74" stroke="black" stroke-width="2" fill="red"/>
<circle r="2" cx="339" cy="73" stroke="black" stroke-width="2" fill="red"/>
<circle r="2" cx="499" cy="73" stroke="black" stroke-width="2" fill="red"/>
<circle r="2" cx="228" cy="71" stroke="black" stroke-width="2" fill="red"/>
<circle r="2" cx="440" cy="3" stroke="black" stroke-width="2" fill="red"/>
<circle r="2" cx="80" cy="10" stroke="black" stroke-width="2" fill="red"/>
<circle r="2" cx="60" cy="48" stroke="black" stroke-width="2" fill="red"/>
<circle r="2" cx="425" cy="50" stroke="black" stroke-width="2" fill="red"/>
<circle r="2" cx="15" cy="87" stroke="black" stroke-width="2" fill="red"/>
<circle r="2" cx="312" cy="77" stroke="black" stroke-width="2" fill="red"/>
<circle r="2" cx="437" cy="67" stroke="black" stroke-width="2" fill="red"/>
<circle r="2" cx="72" cy="67" stroke="black" stroke-width="2" fill="red"/>
</svg>
