<?xml version="1.0" standalone="no"?>
<svg width="1050" height="1050" version="1.1"
xmlns="http://www.w3.org/2000/svg">
<rect width="1050" height="1050" style="fill:rgb(255,255,255); stroke-width:10;  stroke:rgb(255,255,255)"/>
<circle r="2" cx="114" cy="373" stroke="black" stroke-width="2" fill="red"/>
<circle r="2" cx="130" cy="433" stroke="black" stroke-width="2" fill="red"/>
<circle r="2" cx="474" cy="205" stroke="black" stroke-width="2" fill="red"/>
<circle r="2" cx="126" cy="36" stroke="black" stroke-width="2" fill="red"/>
<circle r="2" cx="112" cy="327" stroke="black" stroke-width="2" fill="red"/>
<circle r="2" cx="78" cy="358" stroke="black" stroke-width="2" fill="red"/>
<circle r="2" cx="163" cy="254" stroke="black" stroke-width="2" fill="red"/>
<circle r="2" cx="224" cy="136" stroke="black" stroke-width="2" fill="red"/>
<circle r="2" cx="293" cy="111" stroke="black" stroke-width="2" fill="red"/>
<circle r="2" cx="301" cy="448" stroke="black" stroke-width="2" fill="red"/>
<circle r="2" cx="308" cy="332" stroke="black" stroke-width="2" fill="red"/>
<circle r="2" cx="298" cy="419" stroke="black" stroke-width="2" fill="red"/>
<circle r="2" cx="295" cy="194" stroke="black" stroke-width="2" fill="red"/>
<circle r="2" cx="314" cy="206" stroke="black" stroke-width="2" fill="red"/>
<circle r="2" cx="481" cy="307" stroke="black" stroke-width="2" fill="red"/>
<circle r="2" cx="215" cy="419" stroke="black" stroke-width="2" fill="red"/>
<circle r="2" cx="399" cy="95" stroke="black" stroke-width="2" fill="red"/>
<circle r="2" cx="275" cy="149" stroke="black" stroke-width="2" fill="red"/>
<circle r="2" cx="288" cy="86" stroke="black" stroke-width="2" fill="red"/>
<circle r="2" cx="145" cy="166" stroke="black" stroke-width="2" fill="red"/>
<circle r="2" cx="210" cy="248" stroke="black" stroke-width="2" fill="red"/>
<circle r="2" cx="391" cy="301" stroke="black" stroke-width="2" fill="red"/>
<circle r="2" cx="273" cy="379" stroke="black" stroke-width="2" fill="red"/>
<circle r="2" cx="215" cy="198" stroke="black" stroke-width="2" fill="red"/>
<circle r="2" cx="195" cy="354" stroke="black" stroke-width="2" fill="red"/>
<circle r="2" cx="264" cy="440" stroke="black" stroke-width="2" fill="red"/>
<circle r="2" cx="341" cy="79" stroke="black" stroke-width="2" fill="red"/>
<circle r="2" cx="136" cy="447" stroke="black" stroke-width="2" fill="red"/>
<circle r="2" cx="254" cy="99" stroke="black" stroke-width="2" fill="red"/>
<circle r="2" cx="216" cy="260" stroke="black" stroke-width="2" fill="red"/>
<circle r="2" cx="142" cy="112" stroke="black" stroke-width="2" fill="red"/>
<circle r="2" cx="377" cy="315" stroke="black" stroke-width="2" fill="red"/>
<circle r="2" cx="218" cy="182" stroke="black" stroke-width="2" fill="red"/>
<circle r="2" cx="282" cy="392" stroke="black" stroke-width="2" fill="red"/>
<circle r="2" cx="375" cy="125" stroke="black" stroke-width="2" fill="red"/>
<circle r="2" cx="322" cy="248" stroke="black" stroke-width="2" fill="red"/>
<circle r="2" cx="190" cy="168" stroke="black" stroke-width="2" fill="red"/>
<circle r="2" cx="275" cy="80" stroke="black" stroke-width="2" fill="red"/>
<circle r="2" cx="362" cy="332" stroke="black" stroke-width="2" fill="red"/>
<circle r="2" cx="210" cy="469" stroke="black" stroke-width="2" fill="red"/>
<circle r="2" cx="301" cy="392" stroke="black" stroke-width="2" fill="red"/>
<circle r="2" cx="27" cy="152" stroke="black" stroke-width="2" fill="red"/>
<circle r="2" cx="25" cy="367" stroke="black" stroke-width="2" fill="red"/>
<circle r="2" cx="90" cy="273" stroke="black" stroke-width="2" fill="red"/>
<circle r="2" cx="251" cy="325" stroke="black" stroke-width="2" fill="red"/>
<circle r="2" cx="433" cy="393" stroke="black" stroke-width="2" fill="red"/>
<circle r="2" cx="94" cy="224" stroke="black" stroke-width="2" fill="red"/>
<circle r="2" cx="63" cy="226" stroke="black" stroke-width="2" fill="red"/>
<circle r="2" cx="373" cy="245" stroke="black" stroke-width="2" fill="red"/>
<circle r="2" cx="185" cy="1" stroke="black" stroke-width="2" fill="red"/>
<circle r="2" cx="146" cy="29" stroke="black" stroke-width="2" fill="red"/>
<circle r="2" cx="285" cy="0" stroke="black" stroke-width="2" fill="red"/>
<circle r="2" cx="309" cy="243" stroke="black" stroke-width="2" fill="red"/>
<circle r="2" cx="416" cy="207" stroke="black" stroke-width="2" fill="red"/>
<circle r="2" cx="84" cy="339" stroke="black" stroke-width="2" fill="red"/>
<circle r="2" cx="314" cy="325" stroke="black" stroke-width="2" fill="red"/>
<circle r="2" cx="193" cy="232" stroke="black" stroke-width="2" fill="red"/>
<circle r="2" cx="197" cy="207" stroke="black" stroke-width="2" fill="red"/>
<circle r="2" cx="273" cy="6" stroke="black" stroke-width="2" fill="red"/>
<circle r="2" cx="135" cy="213" stroke="black" stroke-width="2" fill="red"/>
<circle r="2" cx="103" cy="298" stroke="black" stroke-width="2" fill="red"/>
<circle r="2" cx="133" cy="350" stroke="black" stroke-width="2" fill="red"/>
<circle r="2" cx="134" cy="443" stroke="black" stroke-width="2" fill="red"/>
<circle r="2" cx="75" cy="130" stroke="black" stroke-width="2" fill="red"/>
<circle r="2" cx="74" cy="428" stroke="black" stroke-width="2" fill="red"/>
<circle r="2" cx="279" cy="223" stroke="black" stroke-width="2" fill="red"/>
<circle r="2" cx="398" cy="331" stroke="black" stroke-width="2" fill="red"/>
<circle r="2" cx="263" cy="403" stroke="black" stroke-width="2" fill="red"/>
<circle r="2" cx="144" cy="192" stroke="black" stroke-width="2" fill="red"/>
<circle r="2" cx="299" cy="265" stroke="black" stroke-width="2" fill="red"/>
<circle r="2" cx="404" cy="359" stroke="black" stroke-width="2" fill="red"/>
<circle r="2" cx="65" cy="189" stroke="black" stroke-width="2" fill="red"/>
<circle r="2" cx="323" cy="241" stroke="black" stroke-width="2" fill="red"/>
<circle r="2" cx="311" cy="25" stroke="black" stroke-width="2" fill="red"/>
<circle r="2" cx="369" cy="101" stroke="black" stroke-width="2" fill="red"/>
<circle r="2" cx="113" cy="168" stroke="black" stroke-width="2" fill="red"/>
<circle r="2" cx="251" cy="90" stroke="black" stroke-width="2" fill="red"/>
<circle r="2" cx="254" cy="53" stroke="black" stroke-width="2" fill="red"/>
<circle r="2" cx="153" cy="131" stroke="black" stroke-width="2" fill="red"/>
<circle r="2" cx="345" cy="294" stroke="black" stroke-width="2" fill="red"/>
<circle r="2" cx="380" cy="214" stroke="black" stroke-width="2" fill="red"/>
<circle r="2" cx="160" cy="339" stroke="black" stroke-width="2" fill="red"/>
<circle r="2" cx="402" cy="345" stroke="black" stroke-width="2" fill="red"/>
<circle r="2" cx="260" cy="154" stroke="black" stroke-width="2" fill="red"/>
<circle r="2" cx="124" cy="174" stroke="black" stroke-width="2" fill="red"/>
<circle r="2" cx="354" cy="408" stroke="black" stroke-width="2" fill="red"/>
<circle r="2" cx="136" cy="222" stroke="black" stroke-width="2" fill="red"/>
<circle r="2" cx="253" cy="221" stroke="black" stroke-width="2" fill="red"/>
<circle r="2" cx="230" cy="135" stroke="black" stroke-width="2" fill="red"/>
<circle r="2" cx="206" cy="157" stroke="black" stroke-width="2" fill="red"/>
<circle r="2" cx="123" cy="288" stroke="black" stroke-width="2" fill="red"/>
<circle r="2" cx="65" cy="249" stroke="black" stroke-width="2" fill="red"/>
<circle r="2" cx="433" cy="145" stroke="black" stroke-width="2" fill="red"/>
<circle r="2" cx="127" cy="359" stroke="black" stroke-width="2" fill="red"/>
<circle r="2" cx="117" cy="262" stroke="black" stroke-width="2" fill="red"/>
<circle r="2" cx="480" cy="259" stroke="black" stroke-width="2" fill="red"/>
<circle r="2" cx="273" cy="13" stroke="black" stroke-width="2" fill="red"/>
<circle r="2" cx="238" cy="172" stroke="black" stroke-width="2" fill="red"/>
<circle r="2" cx="79" cy="308" stroke="black" stroke-width="2" fill="red"/>
<circle r="2" cx="261" cy="237" stroke="black" stroke-width="2" fill="red"/>
<circle r="2" cx="284" cy="307" stroke="black" stroke-width="2" fill="red"/>
<circle r="2" cx="247" cy="429" stroke="black" stroke-width="2" fill="red"/>
<circle r="2" cx="266" cy="303" stroke="black" stroke-width="2" fill="red"/>
<circle r="2" cx="259" cy="156" stroke="black" stroke-width="2" fill="red"/>
<circle r="2" cx="145" cy="463" stroke="black" stroke-width="2" fill="red"/>
<circle r="2" cx="454" cy="182" stroke="black" stroke-width="2" fill="red"/>
<circle r="2" cx="318" cy="121" stroke="black" stroke-width="2" fill="red"/>
<circle r="2" cx="424" cy="222" stroke="black" stroke-width="2" fill="red"/>
<circle r="2" cx="289" cy="329" stroke="black" stroke-width="2" fill="red"/>
<circle r="2" cx="119" cy="311" stroke="black" stroke-width="2" fill="red"/>
<circle r="2" cx="220" cy="60" stroke="black" stroke-width="2" fill="red"/>
<circle r="2" cx="265" cy="336" stroke="black" stroke-width="2" fill="red"/>
<circle r="2" cx="403" cy="319" stroke="black" stroke-width="2" fill="red"/>
<circle r="2" cx="287" cy="241" stroke="black" stroke-width="2" fill="red"/>
<circle r="2" cx="280" cy="236" stroke="black" stroke-width="2" fill="red"/>
<circle r="2" cx="359" cy="185" stroke="black" stroke-width="2" fill="red"/>
<circle r="2" cx="81" cy="435" stroke="black" stroke-width="2" fill="red"/>
<circle r="2" cx="93" cy="102" stroke="black" stroke-width="2" fill="red"/>
<circle r="2" cx="117" cy="168" stroke="black" stroke-width="2" fill="red"/>
<circle r="2" cx="111" cy="307" stroke="black" stroke-width="2" fill="red"/>
<circle r="2" cx="151" cy="193" stroke="black" stroke-width="2" fill="red"/>
<circle r="2" cx="411" cy="337" stroke="black" stroke-width="2" fill="red"/>
<circle r="2" cx="114" cy="227" stroke="black" stroke-width="2" fill="red"/>
<circle r="2" cx="451" cy="174" stroke="black" stroke-width="2" fill="red"/>
<circle r="2" cx="241" cy="419" stroke="black" stroke-width="2" fill="red"/>
<circle r="2" cx="303" cy="130" stroke="black" stroke-width="2" fill="red"/>
<circle r="2" cx="322" cy="296" stroke="black" stroke-width="2" fill="red"/>
<circle r="2" cx="40" cy="225" stroke="black" stroke-width="2" fill="red"/>
<circle r="2" cx="105" cy="188" stroke="black" stroke-width="2" fill="red"/>
<circle r="2" cx="117" cy="423" stroke="black" stroke-width="2" fill="red"/>
<circle r="2" cx="159" cy="327" stroke="black" stroke-width="2" fill="red"/>
<circle r="2" cx="126" cy="124" stroke="black" stroke-width="2" fill="red"/>
<circle r="2" cx="259" cy="317" stroke="black" stroke-width="2" fill="red"/>
<circle r="2" cx="0" cy="211" stroke="black" stroke-width="2" fill="red"/>
<circle r="2" cx="66" cy="393" stroke="black" stroke-width="2" fill="red"/>
<circle r="2" cx="332" cy="365" stroke="black" stroke-width="2" fill="red"/>
<circle r="2" cx="210" cy="262" stroke="black" stroke-width="2" fill="red"/>
<circle r="2" cx="383" cy="402" stroke="black" stroke-width="2" fill="red"/>
<circle r="2" cx="285" cy="169" stroke="black" stroke-width="2" fill="red"/>
<circle r="2" cx="297" cy="152" stroke="black" stroke-width="2" fill="red"/>
<circle r="2" cx="254" cy="298" stroke="black" stroke-width="2" fill="red"/>
<circle r="2" cx="143" cy="118" stroke="black" stroke-width="2" fill="red"/>
<circle r="2" cx="92" cy="335" stroke="black" stroke-width="2" fill="red"/>
<circle r="2" cx="197" cy="90" stroke="black" stroke-width="2" fill="red"/>
<circle r="2" cx="82" cy="262" stroke="black" stroke-width="2" fill="red"/>
<circle r="2" cx="165" cy="115" stroke="black" stroke-width="2" fill="red"/>
<circle r="2" cx="333" cy="461" stroke="black" stroke-width="2" fill="red"/>
<circle r="2" cx="257" cy="329" stroke="black" stroke-width="2" fill="red"/>
<circle r="2" cx="358" cy="458" stroke="black" stroke-width="2" fill="red"/>
<circle r="2" cx="347" cy="99" stroke="black" stroke-width="2" fill="red"/>
<circle r="2" cx="179" cy="179" stroke="black" stroke-width="2" fill="red"/>
<circle r="2" cx="330" cy="456" stroke="black" stroke-width="2" fill="red"/>
<circle r="2" cx="339" cy="158" stroke="black" stroke-width="2" fill="red"/>
<circle r="2" cx="413" cy="362" stroke="black" stroke-width="2" fill="red"/>
<circle r="2" cx="240" cy="273" stroke="black" stroke-width="2" fill="red"/>
<circle r="2" cx="439" cy="109" stroke="black" stroke-width="2" fill="red"/>
<circle r="2" cx="250" cy="146" stroke="black" stroke-width="2" fill="red"/>
<circle r="2" cx="216" cy="500" stroke="black" stroke-width="2" fill="red"/>
<circle r="2" cx="168" cy="287" stroke="black" stroke-width="2" fill="red"/>
<circle r="2" cx="152" cy="202" stroke="black" stroke-width="2" fill="red"/>
<circle r="2" cx="140" cy="267" stroke="black" stroke-width="2" fill="red"/>
<circle r="2" cx="198" cy="355" stroke="black" stroke-width="2" fill="red"/>
<circle r="2" cx="159" cy="127" stroke="black" stroke-width="2" fill="red"/>
<circle r="2" cx="239" cy="334" stroke="black" stroke-width="2" fill="red"/>
<circle r="2" cx="430" cy="208" stroke="black" stroke-width="2" fill="red"/>
<circle r="2" cx="408" cy="166" stroke="black" stroke-width="2" fill="red"/>
<circle r="2" cx="321" cy="166" stroke="black" stroke-width="2" fill="red"/>
<circle r="2" cx="118" cy="133" stroke="black" stroke-width="2" fill="red"/>
<circle r="2" cx="315" cy="13" stroke="black" stroke-width="2" fill="red"/>
<circle r="2" cx="206" cy="337" stroke="black" stroke-width="2" fill="red"/>
<circle r="2" cx="354" cy="433" stroke="black" stroke-width="2" fill="red"/>
<circle r="2" cx="79" cy="255" stroke="black" stroke-width="2" fill="red"/>
<circle r="2" cx="188" cy="364" stroke="black" stroke-width="2" fill="red"/>
<circle r="2" cx="176" cy="320" stroke="black" stroke-width="2" fill="red"/>
<circle r="2" cx="25" cy="372" stroke="black" stroke-width="2" fill="red"/>
<circle r="2" cx="311" cy="267" stroke="black" stroke-width="2" fill="red"/>
<circle r="2" cx="381" cy="300" stroke="black" stroke-width="2" fill="red"/>
<circle r="2" cx="263" cy="206" stroke="black" stroke-width="2" fill="red"/>
<circle r="2" cx="156" cy="434" stroke="black" stroke-width="2" fill="red"/>
<circle r="2" cx="248" cy="59" stroke="black" stroke-width="2" fill="red"/>
<circle r="2" cx="123" cy="208" stroke="black" stroke-width="2" fill="red"/>
<circle r="2" cx="250" cy="41" stroke="black" stroke-width="2" fill="red"/>
<circle r="2" cx="103" cy="319" stroke="black" stroke-width="2" fill="red"/>
<circle r="2" cx="249" cy="319" stroke="black" stroke-width="2" fill="red"/>
<circle r="2" cx="22" cy="240" stroke="black" stroke-width="2" fill="red"/>
<circle r="2" cx="417" cy="278" stroke="black" stroke-width="2" fill="red"/>
<circle r="2" cx="350" cy="413" stroke="black" stroke-width="2" fill="red"/>
<circle r="2" cx="347" cy="92" stroke="black" stroke-width="2" fill="red"/>
<circle r="2" cx="352" cy="161" stroke="black" stroke-width="2" fill="red"/>
<circle r="2" cx="91" cy="341" stroke="black" stroke-width="2" fill="red"/>
<circle r="2" cx="107" cy="169" stroke="black" stroke-width="2" fill="red"/>
<circle r="2" cx="248" cy="151" stroke="black" stroke-width="2" fill="red"/>
<circle r="2" cx="209" cy="311" stroke="black" stroke-width="2" fill="red"/>
<circle r="2" cx="211" cy="87" stroke="black" stroke-width="2" fill="red"/>
<circle r="2" cx="232" cy="412" stroke="black" stroke-width="2" fill="red"/>
<circle r="2" cx="47" cy="208" stroke="black" stroke-width="2" fill="red"/>
<circle r="2" cx="100" cy="146" stroke="black" stroke-width="2" fill="red"/>
<circle r="2" cx="36" cy="358" stroke="black" stroke-width="2" fill="red"/>
<circle r="2" cx="238" cy="335" stroke="black" stroke-width="2" fill="red"/>
<circle r="2" cx="182" cy="85" stroke="black" stroke-width="2" fill="red"/>
</svg>
