<?xml version="1.0" standalone="no"?>
<svg width="1050" height="1050" version="1.1"
xmlns="http://www.w3.org/2000/svg">
<rect width="1050" height="1050" style="fill:rgb(255,255,255); stroke-width:10;  stroke:rgb(255,255,255)"/>
<circle r="2" cx="447" cy="381" stroke="black" stroke-width="2" fill="red"/>
<circle r="2" cx="52" cy="117" stroke="black" stroke-width="2" fill="red"/>
<circle r="2" cx="435" cy="405" stroke="black" stroke-width="2" fill="red"/>
<circle r="2" cx="43" cy="144" stroke="black" stroke-width="2" fill="red"/>
<circle r="2" cx="456" cy="354" stroke="black" stroke-width="2" fill="red"/>
<circle r="2" cx="64" cy="93" stroke="black" stroke-width="2" fill="red"/>
<circle r="2" cx="463" cy="369" stroke="black" stroke-width="2" fill="red"/>
<circle r="2" cx="71" cy="108" stroke="black" stroke-width="2" fill="red"/>
<circle r="2" cx="428" cy="390" stroke="black" stroke-width="2" fill="red"/>
<circle r="2" cx="36" cy="129" stroke="black" stroke-width="2" fill="red"/>
<circle r="2" cx="420" cy="427" stroke="black" stroke-width="2" fill="red"/>
<circle r="2" cx="38" cy="173" stroke="black" stroke-width="2" fill="red"/>
<circle r="2" cx="461" cy="325" stroke="black" stroke-width="2" fill="red"/>
<circle r="2" cx="79" cy="71" stroke="black" stroke-width="2" fill="red"/>
<circle r="2" cx="451" cy="394" stroke="black" stroke-width="2" fill="red"/>
<circle r="2" cx="62" cy="135" stroke="black" stroke-width="2" fill="red"/>
<circle r="2" cx="416" cy="415" stroke="black" stroke-width="2" fill="red"/>
<circle r="2" cx="471" cy="342" stroke="black" stroke-width="2" fill="red"/>
<circle r="2" cx="28" cy="156" stroke="black" stroke-width="2" fill="red"/>
<circle r="2" cx="83" cy="83" stroke="black" stroke-width="2" fill="red"/>
<circle r="2" cx="437" cy="363" stroke="black" stroke-width="2" fill="red"/>
<circle r="2" cx="48" cy="104" stroke="black" stroke-width="2" fill="red"/>
<circle r="2" cx="474" cy="356" stroke="black" stroke-width="2" fill="red"/>
<circle r="2" cx="93" cy="101" stroke="black" stroke-width="2" fill="red"/>
<circle r="2" cx="406" cy="397" stroke="black" stroke-width="2" fill="red"/>
<circle r="2" cx="25" cy="142" stroke="black" stroke-width="2" fill="red"/>
<circle r="2" cx="402" cy="446" stroke="black" stroke-width="2" fill="red"/>
<circle r="2" cx="37" cy="203" stroke="black" stroke-width="2" fill="red"/>
<circle r="2" cx="462" cy="295" stroke="black" stroke-width="2" fill="red"/>
<circle r="2" cx="97" cy="52" stroke="black" stroke-width="2" fill="red"/>
<circle r="2" cx="435" cy="416" stroke="black" stroke-width="2" fill="red"/>
<circle r="2" cx="58" cy="164" stroke="black" stroke-width="2" fill="red"/>
<circle r="2" cx="400" cy="437" stroke="black" stroke-width="2" fill="red"/>
<circle r="2" cx="477" cy="312" stroke="black" stroke-width="2" fill="red"/>
<circle r="2" cx="22" cy="185" stroke="black" stroke-width="2" fill="red"/>
<circle r="2" cx="99" cy="61" stroke="black" stroke-width="2" fill="red"/>
<circle r="2" cx="441" cy="333" stroke="black" stroke-width="2" fill="red"/>
<circle r="2" cx="64" cy="82" stroke="black" stroke-width="2" fill="red"/>
<circle r="2" cx="462" cy="380" stroke="black" stroke-width="2" fill="red"/>
<circle r="2" cx="85" cy="129" stroke="black" stroke-width="2" fill="red"/>
<circle r="2" cx="393" cy="422" stroke="black" stroke-width="2" fill="red"/>
<circle r="2" cx="483" cy="328" stroke="black" stroke-width="2" fill="red"/>
<circle r="2" cx="16" cy="170" stroke="black" stroke-width="2" fill="red"/>
<circle r="2" cx="106" cy="76" stroke="black" stroke-width="2" fill="red"/>
<circle r="2" cx="414" cy="369" stroke="black" stroke-width="2" fill="red"/>
<circle r="2" cx="37" cy="117" stroke="black" stroke-width="2" fill="red"/>
<circle r="2" cx="482" cy="340" stroke="black" stroke-width="2" fill="red"/>
<circle r="2" cx="117" cy="97" stroke="black" stroke-width="2" fill="red"/>
<circle r="2" cx="382" cy="401" stroke="black" stroke-width="2" fill="red"/>
<circle r="2" cx="17" cy="157" stroke="black" stroke-width="2" fill="red"/>
<circle r="2" cx="381" cy="462" stroke="black" stroke-width="2" fill="red"/>
<circle r="2" cx="39" cy="234" stroke="black" stroke-width="2" fill="red"/>
<circle r="2" cx="460" cy="264" stroke="black" stroke-width="2" fill="red"/>
<circle r="2" cx="118" cy="36" stroke="black" stroke-width="2" fill="red"/>
<circle r="2" cx="416" cy="435" stroke="black" stroke-width="2" fill="red"/>
<circle r="2" cx="57" cy="195" stroke="black" stroke-width="2" fill="red"/>
<circle r="2" cx="381" cy="457" stroke="black" stroke-width="2" fill="red"/>
<circle r="2" cx="478" cy="281" stroke="black" stroke-width="2" fill="red"/>
<circle r="2" cx="21" cy="217" stroke="black" stroke-width="2" fill="red"/>
<circle r="2" cx="118" cy="41" stroke="black" stroke-width="2" fill="red"/>
<circle r="2" cx="442" cy="303" stroke="black" stroke-width="2" fill="red"/>
<circle r="2" cx="83" cy="63" stroke="black" stroke-width="2" fill="red"/>
<circle r="2" cx="446" cy="402" stroke="black" stroke-width="2" fill="red"/>
<circle r="2" cx="81" cy="159" stroke="black" stroke-width="2" fill="red"/>
<circle r="2" cx="376" cy="445" stroke="black" stroke-width="2" fill="red"/>
<circle r="2" cx="489" cy="297" stroke="black" stroke-width="2" fill="red"/>
<circle r="2" cx="10" cy="201" stroke="black" stroke-width="2" fill="red"/>
<circle r="2" cx="123" cy="53" stroke="black" stroke-width="2" fill="red"/>
<circle r="2" cx="418" cy="339" stroke="black" stroke-width="2" fill="red"/>
<circle r="2" cx="53" cy="95" stroke="black" stroke-width="2" fill="red"/>
<circle r="2" cx="470" cy="365" stroke="black" stroke-width="2" fill="red"/>
<circle r="2" cx="110" cy="125" stroke="black" stroke-width="2" fill="red"/>
<circle r="2" cx="367" cy="426" stroke="black" stroke-width="2" fill="red"/>
<circle r="2" cx="491" cy="311" stroke="black" stroke-width="2" fill="red"/>
<circle r="2" cx="8" cy="187" stroke="black" stroke-width="2" fill="red"/>
<circle r="2" cx="132" cy="71" stroke="black" stroke-width="2" fill="red"/>
<circle r="2" cx="389" cy="373" stroke="black" stroke-width="2" fill="red"/>
<circle r="2" cx="29" cy="133" stroke="black" stroke-width="2" fill="red"/>
<circle r="2" cx="486" cy="323" stroke="black" stroke-width="2" fill="red"/>
<circle r="2" cx="144" cy="95" stroke="black" stroke-width="2" fill="red"/>
<circle r="2" cx="355" cy="402" stroke="black" stroke-width="2" fill="red"/>
<circle r="2" cx="13" cy="174" stroke="black" stroke-width="2" fill="red"/>
<circle r="2" cx="358" cy="474" stroke="black" stroke-width="2" fill="red"/>
<circle r="2" cx="45" cy="265" stroke="black" stroke-width="2" fill="red"/>
<circle r="2" cx="454" cy="233" stroke="black" stroke-width="2" fill="red"/>
<circle r="2" cx="141" cy="24" stroke="black" stroke-width="2" fill="red"/>
<circle r="2" cx="395" cy="451" stroke="black" stroke-width="2" fill="red"/>
<circle r="2" cx="60" cy="227" stroke="black" stroke-width="2" fill="red"/>
<circle r="2" cx="358" cy="473" stroke="black" stroke-width="2" fill="red"/>
<circle r="2" cx="476" cy="248" stroke="black" stroke-width="2" fill="red"/>
<circle r="2" cx="23" cy="249" stroke="black" stroke-width="2" fill="red"/>
<circle r="2" cx="141" cy="25" stroke="black" stroke-width="2" fill="red"/>
<circle r="2" cx="439" cy="270" stroke="black" stroke-width="2" fill="red"/>
<circle r="2" cx="104" cy="47" stroke="black" stroke-width="2" fill="red"/>
<circle r="2" cx="427" cy="421" stroke="black" stroke-width="2" fill="red"/>
<circle r="2" cx="81" cy="191" stroke="black" stroke-width="2" fill="red"/>
<circle r="2" cx="355" cy="465" stroke="black" stroke-width="2" fill="red"/>
<circle r="2" cx="490" cy="264" stroke="black" stroke-width="2" fill="red"/>
<circle r="2" cx="9" cy="234" stroke="black" stroke-width="2" fill="red"/>
<circle r="2" cx="144" cy="33" stroke="black" stroke-width="2" fill="red"/>
<circle r="2" cx="418" cy="307" stroke="black" stroke-width="2" fill="red"/>
<circle r="2" cx="72" cy="76" stroke="black" stroke-width="2" fill="red"/>
<circle r="2" cx="453" cy="387" stroke="black" stroke-width="2" fill="red"/>
<circle r="2" cx="108" cy="156" stroke="black" stroke-width="2" fill="red"/>
<circle r="2" cx="348" cy="450" stroke="black" stroke-width="2" fill="red"/>
<circle r="2" cx="497" cy="279" stroke="black" stroke-width="2" fill="red"/>
<circle r="2" cx="2" cy="219" stroke="black" stroke-width="2" fill="red"/>
<circle r="2" cx="151" cy="48" stroke="black" stroke-width="2" fill="red"/>
<circle r="2" cx="391" cy="342" stroke="black" stroke-width="2" fill="red"/>
<circle r="2" cx="46" cy="111" stroke="black" stroke-width="2" fill="red"/>
<circle r="2" cx="473" cy="348" stroke="black" stroke-width="2" fill="red"/>
<circle r="2" cx="138" cy="124" stroke="black" stroke-width="2" fill="red"/>
<circle r="2" cx="339" cy="428" stroke="black" stroke-width="2" fill="red"/>
<circle r="2" cx="495" cy="293" stroke="black" stroke-width="2" fill="red"/>
<circle r="2" cx="4" cy="205" stroke="black" stroke-width="2" fill="red"/>
<circle r="2" cx="160" cy="69" stroke="black" stroke-width="2" fill="red"/>
<circle r="2" cx="361" cy="374" stroke="black" stroke-width="2" fill="red"/>
<circle r="2" cx="26" cy="150" stroke="black" stroke-width="2" fill="red"/>
<circle r="2" cx="486" cy="305" stroke="black" stroke-width="2" fill="red"/>
<circle r="2" cx="173" cy="96" stroke="black" stroke-width="2" fill="red"/>
<circle r="2" cx="326" cy="401" stroke="black" stroke-width="2" fill="red"/>
<circle r="2" cx="13" cy="193" stroke="black" stroke-width="2" fill="red"/>
<circle r="2" cx="333" cy="482" stroke="black" stroke-width="2" fill="red"/>
<circle r="2" cx="54" cy="295" stroke="black" stroke-width="2" fill="red"/>
<circle r="2" cx="445" cy="202" stroke="black" stroke-width="2" fill="red"/>
<circle r="2" cx="166" cy="16" stroke="black" stroke-width="2" fill="red"/>
<circle r="2" cx="370" cy="462" stroke="black" stroke-width="2" fill="red"/>
<circle r="2" cx="67" cy="260" stroke="black" stroke-width="2" fill="red"/>
<circle r="2" cx="333" cy="485" stroke="black" stroke-width="2" fill="red"/>
<circle r="2" cx="469" cy="215" stroke="black" stroke-width="2" fill="red"/>
<circle r="2" cx="30" cy="283" stroke="black" stroke-width="2" fill="red"/>
<circle r="2" cx="166" cy="13" stroke="black" stroke-width="2" fill="red"/>
<circle r="2" cx="432" cy="238" stroke="black" stroke-width="2" fill="red"/>
<circle r="2" cx="129" cy="36" stroke="black" stroke-width="2" fill="red"/>
<circle r="2" cx="404" cy="436" stroke="black" stroke-width="2" fill="red"/>
<circle r="2" cx="86" cy="225" stroke="black" stroke-width="2" fill="red"/>
<circle r="2" cx="330" cy="481" stroke="black" stroke-width="2" fill="red"/>
<circle r="2" cx="487" cy="229" stroke="black" stroke-width="2" fill="red"/>
<circle r="2" cx="12" cy="269" stroke="black" stroke-width="2" fill="red"/>
<circle r="2" cx="169" cy="17" stroke="black" stroke-width="2" fill="red"/>
<circle r="2" cx="413" cy="273" stroke="black" stroke-width="2" fill="red"/>
<circle r="2" cx="95" cy="61" stroke="black" stroke-width="2" fill="red"/>
<circle r="2" cx="432" cy="405" stroke="black" stroke-width="2" fill="red"/>
<circle r="2" cx="110" cy="190" stroke="black" stroke-width="2" fill="red"/>
<circle r="2" cx="325" cy="469" stroke="black" stroke-width="2" fill="red"/>
<circle r="2" cx="497" cy="244" stroke="black" stroke-width="2" fill="red"/>
<circle r="2" cx="2" cy="254" stroke="black" stroke-width="2" fill="red"/>
<circle r="2" cx="174" cy="28" stroke="black" stroke-width="2" fill="red"/>
<circle r="2" cx="389" cy="308" stroke="black" stroke-width="2" fill="red"/>
<circle r="2" cx="67" cy="93" stroke="black" stroke-width="2" fill="red"/>
<circle r="2" cx="455" cy="368" stroke="black" stroke-width="2" fill="red"/>
<circle r="2" cx="138" cy="157" stroke="black" stroke-width="2" fill="red"/>
<circle r="2" cx="317" cy="451" stroke="black" stroke-width="2" fill="red"/>
<circle r="2" cx="500" cy="258" stroke="black" stroke-width="2" fill="red"/>
<circle r="2" cx="0" cy="240" stroke="black" stroke-width="2" fill="red"/>
<circle r="2" cx="182" cy="46" stroke="black" stroke-width="2" fill="red"/>
<circle r="2" cx="361" cy="341" stroke="black" stroke-width="2" fill="red"/>
<circle r="2" cx="44" cy="129" stroke="black" stroke-width="2" fill="red"/>
<circle r="2" cx="472" cy="329" stroke="black" stroke-width="2" fill="red"/>
<circle r="2" cx="169" cy="126" stroke="black" stroke-width="2" fill="red"/>
<circle r="2" cx="307" cy="427" stroke="black" stroke-width="2" fill="red"/>
<circle r="2" cx="495" cy="273" stroke="black" stroke-width="2" fill="red"/>
<circle r="2" cx="4" cy="225" stroke="black" stroke-width="2" fill="red"/>
<circle r="2" cx="192" cy="70" stroke="black" stroke-width="2" fill="red"/>
<circle r="2" cx="330" cy="371" stroke="black" stroke-width="2" fill="red"/>
<circle r="2" cx="27" cy="169" stroke="black" stroke-width="2" fill="red"/>
<circle r="2" cx="482" cy="286" stroke="black" stroke-width="2" fill="red"/>
<circle r="2" cx="203" cy="100" stroke="black" stroke-width="2" fill="red"/>
<circle r="2" cx="296" cy="398" stroke="black" stroke-width="2" fill="red"/>
<circle r="2" cx="17" cy="212" stroke="black" stroke-width="2" fill="red"/>
<circle r="2" cx="307" cy="486" stroke="black" stroke-width="2" fill="red"/>
<circle r="2" cx="67" cy="325" stroke="black" stroke-width="2" fill="red"/>
<circle r="2" cx="432" cy="172" stroke="black" stroke-width="2" fill="red"/>
<circle r="2" cx="192" cy="12" stroke="black" stroke-width="2" fill="red"/>
<circle r="2" cx="343" cy="470" stroke="black" stroke-width="2" fill="red"/>
<circle r="2" cx="79" cy="293" stroke="black" stroke-width="2" fill="red"/>
<circle r="2" cx="305" cy="492" stroke="black" stroke-width="2" fill="red"/>
<circle r="2" cx="458" cy="182" stroke="black" stroke-width="2" fill="red"/>
<circle r="2" cx="41" cy="316" stroke="black" stroke-width="2" fill="red"/>
<circle r="2" cx="194" cy="5" stroke="black" stroke-width="2" fill="red"/>
<circle r="2" cx="420" cy="205" stroke="black" stroke-width="2" fill="red"/>
<circle r="2" cx="156" cy="28" stroke="black" stroke-width="2" fill="red"/>
<circle r="2" cx="377" cy="447" stroke="black" stroke-width="2" fill="red"/>
<circle r="2" cx="96" cy="260" stroke="black" stroke-width="2" fill="red"/>
<circle r="2" cx="302" cy="492" stroke="black" stroke-width="2" fill="red"/>
<circle r="2" cx="478" cy="193" stroke="black" stroke-width="2" fill="red"/>
<circle r="2" cx="21" cy="305" stroke="black" stroke-width="2" fill="red"/>
<circle r="2" cx="197" cy="6" stroke="black" stroke-width="2" fill="red"/>
<circle r="2" cx="403" cy="238" stroke="black" stroke-width="2" fill="red"/>
<circle r="2" cx="122" cy="51" stroke="black" stroke-width="2" fill="red"/>
<circle r="2" cx="407" cy="419" stroke="black" stroke-width="2" fill="red"/>
<circle r="2" cx="117" cy="226" stroke="black" stroke-width="2" fill="red"/>
<circle r="2" cx="297" cy="485" stroke="black" stroke-width="2" fill="red"/>
<circle r="2" cx="492" cy="206" stroke="black" stroke-width="2" fill="red"/>
<circle r="2" cx="7" cy="292" stroke="black" stroke-width="2" fill="red"/>
<circle r="2" cx="202" cy="13" stroke="black" stroke-width="2" fill="red"/>
<circle r="2" cx="382" cy="272" stroke="black" stroke-width="2" fill="red"/>
<circle r="2" cx="92" cy="79" stroke="black" stroke-width="2" fill="red"/>
<circle r="2" cx="432" cy="385" stroke="black" stroke-width="2" fill="red"/>
<circle r="2" cx="143" cy="192" stroke="black" stroke-width="2" fill="red"/>
<circle r="2" cx="290" cy="470" stroke="black" stroke-width="2" fill="red"/>
<circle r="2" cx="498" cy="220" stroke="black" stroke-width="2" fill="red"/>
<circle r="2" cx="1" cy="277" stroke="black" stroke-width="2" fill="red"/>
<circle r="2" cx="209" cy="28" stroke="black" stroke-width="2" fill="red"/>
<circle r="2" cx="356" cy="305" stroke="black" stroke-width="2" fill="red"/>
<circle r="2" cx="67" cy="112" stroke="black" stroke-width="2" fill="red"/>
<circle r="2" cx="452" cy="348" stroke="black" stroke-width="2" fill="red"/>
<circle r="2" cx="171" cy="161" stroke="black" stroke-width="2" fill="red"/>
<circle r="2" cx="283" cy="450" stroke="black" stroke-width="2" fill="red"/>
<circle r="2" cx="497" cy="236" stroke="black" stroke-width="2" fill="red"/>
<circle r="2" cx="2" cy="262" stroke="black" stroke-width="2" fill="red"/>
<circle r="2" cx="216" cy="48" stroke="black" stroke-width="2" fill="red"/>
<circle r="2" cx="328" cy="337" stroke="black" stroke-width="2" fill="red"/>
<circle r="2" cx="47" cy="150" stroke="black" stroke-width="2" fill="red"/>
<circle r="2" cx="466" cy="308" stroke="black" stroke-width="2" fill="red"/>
<circle r="2" cx="202" cy="132" stroke="black" stroke-width="2" fill="red"/>
<circle r="2" cx="274" cy="423" stroke="black" stroke-width="2" fill="red"/>
<circle r="2" cx="489" cy="251" stroke="black" stroke-width="2" fill="red"/>
<circle r="2" cx="10" cy="247" stroke="black" stroke-width="2" fill="red"/>
<circle r="2" cx="225" cy="75" stroke="black" stroke-width="2" fill="red"/>
<circle r="2" cx="297" cy="366" stroke="black" stroke-width="2" fill="red"/>
<circle r="2" cx="33" cy="190" stroke="black" stroke-width="2" fill="red"/>
<circle r="2" cx="474" cy="266" stroke="black" stroke-width="2" fill="red"/>
<circle r="2" cx="234" cy="106" stroke="black" stroke-width="2" fill="red"/>
<circle r="2" cx="265" cy="392" stroke="black" stroke-width="2" fill="red"/>
<circle r="2" cx="25" cy="231" stroke="black" stroke-width="2" fill="red"/>
<circle r="2" cx="280" cy="486" stroke="black" stroke-width="2" fill="red"/>
<circle r="2" cx="82" cy="354" stroke="black" stroke-width="2" fill="red"/>
<circle r="2" cx="417" cy="144" stroke="black" stroke-width="2" fill="red"/>
<circle r="2" cx="219" cy="12" stroke="black" stroke-width="2" fill="red"/>
<circle r="2" cx="314" cy="472" stroke="black" stroke-width="2" fill="red"/>
<circle r="2" cx="94" cy="325" stroke="black" stroke-width="2" fill="red"/>
<circle r="2" cx="276" cy="495" stroke="black" stroke-width="2" fill="red"/>
<circle r="2" cx="443" cy="149" stroke="black" stroke-width="2" fill="red"/>
<circle r="2" cx="56" cy="349" stroke="black" stroke-width="2" fill="red"/>
<circle r="2" cx="223" cy="2" stroke="black" stroke-width="2" fill="red"/>
<circle r="2" cx="405" cy="172" stroke="black" stroke-width="2" fill="red"/>
<circle r="2" cx="185" cy="26" stroke="black" stroke-width="2" fill="red"/>
<circle r="2" cx="347" cy="452" stroke="black" stroke-width="2" fill="red"/>
<circle r="2" cx="110" cy="295" stroke="black" stroke-width="2" fill="red"/>
<circle r="2" cx="271" cy="498" stroke="black" stroke-width="2" fill="red"/>
<circle r="2" cx="465" cy="157" stroke="black" stroke-width="2" fill="red"/>
<circle r="2" cx="34" cy="341" stroke="black" stroke-width="2" fill="red"/>
<circle r="2" cx="228" cy="0" stroke="black" stroke-width="2" fill="red"/>
<circle r="2" cx="389" cy="203" stroke="black" stroke-width="2" fill="red"/>
<circle r="2" cx="152" cy="45" stroke="black" stroke-width="2" fill="red"/>
<circle r="2" cx="377" cy="427" stroke="black" stroke-width="2" fill="red"/>
<circle r="2" cx="130" cy="263" stroke="black" stroke-width="2" fill="red"/>
<circle r="2" cx="265" cy="494" stroke="black" stroke-width="2" fill="red"/>
<circle r="2" cx="480" cy="168" stroke="black" stroke-width="2" fill="red"/>
<circle r="2" cx="19" cy="330" stroke="black" stroke-width="2" fill="red"/>
<circle r="2" cx="234" cy="4" stroke="black" stroke-width="2" fill="red"/>
<circle r="2" cx="369" cy="235" stroke="black" stroke-width="2" fill="red"/>
<circle r="2" cx="122" cy="71" stroke="black" stroke-width="2" fill="red"/>
<circle r="2" cx="403" cy="397" stroke="black" stroke-width="2" fill="red"/>
<circle r="2" cx="153" cy="231" stroke="black" stroke-width="2" fill="red"/>
<circle r="2" cx="259" cy="484" stroke="black" stroke-width="2" fill="red"/>
<circle r="2" cx="490" cy="181" stroke="black" stroke-width="2" fill="red"/>
<circle r="2" cx="9" cy="317" stroke="black" stroke-width="2" fill="red"/>
<circle r="2" cx="240" cy="14" stroke="black" stroke-width="2" fill="red"/>
<circle r="2" cx="346" cy="267" stroke="black" stroke-width="2" fill="red"/>
<circle r="2" cx="96" cy="101" stroke="black" stroke-width="2" fill="red"/>
<circle r="2" cx="426" cy="363" stroke="black" stroke-width="2" fill="red"/>
<circle r="2" cx="179" cy="199" stroke="black" stroke-width="2" fill="red"/>
<circle r="2" cx="253" cy="467" stroke="black" stroke-width="2" fill="red"/>
<circle r="2" cx="493" cy="195" stroke="black" stroke-width="2" fill="red"/>
<circle r="2" cx="6" cy="302" stroke="black" stroke-width="2" fill="red"/>
<circle r="2" cx="246" cy="31" stroke="black" stroke-width="2" fill="red"/>
<circle r="2" cx="320" cy="299" stroke="black" stroke-width="2" fill="red"/>
<circle r="2" cx="73" cy="135" stroke="black" stroke-width="2" fill="red"/>
<circle r="2" cx="443" cy="326" stroke="black" stroke-width="2" fill="red"/>
<circle r="2" cx="207" cy="168" stroke="black" stroke-width="2" fill="red"/>
<circle r="2" cx="246" cy="444" stroke="black" stroke-width="2" fill="red"/>
<circle r="2" cx="489" cy="212" stroke="black" stroke-width="2" fill="red"/>
<circle r="2" cx="10" cy="286" stroke="black" stroke-width="2" fill="red"/>
<circle r="2" cx="253" cy="54" stroke="black" stroke-width="2" fill="red"/>
<circle r="2" cx="292" cy="330" stroke="black" stroke-width="2" fill="red"/>
<circle r="2" cx="56" cy="172" stroke="black" stroke-width="2" fill="red"/>
<circle r="2" cx="456" cy="287" stroke="black" stroke-width="2" fill="red"/>
<circle r="2" cx="236" cy="140" stroke="black" stroke-width="2" fill="red"/>
<circle r="2" cx="240" cy="416" stroke="black" stroke-width="2" fill="red"/>
<circle r="2" cx="479" cy="229" stroke="black" stroke-width="2" fill="red"/>
<circle r="2" cx="20" cy="269" stroke="black" stroke-width="2" fill="red"/>
<circle r="2" cx="259" cy="82" stroke="black" stroke-width="2" fill="red"/>
<circle r="2" cx="263" cy="358" stroke="black" stroke-width="2" fill="red"/>
<circle r="2" cx="43" cy="211" stroke="black" stroke-width="2" fill="red"/>
<circle r="2" cx="462" cy="246" stroke="black" stroke-width="2" fill="red"/>
<circle r="2" cx="265" cy="115" stroke="black" stroke-width="2" fill="red"/>
<circle r="2" cx="234" cy="383" stroke="black" stroke-width="2" fill="red"/>
<circle r="2" cx="37" cy="251" stroke="black" stroke-width="2" fill="red"/>
<circle r="2" cx="252" cy="482" stroke="black" stroke-width="2" fill="red"/>
<circle r="2" cx="101" cy="381" stroke="black" stroke-width="2" fill="red"/>
<circle r="2" cx="398" cy="117" stroke="black" stroke-width="2" fill="red"/>
<circle r="2" cx="247" cy="16" stroke="black" stroke-width="2" fill="red"/>
<circle r="2" cx="283" cy="470" stroke="black" stroke-width="2" fill="red"/>
<circle r="2" cx="114" cy="357" stroke="black" stroke-width="2" fill="red"/>
<circle r="2" cx="245" cy="493" stroke="black" stroke-width="2" fill="red"/>
<circle r="2" cx="424" cy="118" stroke="black" stroke-width="2" fill="red"/>
<circle r="2" cx="75" cy="380" stroke="black" stroke-width="2" fill="red"/>
<circle r="2" cx="254" cy="5" stroke="black" stroke-width="2" fill="red"/>
<circle r="2" cx="385" cy="141" stroke="black" stroke-width="2" fill="red"/>
<circle r="2" cx="216" cy="28" stroke="black" stroke-width="2" fill="red"/>
<circle r="2" cx="314" cy="452" stroke="black" stroke-width="2" fill="red"/>
<circle r="2" cx="130" cy="330" stroke="black" stroke-width="2" fill="red"/>
<circle r="2" cx="237" cy="498" stroke="black" stroke-width="2" fill="red"/>
<circle r="2" cx="446" cy="122" stroke="black" stroke-width="2" fill="red"/>
<circle r="2" cx="53" cy="375" stroke="black" stroke-width="2" fill="red"/>
<circle r="2" cx="262" cy="0" stroke="black" stroke-width="2" fill="red"/>
<circle r="2" cx="369" cy="168" stroke="black" stroke-width="2" fill="red"/>
<circle r="2" cx="185" cy="45" stroke="black" stroke-width="2" fill="red"/>
<circle r="2" cx="343" cy="430" stroke="black" stroke-width="2" fill="red"/>
<circle r="2" cx="149" cy="300" stroke="black" stroke-width="2" fill="red"/>
<circle r="2" cx="230" cy="497" stroke="black" stroke-width="2" fill="red"/>
<circle r="2" cx="463" cy="130" stroke="black" stroke-width="2" fill="red"/>
<circle r="2" cx="36" cy="368" stroke="black" stroke-width="2" fill="red"/>
<circle r="2" cx="269" cy="1" stroke="black" stroke-width="2" fill="red"/>
<circle r="2" cx="350" cy="197" stroke="black" stroke-width="2" fill="red"/>
<circle r="2" cx="156" cy="68" stroke="black" stroke-width="2" fill="red"/>
<circle r="2" cx="369" cy="403" stroke="black" stroke-width="2" fill="red"/>
<circle r="2" cx="170" cy="270" stroke="black" stroke-width="2" fill="red"/>
<circle r="2" cx="224" cy="490" stroke="black" stroke-width="2" fill="red"/>
<circle r="2" cx="474" cy="140" stroke="black" stroke-width="2" fill="red"/>
<circle r="2" cx="25" cy="357" stroke="black" stroke-width="2" fill="red"/>
<circle r="2" cx="275" cy="8" stroke="black" stroke-width="2" fill="red"/>
<circle r="2" cx="329" cy="228" stroke="black" stroke-width="2" fill="red"/>
<circle r="2" cx="130" cy="95" stroke="black" stroke-width="2" fill="red"/>
<circle r="2" cx="393" cy="372" stroke="black" stroke-width="2" fill="red"/>
<circle r="2" cx="194" cy="239" stroke="black" stroke-width="2" fill="red"/>
<circle r="2" cx="218" cy="477" stroke="black" stroke-width="2" fill="red"/>
<circle r="2" cx="480" cy="154" stroke="black" stroke-width="2" fill="red"/>
<circle r="2" cx="19" cy="344" stroke="black" stroke-width="2" fill="red"/>
<circle r="2" cx="281" cy="21" stroke="black" stroke-width="2" fill="red"/>
<circle r="2" cx="305" cy="259" stroke="black" stroke-width="2" fill="red"/>
<circle r="2" cx="106" cy="126" stroke="black" stroke-width="2" fill="red"/>
<circle r="2" cx="413" cy="338" stroke="black" stroke-width="2" fill="red"/>
<circle r="2" cx="219" cy="209" stroke="black" stroke-width="2" fill="red"/>
<circle r="2" cx="213" cy="458" stroke="black" stroke-width="2" fill="red"/>
<circle r="2" cx="480" cy="169" stroke="black" stroke-width="2" fill="red"/>
<circle r="2" cx="19" cy="328" stroke="black" stroke-width="2" fill="red"/>
<circle r="2" cx="286" cy="40" stroke="black" stroke-width="2" fill="red"/>
<circle r="2" cx="280" cy="289" stroke="black" stroke-width="2" fill="red"/>
<circle r="2" cx="86" cy="160" stroke="black" stroke-width="2" fill="red"/>
<circle r="2" cx="429" cy="302" stroke="black" stroke-width="2" fill="red"/>
<circle r="2" cx="244" cy="179" stroke="black" stroke-width="2" fill="red"/>
<circle r="2" cx="209" cy="434" stroke="black" stroke-width="2" fill="red"/>
<circle r="2" cx="475" cy="187" stroke="black" stroke-width="2" fill="red"/>
<circle r="2" cx="24" cy="311" stroke="black" stroke-width="2" fill="red"/>
<circle r="2" cx="290" cy="64" stroke="black" stroke-width="2" fill="red"/>
<circle r="2" cx="255" cy="319" stroke="black" stroke-width="2" fill="red"/>
<circle r="2" cx="70" cy="196" stroke="black" stroke-width="2" fill="red"/>
<circle r="2" cx="440" cy="264" stroke="black" stroke-width="2" fill="red"/>
<circle r="2" cx="270" cy="151" stroke="black" stroke-width="2" fill="red"/>
<circle r="2" cx="205" cy="405" stroke="black" stroke-width="2" fill="red"/>
<circle r="2" cx="463" cy="206" stroke="black" stroke-width="2" fill="red"/>
<circle r="2" cx="36" cy="292" stroke="black" stroke-width="2" fill="red"/>
<circle r="2" cx="294" cy="93" stroke="black" stroke-width="2" fill="red"/>
<circle r="2" cx="229" cy="347" stroke="black" stroke-width="2" fill="red"/>
<circle r="2" cx="59" cy="234" stroke="black" stroke-width="2" fill="red"/>
<circle r="2" cx="447" cy="226" stroke="black" stroke-width="2" fill="red"/>
<circle r="2" cx="296" cy="126" stroke="black" stroke-width="2" fill="red"/>
<circle r="2" cx="203" cy="372" stroke="black" stroke-width="2" fill="red"/>
<circle r="2" cx="52" cy="272" stroke="black" stroke-width="2" fill="red"/>
<circle r="2" cx="224" cy="474" stroke="black" stroke-width="2" fill="red"/>
<circle r="2" cx="122" cy="406" stroke="black" stroke-width="2" fill="red"/>
<circle r="2" cx="377" cy="92" stroke="black" stroke-width="2" fill="red"/>
<circle r="2" cx="275" cy="24" stroke="black" stroke-width="2" fill="red"/>
<circle r="2" cx="252" cy="463" stroke="black" stroke-width="2" fill="red"/>
<circle r="2" cx="136" cy="386" stroke="black" stroke-width="2" fill="red"/>
<circle r="2" cx="213" cy="486" stroke="black" stroke-width="2" fill="red"/>
<circle r="2" cx="401" cy="89" stroke="black" stroke-width="2" fill="red"/>
<circle r="2" cx="98" cy="409" stroke="black" stroke-width="2" fill="red"/>
<circle r="2" cx="286" cy="12" stroke="black" stroke-width="2" fill="red"/>
<circle r="2" cx="363" cy="112" stroke="black" stroke-width="2" fill="red"/>
<circle r="2" cx="247" cy="35" stroke="black" stroke-width="2" fill="red"/>
<circle r="2" cx="279" cy="447" stroke="black" stroke-width="2" fill="red"/>
<circle r="2" cx="153" cy="363" stroke="black" stroke-width="2" fill="red"/>
<circle r="2" cx="203" cy="492" stroke="black" stroke-width="2" fill="red"/>
<circle r="2" cx="422" cy="90" stroke="black" stroke-width="2" fill="red"/>
<circle r="2" cx="77" cy="408" stroke="black" stroke-width="2" fill="red"/>
<circle r="2" cx="296" cy="6" stroke="black" stroke-width="2" fill="red"/>
<circle r="2" cx="346" cy="135" stroke="black" stroke-width="2" fill="red"/>
<circle r="2" cx="220" cy="51" stroke="black" stroke-width="2" fill="red"/>
<circle r="2" cx="305" cy="426" stroke="black" stroke-width="2" fill="red"/>
<circle r="2" cx="172" cy="337" stroke="black" stroke-width="2" fill="red"/>
<circle r="2" cx="194" cy="493" stroke="black" stroke-width="2" fill="red"/>
<circle r="2" cx="438" cy="94" stroke="black" stroke-width="2" fill="red"/>
<circle r="2" cx="61" cy="404" stroke="black" stroke-width="2" fill="red"/>
<circle r="2" cx="305" cy="5" stroke="black" stroke-width="2" fill="red"/>
<circle r="2" cx="327" cy="161" stroke="black" stroke-width="2" fill="red"/>
<circle r="2" cx="194" cy="72" stroke="black" stroke-width="2" fill="red"/>
<circle r="2" cx="331" cy="402" stroke="black" stroke-width="2" fill="red"/>
<circle r="2" cx="192" cy="310" stroke="black" stroke-width="2" fill="red"/>
<circle r="2" cx="187" cy="488" stroke="black" stroke-width="2" fill="red"/>
<circle r="2" cx="451" cy="102" stroke="black" stroke-width="2" fill="red"/>
<circle r="2" cx="48" cy="396" stroke="black" stroke-width="2" fill="red"/>
<circle r="2" cx="312" cy="9" stroke="black" stroke-width="2" fill="red"/>
<circle r="2" cx="307" cy="188" stroke="black" stroke-width="2" fill="red"/>
<circle r="2" cx="168" cy="96" stroke="black" stroke-width="2" fill="red"/>
<circle r="2" cx="354" cy="374" stroke="black" stroke-width="2" fill="red"/>
<circle r="2" cx="214" cy="281" stroke="black" stroke-width="2" fill="red"/>
<circle r="2" cx="180" cy="478" stroke="black" stroke-width="2" fill="red"/>
<circle r="2" cx="459" cy="113" stroke="black" stroke-width="2" fill="red"/>
<circle r="2" cx="40" cy="385" stroke="black" stroke-width="2" fill="red"/>
<circle r="2" cx="319" cy="19" stroke="black" stroke-width="2" fill="red"/>
<circle r="2" cx="285" cy="217" stroke="black" stroke-width="2" fill="red"/>
<circle r="2" cx="145" cy="124" stroke="black" stroke-width="2" fill="red"/>
<circle r="2" cx="375" cy="343" stroke="black" stroke-width="2" fill="red"/>
<circle r="2" cx="237" cy="251" stroke="black" stroke-width="2" fill="red"/>
<circle r="2" cx="175" cy="463" stroke="black" stroke-width="2" fill="red"/>
<circle r="2" cx="462" cy="127" stroke="black" stroke-width="2" fill="red"/>
<circle r="2" cx="37" cy="371" stroke="black" stroke-width="2" fill="red"/>
<circle r="2" cx="324" cy="35" stroke="black" stroke-width="2" fill="red"/>
<circle r="2" cx="262" cy="247" stroke="black" stroke-width="2" fill="red"/>
<circle r="2" cx="124" cy="155" stroke="black" stroke-width="2" fill="red"/>
<circle r="2" cx="394" cy="310" stroke="black" stroke-width="2" fill="red"/>
<circle r="2" cx="260" cy="221" stroke="black" stroke-width="2" fill="red"/>
<circle r="2" cx="172" cy="443" stroke="black" stroke-width="2" fill="red"/>
<circle r="2" cx="460" cy="144" stroke="black" stroke-width="2" fill="red"/>
<circle r="2" cx="39" cy="354" stroke="black" stroke-width="2" fill="red"/>
<circle r="2" cx="327" cy="55" stroke="black" stroke-width="2" fill="red"/>
<circle r="2" cx="239" cy="277" stroke="black" stroke-width="2" fill="red"/>
<circle r="2" cx="105" cy="187" stroke="black" stroke-width="2" fill="red"/>
<circle r="2" cx="409" cy="276" stroke="black" stroke-width="2" fill="red"/>
<circle r="2" cx="283" cy="192" stroke="black" stroke-width="2" fill="red"/>
<circle r="2" cx="171" cy="419" stroke="black" stroke-width="2" fill="red"/>
<circle r="2" cx="454" cy="163" stroke="black" stroke-width="2" fill="red"/>
<circle r="2" cx="45" cy="335" stroke="black" stroke-width="2" fill="red"/>
<circle r="2" cx="328" cy="79" stroke="black" stroke-width="2" fill="red"/>
<circle r="2" cx="216" cy="306" stroke="black" stroke-width="2" fill="red"/>
<circle r="2" cx="90" cy="222" stroke="black" stroke-width="2" fill="red"/>
<circle r="2" cx="420" cy="241" stroke="black" stroke-width="2" fill="red"/>
<circle r="2" cx="305" cy="164" stroke="black" stroke-width="2" fill="red"/>
<circle r="2" cx="171" cy="391" stroke="black" stroke-width="2" fill="red"/>
<circle r="2" cx="443" cy="184" stroke="black" stroke-width="2" fill="red"/>
<circle r="2" cx="56" cy="314" stroke="black" stroke-width="2" fill="red"/>
<circle r="2" cx="328" cy="107" stroke="black" stroke-width="2" fill="red"/>
<circle r="2" cx="194" cy="333" stroke="black" stroke-width="2" fill="red"/>
<circle r="2" cx="79" cy="256" stroke="black" stroke-width="2" fill="red"/>
<circle r="2" cx="428" cy="207" stroke="black" stroke-width="2" fill="red"/>
<circle r="2" cx="326" cy="139" stroke="black" stroke-width="2" fill="red"/>
<circle r="2" cx="173" cy="359" stroke="black" stroke-width="2" fill="red"/>
<circle r="2" cx="71" cy="291" stroke="black" stroke-width="2" fill="red"/>
<circle r="2" cx="197" cy="462" stroke="black" stroke-width="2" fill="red"/>
<circle r="2" cx="145" cy="428" stroke="black" stroke-width="2" fill="red"/>
<circle r="2" cx="354" cy="70" stroke="black" stroke-width="2" fill="red"/>
<circle r="2" cx="302" cy="36" stroke="black" stroke-width="2" fill="red"/>
<circle r="2" cx="220" cy="451" stroke="black" stroke-width="2" fill="red"/>
<circle r="2" cx="161" cy="412" stroke="black" stroke-width="2" fill="red"/>
<circle r="2" cx="183" cy="473" stroke="black" stroke-width="2" fill="red"/>
<circle r="2" cx="374" cy="64" stroke="black" stroke-width="2" fill="red"/>
<circle r="2" cx="125" cy="434" stroke="black" stroke-width="2" fill="red"/>
<circle r="2" cx="316" cy="25" stroke="black" stroke-width="2" fill="red"/>
<circle r="2" cx="338" cy="86" stroke="black" stroke-width="2" fill="red"/>
<circle r="2" cx="279" cy="47" stroke="black" stroke-width="2" fill="red"/>
<circle r="2" cx="243" cy="435" stroke="black" stroke-width="2" fill="red"/>
<circle r="2" cx="179" cy="393" stroke="black" stroke-width="2" fill="red"/>
<circle r="2" cx="170" cy="479" stroke="black" stroke-width="2" fill="red"/>
<circle r="2" cx="393" cy="61" stroke="black" stroke-width="2" fill="red"/>
<circle r="2" cx="106" cy="437" stroke="black" stroke-width="2" fill="red"/>
<circle r="2" cx="329" cy="19" stroke="black" stroke-width="2" fill="red"/>
<circle r="2" cx="320" cy="105" stroke="black" stroke-width="2" fill="red"/>
<circle r="2" cx="256" cy="62" stroke="black" stroke-width="2" fill="red"/>
<circle r="2" cx="266" cy="416" stroke="black" stroke-width="2" fill="red"/>
<circle r="2" cx="198" cy="371" stroke="black" stroke-width="2" fill="red"/>
<circle r="2" cx="159" cy="481" stroke="black" stroke-width="2" fill="red"/>
<circle r="2" cx="408" cy="62" stroke="black" stroke-width="2" fill="red"/>
<circle r="2" cx="91" cy="436" stroke="black" stroke-width="2" fill="red"/>
<circle r="2" cx="340" cy="17" stroke="black" stroke-width="2" fill="red"/>
<circle r="2" cx="301" cy="127" stroke="black" stroke-width="2" fill="red"/>
<circle r="2" cx="233" cy="81" stroke="black" stroke-width="2" fill="red"/>
<circle r="2" cx="289" cy="394" stroke="black" stroke-width="2" fill="red"/>
<circle r="2" cx="219" cy="347" stroke="black" stroke-width="2" fill="red"/>
<circle r="2" cx="149" cy="478" stroke="black" stroke-width="2" fill="red"/>
<circle r="2" cx="420" cy="67" stroke="black" stroke-width="2" fill="red"/>
<circle r="2" cx="79" cy="431" stroke="black" stroke-width="2" fill="red"/>
<circle r="2" cx="350" cy="20" stroke="black" stroke-width="2" fill="red"/>
<circle r="2" cx="280" cy="151" stroke="black" stroke-width="2" fill="red"/>
<circle r="2" cx="210" cy="104" stroke="black" stroke-width="2" fill="red"/>
<circle r="2" cx="312" cy="369" stroke="black" stroke-width="2" fill="red"/>
<circle r="2" cx="239" cy="321" stroke="black" stroke-width="2" fill="red"/>
<circle r="2" cx="142" cy="471" stroke="black" stroke-width="2" fill="red"/>
<circle r="2" cx="429" cy="75" stroke="black" stroke-width="2" fill="red"/>
<circle r="2" cx="70" cy="423" stroke="black" stroke-width="2" fill="red"/>
<circle r="2" cx="357" cy="27" stroke="black" stroke-width="2" fill="red"/>
<circle r="2" cx="260" cy="177" stroke="black" stroke-width="2" fill="red"/>
<circle r="2" cx="187" cy="129" stroke="black" stroke-width="2" fill="red"/>
<circle r="2" cx="333" cy="341" stroke="black" stroke-width="2" fill="red"/>
<circle r="2" cx="260" cy="293" stroke="black" stroke-width="2" fill="red"/>
<circle r="2" cx="137" cy="459" stroke="black" stroke-width="2" fill="red"/>
<circle r="2" cx="434" cy="87" stroke="black" stroke-width="2" fill="red"/>
<circle r="2" cx="65" cy="411" stroke="black" stroke-width="2" fill="red"/>
<circle r="2" cx="362" cy="39" stroke="black" stroke-width="2" fill="red"/>
<circle r="2" cx="239" cy="205" stroke="black" stroke-width="2" fill="red"/>
<circle r="2" cx="166" cy="156" stroke="black" stroke-width="2" fill="red"/>
<circle r="2" cx="352" cy="312" stroke="black" stroke-width="2" fill="red"/>
<circle r="2" cx="281" cy="265" stroke="black" stroke-width="2" fill="red"/>
<circle r="2" cx="134" cy="443" stroke="black" stroke-width="2" fill="red"/>
<circle r="2" cx="436" cy="102" stroke="black" stroke-width="2" fill="red"/>
<circle r="2" cx="63" cy="396" stroke="black" stroke-width="2" fill="red"/>
<circle r="2" cx="365" cy="55" stroke="black" stroke-width="2" fill="red"/>
<circle r="2" cx="218" cy="233" stroke="black" stroke-width="2" fill="red"/>
<circle r="2" cx="147" cy="186" stroke="black" stroke-width="2" fill="red"/>
<circle r="2" cx="369" cy="281" stroke="black" stroke-width="2" fill="red"/>
<circle r="2" cx="301" cy="236" stroke="black" stroke-width="2" fill="red"/>
<circle r="2" cx="133" cy="423" stroke="black" stroke-width="2" fill="red"/>
<circle r="2" cx="434" cy="120" stroke="black" stroke-width="2" fill="red"/>
<circle r="2" cx="65" cy="378" stroke="black" stroke-width="2" fill="red"/>
<circle r="2" cx="366" cy="75" stroke="black" stroke-width="2" fill="red"/>
<circle r="2" cx="198" cy="262" stroke="black" stroke-width="2" fill="red"/>
<circle r="2" cx="130" cy="217" stroke="black" stroke-width="2" fill="red"/>
<circle r="2" cx="384" cy="250" stroke="black" stroke-width="2" fill="red"/>
<circle r="2" cx="321" cy="207" stroke="black" stroke-width="2" fill="red"/>
<circle r="2" cx="135" cy="400" stroke="black" stroke-width="2" fill="red"/>
<circle r="2" cx="428" cy="141" stroke="black" stroke-width="2" fill="red"/>
<circle r="2" cx="71" cy="357" stroke="black" stroke-width="2" fill="red"/>
<circle r="2" cx="364" cy="98" stroke="black" stroke-width="2" fill="red"/>
<circle r="2" cx="178" cy="290" stroke="black" stroke-width="2" fill="red"/>
<circle r="2" cx="115" cy="248" stroke="black" stroke-width="2" fill="red"/>
<circle r="2" cx="397" cy="219" stroke="black" stroke-width="2" fill="red"/>
<circle r="2" cx="338" cy="180" stroke="black" stroke-width="2" fill="red"/>
<circle r="2" cx="139" cy="373" stroke="black" stroke-width="2" fill="red"/>
<circle r="2" cx="419" cy="163" stroke="black" stroke-width="2" fill="red"/>
<circle r="2" cx="80" cy="334" stroke="black" stroke-width="2" fill="red"/>
<circle r="2" cx="360" cy="125" stroke="black" stroke-width="2" fill="red"/>
<circle r="2" cx="161" cy="318" stroke="black" stroke-width="2" fill="red"/>
<circle r="2" cx="102" cy="279" stroke="black" stroke-width="2" fill="red"/>
<circle r="2" cx="406" cy="188" stroke="black" stroke-width="2" fill="red"/>
<circle r="2" cx="354" cy="153" stroke="black" stroke-width="2" fill="red"/>
<circle r="2" cx="145" cy="344" stroke="black" stroke-width="2" fill="red"/>
<circle r="2" cx="93" cy="310" stroke="black" stroke-width="2" fill="red"/>
<circle r="2" cx="170" cy="446" stroke="black" stroke-width="2" fill="red"/>
<circle r="2" cx="329" cy="51" stroke="black" stroke-width="2" fill="red"/>
<circle r="2" cx="188" cy="434" stroke="black" stroke-width="2" fill="red"/>
<circle r="2" cx="154" cy="455" stroke="black" stroke-width="2" fill="red"/>
<circle r="2" cx="345" cy="43" stroke="black" stroke-width="2" fill="red"/>
<circle r="2" cx="311" cy="63" stroke="black" stroke-width="2" fill="red"/>
<circle r="2" cx="207" cy="419" stroke="black" stroke-width="2" fill="red"/>
<circle r="2" cx="139" cy="460" stroke="black" stroke-width="2" fill="red"/>
<circle r="2" cx="360" cy="38" stroke="black" stroke-width="2" fill="red"/>
<circle r="2" cx="292" cy="79" stroke="black" stroke-width="2" fill="red"/>
<circle r="2" cx="227" cy="401" stroke="black" stroke-width="2" fill="red"/>
<circle r="2" cx="126" cy="462" stroke="black" stroke-width="2" fill="red"/>
<circle r="2" cx="373" cy="36" stroke="black" stroke-width="2" fill="red"/>
<circle r="2" cx="272" cy="97" stroke="black" stroke-width="2" fill="red"/>
<circle r="2" cx="247" cy="380" stroke="black" stroke-width="2" fill="red"/>
<circle r="2" cx="115" cy="459" stroke="black" stroke-width="2" fill="red"/>
<circle r="2" cx="384" cy="38" stroke="black" stroke-width="2" fill="red"/>
<circle r="2" cx="252" cy="117" stroke="black" stroke-width="2" fill="red"/>
<circle r="2" cx="267" cy="358" stroke="black" stroke-width="2" fill="red"/>
<circle r="2" cx="107" cy="454" stroke="black" stroke-width="2" fill="red"/>
<circle r="2" cx="392" cy="44" stroke="black" stroke-width="2" fill="red"/>
<circle r="2" cx="232" cy="140" stroke="black" stroke-width="2" fill="red"/>
<circle r="2" cx="287" cy="333" stroke="black" stroke-width="2" fill="red"/>
<circle r="2" cx="101" cy="444" stroke="black" stroke-width="2" fill="red"/>
<circle r="2" cx="398" cy="53" stroke="black" stroke-width="2" fill="red"/>
<circle r="2" cx="212" cy="165" stroke="black" stroke-width="2" fill="red"/>
<circle r="2" cx="306" cy="306" stroke="black" stroke-width="2" fill="red"/>
<circle r="2" cx="97" cy="432" stroke="black" stroke-width="2" fill="red"/>
<circle r="2" cx="402" cy="66" stroke="black" stroke-width="2" fill="red"/>
<circle r="2" cx="193" cy="191" stroke="black" stroke-width="2" fill="red"/>
<circle r="2" cx="324" cy="279" stroke="black" stroke-width="2" fill="red"/>
<circle r="2" cx="96" cy="416" stroke="black" stroke-width="2" fill="red"/>
<circle r="2" cx="403" cy="82" stroke="black" stroke-width="2" fill="red"/>
<circle r="2" cx="175" cy="219" stroke="black" stroke-width="2" fill="red"/>
<circle r="2" cx="341" cy="251" stroke="black" stroke-width="2" fill="red"/>
<circle r="2" cx="98" cy="397" stroke="black" stroke-width="2" fill="red"/>
<circle r="2" cx="401" cy="100" stroke="black" stroke-width="2" fill="red"/>
<circle r="2" cx="158" cy="246" stroke="black" stroke-width="2" fill="red"/>
<circle r="2" cx="356" cy="224" stroke="black" stroke-width="2" fill="red"/>
<circle r="2" cx="102" cy="376" stroke="black" stroke-width="2" fill="red"/>
<circle r="2" cx="397" cy="121" stroke="black" stroke-width="2" fill="red"/>
<circle r="2" cx="143" cy="274" stroke="black" stroke-width="2" fill="red"/>
<circle r="2" cx="370" cy="196" stroke="black" stroke-width="2" fill="red"/>
<circle r="2" cx="109" cy="353" stroke="black" stroke-width="2" fill="red"/>
<circle r="2" cx="390" cy="145" stroke="black" stroke-width="2" fill="red"/>
<circle r="2" cx="129" cy="301" stroke="black" stroke-width="2" fill="red"/>
<circle r="2" cx="381" cy="170" stroke="black" stroke-width="2" fill="red"/>
<circle r="2" cx="118" cy="328" stroke="black" stroke-width="2" fill="red"/>
</svg>
