<?xml version="1.0" standalone="no"?>
<svg width="1050" height="1050" version="1.1"
xmlns="http://www.w3.org/2000/svg">
<rect width="1050" height="1050" style="fill:rgb(255,255,255); stroke-width:10;  stroke:rgb(255,255,255)"/>
<circle r="2" cx="115" cy="373" stroke="black" stroke-width="2" fill="red"/>
<circle r="2" cx="131" cy="433" stroke="black" stroke-width="2" fill="red"/>
<circle r="2" cx="475" cy="205" stroke="black" stroke-width="2" fill="red"/>
<circle r="2" cx="127" cy="36" stroke="black" stroke-width="2" fill="red"/>
<circle r="2" cx="114" cy="327" stroke="black" stroke-width="2" fill="red"/>
<circle r="2" cx="79" cy="358" stroke="black" stroke-width="2" fill="red"/>
<circle r="2" cx="164" cy="254" stroke="black" stroke-width="2" fill="red"/>
<circle r="2" cx="225" cy="136" stroke="black" stroke-width="2" fill="red"/>
<circle r="2" cx="294" cy="111" stroke="black" stroke-width="2" fill="red"/>
<circle r="2" cx="303" cy="448" stroke="black" stroke-width="2" fill="red"/>
<circle r="2" cx="309" cy="332" stroke="black" stroke-width="2" fill="red"/>
<circle r="2" cx="299" cy="419" stroke="black" stroke-width="2" fill="red"/>
<circle r="2" cx="296" cy="194" stroke="black" stroke-width="2" fill="red"/>
<circle r="2" cx="315" cy="206" stroke="black" stroke-width="2" fill="red"/>
<circle r="2" cx="482" cy="307" stroke="black" stroke-width="2" fill="red"/>
<circle r="2" cx="216" cy="419" stroke="black" stroke-width="2" fill="red"/>
<circle r="2" cx="400" cy="95" stroke="black" stroke-width="2" fill="red"/>
<circle r="2" cx="276" cy="149" stroke="black" stroke-width="2" fill="red"/>
<circle r="2" cx="289" cy="86" stroke="black" stroke-width="2" fill="red"/>
<circle r="2" cx="146" cy="166" stroke="black" stroke-width="2" fill="red"/>
<circle r="2" cx="211" cy="248" stroke="black" stroke-width="2" fill="red"/>
<circle r="2" cx="392" cy="301" stroke="black" stroke-width="2" fill="red"/>
<circle r="2" cx="274" cy="379" stroke="black" stroke-width="2" fill="red"/>
<circle r="2" cx="216" cy="198" stroke="black" stroke-width="2" fill="red"/>
<circle r="2" cx="196" cy="354" stroke="black" stroke-width="2" fill="red"/>
<circle r="2" cx="265" cy="440" stroke="black" stroke-width="2" fill="red"/>
<circle r="2" cx="342" cy="79" stroke="black" stroke-width="2" fill="red"/>
<circle r="2" cx="137" cy="447" stroke="black" stroke-width="2" fill="red"/>
<circle r="2" cx="255" cy="99" stroke="black" stroke-width="2" fill="red"/>
<circle r="2" cx="217" cy="260" stroke="black" stroke-width="2" fill="red"/>
<circle r="2" cx="143" cy="112" stroke="black" stroke-width="2" fill="red"/>
<circle r="2" cx="378" cy="315" stroke="black" stroke-width="2" fill="red"/>
<circle r="2" cx="219" cy="182" stroke="black" stroke-width="2" fill="red"/>
<circle r="2" cx="283" cy="392" stroke="black" stroke-width="2" fill="red"/>
<circle r="2" cx="376" cy="125" stroke="black" stroke-width="2" fill="red"/>
<circle r="2" cx="323" cy="248" stroke="black" stroke-width="2" fill="red"/>
<circle r="2" cx="191" cy="168" stroke="black" stroke-width="2" fill="red"/>
<circle r="2" cx="276" cy="80" stroke="black" stroke-width="2" fill="red"/>
<circle r="2" cx="363" cy="332" stroke="black" stroke-width="2" fill="red"/>
<circle r="2" cx="211" cy="469" stroke="black" stroke-width="2" fill="red"/>
<circle r="2" cx="302" cy="392" stroke="black" stroke-width="2" fill="red"/>
<circle r="2" cx="28" cy="152" stroke="black" stroke-width="2" fill="red"/>
<circle r="2" cx="26" cy="367" stroke="black" stroke-width="2" fill="red"/>
<circle r="2" cx="91" cy="273" stroke="black" stroke-width="2" fill="red"/>
<circle r="2" cx="252" cy="325" stroke="black" stroke-width="2" fill="red"/>
<circle r="2" cx="434" cy="393" stroke="black" stroke-width="2" fill="red"/>
<circle r="2" cx="95" cy="224" stroke="black" stroke-width="2" fill="red"/>
<circle r="2" cx="64" cy="226" stroke="black" stroke-width="2" fill="red"/>
<circle r="2" cx="374" cy="245" stroke="black" stroke-width="2" fill="red"/>
<circle r="2" cx="187" cy="1" stroke="black" stroke-width="2" fill="red"/>
<circle r="2" cx="147" cy="29" stroke="black" stroke-width="2" fill="red"/>
<circle r="2" cx="286" cy="0" stroke="black" stroke-width="2" fill="red"/>
<circle r="2" cx="310" cy="243" stroke="black" stroke-width="2" fill="red"/>
<circle r="2" cx="418" cy="207" stroke="black" stroke-width="2" fill="red"/>
<circle r="2" cx="85" cy="339" stroke="black" stroke-width="2" fill="red"/>
<circle r="2" cx="315" cy="325" stroke="black" stroke-width="2" fill="red"/>
<circle r="2" cx="194" cy="232" stroke="black" stroke-width="2" fill="red"/>
<circle r="2" cx="198" cy="207" stroke="black" stroke-width="2" fill="red"/>
<circle r="2" cx="274" cy="6" stroke="black" stroke-width="2" fill="red"/>
<circle r="2" cx="136" cy="213" stroke="black" stroke-width="2" fill="red"/>
<circle r="2" cx="104" cy="298" stroke="black" stroke-width="2" fill="red"/>
<circle r="2" cx="134" cy="350" stroke="black" stroke-width="2" fill="red"/>
<circle r="2" cx="135" cy="443" stroke="black" stroke-width="2" fill="red"/>
<circle r="2" cx="77" cy="130" stroke="black" stroke-width="2" fill="red"/>
<circle r="2" cx="75" cy="428" stroke="black" stroke-width="2" fill="red"/>
<circle r="2" cx="281" cy="223" stroke="black" stroke-width="2" fill="red"/>
<circle r="2" cx="399" cy="331" stroke="black" stroke-width="2" fill="red"/>
<circle r="2" cx="264" cy="403" stroke="black" stroke-width="2" fill="red"/>
<circle r="2" cx="145" cy="192" stroke="black" stroke-width="2" fill="red"/>
<circle r="2" cx="300" cy="265" stroke="black" stroke-width="2" fill="red"/>
<circle r="2" cx="405" cy="359" stroke="black" stroke-width="2" fill="red"/>
<circle r="2" cx="66" cy="189" stroke="black" stroke-width="2" fill="red"/>
<circle r="2" cx="324" cy="241" stroke="black" stroke-width="2" fill="red"/>
<circle r="2" cx="312" cy="25" stroke="black" stroke-width="2" fill="red"/>
<circle r="2" cx="370" cy="101" stroke="black" stroke-width="2" fill="red"/>
<circle r="2" cx="114" cy="168" stroke="black" stroke-width="2" fill="red"/>
<circle r="2" cx="253" cy="90" stroke="black" stroke-width="2" fill="red"/>
<circle r="2" cx="255" cy="53" stroke="black" stroke-width="2" fill="red"/>
<circle r="2" cx="154" cy="131" stroke="black" stroke-width="2" fill="red"/>
<circle r="2" cx="346" cy="294" stroke="black" stroke-width="2" fill="red"/>
<circle r="2" cx="381" cy="214" stroke="black" stroke-width="2" fill="red"/>
<circle r="2" cx="161" cy="339" stroke="black" stroke-width="2" fill="red"/>
<circle r="2" cx="403" cy="345" stroke="black" stroke-width="2" fill="red"/>
<circle r="2" cx="261" cy="154" stroke="black" stroke-width="2" fill="red"/>
<circle r="2" cx="125" cy="174" stroke="black" stroke-width="2" fill="red"/>
<circle r="2" cx="355" cy="408" stroke="black" stroke-width="2" fill="red"/>
<circle r="2" cx="137" cy="222" stroke="black" stroke-width="2" fill="red"/>
<circle r="2" cx="254" cy="221" stroke="black" stroke-width="2" fill="red"/>
<circle r="2" cx="231" cy="135" stroke="black" stroke-width="2" fill="red"/>
<circle r="2" cx="207" cy="157" stroke="black" stroke-width="2" fill="red"/>
<circle r="2" cx="124" cy="288" stroke="black" stroke-width="2" fill="red"/>
<circle r="2" cx="66" cy="249" stroke="black" stroke-width="2" fill="red"/>
<circle r="2" cx="434" cy="145" stroke="black" stroke-width="2" fill="red"/>
<circle r="2" cx="129" cy="359" stroke="black" stroke-width="2" fill="red"/>
<circle r="2" cx="118" cy="262" stroke="black" stroke-width="2" fill="red"/>
<circle r="2" cx="482" cy="259" stroke="black" stroke-width="2" fill="red"/>
<circle r="2" cx="275" cy="13" stroke="black" stroke-width="2" fill="red"/>
<circle r="2" cx="239" cy="172" stroke="black" stroke-width="2" fill="red"/>
<circle r="2" cx="80" cy="308" stroke="black" stroke-width="2" fill="red"/>
<circle r="2" cx="262" cy="237" stroke="black" stroke-width="2" fill="red"/>
<circle r="2" cx="285" cy="307" stroke="black" stroke-width="2" fill="red"/>
<circle r="2" cx="248" cy="429" stroke="black" stroke-width="2" fill="red"/>
<circle r="2" cx="267" cy="303" stroke="black" stroke-width="2" fill="red"/>
<circle r="2" cx="260" cy="156" stroke="black" stroke-width="2" fill="red"/>
<circle r="2" cx="146" cy="463" stroke="black" stroke-width="2" fill="red"/>
<circle r="2" cx="455" cy="182" stroke="black" stroke-width="2" fill="red"/>
<circle r="2" cx="319" cy="121" stroke="black" stroke-width="2" fill="red"/>
<circle r="2" cx="425" cy="222" stroke="black" stroke-width="2" fill="red"/>
<circle r="2" cx="290" cy="329" stroke="black" stroke-width="2" fill="red"/>
<circle r="2" cx="120" cy="311" stroke="black" stroke-width="2" fill="red"/>
<circle r="2" cx="221" cy="60" stroke="black" stroke-width="2" fill="red"/>
<circle r="2" cx="266" cy="336" stroke="black" stroke-width="2" fill="red"/>
<circle r="2" cx="404" cy="319" stroke="black" stroke-width="2" fill="red"/>
<circle r="2" cx="288" cy="241" stroke="black" stroke-width="2" fill="red"/>
<circle r="2" cx="281" cy="236" stroke="black" stroke-width="2" fill="red"/>
<circle r="2" cx="360" cy="185" stroke="black" stroke-width="2" fill="red"/>
<circle r="2" cx="82" cy="435" stroke="black" stroke-width="2" fill="red"/>
<circle r="2" cx="94" cy="102" stroke="black" stroke-width="2" fill="red"/>
<circle r="2" cx="118" cy="168" stroke="black" stroke-width="2" fill="red"/>
<circle r="2" cx="112" cy="307" stroke="black" stroke-width="2" fill="red"/>
<circle r="2" cx="152" cy="193" stroke="black" stroke-width="2" fill="red"/>
<circle r="2" cx="412" cy="337" stroke="black" stroke-width="2" fill="red"/>
<circle r="2" cx="115" cy="227" stroke="black" stroke-width="2" fill="red"/>
<circle r="2" cx="452" cy="174" stroke="black" stroke-width="2" fill="red"/>
<circle r="2" cx="242" cy="419" stroke="black" stroke-width="2" fill="red"/>
<circle r="2" cx="304" cy="130" stroke="black" stroke-width="2" fill="red"/>
<circle r="2" cx="323" cy="296" stroke="black" stroke-width="2" fill="red"/>
<circle r="2" cx="41" cy="225" stroke="black" stroke-width="2" fill="red"/>
<circle r="2" cx="106" cy="188" stroke="black" stroke-width="2" fill="red"/>
<circle r="2" cx="118" cy="423" stroke="black" stroke-width="2" fill="red"/>
<circle r="2" cx="160" cy="327" stroke="black" stroke-width="2" fill="red"/>
<circle r="2" cx="127" cy="124" stroke="black" stroke-width="2" fill="red"/>
<circle r="2" cx="260" cy="317" stroke="black" stroke-width="2" fill="red"/>
<circle r="2" cx="1" cy="211" stroke="black" stroke-width="2" fill="red"/>
<circle r="2" cx="67" cy="393" stroke="black" stroke-width="2" fill="red"/>
<circle r="2" cx="333" cy="365" stroke="black" stroke-width="2" fill="red"/>
<circle r="2" cx="211" cy="262" stroke="black" stroke-width="2" fill="red"/>
<circle r="2" cx="384" cy="402" stroke="black" stroke-width="2" fill="red"/>
<circle r="2" cx="286" cy="169" stroke="black" stroke-width="2" fill="red"/>
<circle r="2" cx="298" cy="152" stroke="black" stroke-width="2" fill="red"/>
<circle r="2" cx="256" cy="298" stroke="black" stroke-width="2" fill="red"/>
<circle r="2" cx="144" cy="118" stroke="black" stroke-width="2" fill="red"/>
<circle r="2" cx="94" cy="335" stroke="black" stroke-width="2" fill="red"/>
<circle r="2" cx="198" cy="90" stroke="black" stroke-width="2" fill="red"/>
<circle r="2" cx="83" cy="262" stroke="black" stroke-width="2" fill="red"/>
<circle r="2" cx="166" cy="115" stroke="black" stroke-width="2" fill="red"/>
<circle r="2" cx="334" cy="461" stroke="black" stroke-width="2" fill="red"/>
<circle r="2" cx="258" cy="329" stroke="black" stroke-width="2" fill="red"/>
<circle r="2" cx="359" cy="458" stroke="black" stroke-width="2" fill="red"/>
<circle r="2" cx="348" cy="99" stroke="black" stroke-width="2" fill="red"/>
<circle r="2" cx="180" cy="179" stroke="black" stroke-width="2" fill="red"/>
<circle r="2" cx="331" cy="456" stroke="black" stroke-width="2" fill="red"/>
<circle r="2" cx="340" cy="158" stroke="black" stroke-width="2" fill="red"/>
<circle r="2" cx="415" cy="362" stroke="black" stroke-width="2" fill="red"/>
<circle r="2" cx="241" cy="273" stroke="black" stroke-width="2" fill="red"/>
<circle r="2" cx="440" cy="109" stroke="black" stroke-width="2" fill="red"/>
<circle r="2" cx="251" cy="146" stroke="black" stroke-width="2" fill="red"/>
<circle r="2" cx="217" cy="500" stroke="black" stroke-width="2" fill="red"/>
<circle r="2" cx="169" cy="287" stroke="black" stroke-width="2" fill="red"/>
<circle r="2" cx="153" cy="202" stroke="black" stroke-width="2" fill="red"/>
<circle r="2" cx="141" cy="267" stroke="black" stroke-width="2" fill="red"/>
<circle r="2" cx="199" cy="355" stroke="black" stroke-width="2" fill="red"/>
<circle r="2" cx="160" cy="127" stroke="black" stroke-width="2" fill="red"/>
<circle r="2" cx="240" cy="334" stroke="black" stroke-width="2" fill="red"/>
<circle r="2" cx="431" cy="208" stroke="black" stroke-width="2" fill="red"/>
<circle r="2" cx="409" cy="166" stroke="black" stroke-width="2" fill="red"/>
<circle r="2" cx="322" cy="166" stroke="black" stroke-width="2" fill="red"/>
<circle r="2" cx="119" cy="133" stroke="black" stroke-width="2" fill="red"/>
<circle r="2" cx="316" cy="13" stroke="black" stroke-width="2" fill="red"/>
<circle r="2" cx="207" cy="337" stroke="black" stroke-width="2" fill="red"/>
<circle r="2" cx="355" cy="433" stroke="black" stroke-width="2" fill="red"/>
<circle r="2" cx="80" cy="255" stroke="black" stroke-width="2" fill="red"/>
<circle r="2" cx="189" cy="364" stroke="black" stroke-width="2" fill="red"/>
<circle r="2" cx="177" cy="320" stroke="black" stroke-width="2" fill="red"/>
<circle r="2" cx="26" cy="372" stroke="black" stroke-width="2" fill="red"/>
<circle r="2" cx="312" cy="267" stroke="black" stroke-width="2" fill="red"/>
<circle r="2" cx="382" cy="300" stroke="black" stroke-width="2" fill="red"/>
<circle r="2" cx="264" cy="206" stroke="black" stroke-width="2" fill="red"/>
<circle r="2" cx="157" cy="434" stroke="black" stroke-width="2" fill="red"/>
<circle r="2" cx="249" cy="59" stroke="black" stroke-width="2" fill="red"/>
<circle r="2" cx="124" cy="208" stroke="black" stroke-width="2" fill="red"/>
<circle r="2" cx="251" cy="41" stroke="black" stroke-width="2" fill="red"/>
<circle r="2" cx="104" cy="319" stroke="black" stroke-width="2" fill="red"/>
<circle r="2" cx="250" cy="319" stroke="black" stroke-width="2" fill="red"/>
<circle r="2" cx="23" cy="240" stroke="black" stroke-width="2" fill="red"/>
<circle r="2" cx="419" cy="278" stroke="black" stroke-width="2" fill="red"/>
<circle r="2" cx="351" cy="413" stroke="black" stroke-width="2" fill="red"/>
<circle r="2" cx="348" cy="92" stroke="black" stroke-width="2" fill="red"/>
<circle r="2" cx="353" cy="161" stroke="black" stroke-width="2" fill="red"/>
<circle r="2" cx="92" cy="341" stroke="black" stroke-width="2" fill="red"/>
<circle r="2" cx="108" cy="169" stroke="black" stroke-width="2" fill="red"/>
<circle r="2" cx="249" cy="151" stroke="black" stroke-width="2" fill="red"/>
<circle r="2" cx="210" cy="311" stroke="black" stroke-width="2" fill="red"/>
<circle r="2" cx="213" cy="87" stroke="black" stroke-width="2" fill="red"/>
<circle r="2" cx="233" cy="412" stroke="black" stroke-width="2" fill="red"/>
<circle r="2" cx="48" cy="208" stroke="black" stroke-width="2" fill="red"/>
<circle r="2" cx="101" cy="146" stroke="black" stroke-width="2" fill="red"/>
<circle r="2" cx="37" cy="358" stroke="black" stroke-width="2" fill="red"/>
<circle r="2" cx="239" cy="335" stroke="black" stroke-width="2" fill="red"/>
<circle r="2" cx="183" cy="85" stroke="black" stroke-width="2" fill="red"/>
<circle r="2" cx="460" cy="158" stroke="black" stroke-width="2" fill="red"/>
<circle r="2" cx="294" cy="260" stroke="black" stroke-width="2" fill="red"/>
<circle r="2" cx="264" cy="193" stroke="black" stroke-width="2" fill="red"/>
<circle r="2" cx="290" cy="115" stroke="black" stroke-width="2" fill="red"/>
<circle r="2" cx="257" cy="351" stroke="black" stroke-width="2" fill="red"/>
<circle r="2" cx="193" cy="360" stroke="black" stroke-width="2" fill="red"/>
<circle r="2" cx="62" cy="124" stroke="black" stroke-width="2" fill="red"/>
<circle r="2" cx="76" cy="279" stroke="black" stroke-width="2" fill="red"/>
<circle r="2" cx="304" cy="144" stroke="black" stroke-width="2" fill="red"/>
<circle r="2" cx="163" cy="296" stroke="black" stroke-width="2" fill="red"/>
<circle r="2" cx="29" cy="317" stroke="black" stroke-width="2" fill="red"/>
<circle r="2" cx="195" cy="216" stroke="black" stroke-width="2" fill="red"/>
<circle r="2" cx="136" cy="110" stroke="black" stroke-width="2" fill="red"/>
<circle r="2" cx="285" cy="70" stroke="black" stroke-width="2" fill="red"/>
<circle r="2" cx="366" cy="409" stroke="black" stroke-width="2" fill="red"/>
<circle r="2" cx="296" cy="1" stroke="black" stroke-width="2" fill="red"/>
<circle r="2" cx="167" cy="280" stroke="black" stroke-width="2" fill="red"/>
<circle r="2" cx="279" cy="358" stroke="black" stroke-width="2" fill="red"/>
<circle r="2" cx="392" cy="290" stroke="black" stroke-width="2" fill="red"/>
<circle r="2" cx="123" cy="216" stroke="black" stroke-width="2" fill="red"/>
<circle r="2" cx="347" cy="238" stroke="black" stroke-width="2" fill="red"/>
<circle r="2" cx="123" cy="133" stroke="black" stroke-width="2" fill="red"/>
<circle r="2" cx="369" cy="420" stroke="black" stroke-width="2" fill="red"/>
<circle r="2" cx="293" cy="63" stroke="black" stroke-width="2" fill="red"/>
<circle r="2" cx="355" cy="203" stroke="black" stroke-width="2" fill="red"/>
<circle r="2" cx="203" cy="428" stroke="black" stroke-width="2" fill="red"/>
<circle r="2" cx="222" cy="365" stroke="black" stroke-width="2" fill="red"/>
<circle r="2" cx="151" cy="60" stroke="black" stroke-width="2" fill="red"/>
<circle r="2" cx="89" cy="171" stroke="black" stroke-width="2" fill="red"/>
<circle r="2" cx="329" cy="247" stroke="black" stroke-width="2" fill="red"/>
<circle r="2" cx="458" cy="209" stroke="black" stroke-width="2" fill="red"/>
<circle r="2" cx="333" cy="403" stroke="black" stroke-width="2" fill="red"/>
<circle r="2" cx="80" cy="127" stroke="black" stroke-width="2" fill="red"/>
<circle r="2" cx="72" cy="328" stroke="black" stroke-width="2" fill="red"/>
<circle r="2" cx="199" cy="418" stroke="black" stroke-width="2" fill="red"/>
<circle r="2" cx="242" cy="124" stroke="black" stroke-width="2" fill="red"/>
<circle r="2" cx="170" cy="283" stroke="black" stroke-width="2" fill="red"/>
<circle r="2" cx="381" cy="140" stroke="black" stroke-width="2" fill="red"/>
<circle r="2" cx="271" cy="181" stroke="black" stroke-width="2" fill="red"/>
<circle r="2" cx="210" cy="347" stroke="black" stroke-width="2" fill="red"/>
<circle r="2" cx="320" cy="453" stroke="black" stroke-width="2" fill="red"/>
<circle r="2" cx="191" cy="483" stroke="black" stroke-width="2" fill="red"/>
<circle r="2" cx="125" cy="274" stroke="black" stroke-width="2" fill="red"/>
<circle r="2" cx="218" cy="54" stroke="black" stroke-width="2" fill="red"/>
<circle r="2" cx="333" cy="332" stroke="black" stroke-width="2" fill="red"/>
<circle r="2" cx="280" cy="222" stroke="black" stroke-width="2" fill="red"/>
<circle r="2" cx="353" cy="259" stroke="black" stroke-width="2" fill="red"/>
<circle r="2" cx="228" cy="106" stroke="black" stroke-width="2" fill="red"/>
<circle r="2" cx="387" cy="208" stroke="black" stroke-width="2" fill="red"/>
<circle r="2" cx="316" cy="199" stroke="black" stroke-width="2" fill="red"/>
<circle r="2" cx="448" cy="159" stroke="black" stroke-width="2" fill="red"/>
<circle r="2" cx="373" cy="265" stroke="black" stroke-width="2" fill="red"/>
<circle r="2" cx="195" cy="413" stroke="black" stroke-width="2" fill="red"/>
<circle r="2" cx="72" cy="318" stroke="black" stroke-width="2" fill="red"/>
<circle r="2" cx="315" cy="239" stroke="black" stroke-width="2" fill="red"/>
<circle r="2" cx="315" cy="365" stroke="black" stroke-width="2" fill="red"/>
<circle r="2" cx="239" cy="150" stroke="black" stroke-width="2" fill="red"/>
<circle r="2" cx="44" cy="319" stroke="black" stroke-width="2" fill="red"/>
<circle r="2" cx="331" cy="234" stroke="black" stroke-width="2" fill="red"/>
<circle r="2" cx="316" cy="283" stroke="black" stroke-width="2" fill="red"/>
<circle r="2" cx="329" cy="183" stroke="black" stroke-width="2" fill="red"/>
<circle r="2" cx="247" cy="56" stroke="black" stroke-width="2" fill="red"/>
<circle r="2" cx="12" cy="255" stroke="black" stroke-width="2" fill="red"/>
<circle r="2" cx="107" cy="250" stroke="black" stroke-width="2" fill="red"/>
<circle r="2" cx="60" cy="352" stroke="black" stroke-width="2" fill="red"/>
<circle r="2" cx="471" cy="143" stroke="black" stroke-width="2" fill="red"/>
<circle r="2" cx="121" cy="133" stroke="black" stroke-width="2" fill="red"/>
<circle r="2" cx="73" cy="138" stroke="black" stroke-width="2" fill="red"/>
<circle r="2" cx="359" cy="104" stroke="black" stroke-width="2" fill="red"/>
<circle r="2" cx="407" cy="146" stroke="black" stroke-width="2" fill="red"/>
<circle r="2" cx="231" cy="188" stroke="black" stroke-width="2" fill="red"/>
<circle r="2" cx="365" cy="478" stroke="black" stroke-width="2" fill="red"/>
<circle r="2" cx="154" cy="310" stroke="black" stroke-width="2" fill="red"/>
<circle r="2" cx="273" cy="470" stroke="black" stroke-width="2" fill="red"/>
<circle r="2" cx="439" cy="278" stroke="black" stroke-width="2" fill="red"/>
<circle r="2" cx="201" cy="295" stroke="black" stroke-width="2" fill="red"/>
<circle r="2" cx="127" cy="251" stroke="black" stroke-width="2" fill="red"/>
<circle r="2" cx="230" cy="408" stroke="black" stroke-width="2" fill="red"/>
<circle r="2" cx="267" cy="235" stroke="black" stroke-width="2" fill="red"/>
<circle r="2" cx="145" cy="464" stroke="black" stroke-width="2" fill="red"/>
<circle r="2" cx="348" cy="344" stroke="black" stroke-width="2" fill="red"/>
<circle r="2" cx="147" cy="107" stroke="black" stroke-width="2" fill="red"/>
<circle r="2" cx="253" cy="21" stroke="black" stroke-width="2" fill="red"/>
<circle r="2" cx="241" cy="139" stroke="black" stroke-width="2" fill="red"/>
<circle r="2" cx="187" cy="140" stroke="black" stroke-width="2" fill="red"/>
<circle r="2" cx="203" cy="233" stroke="black" stroke-width="2" fill="red"/>
<circle r="2" cx="0" cy="292" stroke="black" stroke-width="2" fill="red"/>
<circle r="2" cx="282" cy="86" stroke="black" stroke-width="2" fill="red"/>
<circle r="2" cx="120" cy="270" stroke="black" stroke-width="2" fill="red"/>
<circle r="2" cx="227" cy="217" stroke="black" stroke-width="2" fill="red"/>
<circle r="2" cx="101" cy="238" stroke="black" stroke-width="2" fill="red"/>
<circle r="2" cx="401" cy="124" stroke="black" stroke-width="2" fill="red"/>
<circle r="2" cx="153" cy="454" stroke="black" stroke-width="2" fill="red"/>
<circle r="2" cx="353" cy="245" stroke="black" stroke-width="2" fill="red"/>
<circle r="2" cx="308" cy="67" stroke="black" stroke-width="2" fill="red"/>
<circle r="2" cx="381" cy="87" stroke="black" stroke-width="2" fill="red"/>
<circle r="2" cx="288" cy="15" stroke="black" stroke-width="2" fill="red"/>
<circle r="2" cx="102" cy="235" stroke="black" stroke-width="2" fill="red"/>
<circle r="2" cx="89" cy="127" stroke="black" stroke-width="2" fill="red"/>
<circle r="2" cx="253" cy="219" stroke="black" stroke-width="2" fill="red"/>
<circle r="2" cx="176" cy="313" stroke="black" stroke-width="2" fill="red"/>
<circle r="2" cx="336" cy="44" stroke="black" stroke-width="2" fill="red"/>
<circle r="2" cx="343" cy="148" stroke="black" stroke-width="2" fill="red"/>
<circle r="2" cx="448" cy="314" stroke="black" stroke-width="2" fill="red"/>
<circle r="2" cx="224" cy="211" stroke="black" stroke-width="2" fill="red"/>
<circle r="2" cx="293" cy="326" stroke="black" stroke-width="2" fill="red"/>
<circle r="2" cx="185" cy="118" stroke="black" stroke-width="2" fill="red"/>
<circle r="2" cx="390" cy="192" stroke="black" stroke-width="2" fill="red"/>
<circle r="2" cx="100" cy="153" stroke="black" stroke-width="2" fill="red"/>
<circle r="2" cx="285" cy="83" stroke="black" stroke-width="2" fill="red"/>
<circle r="2" cx="380" cy="195" stroke="black" stroke-width="2" fill="red"/>
<circle r="2" cx="114" cy="241" stroke="black" stroke-width="2" fill="red"/>
<circle r="2" cx="334" cy="15" stroke="black" stroke-width="2" fill="red"/>
<circle r="2" cx="249" cy="162" stroke="black" stroke-width="2" fill="red"/>
<circle r="2" cx="221" cy="22" stroke="black" stroke-width="2" fill="red"/>
<circle r="2" cx="128" cy="378" stroke="black" stroke-width="2" fill="red"/>
<circle r="2" cx="154" cy="325" stroke="black" stroke-width="2" fill="red"/>
<circle r="2" cx="267" cy="298" stroke="black" stroke-width="2" fill="red"/>
<circle r="2" cx="313" cy="398" stroke="black" stroke-width="2" fill="red"/>
<circle r="2" cx="387" cy="310" stroke="black" stroke-width="2" fill="red"/>
<circle r="2" cx="378" cy="193" stroke="black" stroke-width="2" fill="red"/>
<circle r="2" cx="320" cy="2" stroke="black" stroke-width="2" fill="red"/>
<circle r="2" cx="253" cy="44" stroke="black" stroke-width="2" fill="red"/>
<circle r="2" cx="414" cy="314" stroke="black" stroke-width="2" fill="red"/>
<circle r="2" cx="279" cy="310" stroke="black" stroke-width="2" fill="red"/>
<circle r="2" cx="212" cy="88" stroke="black" stroke-width="2" fill="red"/>
<circle r="2" cx="179" cy="208" stroke="black" stroke-width="2" fill="red"/>
<circle r="2" cx="169" cy="408" stroke="black" stroke-width="2" fill="red"/>
<circle r="2" cx="158" cy="169" stroke="black" stroke-width="2" fill="red"/>
<circle r="2" cx="170" cy="223" stroke="black" stroke-width="2" fill="red"/>
<circle r="2" cx="350" cy="153" stroke="black" stroke-width="2" fill="red"/>
<circle r="2" cx="338" cy="435" stroke="black" stroke-width="2" fill="red"/>
<circle r="2" cx="311" cy="9" stroke="black" stroke-width="2" fill="red"/>
<circle r="2" cx="447" cy="344" stroke="black" stroke-width="2" fill="red"/>
<circle r="2" cx="104" cy="336" stroke="black" stroke-width="2" fill="red"/>
<circle r="2" cx="275" cy="438" stroke="black" stroke-width="2" fill="red"/>
<circle r="2" cx="301" cy="176" stroke="black" stroke-width="2" fill="red"/>
<circle r="2" cx="130" cy="54" stroke="black" stroke-width="2" fill="red"/>
<circle r="2" cx="218" cy="51" stroke="black" stroke-width="2" fill="red"/>
<circle r="2" cx="321" cy="312" stroke="black" stroke-width="2" fill="red"/>
<circle r="2" cx="68" cy="132" stroke="black" stroke-width="2" fill="red"/>
<circle r="2" cx="322" cy="337" stroke="black" stroke-width="2" fill="red"/>
<circle r="2" cx="336" cy="396" stroke="black" stroke-width="2" fill="red"/>
<circle r="2" cx="217" cy="324" stroke="black" stroke-width="2" fill="red"/>
<circle r="2" cx="152" cy="473" stroke="black" stroke-width="2" fill="red"/>
<circle r="2" cx="209" cy="148" stroke="black" stroke-width="2" fill="red"/>
<circle r="2" cx="282" cy="430" stroke="black" stroke-width="2" fill="red"/>
<circle r="2" cx="214" cy="40" stroke="black" stroke-width="2" fill="red"/>
<circle r="2" cx="427" cy="416" stroke="black" stroke-width="2" fill="red"/>
<circle r="2" cx="275" cy="432" stroke="black" stroke-width="2" fill="red"/>
<circle r="2" cx="243" cy="319" stroke="black" stroke-width="2" fill="red"/>
<circle r="2" cx="248" cy="301" stroke="black" stroke-width="2" fill="red"/>
<circle r="2" cx="123" cy="29" stroke="black" stroke-width="2" fill="red"/>
<circle r="2" cx="389" cy="311" stroke="black" stroke-width="2" fill="red"/>
<circle r="2" cx="238" cy="243" stroke="black" stroke-width="2" fill="red"/>
<circle r="2" cx="137" cy="175" stroke="black" stroke-width="2" fill="red"/>
<circle r="2" cx="137" cy="185" stroke="black" stroke-width="2" fill="red"/>
<circle r="2" cx="296" cy="28" stroke="black" stroke-width="2" fill="red"/>
<circle r="2" cx="305" cy="102" stroke="black" stroke-width="2" fill="red"/>
<circle r="2" cx="261" cy="445" stroke="black" stroke-width="2" fill="red"/>
<circle r="2" cx="196" cy="182" stroke="black" stroke-width="2" fill="red"/>
<circle r="2" cx="328" cy="449" stroke="black" stroke-width="2" fill="red"/>
<circle r="2" cx="371" cy="233" stroke="black" stroke-width="2" fill="red"/>
<circle r="2" cx="140" cy="80" stroke="black" stroke-width="2" fill="red"/>
<circle r="2" cx="62" cy="174" stroke="black" stroke-width="2" fill="red"/>
<circle r="2" cx="429" cy="140" stroke="black" stroke-width="2" fill="red"/>
<circle r="2" cx="363" cy="35" stroke="black" stroke-width="2" fill="red"/>
<circle r="2" cx="299" cy="482" stroke="black" stroke-width="2" fill="red"/>
<circle r="2" cx="326" cy="317" stroke="black" stroke-width="2" fill="red"/>
<circle r="2" cx="116" cy="265" stroke="black" stroke-width="2" fill="red"/>
<circle r="2" cx="284" cy="328" stroke="black" stroke-width="2" fill="red"/>
<circle r="2" cx="169" cy="198" stroke="black" stroke-width="2" fill="red"/>
<circle r="2" cx="378" cy="287" stroke="black" stroke-width="2" fill="red"/>
<circle r="2" cx="314" cy="286" stroke="black" stroke-width="2" fill="red"/>
<circle r="2" cx="378" cy="184" stroke="black" stroke-width="2" fill="red"/>
<circle r="2" cx="50" cy="257" stroke="black" stroke-width="2" fill="red"/>
<circle r="2" cx="221" cy="80" stroke="black" stroke-width="2" fill="red"/>
<circle r="2" cx="463" cy="243" stroke="black" stroke-width="2" fill="red"/>
<circle r="2" cx="276" cy="470" stroke="black" stroke-width="2" fill="red"/>
<circle r="2" cx="356" cy="116" stroke="black" stroke-width="2" fill="red"/>
<circle r="2" cx="22" cy="288" stroke="black" stroke-width="2" fill="red"/>
<circle r="2" cx="211" cy="336" stroke="black" stroke-width="2" fill="red"/>
<circle r="2" cx="320" cy="267" stroke="black" stroke-width="2" fill="red"/>
<circle r="2" cx="441" cy="314" stroke="black" stroke-width="2" fill="red"/>
<circle r="2" cx="167" cy="183" stroke="black" stroke-width="2" fill="red"/>
<circle r="2" cx="257" cy="82" stroke="black" stroke-width="2" fill="red"/>
<circle r="2" cx="166" cy="191" stroke="black" stroke-width="2" fill="red"/>
<circle r="2" cx="248" cy="224" stroke="black" stroke-width="2" fill="red"/>
<circle r="2" cx="226" cy="318" stroke="black" stroke-width="2" fill="red"/>
<circle r="2" cx="217" cy="418" stroke="black" stroke-width="2" fill="red"/>
<circle r="2" cx="321" cy="354" stroke="black" stroke-width="2" fill="red"/>
<circle r="2" cx="135" cy="206" stroke="black" stroke-width="2" fill="red"/>
<circle r="2" cx="352" cy="65" stroke="black" stroke-width="2" fill="red"/>
<circle r="2" cx="353" cy="307" stroke="black" stroke-width="2" fill="red"/>
<circle r="2" cx="242" cy="49" stroke="black" stroke-width="2" fill="red"/>
<circle r="2" cx="326" cy="233" stroke="black" stroke-width="2" fill="red"/>
<circle r="2" cx="484" cy="179" stroke="black" stroke-width="2" fill="red"/>
<circle r="2" cx="349" cy="424" stroke="black" stroke-width="2" fill="red"/>
<circle r="2" cx="293" cy="340" stroke="black" stroke-width="2" fill="red"/>
<circle r="2" cx="86" cy="145" stroke="black" stroke-width="2" fill="red"/>
<circle r="2" cx="70" cy="312" stroke="black" stroke-width="2" fill="red"/>
<circle r="2" cx="296" cy="297" stroke="black" stroke-width="2" fill="red"/>
<circle r="2" cx="99" cy="288" stroke="black" stroke-width="2" fill="red"/>
<circle r="2" cx="363" cy="257" stroke="black" stroke-width="2" fill="red"/>
<circle r="2" cx="423" cy="252" stroke="black" stroke-width="2" fill="red"/>
<circle r="2" cx="192" cy="347" stroke="black" stroke-width="2" fill="red"/>
<circle r="2" cx="423" cy="209" stroke="black" stroke-width="2" fill="red"/>
<circle r="2" cx="452" cy="229" stroke="black" stroke-width="2" fill="red"/>
<circle r="2" cx="172" cy="439" stroke="black" stroke-width="2" fill="red"/>
<circle r="2" cx="284" cy="299" stroke="black" stroke-width="2" fill="red"/>
<circle r="2" cx="105" cy="54" stroke="black" stroke-width="2" fill="red"/>
<circle r="2" cx="255" cy="234" stroke="black" stroke-width="2" fill="red"/>
<circle r="2" cx="274" cy="492" stroke="black" stroke-width="2" fill="red"/>
<circle r="2" cx="387" cy="176" stroke="black" stroke-width="2" fill="red"/>
<circle r="2" cx="244" cy="308" stroke="black" stroke-width="2" fill="red"/>
<circle r="2" cx="224" cy="206" stroke="black" stroke-width="2" fill="red"/>
<circle r="2" cx="294" cy="288" stroke="black" stroke-width="2" fill="red"/>
<circle r="2" cx="484" cy="149" stroke="black" stroke-width="2" fill="red"/>
<circle r="2" cx="22" cy="339" stroke="black" stroke-width="2" fill="red"/>
<circle r="2" cx="422" cy="360" stroke="black" stroke-width="2" fill="red"/>
<circle r="2" cx="288" cy="315" stroke="black" stroke-width="2" fill="red"/>
<circle r="2" cx="284" cy="384" stroke="black" stroke-width="2" fill="red"/>
<circle r="2" cx="48" cy="263" stroke="black" stroke-width="2" fill="red"/>
<circle r="2" cx="63" cy="412" stroke="black" stroke-width="2" fill="red"/>
<circle r="2" cx="24" cy="349" stroke="black" stroke-width="2" fill="red"/>
<circle r="2" cx="312" cy="64" stroke="black" stroke-width="2" fill="red"/>
<circle r="2" cx="448" cy="309" stroke="black" stroke-width="2" fill="red"/>
<circle r="2" cx="309" cy="345" stroke="black" stroke-width="2" fill="red"/>
<circle r="2" cx="62" cy="326" stroke="black" stroke-width="2" fill="red"/>
<circle r="2" cx="207" cy="205" stroke="black" stroke-width="2" fill="red"/>
<circle r="2" cx="135" cy="57" stroke="black" stroke-width="2" fill="red"/>
<circle r="2" cx="123" cy="197" stroke="black" stroke-width="2" fill="red"/>
<circle r="2" cx="382" cy="216" stroke="black" stroke-width="2" fill="red"/>
<circle r="2" cx="372" cy="201" stroke="black" stroke-width="2" fill="red"/>
<circle r="2" cx="176" cy="242" stroke="black" stroke-width="2" fill="red"/>
<circle r="2" cx="185" cy="391" stroke="black" stroke-width="2" fill="red"/>
<circle r="2" cx="447" cy="243" stroke="black" stroke-width="2" fill="red"/>
<circle r="2" cx="187" cy="413" stroke="black" stroke-width="2" fill="red"/>
<circle r="2" cx="346" cy="424" stroke="black" stroke-width="2" fill="red"/>
<circle r="2" cx="218" cy="428" stroke="black" stroke-width="2" fill="red"/>
<circle r="2" cx="249" cy="128" stroke="black" stroke-width="2" fill="red"/>
<circle r="2" cx="257" cy="159" stroke="black" stroke-width="2" fill="red"/>
<circle r="2" cx="355" cy="192" stroke="black" stroke-width="2" fill="red"/>
<circle r="2" cx="267" cy="312" stroke="black" stroke-width="2" fill="red"/>
<circle r="2" cx="147" cy="150" stroke="black" stroke-width="2" fill="red"/>
<circle r="2" cx="259" cy="428" stroke="black" stroke-width="2" fill="red"/>
<circle r="2" cx="267" cy="278" stroke="black" stroke-width="2" fill="red"/>
<circle r="2" cx="216" cy="217" stroke="black" stroke-width="2" fill="red"/>
<circle r="2" cx="256" cy="458" stroke="black" stroke-width="2" fill="red"/>
<circle r="2" cx="391" cy="192" stroke="black" stroke-width="2" fill="red"/>
<circle r="2" cx="234" cy="393" stroke="black" stroke-width="2" fill="red"/>
<circle r="2" cx="57" cy="155" stroke="black" stroke-width="2" fill="red"/>
<circle r="2" cx="202" cy="119" stroke="black" stroke-width="2" fill="red"/>
<circle r="2" cx="189" cy="415" stroke="black" stroke-width="2" fill="red"/>
<circle r="2" cx="12" cy="214" stroke="black" stroke-width="2" fill="red"/>
<circle r="2" cx="78" cy="243" stroke="black" stroke-width="2" fill="red"/>
<circle r="2" cx="162" cy="291" stroke="black" stroke-width="2" fill="red"/>
<circle r="2" cx="102" cy="325" stroke="black" stroke-width="2" fill="red"/>
<circle r="2" cx="220" cy="201" stroke="black" stroke-width="2" fill="red"/>
<circle r="2" cx="307" cy="363" stroke="black" stroke-width="2" fill="red"/>
<circle r="2" cx="156" cy="105" stroke="black" stroke-width="2" fill="red"/>
<circle r="2" cx="306" cy="121" stroke="black" stroke-width="2" fill="red"/>
<circle r="2" cx="235" cy="150" stroke="black" stroke-width="2" fill="red"/>
<circle r="2" cx="198" cy="280" stroke="black" stroke-width="2" fill="red"/>
<circle r="2" cx="214" cy="329" stroke="black" stroke-width="2" fill="red"/>
<circle r="2" cx="328" cy="458" stroke="black" stroke-width="2" fill="red"/>
<circle r="2" cx="348" cy="117" stroke="black" stroke-width="2" fill="red"/>
<circle r="2" cx="302" cy="249" stroke="black" stroke-width="2" fill="red"/>
<circle r="2" cx="445" cy="298" stroke="black" stroke-width="2" fill="red"/>
<circle r="2" cx="342" cy="295" stroke="black" stroke-width="2" fill="red"/>
<circle r="2" cx="59" cy="318" stroke="black" stroke-width="2" fill="red"/>
<circle r="2" cx="290" cy="383" stroke="black" stroke-width="2" fill="red"/>
<circle r="2" cx="138" cy="204" stroke="black" stroke-width="2" fill="red"/>
<circle r="2" cx="471" cy="130" stroke="black" stroke-width="2" fill="red"/>
<circle r="2" cx="314" cy="357" stroke="black" stroke-width="2" fill="red"/>
<circle r="2" cx="437" cy="289" stroke="black" stroke-width="2" fill="red"/>
<circle r="2" cx="130" cy="437" stroke="black" stroke-width="2" fill="red"/>
<circle r="2" cx="95" cy="422" stroke="black" stroke-width="2" fill="red"/>
<circle r="2" cx="52" cy="266" stroke="black" stroke-width="2" fill="red"/>
<circle r="2" cx="329" cy="175" stroke="black" stroke-width="2" fill="red"/>
<circle r="2" cx="176" cy="102" stroke="black" stroke-width="2" fill="red"/>
<circle r="2" cx="45" cy="328" stroke="black" stroke-width="2" fill="red"/>
<circle r="2" cx="171" cy="158" stroke="black" stroke-width="2" fill="red"/>
<circle r="2" cx="306" cy="343" stroke="black" stroke-width="2" fill="red"/>
<circle r="2" cx="205" cy="202" stroke="black" stroke-width="2" fill="red"/>
<circle r="2" cx="85" cy="332" stroke="black" stroke-width="2" fill="red"/>
<circle r="2" cx="297" cy="115" stroke="black" stroke-width="2" fill="red"/>
<circle r="2" cx="477" cy="352" stroke="black" stroke-width="2" fill="red"/>
<circle r="2" cx="207" cy="375" stroke="black" stroke-width="2" fill="red"/>
<circle r="2" cx="359" cy="191" stroke="black" stroke-width="2" fill="red"/>
<circle r="2" cx="451" cy="142" stroke="black" stroke-width="2" fill="red"/>
<circle r="2" cx="357" cy="179" stroke="black" stroke-width="2" fill="red"/>
<circle r="2" cx="217" cy="341" stroke="black" stroke-width="2" fill="red"/>
<circle r="2" cx="423" cy="384" stroke="black" stroke-width="2" fill="red"/>
<circle r="2" cx="281" cy="122" stroke="black" stroke-width="2" fill="red"/>
<circle r="2" cx="272" cy="357" stroke="black" stroke-width="2" fill="red"/>
<circle r="2" cx="375" cy="56" stroke="black" stroke-width="2" fill="red"/>
<circle r="2" cx="242" cy="394" stroke="black" stroke-width="2" fill="red"/>
<circle r="2" cx="328" cy="158" stroke="black" stroke-width="2" fill="red"/>
<circle r="2" cx="376" cy="249" stroke="black" stroke-width="2" fill="red"/>
</svg>
