<?xml version="1.0" standalone="no"?>
<svg width="1050" height="1050" version="1.1"
xmlns="http://www.w3.org/2000/svg">
<rect width="1050" height="1050" style="fill:rgb(255,255,255); stroke-width:10;  stroke:rgb(255,255,255)"/>
<circle r="2" cx="52" cy="442" stroke="black" stroke-width="2" fill="red"/>
<circle r="2" cx="94" cy="414" stroke="black" stroke-width="2" fill="red"/>
<circle r="2" cx="52" cy="393" stroke="black" stroke-width="2" fill="red"/>
<circle r="2" cx="50" cy="429" stroke="black" stroke-width="2" fill="red"/>
<circle r="2" cx="46" cy="433" stroke="black" stroke-width="2" fill="red"/>
<circle r="2" cx="56" cy="420" stroke="black" stroke-width="2" fill="red"/>
<circle r="2" cx="64" cy="406" stroke="black" stroke-width="2" fill="red"/>
<circle r="2" cx="72" cy="402" stroke="black" stroke-width="2" fill="red"/>
<circle r="2" cx="73" cy="444" stroke="black" stroke-width="2" fill="red"/>
<circle r="2" cx="74" cy="430" stroke="black" stroke-width="2" fill="red"/>
<circle r="2" cx="73" cy="440" stroke="black" stroke-width="2" fill="red"/>
<circle r="2" cx="72" cy="413" stroke="black" stroke-width="2" fill="red"/>
<circle r="2" cx="75" cy="414" stroke="black" stroke-width="2" fill="red"/>
<circle r="2" cx="95" cy="427" stroke="black" stroke-width="2" fill="red"/>
<circle r="2" cx="62" cy="440" stroke="black" stroke-width="2" fill="red"/>
<circle r="2" cx="384" cy="101" stroke="black" stroke-width="2" fill="red"/>
<circle r="2" cx="385" cy="93" stroke="black" stroke-width="2" fill="red"/>
<circle r="2" cx="368" cy="103" stroke="black" stroke-width="2" fill="red"/>
<circle r="2" cx="376" cy="113" stroke="black" stroke-width="2" fill="red"/>
<circle r="2" cx="398" cy="120" stroke="black" stroke-width="2" fill="red"/>
<circle r="2" cx="383" cy="129" stroke="black" stroke-width="2" fill="red"/>
<circle r="2" cx="376" cy="107" stroke="black" stroke-width="2" fill="red"/>
<circle r="2" cx="374" cy="126" stroke="black" stroke-width="2" fill="red"/>
<circle r="2" cx="382" cy="137" stroke="black" stroke-width="2" fill="red"/>
<circle r="2" cx="392" cy="92" stroke="black" stroke-width="2" fill="red"/>
<circle r="2" cx="367" cy="138" stroke="black" stroke-width="2" fill="red"/>
<circle r="2" cx="381" cy="95" stroke="black" stroke-width="2" fill="red"/>
<circle r="2" cx="376" cy="115" stroke="black" stroke-width="2" fill="red"/>
<circle r="2" cx="367" cy="97" stroke="black" stroke-width="2" fill="red"/>
<circle r="2" cx="396" cy="121" stroke="black" stroke-width="2" fill="red"/>
<circle r="2" cx="186" cy="227" stroke="black" stroke-width="2" fill="red"/>
<circle r="2" cx="197" cy="194" stroke="black" stroke-width="2" fill="red"/>
<circle r="2" cx="190" cy="209" stroke="black" stroke-width="2" fill="red"/>
<circle r="2" cx="174" cy="199" stroke="black" stroke-width="2" fill="red"/>
<circle r="2" cx="185" cy="188" stroke="black" stroke-width="2" fill="red"/>
<circle r="2" cx="195" cy="219" stroke="black" stroke-width="2" fill="red"/>
<circle r="2" cx="177" cy="236" stroke="black" stroke-width="2" fill="red"/>
<circle r="2" cx="188" cy="227" stroke="black" stroke-width="2" fill="red"/>
<circle r="2" cx="154" cy="197" stroke="black" stroke-width="2" fill="red"/>
<circle r="2" cx="154" cy="224" stroke="black" stroke-width="2" fill="red"/>
<circle r="2" cx="162" cy="212" stroke="black" stroke-width="2" fill="red"/>
<circle r="2" cx="182" cy="218" stroke="black" stroke-width="2" fill="red"/>
<circle r="2" cx="204" cy="227" stroke="black" stroke-width="2" fill="red"/>
<circle r="2" cx="162" cy="206" stroke="black" stroke-width="2" fill="red"/>
<circle r="2" cx="159" cy="206" stroke="black" stroke-width="2" fill="red"/>
<circle r="2" cx="344" cy="248" stroke="black" stroke-width="2" fill="red"/>
<circle r="2" cx="339" cy="252" stroke="black" stroke-width="2" fill="red"/>
<circle r="2" cx="356" cy="248" stroke="black" stroke-width="2" fill="red"/>
<circle r="2" cx="359" cy="278" stroke="black" stroke-width="2" fill="red"/>
<circle r="2" cx="372" cy="273" stroke="black" stroke-width="2" fill="red"/>
<circle r="2" cx="331" cy="290" stroke="black" stroke-width="2" fill="red"/>
<circle r="2" cx="359" cy="288" stroke="black" stroke-width="2" fill="red"/>
<circle r="2" cx="345" cy="277" stroke="black" stroke-width="2" fill="red"/>
<circle r="2" cx="345" cy="273" stroke="black" stroke-width="2" fill="red"/>
<circle r="2" cx="354" cy="249" stroke="black" stroke-width="2" fill="red"/>
<circle r="2" cx="338" cy="274" stroke="black" stroke-width="2" fill="red"/>
<circle r="2" cx="334" cy="285" stroke="black" stroke-width="2" fill="red"/>
<circle r="2" cx="337" cy="291" stroke="black" stroke-width="2" fill="red"/>
<circle r="2" cx="338" cy="302" stroke="black" stroke-width="2" fill="red"/>
<circle r="2" cx="330" cy="264" stroke="black" stroke-width="2" fill="red"/>
<circle r="2" cx="26" cy="477" stroke="black" stroke-width="2" fill="red"/>
<circle r="2" cx="40" cy="491" stroke="black" stroke-width="2" fill="red"/>
<circle r="2" cx="24" cy="500" stroke="black" stroke-width="2" fill="red"/>
<circle r="2" cx="9" cy="474" stroke="black" stroke-width="2" fill="red"/>
<circle r="2" cx="28" cy="483" stroke="black" stroke-width="2" fill="red"/>
<circle r="2" cx="41" cy="494" stroke="black" stroke-width="2" fill="red"/>
<circle r="2" cx="0" cy="473" stroke="black" stroke-width="2" fill="red"/>
<circle r="2" cx="31" cy="480" stroke="black" stroke-width="2" fill="red"/>
<circle r="2" cx="30" cy="453" stroke="black" stroke-width="2" fill="red"/>
<circle r="2" cx="37" cy="462" stroke="black" stroke-width="2" fill="red"/>
<circle r="2" cx="5" cy="471" stroke="black" stroke-width="2" fill="red"/>
<circle r="2" cx="22" cy="461" stroke="black" stroke-width="2" fill="red"/>
<circle r="2" cx="23" cy="457" stroke="black" stroke-width="2" fill="red"/>
<circle r="2" cx="10" cy="466" stroke="black" stroke-width="2" fill="red"/>
<circle r="2" cx="34" cy="486" stroke="black" stroke-width="2" fill="red"/>
<circle r="2" cx="349" cy="256" stroke="black" stroke-width="2" fill="red"/>
<circle r="2" cx="378" cy="257" stroke="black" stroke-width="2" fill="red"/>
<circle r="2" cx="361" cy="233" stroke="black" stroke-width="2" fill="red"/>
<circle r="2" cx="344" cy="236" stroke="black" stroke-width="2" fill="red"/>
<circle r="2" cx="372" cy="264" stroke="black" stroke-width="2" fill="red"/>
<circle r="2" cx="346" cy="241" stroke="black" stroke-width="2" fill="red"/>
<circle r="2" cx="360" cy="241" stroke="black" stroke-width="2" fill="red"/>
<circle r="2" cx="357" cy="231" stroke="black" stroke-width="2" fill="red"/>
<circle r="2" cx="354" cy="233" stroke="black" stroke-width="2" fill="red"/>
<circle r="2" cx="344" cy="249" stroke="black" stroke-width="2" fill="red"/>
<circle r="2" cx="337" cy="245" stroke="black" stroke-width="2" fill="red"/>
<circle r="2" cx="382" cy="232" stroke="black" stroke-width="2" fill="red"/>
<circle r="2" cx="345" cy="258" stroke="black" stroke-width="2" fill="red"/>
<circle r="2" cx="343" cy="246" stroke="black" stroke-width="2" fill="red"/>
<circle r="2" cx="388" cy="246" stroke="black" stroke-width="2" fill="red"/>
<circle r="2" cx="241" cy="13" stroke="black" stroke-width="2" fill="red"/>
<circle r="2" cx="221" cy="30" stroke="black" stroke-width="2" fill="red"/>
<circle r="2" cx="244" cy="21" stroke="black" stroke-width="2" fill="red"/>
<circle r="2" cx="246" cy="30" stroke="black" stroke-width="2" fill="red"/>
<circle r="2" cx="242" cy="45" stroke="black" stroke-width="2" fill="red"/>
<circle r="2" cx="244" cy="29" stroke="black" stroke-width="2" fill="red"/>
<circle r="2" cx="243" cy="11" stroke="black" stroke-width="2" fill="red"/>
<circle r="2" cx="229" cy="49" stroke="black" stroke-width="2" fill="red"/>
<circle r="2" cx="267" cy="14" stroke="black" stroke-width="2" fill="red"/>
<circle r="2" cx="251" cy="7" stroke="black" stroke-width="2" fill="red"/>
<circle r="2" cx="264" cy="19" stroke="black" stroke-width="2" fill="red"/>
<circle r="2" cx="247" cy="32" stroke="black" stroke-width="2" fill="red"/>
<circle r="2" cx="226" cy="30" stroke="black" stroke-width="2" fill="red"/>
<circle r="2" cx="239" cy="0" stroke="black" stroke-width="2" fill="red"/>
<circle r="2" cx="244" cy="33" stroke="black" stroke-width="2" fill="red"/>
<circle r="2" cx="390" cy="359" stroke="black" stroke-width="2" fill="red"/>
<circle r="2" cx="389" cy="358" stroke="black" stroke-width="2" fill="red"/>
<circle r="2" cx="399" cy="352" stroke="black" stroke-width="2" fill="red"/>
<circle r="2" cx="365" cy="382" stroke="black" stroke-width="2" fill="red"/>
<circle r="2" cx="366" cy="342" stroke="black" stroke-width="2" fill="red"/>
<circle r="2" cx="369" cy="350" stroke="black" stroke-width="2" fill="red"/>
<circle r="2" cx="369" cy="367" stroke="black" stroke-width="2" fill="red"/>
<circle r="2" cx="373" cy="353" stroke="black" stroke-width="2" fill="red"/>
<circle r="2" cx="405" cy="370" stroke="black" stroke-width="2" fill="red"/>
<circle r="2" cx="369" cy="357" stroke="black" stroke-width="2" fill="red"/>
<circle r="2" cx="410" cy="350" stroke="black" stroke-width="2" fill="red"/>
<circle r="2" cx="384" cy="380" stroke="black" stroke-width="2" fill="red"/>
<circle r="2" cx="392" cy="345" stroke="black" stroke-width="2" fill="red"/>
<circle r="2" cx="394" cy="365" stroke="black" stroke-width="2" fill="red"/>
<circle r="2" cx="360" cy="357" stroke="black" stroke-width="2" fill="red"/>
<circle r="2" cx="40" cy="237" stroke="black" stroke-width="2" fill="red"/>
<circle r="2" cx="45" cy="225" stroke="black" stroke-width="2" fill="red"/>
<circle r="2" cx="41" cy="200" stroke="black" stroke-width="2" fill="red"/>
<circle r="2" cx="57" cy="224" stroke="black" stroke-width="2" fill="red"/>
<circle r="2" cx="26" cy="211" stroke="black" stroke-width="2" fill="red"/>
<circle r="2" cx="34" cy="233" stroke="black" stroke-width="2" fill="red"/>
<circle r="2" cx="66" cy="230" stroke="black" stroke-width="2" fill="red"/>
<circle r="2" cx="51" cy="217" stroke="black" stroke-width="2" fill="red"/>
<circle r="2" cx="73" cy="234" stroke="black" stroke-width="2" fill="red"/>
<circle r="2" cx="61" cy="206" stroke="black" stroke-width="2" fill="red"/>
<circle r="2" cx="62" cy="204" stroke="black" stroke-width="2" fill="red"/>
<circle r="2" cx="57" cy="222" stroke="black" stroke-width="2" fill="red"/>
<circle r="2" cx="43" cy="200" stroke="black" stroke-width="2" fill="red"/>
<circle r="2" cx="37" cy="226" stroke="black" stroke-width="2" fill="red"/>
<circle r="2" cx="50" cy="196" stroke="black" stroke-width="2" fill="red"/>
<circle r="2" cx="21" cy="280" stroke="black" stroke-width="2" fill="red"/>
<circle r="2" cx="41" cy="323" stroke="black" stroke-width="2" fill="red"/>
<circle r="2" cx="32" cy="306" stroke="black" stroke-width="2" fill="red"/>
<circle r="2" cx="45" cy="322" stroke="black" stroke-width="2" fill="red"/>
<circle r="2" cx="43" cy="278" stroke="black" stroke-width="2" fill="red"/>
<circle r="2" cx="23" cy="288" stroke="black" stroke-width="2" fill="red"/>
<circle r="2" cx="41" cy="322" stroke="black" stroke-width="2" fill="red"/>
<circle r="2" cx="42" cy="285" stroke="black" stroke-width="2" fill="red"/>
<circle r="2" cx="51" cy="310" stroke="black" stroke-width="2" fill="red"/>
<circle r="2" cx="30" cy="300" stroke="black" stroke-width="2" fill="red"/>
<circle r="2" cx="55" cy="279" stroke="black" stroke-width="2" fill="red"/>
<circle r="2" cx="31" cy="284" stroke="black" stroke-width="2" fill="red"/>
<circle r="2" cx="27" cy="327" stroke="black" stroke-width="2" fill="red"/>
<circle r="2" cx="21" cy="301" stroke="black" stroke-width="2" fill="red"/>
<circle r="2" cx="19" cy="291" stroke="black" stroke-width="2" fill="red"/>
<circle r="2" cx="88" cy="316" stroke="black" stroke-width="2" fill="red"/>
<circle r="2" cx="84" cy="288" stroke="black" stroke-width="2" fill="red"/>
<circle r="2" cx="93" cy="313" stroke="black" stroke-width="2" fill="red"/>
<circle r="2" cx="117" cy="298" stroke="black" stroke-width="2" fill="red"/>
<circle r="2" cx="114" cy="293" stroke="black" stroke-width="2" fill="red"/>
<circle r="2" cx="103" cy="293" stroke="black" stroke-width="2" fill="red"/>
<circle r="2" cx="79" cy="289" stroke="black" stroke-width="2" fill="red"/>
<circle r="2" cx="103" cy="274" stroke="black" stroke-width="2" fill="red"/>
<circle r="2" cx="89" cy="313" stroke="black" stroke-width="2" fill="red"/>
<circle r="2" cx="108" cy="325" stroke="black" stroke-width="2" fill="red"/>
<circle r="2" cx="74" cy="303" stroke="black" stroke-width="2" fill="red"/>
<circle r="2" cx="87" cy="317" stroke="black" stroke-width="2" fill="red"/>
<circle r="2" cx="86" cy="311" stroke="black" stroke-width="2" fill="red"/>
<circle r="2" cx="67" cy="318" stroke="black" stroke-width="2" fill="red"/>
<circle r="2" cx="102" cy="305" stroke="black" stroke-width="2" fill="red"/>
<circle r="2" cx="363" cy="334" stroke="black" stroke-width="2" fill="red"/>
<circle r="2" cx="350" cy="362" stroke="black" stroke-width="2" fill="red"/>
<circle r="2" cx="361" cy="316" stroke="black" stroke-width="2" fill="red"/>
<circle r="2" cx="346" cy="334" stroke="black" stroke-width="2" fill="red"/>
<circle r="2" cx="361" cy="314" stroke="black" stroke-width="2" fill="red"/>
<circle r="2" cx="343" cy="348" stroke="black" stroke-width="2" fill="red"/>
<circle r="2" cx="361" cy="348" stroke="black" stroke-width="2" fill="red"/>
<circle r="2" cx="333" cy="338" stroke="black" stroke-width="2" fill="red"/>
<circle r="2" cx="382" cy="343" stroke="black" stroke-width="2" fill="red"/>
<circle r="2" cx="373" cy="360" stroke="black" stroke-width="2" fill="red"/>
<circle r="2" cx="373" cy="320" stroke="black" stroke-width="2" fill="red"/>
<circle r="2" cx="374" cy="329" stroke="black" stroke-width="2" fill="red"/>
<circle r="2" cx="342" cy="351" stroke="black" stroke-width="2" fill="red"/>
<circle r="2" cx="344" cy="330" stroke="black" stroke-width="2" fill="red"/>
<circle r="2" cx="361" cy="328" stroke="black" stroke-width="2" fill="red"/>
<circle r="2" cx="166" cy="332" stroke="black" stroke-width="2" fill="red"/>
<circle r="2" cx="169" cy="372" stroke="black" stroke-width="2" fill="red"/>
<circle r="2" cx="146" cy="347" stroke="black" stroke-width="2" fill="red"/>
<circle r="2" cx="153" cy="339" stroke="black" stroke-width="2" fill="red"/>
<circle r="2" cx="145" cy="365" stroke="black" stroke-width="2" fill="red"/>
<circle r="2" cx="169" cy="362" stroke="black" stroke-width="2" fill="red"/>
<circle r="2" cx="163" cy="331" stroke="black" stroke-width="2" fill="red"/>
<circle r="2" cx="197" cy="340" stroke="black" stroke-width="2" fill="red"/>
<circle r="2" cx="176" cy="353" stroke="black" stroke-width="2" fill="red"/>
<circle r="2" cx="172" cy="345" stroke="black" stroke-width="2" fill="red"/>
<circle r="2" cx="176" cy="335" stroke="black" stroke-width="2" fill="red"/>
<circle r="2" cx="172" cy="364" stroke="black" stroke-width="2" fill="red"/>
<circle r="2" cx="164" cy="365" stroke="black" stroke-width="2" fill="red"/>
<circle r="2" cx="148" cy="336" stroke="black" stroke-width="2" fill="red"/>
<circle r="2" cx="149" cy="355" stroke="black" stroke-width="2" fill="red"/>
<circle r="2" cx="264" cy="172" stroke="black" stroke-width="2" fill="red"/>
<circle r="2" cx="247" cy="175" stroke="black" stroke-width="2" fill="red"/>
<circle r="2" cx="268" cy="163" stroke="black" stroke-width="2" fill="red"/>
<circle r="2" cx="260" cy="150" stroke="black" stroke-width="2" fill="red"/>
<circle r="2" cx="279" cy="145" stroke="black" stroke-width="2" fill="red"/>
<circle r="2" cx="289" cy="186" stroke="black" stroke-width="2" fill="red"/>
<circle r="2" cx="280" cy="136" stroke="black" stroke-width="2" fill="red"/>
<circle r="2" cx="264" cy="171" stroke="black" stroke-width="2" fill="red"/>
<circle r="2" cx="278" cy="180" stroke="black" stroke-width="2" fill="red"/>
<circle r="2" cx="292" cy="172" stroke="black" stroke-width="2" fill="red"/>
<circle r="2" cx="259" cy="163" stroke="black" stroke-width="2" fill="red"/>
<circle r="2" cx="286" cy="165" stroke="black" stroke-width="2" fill="red"/>
<circle r="2" cx="259" cy="153" stroke="black" stroke-width="2" fill="red"/>
<circle r="2" cx="289" cy="188" stroke="black" stroke-width="2" fill="red"/>
<circle r="2" cx="280" cy="144" stroke="black" stroke-width="2" fill="red"/>
<circle r="2" cx="325" cy="254" stroke="black" stroke-width="2" fill="red"/>
<circle r="2" cx="328" cy="246" stroke="black" stroke-width="2" fill="red"/>
<circle r="2" cx="319" cy="209" stroke="black" stroke-width="2" fill="red"/>
<circle r="2" cx="311" cy="222" stroke="black" stroke-width="2" fill="red"/>
<circle r="2" cx="341" cy="231" stroke="black" stroke-width="2" fill="red"/>
<circle r="2" cx="357" cy="227" stroke="black" stroke-width="2" fill="red"/>
<circle r="2" cx="341" cy="251" stroke="black" stroke-width="2" fill="red"/>
<circle r="2" cx="310" cy="217" stroke="black" stroke-width="2" fill="red"/>
<circle r="2" cx="309" cy="241" stroke="black" stroke-width="2" fill="red"/>
<circle r="2" cx="325" cy="252" stroke="black" stroke-width="2" fill="red"/>
<circle r="2" cx="330" cy="216" stroke="black" stroke-width="2" fill="red"/>
<circle r="2" cx="321" cy="236" stroke="black" stroke-width="2" fill="red"/>
<circle r="2" cx="347" cy="218" stroke="black" stroke-width="2" fill="red"/>
<circle r="2" cx="334" cy="223" stroke="black" stroke-width="2" fill="red"/>
<circle r="2" cx="326" cy="244" stroke="black" stroke-width="2" fill="red"/>
</svg>
