<?xml version="1.0" standalone="no"?>
<svg width="1050" height="1050" version="1.1"
xmlns="http://www.w3.org/2000/svg">
<rect width="1050" height="1050" style="fill:rgb(255,255,255); stroke-width:10;  stroke:rgb(255,255,255)"/>
<circle r="2" cx="96" cy="96" stroke="black" stroke-width="2" fill="red"/>
<circle r="2" cx="131" cy="119" stroke="black" stroke-width="2" fill="red"/>
<circle r="2" cx="165" cy="142" stroke="black" stroke-width="2" fill="red"/>
<circle r="2" cx="200" cy="165" stroke="black" stroke-width="2" fill="red"/>
<circle r="2" cx="235" cy="188" stroke="black" stroke-width="2" fill="red"/>
<circle r="2" cx="269" cy="211" stroke="black" stroke-width="2" fill="red"/>
<circle r="2" cx="304" cy="235" stroke="black" stroke-width="2" fill="red"/>
<circle r="2" cx="338" cy="258" stroke="black" stroke-width="2" fill="red"/>
<circle r="2" cx="119" cy="82" stroke="black" stroke-width="2" fill="red"/>
<circle r="2" cx="154" cy="105" stroke="black" stroke-width="2" fill="red"/>
<circle r="2" cx="188" cy="129" stroke="black" stroke-width="2" fill="red"/>
<circle r="2" cx="223" cy="152" stroke="black" stroke-width="2" fill="red"/>
<circle r="2" cx="258" cy="175" stroke="black" stroke-width="2" fill="red"/>
<circle r="2" cx="292" cy="198" stroke="black" stroke-width="2" fill="red"/>
<circle r="2" cx="327" cy="221" stroke="black" stroke-width="2" fill="red"/>
<circle r="2" cx="361" cy="244" stroke="black" stroke-width="2" fill="red"/>
<circle r="2" cx="142" cy="69" stroke="black" stroke-width="2" fill="red"/>
<circle r="2" cx="177" cy="92" stroke="black" stroke-width="2" fill="red"/>
<circle r="2" cx="211" cy="115" stroke="black" stroke-width="2" fill="red"/>
<circle r="2" cx="246" cy="138" stroke="black" stroke-width="2" fill="red"/>
<circle r="2" cx="281" cy="161" stroke="black" stroke-width="2" fill="red"/>
<circle r="2" cx="315" cy="184" stroke="black" stroke-width="2" fill="red"/>
<circle r="2" cx="350" cy="207" stroke="black" stroke-width="2" fill="red"/>
<circle r="2" cx="384" cy="230" stroke="black" stroke-width="2" fill="red"/>
<circle r="2" cx="165" cy="55" stroke="black" stroke-width="2" fill="red"/>
<circle r="2" cx="200" cy="78" stroke="black" stroke-width="2" fill="red"/>
<circle r="2" cx="235" cy="101" stroke="black" stroke-width="2" fill="red"/>
<circle r="2" cx="269" cy="124" stroke="black" stroke-width="2" fill="red"/>
<circle r="2" cx="304" cy="147" stroke="black" stroke-width="2" fill="red"/>
<circle r="2" cx="338" cy="170" stroke="black" stroke-width="2" fill="red"/>
<circle r="2" cx="373" cy="193" stroke="black" stroke-width="2" fill="red"/>
<circle r="2" cx="407" cy="216" stroke="black" stroke-width="2" fill="red"/>
<circle r="2" cx="188" cy="41" stroke="black" stroke-width="2" fill="red"/>
<circle r="2" cx="223" cy="64" stroke="black" stroke-width="2" fill="red"/>
<circle r="2" cx="258" cy="87" stroke="black" stroke-width="2" fill="red"/>
<circle r="2" cx="292" cy="110" stroke="black" stroke-width="2" fill="red"/>
<circle r="2" cx="327" cy="133" stroke="black" stroke-width="2" fill="red"/>
<circle r="2" cx="361" cy="156" stroke="black" stroke-width="2" fill="red"/>
<circle r="2" cx="396" cy="179" stroke="black" stroke-width="2" fill="red"/>
<circle r="2" cx="430" cy="202" stroke="black" stroke-width="2" fill="red"/>
<circle r="2" cx="211" cy="27" stroke="black" stroke-width="2" fill="red"/>
<circle r="2" cx="246" cy="50" stroke="black" stroke-width="2" fill="red"/>
<circle r="2" cx="281" cy="73" stroke="black" stroke-width="2" fill="red"/>
<circle r="2" cx="315" cy="96" stroke="black" stroke-width="2" fill="red"/>
<circle r="2" cx="350" cy="119" stroke="black" stroke-width="2" fill="red"/>
<circle r="2" cx="384" cy="142" stroke="black" stroke-width="2" fill="red"/>
<circle r="2" cx="419" cy="165" stroke="black" stroke-width="2" fill="red"/>
<circle r="2" cx="453" cy="188" stroke="black" stroke-width="2" fill="red"/>
<circle r="2" cx="235" cy="13" stroke="black" stroke-width="2" fill="red"/>
<circle r="2" cx="269" cy="36" stroke="black" stroke-width="2" fill="red"/>
<circle r="2" cx="304" cy="59" stroke="black" stroke-width="2" fill="red"/>
<circle r="2" cx="338" cy="82" stroke="black" stroke-width="2" fill="red"/>
<circle r="2" cx="373" cy="105" stroke="black" stroke-width="2" fill="red"/>
<circle r="2" cx="407" cy="129" stroke="black" stroke-width="2" fill="red"/>
<circle r="2" cx="442" cy="152" stroke="black" stroke-width="2" fill="red"/>
<circle r="2" cx="476" cy="175" stroke="black" stroke-width="2" fill="red"/>
<circle r="2" cx="258" cy="0" stroke="black" stroke-width="2" fill="red"/>
<circle r="2" cx="292" cy="23" stroke="black" stroke-width="2" fill="red"/>
<circle r="2" cx="327" cy="46" stroke="black" stroke-width="2" fill="red"/>
<circle r="2" cx="361" cy="69" stroke="black" stroke-width="2" fill="red"/>
<circle r="2" cx="396" cy="92" stroke="black" stroke-width="2" fill="red"/>
<circle r="2" cx="430" cy="115" stroke="black" stroke-width="2" fill="red"/>
<circle r="2" cx="465" cy="138" stroke="black" stroke-width="2" fill="red"/>
<circle r="2" cx="500" cy="161" stroke="black" stroke-width="2" fill="red"/>
<circle r="2" cx="82" cy="131" stroke="black" stroke-width="2" fill="red"/>
<circle r="2" cx="117" cy="154" stroke="black" stroke-width="2" fill="red"/>
<circle r="2" cx="152" cy="177" stroke="black" stroke-width="2" fill="red"/>
<circle r="2" cx="186" cy="200" stroke="black" stroke-width="2" fill="red"/>
<circle r="2" cx="221" cy="223" stroke="black" stroke-width="2" fill="red"/>
<circle r="2" cx="255" cy="246" stroke="black" stroke-width="2" fill="red"/>
<circle r="2" cx="290" cy="269" stroke="black" stroke-width="2" fill="red"/>
<circle r="2" cx="324" cy="292" stroke="black" stroke-width="2" fill="red"/>
<circle r="2" cx="105" cy="117" stroke="black" stroke-width="2" fill="red"/>
<circle r="2" cx="140" cy="140" stroke="black" stroke-width="2" fill="red"/>
<circle r="2" cx="175" cy="163" stroke="black" stroke-width="2" fill="red"/>
<circle r="2" cx="209" cy="186" stroke="black" stroke-width="2" fill="red"/>
<circle r="2" cx="244" cy="209" stroke="black" stroke-width="2" fill="red"/>
<circle r="2" cx="278" cy="232" stroke="black" stroke-width="2" fill="red"/>
<circle r="2" cx="313" cy="255" stroke="black" stroke-width="2" fill="red"/>
<circle r="2" cx="347" cy="278" stroke="black" stroke-width="2" fill="red"/>
<circle r="2" cx="129" cy="103" stroke="black" stroke-width="2" fill="red"/>
<circle r="2" cx="163" cy="126" stroke="black" stroke-width="2" fill="red"/>
<circle r="2" cx="198" cy="149" stroke="black" stroke-width="2" fill="red"/>
<circle r="2" cx="232" cy="172" stroke="black" stroke-width="2" fill="red"/>
<circle r="2" cx="267" cy="195" stroke="black" stroke-width="2" fill="red"/>
<circle r="2" cx="301" cy="218" stroke="black" stroke-width="2" fill="red"/>
<circle r="2" cx="336" cy="241" stroke="black" stroke-width="2" fill="red"/>
<circle r="2" cx="370" cy="264" stroke="black" stroke-width="2" fill="red"/>
<circle r="2" cx="152" cy="89" stroke="black" stroke-width="2" fill="red"/>
<circle r="2" cx="186" cy="112" stroke="black" stroke-width="2" fill="red"/>
<circle r="2" cx="221" cy="135" stroke="black" stroke-width="2" fill="red"/>
<circle r="2" cx="255" cy="158" stroke="black" stroke-width="2" fill="red"/>
<circle r="2" cx="290" cy="182" stroke="black" stroke-width="2" fill="red"/>
<circle r="2" cx="324" cy="205" stroke="black" stroke-width="2" fill="red"/>
<circle r="2" cx="359" cy="228" stroke="black" stroke-width="2" fill="red"/>
<circle r="2" cx="394" cy="251" stroke="black" stroke-width="2" fill="red"/>
<circle r="2" cx="175" cy="76" stroke="black" stroke-width="2" fill="red"/>
<circle r="2" cx="209" cy="99" stroke="black" stroke-width="2" fill="red"/>
<circle r="2" cx="244" cy="122" stroke="black" stroke-width="2" fill="red"/>
<circle r="2" cx="278" cy="145" stroke="black" stroke-width="2" fill="red"/>
<circle r="2" cx="313" cy="168" stroke="black" stroke-width="2" fill="red"/>
<circle r="2" cx="347" cy="191" stroke="black" stroke-width="2" fill="red"/>
<circle r="2" cx="382" cy="214" stroke="black" stroke-width="2" fill="red"/>
<circle r="2" cx="417" cy="237" stroke="black" stroke-width="2" fill="red"/>
<circle r="2" cx="198" cy="62" stroke="black" stroke-width="2" fill="red"/>
<circle r="2" cx="232" cy="85" stroke="black" stroke-width="2" fill="red"/>
<circle r="2" cx="267" cy="108" stroke="black" stroke-width="2" fill="red"/>
<circle r="2" cx="301" cy="131" stroke="black" stroke-width="2" fill="red"/>
<circle r="2" cx="336" cy="154" stroke="black" stroke-width="2" fill="red"/>
<circle r="2" cx="370" cy="177" stroke="black" stroke-width="2" fill="red"/>
<circle r="2" cx="405" cy="200" stroke="black" stroke-width="2" fill="red"/>
<circle r="2" cx="440" cy="223" stroke="black" stroke-width="2" fill="red"/>
<circle r="2" cx="221" cy="48" stroke="black" stroke-width="2" fill="red"/>
<circle r="2" cx="255" cy="71" stroke="black" stroke-width="2" fill="red"/>
<circle r="2" cx="290" cy="94" stroke="black" stroke-width="2" fill="red"/>
<circle r="2" cx="324" cy="117" stroke="black" stroke-width="2" fill="red"/>
<circle r="2" cx="359" cy="140" stroke="black" stroke-width="2" fill="red"/>
<circle r="2" cx="394" cy="163" stroke="black" stroke-width="2" fill="red"/>
<circle r="2" cx="428" cy="186" stroke="black" stroke-width="2" fill="red"/>
<circle r="2" cx="463" cy="209" stroke="black" stroke-width="2" fill="red"/>
<circle r="2" cx="244" cy="34" stroke="black" stroke-width="2" fill="red"/>
<circle r="2" cx="278" cy="57" stroke="black" stroke-width="2" fill="red"/>
<circle r="2" cx="313" cy="80" stroke="black" stroke-width="2" fill="red"/>
<circle r="2" cx="347" cy="103" stroke="black" stroke-width="2" fill="red"/>
<circle r="2" cx="382" cy="126" stroke="black" stroke-width="2" fill="red"/>
<circle r="2" cx="417" cy="149" stroke="black" stroke-width="2" fill="red"/>
<circle r="2" cx="451" cy="172" stroke="black" stroke-width="2" fill="red"/>
<circle r="2" cx="486" cy="195" stroke="black" stroke-width="2" fill="red"/>
<circle r="2" cx="69" cy="165" stroke="black" stroke-width="2" fill="red"/>
<circle r="2" cx="103" cy="188" stroke="black" stroke-width="2" fill="red"/>
<circle r="2" cx="138" cy="211" stroke="black" stroke-width="2" fill="red"/>
<circle r="2" cx="172" cy="235" stroke="black" stroke-width="2" fill="red"/>
<circle r="2" cx="207" cy="258" stroke="black" stroke-width="2" fill="red"/>
<circle r="2" cx="241" cy="281" stroke="black" stroke-width="2" fill="red"/>
<circle r="2" cx="276" cy="304" stroke="black" stroke-width="2" fill="red"/>
<circle r="2" cx="311" cy="327" stroke="black" stroke-width="2" fill="red"/>
<circle r="2" cx="92" cy="152" stroke="black" stroke-width="2" fill="red"/>
<circle r="2" cx="126" cy="175" stroke="black" stroke-width="2" fill="red"/>
<circle r="2" cx="161" cy="198" stroke="black" stroke-width="2" fill="red"/>
<circle r="2" cx="195" cy="221" stroke="black" stroke-width="2" fill="red"/>
<circle r="2" cx="230" cy="244" stroke="black" stroke-width="2" fill="red"/>
<circle r="2" cx="264" cy="267" stroke="black" stroke-width="2" fill="red"/>
<circle r="2" cx="299" cy="290" stroke="black" stroke-width="2" fill="red"/>
<circle r="2" cx="334" cy="313" stroke="black" stroke-width="2" fill="red"/>
<circle r="2" cx="115" cy="138" stroke="black" stroke-width="2" fill="red"/>
<circle r="2" cx="149" cy="161" stroke="black" stroke-width="2" fill="red"/>
<circle r="2" cx="184" cy="184" stroke="black" stroke-width="2" fill="red"/>
<circle r="2" cx="218" cy="207" stroke="black" stroke-width="2" fill="red"/>
<circle r="2" cx="253" cy="230" stroke="black" stroke-width="2" fill="red"/>
<circle r="2" cx="288" cy="253" stroke="black" stroke-width="2" fill="red"/>
<circle r="2" cx="322" cy="276" stroke="black" stroke-width="2" fill="red"/>
<circle r="2" cx="357" cy="299" stroke="black" stroke-width="2" fill="red"/>
<circle r="2" cx="138" cy="124" stroke="black" stroke-width="2" fill="red"/>
<circle r="2" cx="172" cy="147" stroke="black" stroke-width="2" fill="red"/>
<circle r="2" cx="207" cy="170" stroke="black" stroke-width="2" fill="red"/>
<circle r="2" cx="241" cy="193" stroke="black" stroke-width="2" fill="red"/>
<circle r="2" cx="276" cy="216" stroke="black" stroke-width="2" fill="red"/>
<circle r="2" cx="311" cy="239" stroke="black" stroke-width="2" fill="red"/>
<circle r="2" cx="345" cy="262" stroke="black" stroke-width="2" fill="red"/>
<circle r="2" cx="380" cy="285" stroke="black" stroke-width="2" fill="red"/>
<circle r="2" cx="161" cy="110" stroke="black" stroke-width="2" fill="red"/>
<circle r="2" cx="195" cy="133" stroke="black" stroke-width="2" fill="red"/>
<circle r="2" cx="230" cy="156" stroke="black" stroke-width="2" fill="red"/>
<circle r="2" cx="264" cy="179" stroke="black" stroke-width="2" fill="red"/>
<circle r="2" cx="299" cy="202" stroke="black" stroke-width="2" fill="red"/>
<circle r="2" cx="334" cy="225" stroke="black" stroke-width="2" fill="red"/>
<circle r="2" cx="368" cy="248" stroke="black" stroke-width="2" fill="red"/>
<circle r="2" cx="403" cy="271" stroke="black" stroke-width="2" fill="red"/>
<circle r="2" cx="184" cy="96" stroke="black" stroke-width="2" fill="red"/>
<circle r="2" cx="218" cy="119" stroke="black" stroke-width="2" fill="red"/>
<circle r="2" cx="253" cy="142" stroke="black" stroke-width="2" fill="red"/>
<circle r="2" cx="288" cy="165" stroke="black" stroke-width="2" fill="red"/>
<circle r="2" cx="322" cy="188" stroke="black" stroke-width="2" fill="red"/>
<circle r="2" cx="357" cy="211" stroke="black" stroke-width="2" fill="red"/>
<circle r="2" cx="391" cy="235" stroke="black" stroke-width="2" fill="red"/>
<circle r="2" cx="426" cy="258" stroke="black" stroke-width="2" fill="red"/>
<circle r="2" cx="207" cy="82" stroke="black" stroke-width="2" fill="red"/>
<circle r="2" cx="241" cy="105" stroke="black" stroke-width="2" fill="red"/>
<circle r="2" cx="276" cy="129" stroke="black" stroke-width="2" fill="red"/>
<circle r="2" cx="311" cy="152" stroke="black" stroke-width="2" fill="red"/>
<circle r="2" cx="345" cy="175" stroke="black" stroke-width="2" fill="red"/>
<circle r="2" cx="380" cy="198" stroke="black" stroke-width="2" fill="red"/>
<circle r="2" cx="414" cy="221" stroke="black" stroke-width="2" fill="red"/>
<circle r="2" cx="449" cy="244" stroke="black" stroke-width="2" fill="red"/>
<circle r="2" cx="230" cy="69" stroke="black" stroke-width="2" fill="red"/>
<circle r="2" cx="264" cy="92" stroke="black" stroke-width="2" fill="red"/>
<circle r="2" cx="299" cy="115" stroke="black" stroke-width="2" fill="red"/>
<circle r="2" cx="334" cy="138" stroke="black" stroke-width="2" fill="red"/>
<circle r="2" cx="368" cy="161" stroke="black" stroke-width="2" fill="red"/>
<circle r="2" cx="403" cy="184" stroke="black" stroke-width="2" fill="red"/>
<circle r="2" cx="437" cy="207" stroke="black" stroke-width="2" fill="red"/>
<circle r="2" cx="472" cy="230" stroke="black" stroke-width="2" fill="red"/>
<circle r="2" cx="55" cy="200" stroke="black" stroke-width="2" fill="red"/>
<circle r="2" cx="89" cy="223" stroke="black" stroke-width="2" fill="red"/>
<circle r="2" cx="124" cy="246" stroke="black" stroke-width="2" fill="red"/>
<circle r="2" cx="158" cy="269" stroke="black" stroke-width="2" fill="red"/>
<circle r="2" cx="193" cy="292" stroke="black" stroke-width="2" fill="red"/>
<circle r="2" cx="228" cy="315" stroke="black" stroke-width="2" fill="red"/>
<circle r="2" cx="262" cy="338" stroke="black" stroke-width="2" fill="red"/>
<circle r="2" cx="297" cy="361" stroke="black" stroke-width="2" fill="red"/>
<circle r="2" cx="78" cy="186" stroke="black" stroke-width="2" fill="red"/>
<circle r="2" cx="112" cy="209" stroke="black" stroke-width="2" fill="red"/>
<circle r="2" cx="147" cy="232" stroke="black" stroke-width="2" fill="red"/>
<circle r="2" cx="182" cy="255" stroke="black" stroke-width="2" fill="red"/>
<circle r="2" cx="216" cy="278" stroke="black" stroke-width="2" fill="red"/>
<circle r="2" cx="251" cy="301" stroke="black" stroke-width="2" fill="red"/>
<circle r="2" cx="285" cy="324" stroke="black" stroke-width="2" fill="red"/>
<circle r="2" cx="320" cy="347" stroke="black" stroke-width="2" fill="red"/>
<circle r="2" cx="101" cy="172" stroke="black" stroke-width="2" fill="red"/>
<circle r="2" cx="135" cy="195" stroke="black" stroke-width="2" fill="red"/>
<circle r="2" cx="170" cy="218" stroke="black" stroke-width="2" fill="red"/>
<circle r="2" cx="205" cy="241" stroke="black" stroke-width="2" fill="red"/>
<circle r="2" cx="239" cy="264" stroke="black" stroke-width="2" fill="red"/>
<circle r="2" cx="274" cy="288" stroke="black" stroke-width="2" fill="red"/>
<circle r="2" cx="308" cy="311" stroke="black" stroke-width="2" fill="red"/>
<circle r="2" cx="343" cy="334" stroke="black" stroke-width="2" fill="red"/>
<circle r="2" cx="124" cy="158" stroke="black" stroke-width="2" fill="red"/>
<circle r="2" cx="158" cy="182" stroke="black" stroke-width="2" fill="red"/>
<circle r="2" cx="193" cy="205" stroke="black" stroke-width="2" fill="red"/>
<circle r="2" cx="228" cy="228" stroke="black" stroke-width="2" fill="red"/>
<circle r="2" cx="262" cy="251" stroke="black" stroke-width="2" fill="red"/>
<circle r="2" cx="297" cy="274" stroke="black" stroke-width="2" fill="red"/>
<circle r="2" cx="331" cy="297" stroke="black" stroke-width="2" fill="red"/>
<circle r="2" cx="366" cy="320" stroke="black" stroke-width="2" fill="red"/>
<circle r="2" cx="147" cy="145" stroke="black" stroke-width="2" fill="red"/>
<circle r="2" cx="182" cy="168" stroke="black" stroke-width="2" fill="red"/>
<circle r="2" cx="216" cy="191" stroke="black" stroke-width="2" fill="red"/>
<circle r="2" cx="251" cy="214" stroke="black" stroke-width="2" fill="red"/>
<circle r="2" cx="285" cy="237" stroke="black" stroke-width="2" fill="red"/>
<circle r="2" cx="320" cy="260" stroke="black" stroke-width="2" fill="red"/>
<circle r="2" cx="354" cy="283" stroke="black" stroke-width="2" fill="red"/>
<circle r="2" cx="389" cy="306" stroke="black" stroke-width="2" fill="red"/>
<circle r="2" cx="170" cy="131" stroke="black" stroke-width="2" fill="red"/>
<circle r="2" cx="205" cy="154" stroke="black" stroke-width="2" fill="red"/>
<circle r="2" cx="239" cy="177" stroke="black" stroke-width="2" fill="red"/>
<circle r="2" cx="274" cy="200" stroke="black" stroke-width="2" fill="red"/>
<circle r="2" cx="308" cy="223" stroke="black" stroke-width="2" fill="red"/>
<circle r="2" cx="343" cy="246" stroke="black" stroke-width="2" fill="red"/>
<circle r="2" cx="377" cy="269" stroke="black" stroke-width="2" fill="red"/>
<circle r="2" cx="412" cy="292" stroke="black" stroke-width="2" fill="red"/>
<circle r="2" cx="193" cy="117" stroke="black" stroke-width="2" fill="red"/>
<circle r="2" cx="228" cy="140" stroke="black" stroke-width="2" fill="red"/>
<circle r="2" cx="262" cy="163" stroke="black" stroke-width="2" fill="red"/>
<circle r="2" cx="297" cy="186" stroke="black" stroke-width="2" fill="red"/>
<circle r="2" cx="331" cy="209" stroke="black" stroke-width="2" fill="red"/>
<circle r="2" cx="366" cy="232" stroke="black" stroke-width="2" fill="red"/>
<circle r="2" cx="400" cy="255" stroke="black" stroke-width="2" fill="red"/>
<circle r="2" cx="435" cy="278" stroke="black" stroke-width="2" fill="red"/>
<circle r="2" cx="216" cy="103" stroke="black" stroke-width="2" fill="red"/>
<circle r="2" cx="251" cy="126" stroke="black" stroke-width="2" fill="red"/>
<circle r="2" cx="285" cy="149" stroke="black" stroke-width="2" fill="red"/>
<circle r="2" cx="320" cy="172" stroke="black" stroke-width="2" fill="red"/>
<circle r="2" cx="354" cy="195" stroke="black" stroke-width="2" fill="red"/>
<circle r="2" cx="389" cy="218" stroke="black" stroke-width="2" fill="red"/>
<circle r="2" cx="423" cy="241" stroke="black" stroke-width="2" fill="red"/>
<circle r="2" cx="458" cy="264" stroke="black" stroke-width="2" fill="red"/>
<circle r="2" cx="41" cy="235" stroke="black" stroke-width="2" fill="red"/>
<circle r="2" cx="76" cy="258" stroke="black" stroke-width="2" fill="red"/>
<circle r="2" cx="110" cy="281" stroke="black" stroke-width="2" fill="red"/>
<circle r="2" cx="145" cy="304" stroke="black" stroke-width="2" fill="red"/>
<circle r="2" cx="179" cy="327" stroke="black" stroke-width="2" fill="red"/>
<circle r="2" cx="214" cy="350" stroke="black" stroke-width="2" fill="red"/>
<circle r="2" cx="248" cy="373" stroke="black" stroke-width="2" fill="red"/>
<circle r="2" cx="283" cy="396" stroke="black" stroke-width="2" fill="red"/>
<circle r="2" cx="64" cy="221" stroke="black" stroke-width="2" fill="red"/>
<circle r="2" cx="99" cy="244" stroke="black" stroke-width="2" fill="red"/>
<circle r="2" cx="133" cy="267" stroke="black" stroke-width="2" fill="red"/>
<circle r="2" cx="168" cy="290" stroke="black" stroke-width="2" fill="red"/>
<circle r="2" cx="202" cy="313" stroke="black" stroke-width="2" fill="red"/>
<circle r="2" cx="237" cy="336" stroke="black" stroke-width="2" fill="red"/>
<circle r="2" cx="271" cy="359" stroke="black" stroke-width="2" fill="red"/>
<circle r="2" cx="306" cy="382" stroke="black" stroke-width="2" fill="red"/>
<circle r="2" cx="87" cy="207" stroke="black" stroke-width="2" fill="red"/>
<circle r="2" cx="122" cy="230" stroke="black" stroke-width="2" fill="red"/>
<circle r="2" cx="156" cy="253" stroke="black" stroke-width="2" fill="red"/>
<circle r="2" cx="191" cy="276" stroke="black" stroke-width="2" fill="red"/>
<circle r="2" cx="225" cy="299" stroke="black" stroke-width="2" fill="red"/>
<circle r="2" cx="260" cy="322" stroke="black" stroke-width="2" fill="red"/>
<circle r="2" cx="294" cy="345" stroke="black" stroke-width="2" fill="red"/>
<circle r="2" cx="329" cy="368" stroke="black" stroke-width="2" fill="red"/>
<circle r="2" cx="110" cy="193" stroke="black" stroke-width="2" fill="red"/>
<circle r="2" cx="145" cy="216" stroke="black" stroke-width="2" fill="red"/>
<circle r="2" cx="179" cy="239" stroke="black" stroke-width="2" fill="red"/>
<circle r="2" cx="214" cy="262" stroke="black" stroke-width="2" fill="red"/>
<circle r="2" cx="248" cy="285" stroke="black" stroke-width="2" fill="red"/>
<circle r="2" cx="283" cy="308" stroke="black" stroke-width="2" fill="red"/>
<circle r="2" cx="317" cy="331" stroke="black" stroke-width="2" fill="red"/>
<circle r="2" cx="352" cy="354" stroke="black" stroke-width="2" fill="red"/>
<circle r="2" cx="133" cy="179" stroke="black" stroke-width="2" fill="red"/>
<circle r="2" cx="168" cy="202" stroke="black" stroke-width="2" fill="red"/>
<circle r="2" cx="202" cy="225" stroke="black" stroke-width="2" fill="red"/>
<circle r="2" cx="237" cy="248" stroke="black" stroke-width="2" fill="red"/>
<circle r="2" cx="271" cy="271" stroke="black" stroke-width="2" fill="red"/>
<circle r="2" cx="306" cy="294" stroke="black" stroke-width="2" fill="red"/>
<circle r="2" cx="341" cy="317" stroke="black" stroke-width="2" fill="red"/>
<circle r="2" cx="375" cy="341" stroke="black" stroke-width="2" fill="red"/>
<circle r="2" cx="156" cy="165" stroke="black" stroke-width="2" fill="red"/>
<circle r="2" cx="191" cy="188" stroke="black" stroke-width="2" fill="red"/>
<circle r="2" cx="225" cy="211" stroke="black" stroke-width="2" fill="red"/>
<circle r="2" cx="260" cy="235" stroke="black" stroke-width="2" fill="red"/>
<circle r="2" cx="294" cy="258" stroke="black" stroke-width="2" fill="red"/>
<circle r="2" cx="329" cy="281" stroke="black" stroke-width="2" fill="red"/>
<circle r="2" cx="364" cy="304" stroke="black" stroke-width="2" fill="red"/>
<circle r="2" cx="398" cy="327" stroke="black" stroke-width="2" fill="red"/>
<circle r="2" cx="179" cy="152" stroke="black" stroke-width="2" fill="red"/>
<circle r="2" cx="214" cy="175" stroke="black" stroke-width="2" fill="red"/>
<circle r="2" cx="248" cy="198" stroke="black" stroke-width="2" fill="red"/>
<circle r="2" cx="283" cy="221" stroke="black" stroke-width="2" fill="red"/>
<circle r="2" cx="317" cy="244" stroke="black" stroke-width="2" fill="red"/>
<circle r="2" cx="352" cy="267" stroke="black" stroke-width="2" fill="red"/>
<circle r="2" cx="387" cy="290" stroke="black" stroke-width="2" fill="red"/>
<circle r="2" cx="421" cy="313" stroke="black" stroke-width="2" fill="red"/>
<circle r="2" cx="202" cy="138" stroke="black" stroke-width="2" fill="red"/>
<circle r="2" cx="237" cy="161" stroke="black" stroke-width="2" fill="red"/>
<circle r="2" cx="271" cy="184" stroke="black" stroke-width="2" fill="red"/>
<circle r="2" cx="306" cy="207" stroke="black" stroke-width="2" fill="red"/>
<circle r="2" cx="341" cy="230" stroke="black" stroke-width="2" fill="red"/>
<circle r="2" cx="375" cy="253" stroke="black" stroke-width="2" fill="red"/>
<circle r="2" cx="410" cy="276" stroke="black" stroke-width="2" fill="red"/>
<circle r="2" cx="444" cy="299" stroke="black" stroke-width="2" fill="red"/>
<circle r="2" cx="27" cy="269" stroke="black" stroke-width="2" fill="red"/>
<circle r="2" cx="62" cy="292" stroke="black" stroke-width="2" fill="red"/>
<circle r="2" cx="96" cy="315" stroke="black" stroke-width="2" fill="red"/>
<circle r="2" cx="131" cy="338" stroke="black" stroke-width="2" fill="red"/>
<circle r="2" cx="165" cy="361" stroke="black" stroke-width="2" fill="red"/>
<circle r="2" cx="200" cy="384" stroke="black" stroke-width="2" fill="red"/>
<circle r="2" cx="235" cy="407" stroke="black" stroke-width="2" fill="red"/>
<circle r="2" cx="269" cy="430" stroke="black" stroke-width="2" fill="red"/>
<circle r="2" cx="50" cy="255" stroke="black" stroke-width="2" fill="red"/>
<circle r="2" cx="85" cy="278" stroke="black" stroke-width="2" fill="red"/>
<circle r="2" cx="119" cy="301" stroke="black" stroke-width="2" fill="red"/>
<circle r="2" cx="154" cy="324" stroke="black" stroke-width="2" fill="red"/>
<circle r="2" cx="188" cy="347" stroke="black" stroke-width="2" fill="red"/>
<circle r="2" cx="223" cy="370" stroke="black" stroke-width="2" fill="red"/>
<circle r="2" cx="258" cy="394" stroke="black" stroke-width="2" fill="red"/>
<circle r="2" cx="292" cy="417" stroke="black" stroke-width="2" fill="red"/>
<circle r="2" cx="73" cy="241" stroke="black" stroke-width="2" fill="red"/>
<circle r="2" cx="108" cy="264" stroke="black" stroke-width="2" fill="red"/>
<circle r="2" cx="142" cy="288" stroke="black" stroke-width="2" fill="red"/>
<circle r="2" cx="177" cy="311" stroke="black" stroke-width="2" fill="red"/>
<circle r="2" cx="211" cy="334" stroke="black" stroke-width="2" fill="red"/>
<circle r="2" cx="246" cy="357" stroke="black" stroke-width="2" fill="red"/>
<circle r="2" cx="281" cy="380" stroke="black" stroke-width="2" fill="red"/>
<circle r="2" cx="315" cy="403" stroke="black" stroke-width="2" fill="red"/>
<circle r="2" cx="96" cy="228" stroke="black" stroke-width="2" fill="red"/>
<circle r="2" cx="131" cy="251" stroke="black" stroke-width="2" fill="red"/>
<circle r="2" cx="165" cy="274" stroke="black" stroke-width="2" fill="red"/>
<circle r="2" cx="200" cy="297" stroke="black" stroke-width="2" fill="red"/>
<circle r="2" cx="235" cy="320" stroke="black" stroke-width="2" fill="red"/>
<circle r="2" cx="269" cy="343" stroke="black" stroke-width="2" fill="red"/>
<circle r="2" cx="304" cy="366" stroke="black" stroke-width="2" fill="red"/>
<circle r="2" cx="338" cy="389" stroke="black" stroke-width="2" fill="red"/>
<circle r="2" cx="119" cy="214" stroke="black" stroke-width="2" fill="red"/>
<circle r="2" cx="154" cy="237" stroke="black" stroke-width="2" fill="red"/>
<circle r="2" cx="188" cy="260" stroke="black" stroke-width="2" fill="red"/>
<circle r="2" cx="223" cy="283" stroke="black" stroke-width="2" fill="red"/>
<circle r="2" cx="258" cy="306" stroke="black" stroke-width="2" fill="red"/>
<circle r="2" cx="292" cy="329" stroke="black" stroke-width="2" fill="red"/>
<circle r="2" cx="327" cy="352" stroke="black" stroke-width="2" fill="red"/>
<circle r="2" cx="361" cy="375" stroke="black" stroke-width="2" fill="red"/>
<circle r="2" cx="142" cy="200" stroke="black" stroke-width="2" fill="red"/>
<circle r="2" cx="177" cy="223" stroke="black" stroke-width="2" fill="red"/>
<circle r="2" cx="211" cy="246" stroke="black" stroke-width="2" fill="red"/>
<circle r="2" cx="246" cy="269" stroke="black" stroke-width="2" fill="red"/>
<circle r="2" cx="281" cy="292" stroke="black" stroke-width="2" fill="red"/>
<circle r="2" cx="315" cy="315" stroke="black" stroke-width="2" fill="red"/>
<circle r="2" cx="350" cy="338" stroke="black" stroke-width="2" fill="red"/>
<circle r="2" cx="384" cy="361" stroke="black" stroke-width="2" fill="red"/>
<circle r="2" cx="165" cy="186" stroke="black" stroke-width="2" fill="red"/>
<circle r="2" cx="200" cy="209" stroke="black" stroke-width="2" fill="red"/>
<circle r="2" cx="235" cy="232" stroke="black" stroke-width="2" fill="red"/>
<circle r="2" cx="269" cy="255" stroke="black" stroke-width="2" fill="red"/>
<circle r="2" cx="304" cy="278" stroke="black" stroke-width="2" fill="red"/>
<circle r="2" cx="338" cy="301" stroke="black" stroke-width="2" fill="red"/>
<circle r="2" cx="373" cy="324" stroke="black" stroke-width="2" fill="red"/>
<circle r="2" cx="407" cy="347" stroke="black" stroke-width="2" fill="red"/>
<circle r="2" cx="188" cy="172" stroke="black" stroke-width="2" fill="red"/>
<circle r="2" cx="223" cy="195" stroke="black" stroke-width="2" fill="red"/>
<circle r="2" cx="258" cy="218" stroke="black" stroke-width="2" fill="red"/>
<circle r="2" cx="292" cy="241" stroke="black" stroke-width="2" fill="red"/>
<circle r="2" cx="327" cy="264" stroke="black" stroke-width="2" fill="red"/>
<circle r="2" cx="361" cy="288" stroke="black" stroke-width="2" fill="red"/>
<circle r="2" cx="396" cy="311" stroke="black" stroke-width="2" fill="red"/>
<circle r="2" cx="430" cy="334" stroke="black" stroke-width="2" fill="red"/>
<circle r="2" cx="13" cy="304" stroke="black" stroke-width="2" fill="red"/>
<circle r="2" cx="48" cy="327" stroke="black" stroke-width="2" fill="red"/>
<circle r="2" cx="82" cy="350" stroke="black" stroke-width="2" fill="red"/>
<circle r="2" cx="117" cy="373" stroke="black" stroke-width="2" fill="red"/>
<circle r="2" cx="152" cy="396" stroke="black" stroke-width="2" fill="red"/>
<circle r="2" cx="186" cy="419" stroke="black" stroke-width="2" fill="red"/>
<circle r="2" cx="221" cy="442" stroke="black" stroke-width="2" fill="red"/>
<circle r="2" cx="255" cy="465" stroke="black" stroke-width="2" fill="red"/>
<circle r="2" cx="36" cy="290" stroke="black" stroke-width="2" fill="red"/>
<circle r="2" cx="71" cy="313" stroke="black" stroke-width="2" fill="red"/>
<circle r="2" cx="105" cy="336" stroke="black" stroke-width="2" fill="red"/>
<circle r="2" cx="140" cy="359" stroke="black" stroke-width="2" fill="red"/>
<circle r="2" cx="175" cy="382" stroke="black" stroke-width="2" fill="red"/>
<circle r="2" cx="209" cy="405" stroke="black" stroke-width="2" fill="red"/>
<circle r="2" cx="244" cy="428" stroke="black" stroke-width="2" fill="red"/>
<circle r="2" cx="278" cy="451" stroke="black" stroke-width="2" fill="red"/>
<circle r="2" cx="59" cy="276" stroke="black" stroke-width="2" fill="red"/>
<circle r="2" cx="94" cy="299" stroke="black" stroke-width="2" fill="red"/>
<circle r="2" cx="129" cy="322" stroke="black" stroke-width="2" fill="red"/>
<circle r="2" cx="163" cy="345" stroke="black" stroke-width="2" fill="red"/>
<circle r="2" cx="198" cy="368" stroke="black" stroke-width="2" fill="red"/>
<circle r="2" cx="232" cy="391" stroke="black" stroke-width="2" fill="red"/>
<circle r="2" cx="267" cy="414" stroke="black" stroke-width="2" fill="red"/>
<circle r="2" cx="301" cy="437" stroke="black" stroke-width="2" fill="red"/>
<circle r="2" cx="82" cy="262" stroke="black" stroke-width="2" fill="red"/>
<circle r="2" cx="117" cy="285" stroke="black" stroke-width="2" fill="red"/>
<circle r="2" cx="152" cy="308" stroke="black" stroke-width="2" fill="red"/>
<circle r="2" cx="186" cy="331" stroke="black" stroke-width="2" fill="red"/>
<circle r="2" cx="221" cy="354" stroke="black" stroke-width="2" fill="red"/>
<circle r="2" cx="255" cy="377" stroke="black" stroke-width="2" fill="red"/>
<circle r="2" cx="290" cy="400" stroke="black" stroke-width="2" fill="red"/>
<circle r="2" cx="324" cy="423" stroke="black" stroke-width="2" fill="red"/>
<circle r="2" cx="105" cy="248" stroke="black" stroke-width="2" fill="red"/>
<circle r="2" cx="140" cy="271" stroke="black" stroke-width="2" fill="red"/>
<circle r="2" cx="175" cy="294" stroke="black" stroke-width="2" fill="red"/>
<circle r="2" cx="209" cy="317" stroke="black" stroke-width="2" fill="red"/>
<circle r="2" cx="244" cy="341" stroke="black" stroke-width="2" fill="red"/>
<circle r="2" cx="278" cy="364" stroke="black" stroke-width="2" fill="red"/>
<circle r="2" cx="313" cy="387" stroke="black" stroke-width="2" fill="red"/>
<circle r="2" cx="347" cy="410" stroke="black" stroke-width="2" fill="red"/>
<circle r="2" cx="129" cy="235" stroke="black" stroke-width="2" fill="red"/>
<circle r="2" cx="163" cy="258" stroke="black" stroke-width="2" fill="red"/>
<circle r="2" cx="198" cy="281" stroke="black" stroke-width="2" fill="red"/>
<circle r="2" cx="232" cy="304" stroke="black" stroke-width="2" fill="red"/>
<circle r="2" cx="267" cy="327" stroke="black" stroke-width="2" fill="red"/>
<circle r="2" cx="301" cy="350" stroke="black" stroke-width="2" fill="red"/>
<circle r="2" cx="336" cy="373" stroke="black" stroke-width="2" fill="red"/>
<circle r="2" cx="370" cy="396" stroke="black" stroke-width="2" fill="red"/>
<circle r="2" cx="152" cy="221" stroke="black" stroke-width="2" fill="red"/>
<circle r="2" cx="186" cy="244" stroke="black" stroke-width="2" fill="red"/>
<circle r="2" cx="221" cy="267" stroke="black" stroke-width="2" fill="red"/>
<circle r="2" cx="255" cy="290" stroke="black" stroke-width="2" fill="red"/>
<circle r="2" cx="290" cy="313" stroke="black" stroke-width="2" fill="red"/>
<circle r="2" cx="324" cy="336" stroke="black" stroke-width="2" fill="red"/>
<circle r="2" cx="359" cy="359" stroke="black" stroke-width="2" fill="red"/>
<circle r="2" cx="394" cy="382" stroke="black" stroke-width="2" fill="red"/>
<circle r="2" cx="175" cy="207" stroke="black" stroke-width="2" fill="red"/>
<circle r="2" cx="209" cy="230" stroke="black" stroke-width="2" fill="red"/>
<circle r="2" cx="244" cy="253" stroke="black" stroke-width="2" fill="red"/>
<circle r="2" cx="278" cy="276" stroke="black" stroke-width="2" fill="red"/>
<circle r="2" cx="313" cy="299" stroke="black" stroke-width="2" fill="red"/>
<circle r="2" cx="347" cy="322" stroke="black" stroke-width="2" fill="red"/>
<circle r="2" cx="382" cy="345" stroke="black" stroke-width="2" fill="red"/>
<circle r="2" cx="417" cy="368" stroke="black" stroke-width="2" fill="red"/>
<circle r="2" cx="0" cy="338" stroke="black" stroke-width="2" fill="red"/>
<circle r="2" cx="34" cy="361" stroke="black" stroke-width="2" fill="red"/>
<circle r="2" cx="69" cy="384" stroke="black" stroke-width="2" fill="red"/>
<circle r="2" cx="103" cy="407" stroke="black" stroke-width="2" fill="red"/>
<circle r="2" cx="138" cy="430" stroke="black" stroke-width="2" fill="red"/>
<circle r="2" cx="172" cy="453" stroke="black" stroke-width="2" fill="red"/>
<circle r="2" cx="207" cy="476" stroke="black" stroke-width="2" fill="red"/>
<circle r="2" cx="241" cy="500" stroke="black" stroke-width="2" fill="red"/>
<circle r="2" cx="23" cy="324" stroke="black" stroke-width="2" fill="red"/>
<circle r="2" cx="57" cy="347" stroke="black" stroke-width="2" fill="red"/>
<circle r="2" cx="92" cy="370" stroke="black" stroke-width="2" fill="red"/>
<circle r="2" cx="126" cy="394" stroke="black" stroke-width="2" fill="red"/>
<circle r="2" cx="161" cy="417" stroke="black" stroke-width="2" fill="red"/>
<circle r="2" cx="195" cy="440" stroke="black" stroke-width="2" fill="red"/>
<circle r="2" cx="230" cy="463" stroke="black" stroke-width="2" fill="red"/>
<circle r="2" cx="264" cy="486" stroke="black" stroke-width="2" fill="red"/>
<circle r="2" cx="46" cy="311" stroke="black" stroke-width="2" fill="red"/>
<circle r="2" cx="80" cy="334" stroke="black" stroke-width="2" fill="red"/>
<circle r="2" cx="115" cy="357" stroke="black" stroke-width="2" fill="red"/>
<circle r="2" cx="149" cy="380" stroke="black" stroke-width="2" fill="red"/>
<circle r="2" cx="184" cy="403" stroke="black" stroke-width="2" fill="red"/>
<circle r="2" cx="218" cy="426" stroke="black" stroke-width="2" fill="red"/>
<circle r="2" cx="253" cy="449" stroke="black" stroke-width="2" fill="red"/>
<circle r="2" cx="288" cy="472" stroke="black" stroke-width="2" fill="red"/>
<circle r="2" cx="69" cy="297" stroke="black" stroke-width="2" fill="red"/>
<circle r="2" cx="103" cy="320" stroke="black" stroke-width="2" fill="red"/>
<circle r="2" cx="138" cy="343" stroke="black" stroke-width="2" fill="red"/>
<circle r="2" cx="172" cy="366" stroke="black" stroke-width="2" fill="red"/>
<circle r="2" cx="207" cy="389" stroke="black" stroke-width="2" fill="red"/>
<circle r="2" cx="241" cy="412" stroke="black" stroke-width="2" fill="red"/>
<circle r="2" cx="276" cy="435" stroke="black" stroke-width="2" fill="red"/>
<circle r="2" cx="311" cy="458" stroke="black" stroke-width="2" fill="red"/>
<circle r="2" cx="92" cy="283" stroke="black" stroke-width="2" fill="red"/>
<circle r="2" cx="126" cy="306" stroke="black" stroke-width="2" fill="red"/>
<circle r="2" cx="161" cy="329" stroke="black" stroke-width="2" fill="red"/>
<circle r="2" cx="195" cy="352" stroke="black" stroke-width="2" fill="red"/>
<circle r="2" cx="230" cy="375" stroke="black" stroke-width="2" fill="red"/>
<circle r="2" cx="264" cy="398" stroke="black" stroke-width="2" fill="red"/>
<circle r="2" cx="299" cy="421" stroke="black" stroke-width="2" fill="red"/>
<circle r="2" cx="334" cy="444" stroke="black" stroke-width="2" fill="red"/>
<circle r="2" cx="115" cy="269" stroke="black" stroke-width="2" fill="red"/>
<circle r="2" cx="149" cy="292" stroke="black" stroke-width="2" fill="red"/>
<circle r="2" cx="184" cy="315" stroke="black" stroke-width="2" fill="red"/>
<circle r="2" cx="218" cy="338" stroke="black" stroke-width="2" fill="red"/>
<circle r="2" cx="253" cy="361" stroke="black" stroke-width="2" fill="red"/>
<circle r="2" cx="288" cy="384" stroke="black" stroke-width="2" fill="red"/>
<circle r="2" cx="322" cy="407" stroke="black" stroke-width="2" fill="red"/>
<circle r="2" cx="357" cy="430" stroke="black" stroke-width="2" fill="red"/>
<circle r="2" cx="138" cy="255" stroke="black" stroke-width="2" fill="red"/>
<circle r="2" cx="172" cy="278" stroke="black" stroke-width="2" fill="red"/>
<circle r="2" cx="207" cy="301" stroke="black" stroke-width="2" fill="red"/>
<circle r="2" cx="241" cy="324" stroke="black" stroke-width="2" fill="red"/>
<circle r="2" cx="276" cy="347" stroke="black" stroke-width="2" fill="red"/>
<circle r="2" cx="311" cy="370" stroke="black" stroke-width="2" fill="red"/>
<circle r="2" cx="345" cy="394" stroke="black" stroke-width="2" fill="red"/>
<circle r="2" cx="380" cy="417" stroke="black" stroke-width="2" fill="red"/>
<circle r="2" cx="161" cy="241" stroke="black" stroke-width="2" fill="red"/>
<circle r="2" cx="195" cy="264" stroke="black" stroke-width="2" fill="red"/>
<circle r="2" cx="230" cy="288" stroke="black" stroke-width="2" fill="red"/>
<circle r="2" cx="264" cy="311" stroke="black" stroke-width="2" fill="red"/>
<circle r="2" cx="299" cy="334" stroke="black" stroke-width="2" fill="red"/>
<circle r="2" cx="334" cy="357" stroke="black" stroke-width="2" fill="red"/>
<circle r="2" cx="368" cy="380" stroke="black" stroke-width="2" fill="red"/>
<circle r="2" cx="403" cy="403" stroke="black" stroke-width="2" fill="red"/>
</svg>
