<?xml version="1.0" standalone="no"?>
<svg width="1050" height="1050" version="1.1"
xmlns="http://www.w3.org/2000/svg">
<rect width="1050" height="1050" style="fill:rgb(255,255,255); stroke-width:10;  stroke:rgb(255,255,255)"/>
<circle r="2" cx="65" cy="416" stroke="black" stroke-width="2" fill="red"/>
<circle r="2" cx="124" cy="440" stroke="black" stroke-width="2" fill="red"/>
<circle r="2" cx="495" cy="198" stroke="black" stroke-width="2" fill="red"/>
<circle r="2" cx="129" cy="39" stroke="black" stroke-width="2" fill="red"/>
<circle r="2" cx="105" cy="330" stroke="black" stroke-width="2" fill="red"/>
<circle r="2" cx="66" cy="364" stroke="black" stroke-width="2" fill="red"/>
<circle r="2" cx="59" cy="256" stroke="black" stroke-width="2" fill="red"/>
<circle r="2" cx="198" cy="15" stroke="black" stroke-width="2" fill="red"/>
<circle r="2" cx="318" cy="27" stroke="black" stroke-width="2" fill="red"/>
<circle r="2" cx="313" cy="489" stroke="black" stroke-width="2" fill="red"/>
<circle r="2" cx="388" cy="440" stroke="black" stroke-width="2" fill="red"/>
<circle r="2" cx="302" cy="431" stroke="black" stroke-width="2" fill="red"/>
<circle r="2" cx="353" cy="120" stroke="black" stroke-width="2" fill="red"/>
<circle r="2" cx="440" cy="117" stroke="black" stroke-width="2" fill="red"/>
<circle r="2" cx="485" cy="306" stroke="black" stroke-width="2" fill="red"/>
<circle r="2" cx="214" cy="420" stroke="black" stroke-width="2" fill="red"/>
<circle r="2" cx="396" cy="96" stroke="black" stroke-width="2" fill="red"/>
<circle r="2" cx="300" cy="44" stroke="black" stroke-width="2" fill="red"/>
<circle r="2" cx="291" cy="70" stroke="black" stroke-width="2" fill="red"/>
<circle r="2" cx="72" cy="104" stroke="black" stroke-width="2" fill="red"/>
<circle r="2" cx="143" cy="241" stroke="black" stroke-width="2" fill="red"/>
<circle r="2" cx="426" cy="311" stroke="black" stroke-width="2" fill="red"/>
<circle r="2" cx="295" cy="495" stroke="black" stroke-width="2" fill="red"/>
<circle r="2" cx="204" cy="179" stroke="black" stroke-width="2" fill="red"/>
<circle r="2" cx="157" cy="425" stroke="black" stroke-width="2" fill="red"/>
<circle r="2" cx="266" cy="455" stroke="black" stroke-width="2" fill="red"/>
<circle r="2" cx="367" cy="28" stroke="black" stroke-width="2" fill="red"/>
<circle r="2" cx="130" cy="456" stroke="black" stroke-width="2" fill="red"/>
<circle r="2" cx="257" cy="1" stroke="black" stroke-width="2" fill="red"/>
<circle r="2" cx="115" cy="284" stroke="black" stroke-width="2" fill="red"/>
<circle r="2" cx="97" cy="52" stroke="black" stroke-width="2" fill="red"/>
<circle r="2" cx="418" cy="333" stroke="black" stroke-width="2" fill="red"/>
<circle r="2" cx="205" cy="151" stroke="black" stroke-width="2" fill="red"/>
<circle r="2" cx="296" cy="449" stroke="black" stroke-width="2" fill="red"/>
<circle r="2" cx="410" cy="88" stroke="black" stroke-width="2" fill="red"/>
<circle r="2" cx="451" cy="241" stroke="black" stroke-width="2" fill="red"/>
<circle r="2" cx="171" cy="138" stroke="black" stroke-width="2" fill="red"/>
<circle r="2" cx="286" cy="7" stroke="black" stroke-width="2" fill="red"/>
<circle r="2" cx="409" cy="364" stroke="black" stroke-width="2" fill="red"/>
<circle r="2" cx="205" cy="495" stroke="black" stroke-width="2" fill="red"/>
<circle r="2" cx="309" cy="412" stroke="black" stroke-width="2" fill="red"/>
<circle r="2" cx="32" cy="152" stroke="black" stroke-width="2" fill="red"/>
<circle r="2" cx="29" cy="363" stroke="black" stroke-width="2" fill="red"/>
<circle r="2" cx="5" cy="283" stroke="black" stroke-width="2" fill="red"/>
<circle r="2" cx="254" cy="473" stroke="black" stroke-width="2" fill="red"/>
<circle r="2" cx="429" cy="388" stroke="black" stroke-width="2" fill="red"/>
<circle r="2" cx="3" cy="207" stroke="black" stroke-width="2" fill="red"/>
<circle r="2" cx="60" cy="223" stroke="black" stroke-width="2" fill="red"/>
<circle r="2" cx="483" cy="238" stroke="black" stroke-width="2" fill="red"/>
<circle r="2" cx="188" cy="8" stroke="black" stroke-width="2" fill="red"/>
<circle r="2" cx="148" cy="31" stroke="black" stroke-width="2" fill="red"/>
<circle r="2" cx="284" cy="1" stroke="black" stroke-width="2" fill="red"/>
<circle r="2" cx="474" cy="218" stroke="black" stroke-width="2" fill="red"/>
<circle r="2" cx="488" cy="186" stroke="black" stroke-width="2" fill="red"/>
<circle r="2" cx="65" cy="347" stroke="black" stroke-width="2" fill="red"/>
<circle r="2" cx="318" cy="328" stroke="black" stroke-width="2" fill="red"/>
<circle r="2" cx="171" cy="223" stroke="black" stroke-width="2" fill="red"/>
<circle r="2" cx="193" cy="202" stroke="black" stroke-width="2" fill="red"/>
<circle r="2" cx="273" cy="4" stroke="black" stroke-width="2" fill="red"/>
<circle r="2" cx="39" cy="180" stroke="black" stroke-width="2" fill="red"/>
<circle r="2" cx="92" cy="299" stroke="black" stroke-width="2" fill="red"/>
<circle r="2" cx="73" cy="398" stroke="black" stroke-width="2" fill="red"/>
<circle r="2" cx="133" cy="443" stroke="black" stroke-width="2" fill="red"/>
<circle r="2" cx="45" cy="107" stroke="black" stroke-width="2" fill="red"/>
<circle r="2" cx="76" cy="424" stroke="black" stroke-width="2" fill="red"/>
<circle r="2" cx="432" cy="80" stroke="black" stroke-width="2" fill="red"/>
<circle r="2" cx="452" cy="358" stroke="black" stroke-width="2" fill="red"/>
<circle r="2" cx="266" cy="440" stroke="black" stroke-width="2" fill="red"/>
<circle r="2" cx="65" cy="146" stroke="black" stroke-width="2" fill="red"/>
<circle r="2" cx="305" cy="265" stroke="black" stroke-width="2" fill="red"/>
<circle r="2" cx="447" cy="387" stroke="black" stroke-width="2" fill="red"/>
<circle r="2" cx="13" cy="169" stroke="black" stroke-width="2" fill="red"/>
<circle r="2" cx="326" cy="239" stroke="black" stroke-width="2" fill="red"/>
<circle r="2" cx="314" cy="11" stroke="black" stroke-width="2" fill="red"/>
<circle r="2" cx="383" cy="83" stroke="black" stroke-width="2" fill="red"/>
<circle r="2" cx="36" cy="120" stroke="black" stroke-width="2" fill="red"/>
<circle r="2" cx="252" cy="46" stroke="black" stroke-width="2" fill="red"/>
<circle r="2" cx="254" cy="50" stroke="black" stroke-width="2" fill="red"/>
<circle r="2" cx="139" cy="111" stroke="black" stroke-width="2" fill="red"/>
<circle r="2" cx="362" cy="299" stroke="black" stroke-width="2" fill="red"/>
<circle r="2" cx="379" cy="213" stroke="black" stroke-width="2" fill="red"/>
<circle r="2" cx="139" cy="358" stroke="black" stroke-width="2" fill="red"/>
<circle r="2" cx="400" cy="342" stroke="black" stroke-width="2" fill="red"/>
<circle r="2" cx="269" cy="71" stroke="black" stroke-width="2" fill="red"/>
<circle r="2" cx="120" cy="170" stroke="black" stroke-width="2" fill="red"/>
<circle r="2" cx="371" cy="431" stroke="black" stroke-width="2" fill="red"/>
<circle r="2" cx="11" cy="188" stroke="black" stroke-width="2" fill="red"/>
<circle r="2" cx="253" cy="215" stroke="black" stroke-width="2" fill="red"/>
<circle r="2" cx="225" cy="106" stroke="black" stroke-width="2" fill="red"/>
<circle r="2" cx="153" cy="40" stroke="black" stroke-width="2" fill="red"/>
<circle r="2" cx="118" cy="287" stroke="black" stroke-width="2" fill="red"/>
<circle r="2" cx="15" cy="247" stroke="black" stroke-width="2" fill="red"/>
<circle r="2" cx="433" cy="144" stroke="black" stroke-width="2" fill="red"/>
<circle r="2" cx="111" cy="372" stroke="black" stroke-width="2" fill="red"/>
<circle r="2" cx="55" cy="266" stroke="black" stroke-width="2" fill="red"/>
<circle r="2" cx="494" cy="257" stroke="black" stroke-width="2" fill="red"/>
<circle r="2" cx="274" cy="5" stroke="black" stroke-width="2" fill="red"/>
<circle r="2" cx="237" cy="164" stroke="black" stroke-width="2" fill="red"/>
<circle r="2" cx="14" cy="328" stroke="black" stroke-width="2" fill="red"/>
<circle r="2" cx="266" cy="229" stroke="black" stroke-width="2" fill="red"/>
<circle r="2" cx="283" cy="304" stroke="black" stroke-width="2" fill="red"/>
<circle r="2" cx="246" cy="448" stroke="black" stroke-width="2" fill="red"/>
<circle r="2" cx="312" cy="443" stroke="black" stroke-width="2" fill="red"/>
<circle r="2" cx="260" cy="145" stroke="black" stroke-width="2" fill="red"/>
<circle r="2" cx="143" cy="465" stroke="black" stroke-width="2" fill="red"/>
<circle r="2" cx="486" cy="169" stroke="black" stroke-width="2" fill="red"/>
<circle r="2" cx="340" cy="77" stroke="black" stroke-width="2" fill="red"/>
<circle r="2" cx="495" cy="209" stroke="black" stroke-width="2" fill="red"/>
<circle r="2" cx="308" cy="365" stroke="black" stroke-width="2" fill="red"/>
<circle r="2" cx="111" cy="314" stroke="black" stroke-width="2" fill="red"/>
<circle r="2" cx="218" cy="44" stroke="black" stroke-width="2" fill="red"/>
<circle r="2" cx="266" cy="341" stroke="black" stroke-width="2" fill="red"/>
<circle r="2" cx="448" cy="336" stroke="black" stroke-width="2" fill="red"/>
<circle r="2" cx="303" cy="235" stroke="black" stroke-width="2" fill="red"/>
<circle r="2" cx="390" cy="178" stroke="black" stroke-width="2" fill="red"/>
<circle r="2" cx="412" cy="152" stroke="black" stroke-width="2" fill="red"/>
<circle r="2" cx="87" cy="427" stroke="black" stroke-width="2" fill="red"/>
<circle r="2" cx="70" cy="79" stroke="black" stroke-width="2" fill="red"/>
<circle r="2" cx="38" cy="117" stroke="black" stroke-width="2" fill="red"/>
<circle r="2" cx="113" cy="304" stroke="black" stroke-width="2" fill="red"/>
<circle r="2" cx="65" cy="141" stroke="black" stroke-width="2" fill="red"/>
<circle r="2" cx="442" cy="351" stroke="black" stroke-width="2" fill="red"/>
<circle r="2" cx="111" cy="225" stroke="black" stroke-width="2" fill="red"/>
<circle r="2" cx="447" cy="174" stroke="black" stroke-width="2" fill="red"/>
<circle r="2" cx="238" cy="475" stroke="black" stroke-width="2" fill="red"/>
<circle r="2" cx="346" cy="27" stroke="black" stroke-width="2" fill="red"/>
<circle r="2" cx="417" cy="353" stroke="black" stroke-width="2" fill="red"/>
<circle r="2" cx="24" cy="221" stroke="black" stroke-width="2" fill="red"/>
<circle r="2" cx="94" cy="181" stroke="black" stroke-width="2" fill="red"/>
<circle r="2" cx="98" cy="446" stroke="black" stroke-width="2" fill="red"/>
<circle r="2" cx="146" cy="335" stroke="black" stroke-width="2" fill="red"/>
<circle r="2" cx="81" cy="77" stroke="black" stroke-width="2" fill="red"/>
<circle r="2" cx="262" cy="342" stroke="black" stroke-width="2" fill="red"/>
<circle r="2" cx="3" cy="210" stroke="black" stroke-width="2" fill="red"/>
<circle r="2" cx="56" cy="400" stroke="black" stroke-width="2" fill="red"/>
<circle r="2" cx="354" cy="393" stroke="black" stroke-width="2" fill="red"/>
<circle r="2" cx="184" cy="267" stroke="black" stroke-width="2" fill="red"/>
<circle r="2" cx="412" cy="433" stroke="black" stroke-width="2" fill="red"/>
<circle r="2" cx="286" cy="164" stroke="black" stroke-width="2" fill="red"/>
<circle r="2" cx="356" cy="28" stroke="black" stroke-width="2" fill="red"/>
<circle r="2" cx="255" cy="298" stroke="black" stroke-width="2" fill="red"/>
<circle r="2" cx="97" cy="58" stroke="black" stroke-width="2" fill="red"/>
<circle r="2" cx="46" cy="359" stroke="black" stroke-width="2" fill="red"/>
<circle r="2" cx="176" cy="24" stroke="black" stroke-width="2" fill="red"/>
<circle r="2" cx="2" cy="265" stroke="black" stroke-width="2" fill="red"/>
<circle r="2" cx="128" cy="55" stroke="black" stroke-width="2" fill="red"/>
<circle r="2" cx="336" cy="467" stroke="black" stroke-width="2" fill="red"/>
<circle r="2" cx="260" cy="359" stroke="black" stroke-width="2" fill="red"/>
<circle r="2" cx="366" cy="471" stroke="black" stroke-width="2" fill="red"/>
<circle r="2" cx="372" cy="57" stroke="black" stroke-width="2" fill="red"/>
<circle r="2" cx="122" cy="119" stroke="black" stroke-width="2" fill="red"/>
<circle r="2" cx="329" cy="451" stroke="black" stroke-width="2" fill="red"/>
<circle r="2" cx="345" cy="149" stroke="black" stroke-width="2" fill="red"/>
<circle r="2" cx="417" cy="362" stroke="black" stroke-width="2" fill="red"/>
<circle r="2" cx="149" cy="478" stroke="black" stroke-width="2" fill="red"/>
<circle r="2" cx="449" cy="100" stroke="black" stroke-width="2" fill="red"/>
<circle r="2" cx="250" cy="22" stroke="black" stroke-width="2" fill="red"/>
<circle r="2" cx="216" cy="497" stroke="black" stroke-width="2" fill="red"/>
<circle r="2" cx="156" cy="290" stroke="black" stroke-width="2" fill="red"/>
<circle r="2" cx="108" cy="178" stroke="black" stroke-width="2" fill="red"/>
<circle r="2" cx="133" cy="266" stroke="black" stroke-width="2" fill="red"/>
<circle r="2" cx="195" cy="359" stroke="black" stroke-width="2" fill="red"/>
<circle r="2" cx="108" cy="54" stroke="black" stroke-width="2" fill="red"/>
<circle r="2" cx="224" cy="452" stroke="black" stroke-width="2" fill="red"/>
<circle r="2" cx="492" cy="191" stroke="black" stroke-width="2" fill="red"/>
<circle r="2" cx="425" cy="155" stroke="black" stroke-width="2" fill="red"/>
<circle r="2" cx="405" cy="64" stroke="black" stroke-width="2" fill="red"/>
<circle r="2" cx="105" cy="120" stroke="black" stroke-width="2" fill="red"/>
<circle r="2" cx="315" cy="11" stroke="black" stroke-width="2" fill="red"/>
<circle r="2" cx="166" cy="413" stroke="black" stroke-width="2" fill="red"/>
<circle r="2" cx="368" cy="455" stroke="black" stroke-width="2" fill="red"/>
<circle r="2" cx="49" cy="254" stroke="black" stroke-width="2" fill="red"/>
<circle r="2" cx="179" cy="378" stroke="black" stroke-width="2" fill="red"/>
<circle r="2" cx="84" cy="404" stroke="black" stroke-width="2" fill="red"/>
<circle r="2" cx="34" cy="366" stroke="black" stroke-width="2" fill="red"/>
<circle r="2" cx="407" cy="291" stroke="black" stroke-width="2" fill="red"/>
<circle r="2" cx="470" cy="332" stroke="black" stroke-width="2" fill="red"/>
<circle r="2" cx="279" cy="151" stroke="black" stroke-width="2" fill="red"/>
<circle r="2" cx="136" cy="472" stroke="black" stroke-width="2" fill="red"/>
<circle r="2" cx="248" cy="61" stroke="black" stroke-width="2" fill="red"/>
<circle r="2" cx="86" cy="194" stroke="black" stroke-width="2" fill="red"/>
<circle r="2" cx="250" cy="23" stroke="black" stroke-width="2" fill="red"/>
<circle r="2" cx="50" cy="342" stroke="black" stroke-width="2" fill="red"/>
<circle r="2" cx="249" cy="347" stroke="black" stroke-width="2" fill="red"/>
<circle r="2" cx="24" cy="239" stroke="black" stroke-width="2" fill="red"/>
<circle r="2" cx="460" cy="282" stroke="black" stroke-width="2" fill="red"/>
<circle r="2" cx="380" cy="459" stroke="black" stroke-width="2" fill="red"/>
<circle r="2" cx="350" cy="86" stroke="black" stroke-width="2" fill="red"/>
<circle r="2" cx="358" cy="153" stroke="black" stroke-width="2" fill="red"/>
<circle r="2" cx="43" cy="366" stroke="black" stroke-width="2" fill="red"/>
<circle r="2" cx="93" cy="159" stroke="black" stroke-width="2" fill="red"/>
<circle r="2" cx="248" cy="133" stroke="black" stroke-width="2" fill="red"/>
<circle r="2" cx="192" cy="334" stroke="black" stroke-width="2" fill="red"/>
<circle r="2" cx="205" cy="59" stroke="black" stroke-width="2" fill="red"/>
<circle r="2" cx="225" cy="483" stroke="black" stroke-width="2" fill="red"/>
<circle r="2" cx="34" cy="204" stroke="black" stroke-width="2" fill="red"/>
<circle r="2" cx="87" cy="135" stroke="black" stroke-width="2" fill="red"/>
<circle r="2" cx="26" cy="361" stroke="black" stroke-width="2" fill="red"/>
<circle r="2" cx="237" cy="342" stroke="black" stroke-width="2" fill="red"/>
<circle r="2" cx="178" cy="72" stroke="black" stroke-width="2" fill="red"/>
<circle r="2" cx="472" cy="151" stroke="black" stroke-width="2" fill="red"/>
<circle r="2" cx="313" cy="262" stroke="black" stroke-width="2" fill="red"/>
<circle r="2" cx="271" cy="157" stroke="black" stroke-width="2" fill="red"/>
<circle r="2" cx="292" cy="104" stroke="black" stroke-width="2" fill="red"/>
<circle r="2" cx="265" cy="498" stroke="black" stroke-width="2" fill="red"/>
<circle r="2" cx="157" cy="424" stroke="black" stroke-width="2" fill="red"/>
<circle r="2" cx="48" cy="113" stroke="black" stroke-width="2" fill="red"/>
<circle r="2" cx="57" cy="280" stroke="black" stroke-width="2" fill="red"/>
<circle r="2" cx="320" cy="106" stroke="black" stroke-width="2" fill="red"/>
<circle r="2" cx="133" cy="309" stroke="black" stroke-width="2" fill="red"/>
<circle r="2" cx="16" cy="319" stroke="black" stroke-width="2" fill="red"/>
<circle r="2" cx="64" cy="130" stroke="black" stroke-width="2" fill="red"/>
<circle r="2" cx="109" cy="77" stroke="black" stroke-width="2" fill="red"/>
<circle r="2" cx="292" cy="24" stroke="black" stroke-width="2" fill="red"/>
<circle r="2" cx="369" cy="412" stroke="black" stroke-width="2" fill="red"/>
<circle r="2" cx="293" cy="7" stroke="black" stroke-width="2" fill="red"/>
<circle r="2" cx="24" cy="329" stroke="black" stroke-width="2" fill="red"/>
<circle r="2" cx="277" cy="353" stroke="black" stroke-width="2" fill="red"/>
<circle r="2" cx="462" cy="308" stroke="black" stroke-width="2" fill="red"/>
<circle r="2" cx="9" cy="183" stroke="black" stroke-width="2" fill="red"/>
<circle r="2" cx="433" cy="224" stroke="black" stroke-width="2" fill="red"/>
<circle r="2" cx="125" cy="134" stroke="black" stroke-width="2" fill="red"/>
<circle r="2" cx="370" cy="421" stroke="black" stroke-width="2" fill="red"/>
<circle r="2" cx="299" cy="32" stroke="black" stroke-width="2" fill="red"/>
<circle r="2" cx="473" cy="146" stroke="black" stroke-width="2" fill="red"/>
<circle r="2" cx="189" cy="474" stroke="black" stroke-width="2" fill="red"/>
<circle r="2" cx="192" cy="478" stroke="black" stroke-width="2" fill="red"/>
<circle r="2" cx="139" cy="37" stroke="black" stroke-width="2" fill="red"/>
<circle r="2" cx="25" cy="139" stroke="black" stroke-width="2" fill="red"/>
<circle r="2" cx="348" cy="244" stroke="black" stroke-width="2" fill="red"/>
<circle r="2" cx="487" cy="201" stroke="black" stroke-width="2" fill="red"/>
<circle r="2" cx="334" cy="404" stroke="black" stroke-width="2" fill="red"/>
<circle r="2" cx="47" cy="102" stroke="black" stroke-width="2" fill="red"/>
<circle r="2" cx="20" cy="349" stroke="black" stroke-width="2" fill="red"/>
<circle r="2" cx="177" cy="483" stroke="black" stroke-width="2" fill="red"/>
<circle r="2" cx="234" cy="20" stroke="black" stroke-width="2" fill="red"/>
<circle r="2" cx="31" cy="335" stroke="black" stroke-width="2" fill="red"/>
<circle r="2" cx="416" cy="107" stroke="black" stroke-width="2" fill="red"/>
<circle r="2" cx="284" cy="132" stroke="black" stroke-width="2" fill="red"/>
<circle r="2" cx="196" cy="374" stroke="black" stroke-width="2" fill="red"/>
<circle r="2" cx="331" cy="486" stroke="black" stroke-width="2" fill="red"/>
<circle r="2" cx="187" cy="491" stroke="black" stroke-width="2" fill="red"/>
<circle r="2" cx="111" cy="275" stroke="black" stroke-width="2" fill="red"/>
<circle r="2" cx="213" cy="28" stroke="black" stroke-width="2" fill="red"/>
<circle r="2" cx="346" cy="344" stroke="black" stroke-width="2" fill="red"/>
<circle r="2" cx="281" cy="217" stroke="black" stroke-width="2" fill="red"/>
<circle r="2" cx="490" cy="267" stroke="black" stroke-width="2" fill="red"/>
<circle r="2" cx="221" cy="69" stroke="black" stroke-width="2" fill="red"/>
<circle r="2" cx="481" cy="177" stroke="black" stroke-width="2" fill="red"/>
<circle r="2" cx="382" cy="145" stroke="black" stroke-width="2" fill="red"/>
<circle r="2" cx="446" cy="157" stroke="black" stroke-width="2" fill="red"/>
<circle r="2" cx="467" cy="274" stroke="black" stroke-width="2" fill="red"/>
<circle r="2" cx="173" cy="473" stroke="black" stroke-width="2" fill="red"/>
<circle r="2" cx="34" cy="330" stroke="black" stroke-width="2" fill="red"/>
<circle r="2" cx="370" cy="227" stroke="black" stroke-width="2" fill="red"/>
<circle r="2" cx="319" cy="371" stroke="black" stroke-width="2" fill="red"/>
<circle r="2" cx="226" cy="43" stroke="black" stroke-width="2" fill="red"/>
<circle r="2" cx="43" cy="317" stroke="black" stroke-width="2" fill="red"/>
<circle r="2" cx="350" cy="228" stroke="black" stroke-width="2" fill="red"/>
<circle r="2" cx="355" cy="302" stroke="black" stroke-width="2" fill="red"/>
<circle r="2" cx="364" cy="149" stroke="black" stroke-width="2" fill="red"/>
<circle r="2" cx="246" cy="10" stroke="black" stroke-width="2" fill="red"/>
<circle r="2" cx="10" cy="253" stroke="black" stroke-width="2" fill="red"/>
<circle r="2" cx="0" cy="247" stroke="black" stroke-width="2" fill="red"/>
<circle r="2" cx="30" cy="366" stroke="black" stroke-width="2" fill="red"/>
<circle r="2" cx="474" cy="140" stroke="black" stroke-width="2" fill="red"/>
<circle r="2" cx="83" cy="98" stroke="black" stroke-width="2" fill="red"/>
<circle r="2" cx="55" cy="125" stroke="black" stroke-width="2" fill="red"/>
<circle r="2" cx="395" cy="53" stroke="black" stroke-width="2" fill="red"/>
<circle r="2" cx="408" cy="143" stroke="black" stroke-width="2" fill="red"/>
<circle r="2" cx="174" cy="11" stroke="black" stroke-width="2" fill="red"/>
<circle r="2" cx="362" cy="473" stroke="black" stroke-width="2" fill="red"/>
<circle r="2" cx="49" cy="371" stroke="black" stroke-width="2" fill="red"/>
<circle r="2" cx="274" cy="494" stroke="black" stroke-width="2" fill="red"/>
<circle r="2" cx="497" cy="285" stroke="black" stroke-width="2" fill="red"/>
<circle r="2" cx="149" cy="338" stroke="black" stroke-width="2" fill="red"/>
<circle r="2" cx="19" cy="248" stroke="black" stroke-width="2" fill="red"/>
<circle r="2" cx="227" cy="422" stroke="black" stroke-width="2" fill="red"/>
<circle r="2" cx="266" cy="233" stroke="black" stroke-width="2" fill="red"/>
<circle r="2" cx="146" cy="459" stroke="black" stroke-width="2" fill="red"/>
<circle r="2" cx="377" cy="371" stroke="black" stroke-width="2" fill="red"/>
<circle r="2" cx="115" cy="61" stroke="black" stroke-width="2" fill="red"/>
<circle r="2" cx="252" cy="2" stroke="black" stroke-width="2" fill="red"/>
<circle r="2" cx="240" cy="131" stroke="black" stroke-width="2" fill="red"/>
<circle r="2" cx="136" cy="53" stroke="black" stroke-width="2" fill="red"/>
<circle r="2" cx="201" cy="231" stroke="black" stroke-width="2" fill="red"/>
<circle r="2" cx="5" cy="289" stroke="black" stroke-width="2" fill="red"/>
<circle r="2" cx="285" cy="68" stroke="black" stroke-width="2" fill="red"/>
<circle r="2" cx="104" cy="270" stroke="black" stroke-width="2" fill="red"/>
<circle r="2" cx="215" cy="200" stroke="black" stroke-width="2" fill="red"/>
<circle r="2" cx="20" cy="229" stroke="black" stroke-width="2" fill="red"/>
<circle r="2" cx="417" cy="107" stroke="black" stroke-width="2" fill="red"/>
<circle r="2" cx="149" cy="459" stroke="black" stroke-width="2" fill="red"/>
<circle r="2" cx="453" cy="237" stroke="black" stroke-width="2" fill="red"/>
<circle r="2" cx="315" cy="39" stroke="black" stroke-width="2" fill="red"/>
<circle r="2" cx="397" cy="65" stroke="black" stroke-width="2" fill="red"/>
<circle r="2" cx="288" cy="5" stroke="black" stroke-width="2" fill="red"/>
<circle r="2" cx="67" cy="230" stroke="black" stroke-width="2" fill="red"/>
<circle r="2" cx="52" cy="98" stroke="black" stroke-width="2" fill="red"/>
<circle r="2" cx="262" cy="71" stroke="black" stroke-width="2" fill="red"/>
<circle r="2" cx="157" cy="326" stroke="black" stroke-width="2" fill="red"/>
<circle r="2" cx="344" cy="19" stroke="black" stroke-width="2" fill="red"/>
<circle r="2" cx="379" cy="104" stroke="black" stroke-width="2" fill="red"/>
<circle r="2" cx="471" cy="319" stroke="black" stroke-width="2" fill="red"/>
<circle r="2" cx="202" cy="179" stroke="black" stroke-width="2" fill="red"/>
<circle r="2" cx="371" cy="463" stroke="black" stroke-width="2" fill="red"/>
<circle r="2" cx="144" cy="35" stroke="black" stroke-width="2" fill="red"/>
<circle r="2" cx="477" cy="153" stroke="black" stroke-width="2" fill="red"/>
<circle r="2" cx="103" cy="154" stroke="black" stroke-width="2" fill="red"/>
<circle r="2" cx="284" cy="77" stroke="black" stroke-width="2" fill="red"/>
<circle r="2" cx="387" cy="190" stroke="black" stroke-width="2" fill="red"/>
<circle r="2" cx="110" cy="239" stroke="black" stroke-width="2" fill="red"/>
<circle r="2" cx="331" cy="17" stroke="black" stroke-width="2" fill="red"/>
<circle r="2" cx="246" cy="11" stroke="black" stroke-width="2" fill="red"/>
<circle r="2" cx="219" cy="16" stroke="black" stroke-width="2" fill="red"/>
<circle r="2" cx="88" cy="416" stroke="black" stroke-width="2" fill="red"/>
<circle r="2" cx="152" cy="325" stroke="black" stroke-width="2" fill="red"/>
<circle r="2" cx="267" cy="301" stroke="black" stroke-width="2" fill="red"/>
<circle r="2" cx="318" cy="411" stroke="black" stroke-width="2" fill="red"/>
<circle r="2" cx="473" cy="345" stroke="black" stroke-width="2" fill="red"/>
<circle r="2" cx="476" cy="145" stroke="black" stroke-width="2" fill="red"/>
<circle r="2" cx="317" cy="8" stroke="black" stroke-width="2" fill="red"/>
<circle r="2" cx="252" cy="10" stroke="black" stroke-width="2" fill="red"/>
<circle r="2" cx="445" cy="324" stroke="black" stroke-width="2" fill="red"/>
<circle r="2" cx="357" cy="473" stroke="black" stroke-width="2" fill="red"/>
<circle r="2" cx="195" cy="17" stroke="black" stroke-width="2" fill="red"/>
<circle r="2" cx="35" cy="120" stroke="black" stroke-width="2" fill="red"/>
<circle r="2" cx="149" cy="443" stroke="black" stroke-width="2" fill="red"/>
<circle r="2" cx="142" cy="155" stroke="black" stroke-width="2" fill="red"/>
<circle r="2" cx="165" cy="220" stroke="black" stroke-width="2" fill="red"/>
<circle r="2" cx="419" cy="83" stroke="black" stroke-width="2" fill="red"/>
<circle r="2" cx="341" cy="441" stroke="black" stroke-width="2" fill="red"/>
<circle r="2" cx="310" cy="7" stroke="black" stroke-width="2" fill="red"/>
<circle r="2" cx="465" cy="351" stroke="black" stroke-width="2" fill="red"/>
<circle r="2" cx="74" cy="351" stroke="black" stroke-width="2" fill="red"/>
<circle r="2" cx="282" cy="495" stroke="black" stroke-width="2" fill="red"/>
<circle r="2" cx="370" cy="68" stroke="black" stroke-width="2" fill="red"/>
<circle r="2" cx="123" cy="44" stroke="black" stroke-width="2" fill="red"/>
<circle r="2" cx="210" cy="2" stroke="black" stroke-width="2" fill="red"/>
<circle r="2" cx="438" cy="410" stroke="black" stroke-width="2" fill="red"/>
<circle r="2" cx="52" cy="120" stroke="black" stroke-width="2" fill="red"/>
<circle r="2" cx="349" cy="368" stroke="black" stroke-width="2" fill="red"/>
<circle r="2" cx="351" cy="423" stroke="black" stroke-width="2" fill="red"/>
<circle r="2" cx="189" cy="380" stroke="black" stroke-width="2" fill="red"/>
<circle r="2" cx="150" cy="473" stroke="black" stroke-width="2" fill="red"/>
<circle r="2" cx="171" cy="52" stroke="black" stroke-width="2" fill="red"/>
<circle r="2" cx="286" cy="456" stroke="black" stroke-width="2" fill="red"/>
<circle r="2" cx="210" cy="23" stroke="black" stroke-width="2" fill="red"/>
<circle r="2" cx="432" cy="420" stroke="black" stroke-width="2" fill="red"/>
<circle r="2" cx="283" cy="497" stroke="black" stroke-width="2" fill="red"/>
<circle r="2" cx="225" cy="462" stroke="black" stroke-width="2" fill="red"/>
<circle r="2" cx="238" cy="437" stroke="black" stroke-width="2" fill="red"/>
<circle r="2" cx="126" cy="34" stroke="black" stroke-width="2" fill="red"/>
<circle r="2" cx="384" cy="307" stroke="black" stroke-width="2" fill="red"/>
<circle r="2" cx="71" cy="140" stroke="black" stroke-width="2" fill="red"/>
<circle r="2" cx="138" cy="175" stroke="black" stroke-width="2" fill="red"/>
<circle r="2" cx="46" cy="131" stroke="black" stroke-width="2" fill="red"/>
<circle r="2" cx="298" cy="9" stroke="black" stroke-width="2" fill="red"/>
<circle r="2" cx="315" cy="71" stroke="black" stroke-width="2" fill="red"/>
<circle r="2" cx="260" cy="447" stroke="black" stroke-width="2" fill="red"/>
<circle r="2" cx="102" cy="65" stroke="black" stroke-width="2" fill="red"/>
<circle r="2" cx="327" cy="449" stroke="black" stroke-width="2" fill="red"/>
<circle r="2" cx="464" cy="216" stroke="black" stroke-width="2" fill="red"/>
<circle r="2" cx="130" cy="65" stroke="black" stroke-width="2" fill="red"/>
<circle r="2" cx="24" cy="156" stroke="black" stroke-width="2" fill="red"/>
<circle r="2" cx="444" cy="128" stroke="black" stroke-width="2" fill="red"/>
<circle r="2" cx="365" cy="27" stroke="black" stroke-width="2" fill="red"/>
<circle r="2" cx="301" cy="493" stroke="black" stroke-width="2" fill="red"/>
<circle r="2" cx="416" cy="395" stroke="black" stroke-width="2" fill="red"/>
<circle r="2" cx="101" cy="265" stroke="black" stroke-width="2" fill="red"/>
<circle r="2" cx="293" cy="350" stroke="black" stroke-width="2" fill="red"/>
<circle r="2" cx="139" cy="177" stroke="black" stroke-width="2" fill="red"/>
<circle r="2" cx="448" cy="304" stroke="black" stroke-width="2" fill="red"/>
<circle r="2" cx="322" cy="289" stroke="black" stroke-width="2" fill="red"/>
<circle r="2" cx="408" cy="166" stroke="black" stroke-width="2" fill="red"/>
<circle r="2" cx="30" cy="255" stroke="black" stroke-width="2" fill="red"/>
<circle r="2" cx="214" cy="47" stroke="black" stroke-width="2" fill="red"/>
<circle r="2" cx="500" cy="239" stroke="black" stroke-width="2" fill="red"/>
<circle r="2" cx="276" cy="476" stroke="black" stroke-width="2" fill="red"/>
<circle r="2" cx="394" cy="65" stroke="black" stroke-width="2" fill="red"/>
<circle r="2" cx="28" cy="286" stroke="black" stroke-width="2" fill="red"/>
<circle r="2" cx="180" cy="398" stroke="black" stroke-width="2" fill="red"/>
<circle r="2" cx="391" cy="281" stroke="black" stroke-width="2" fill="red"/>
<circle r="2" cx="475" cy="323" stroke="black" stroke-width="2" fill="red"/>
<circle r="2" cx="163" cy="178" stroke="black" stroke-width="2" fill="red"/>
<circle r="2" cx="259" cy="0" stroke="black" stroke-width="2" fill="red"/>
<circle r="2" cx="75" cy="125" stroke="black" stroke-width="2" fill="red"/>
<circle r="2" cx="244" cy="181" stroke="black" stroke-width="2" fill="red"/>
<circle r="2" cx="222" cy="325" stroke="black" stroke-width="2" fill="red"/>
<circle r="2" cx="213" cy="430" stroke="black" stroke-width="2" fill="red"/>
<circle r="2" cx="365" cy="417" stroke="black" stroke-width="2" fill="red"/>
<circle r="2" cx="91" cy="187" stroke="black" stroke-width="2" fill="red"/>
<circle r="2" cx="369" cy="31" stroke="black" stroke-width="2" fill="red"/>
<circle r="2" cx="395" cy="329" stroke="black" stroke-width="2" fill="red"/>
<circle r="2" cx="241" cy="49" stroke="black" stroke-width="2" fill="red"/>
<circle r="2" cx="412" cy="211" stroke="black" stroke-width="2" fill="red"/>
<circle r="2" cx="483" cy="177" stroke="black" stroke-width="2" fill="red"/>
<circle r="2" cx="358" cy="440" stroke="black" stroke-width="2" fill="red"/>
<circle r="2" cx="324" cy="404" stroke="black" stroke-width="2" fill="red"/>
<circle r="2" cx="39" cy="114" stroke="black" stroke-width="2" fill="red"/>
<circle r="2" cx="45" cy="318" stroke="black" stroke-width="2" fill="red"/>
<circle r="2" cx="330" cy="330" stroke="black" stroke-width="2" fill="red"/>
<circle r="2" cx="85" cy="289" stroke="black" stroke-width="2" fill="red"/>
<circle r="2" cx="499" cy="263" stroke="black" stroke-width="2" fill="red"/>
<circle r="2" cx="436" cy="250" stroke="black" stroke-width="2" fill="red"/>
<circle r="2" cx="175" cy="371" stroke="black" stroke-width="2" fill="red"/>
<circle r="2" cx="465" cy="197" stroke="black" stroke-width="2" fill="red"/>
<circle r="2" cx="485" cy="223" stroke="black" stroke-width="2" fill="red"/>
<circle r="2" cx="158" cy="468" stroke="black" stroke-width="2" fill="red"/>
<circle r="2" cx="287" cy="303" stroke="black" stroke-width="2" fill="red"/>
<circle r="2" cx="106" cy="55" stroke="black" stroke-width="2" fill="red"/>
<circle r="2" cx="258" cy="212" stroke="black" stroke-width="2" fill="red"/>
<circle r="2" cx="272" cy="487" stroke="black" stroke-width="2" fill="red"/>
<circle r="2" cx="423" cy="154" stroke="black" stroke-width="2" fill="red"/>
<circle r="2" cx="243" cy="305" stroke="black" stroke-width="2" fill="red"/>
<circle r="2" cx="222" cy="201" stroke="black" stroke-width="2" fill="red"/>
<circle r="2" cx="313" cy="303" stroke="black" stroke-width="2" fill="red"/>
<circle r="2" cx="477" cy="150" stroke="black" stroke-width="2" fill="red"/>
<circle r="2" cx="27" cy="335" stroke="black" stroke-width="2" fill="red"/>
<circle r="2" cx="460" cy="384" stroke="black" stroke-width="2" fill="red"/>
<circle r="2" cx="299" cy="333" stroke="black" stroke-width="2" fill="red"/>
<circle r="2" cx="302" cy="456" stroke="black" stroke-width="2" fill="red"/>
<circle r="2" cx="5" cy="263" stroke="black" stroke-width="2" fill="red"/>
<circle r="2" cx="60" cy="411" stroke="black" stroke-width="2" fill="red"/>
<circle r="2" cx="20" cy="348" stroke="black" stroke-width="2" fill="red"/>
<circle r="2" cx="318" cy="44" stroke="black" stroke-width="2" fill="red"/>
<circle r="2" cx="489" cy="320" stroke="black" stroke-width="2" fill="red"/>
<circle r="2" cx="308" cy="342" stroke="black" stroke-width="2" fill="red"/>
<circle r="2" cx="47" cy="329" stroke="black" stroke-width="2" fill="red"/>
<circle r="2" cx="200" cy="197" stroke="black" stroke-width="2" fill="red"/>
<circle r="2" cx="128" cy="44" stroke="black" stroke-width="2" fill="red"/>
<circle r="2" cx="118" cy="193" stroke="black" stroke-width="2" fill="red"/>
<circle r="2" cx="466" cy="192" stroke="black" stroke-width="2" fill="red"/>
<circle r="2" cx="479" cy="155" stroke="black" stroke-width="2" fill="red"/>
<circle r="2" cx="162" cy="239" stroke="black" stroke-width="2" fill="red"/>
<circle r="2" cx="184" cy="388" stroke="black" stroke-width="2" fill="red"/>
<circle r="2" cx="487" cy="239" stroke="black" stroke-width="2" fill="red"/>
<circle r="2" cx="184" cy="417" stroke="black" stroke-width="2" fill="red"/>
<circle r="2" cx="357" cy="442" stroke="black" stroke-width="2" fill="red"/>
<circle r="2" cx="207" cy="480" stroke="black" stroke-width="2" fill="red"/>
<circle r="2" cx="247" cy="110" stroke="black" stroke-width="2" fill="red"/>
<circle r="2" cx="267" cy="0" stroke="black" stroke-width="2" fill="red"/>
<circle r="2" cx="429" cy="148" stroke="black" stroke-width="2" fill="red"/>
<circle r="2" cx="276" cy="345" stroke="black" stroke-width="2" fill="red"/>
<circle r="2" cx="76" cy="80" stroke="black" stroke-width="2" fill="red"/>
<circle r="2" cx="261" cy="476" stroke="black" stroke-width="2" fill="red"/>
<circle r="2" cx="283" cy="304" stroke="black" stroke-width="2" fill="red"/>
<circle r="2" cx="198" cy="198" stroke="black" stroke-width="2" fill="red"/>
<circle r="2" cx="255" cy="458" stroke="black" stroke-width="2" fill="red"/>
<circle r="2" cx="402" cy="185" stroke="black" stroke-width="2" fill="red"/>
<circle r="2" cx="230" cy="418" stroke="black" stroke-width="2" fill="red"/>
<circle r="2" cx="39" cy="145" stroke="black" stroke-width="2" fill="red"/>
<circle r="2" cx="167" cy="27" stroke="black" stroke-width="2" fill="red"/>
<circle r="2" cx="167" cy="469" stroke="black" stroke-width="2" fill="red"/>
<circle r="2" cx="7" cy="211" stroke="black" stroke-width="2" fill="red"/>
<circle r="2" cx="81" cy="241" stroke="black" stroke-width="2" fill="red"/>
<circle r="2" cx="138" cy="299" stroke="black" stroke-width="2" fill="red"/>
<circle r="2" cx="76" cy="336" stroke="black" stroke-width="2" fill="red"/>
<circle r="2" cx="181" cy="138" stroke="black" stroke-width="2" fill="red"/>
<circle r="2" cx="359" cy="468" stroke="black" stroke-width="2" fill="red"/>
<circle r="2" cx="120" cy="49" stroke="black" stroke-width="2" fill="red"/>
<circle r="2" cx="347" cy="19" stroke="black" stroke-width="2" fill="red"/>
<circle r="2" cx="224" cy="85" stroke="black" stroke-width="2" fill="red"/>
<circle r="2" cx="107" cy="327" stroke="black" stroke-width="2" fill="red"/>
<circle r="2" cx="214" cy="326" stroke="black" stroke-width="2" fill="red"/>
<circle r="2" cx="334" cy="476" stroke="black" stroke-width="2" fill="red"/>
<circle r="2" cx="344" cy="118" stroke="black" stroke-width="2" fill="red"/>
<circle r="2" cx="312" cy="247" stroke="black" stroke-width="2" fill="red"/>
<circle r="2" cx="488" cy="306" stroke="black" stroke-width="2" fill="red"/>
<circle r="2" cx="472" cy="355" stroke="black" stroke-width="2" fill="red"/>
<circle r="2" cx="13" cy="331" stroke="black" stroke-width="2" fill="red"/>
<circle r="2" cx="294" cy="398" stroke="black" stroke-width="2" fill="red"/>
<circle r="2" cx="114" cy="193" stroke="black" stroke-width="2" fill="red"/>
<circle r="2" cx="469" cy="129" stroke="black" stroke-width="2" fill="red"/>
<circle r="2" cx="314" cy="357" stroke="black" stroke-width="2" fill="red"/>
<circle r="2" cx="485" cy="297" stroke="black" stroke-width="2" fill="red"/>
<circle r="2" cx="129" cy="435" stroke="black" stroke-width="2" fill="red"/>
<circle r="2" cx="91" cy="423" stroke="black" stroke-width="2" fill="red"/>
<circle r="2" cx="17" cy="267" stroke="black" stroke-width="2" fill="red"/>
<circle r="2" cx="369" cy="134" stroke="black" stroke-width="2" fill="red"/>
<circle r="2" cx="137" cy="26" stroke="black" stroke-width="2" fill="red"/>
<circle r="2" cx="34" cy="330" stroke="black" stroke-width="2" fill="red"/>
<circle r="2" cx="109" cy="85" stroke="black" stroke-width="2" fill="red"/>
<circle r="2" cx="307" cy="345" stroke="black" stroke-width="2" fill="red"/>
<circle r="2" cx="175" cy="169" stroke="black" stroke-width="2" fill="red"/>
<circle r="2" cx="25" cy="359" stroke="black" stroke-width="2" fill="red"/>
<circle r="2" cx="294" cy="118" stroke="black" stroke-width="2" fill="red"/>
<circle r="2" cx="477" cy="351" stroke="black" stroke-width="2" fill="red"/>
<circle r="2" cx="206" cy="376" stroke="black" stroke-width="2" fill="red"/>
<circle r="2" cx="468" cy="130" stroke="black" stroke-width="2" fill="red"/>
<circle r="2" cx="469" cy="130" stroke="black" stroke-width="2" fill="red"/>
<circle r="2" cx="370" cy="168" stroke="black" stroke-width="2" fill="red"/>
<circle r="2" cx="171" cy="461" stroke="black" stroke-width="2" fill="red"/>
<circle r="2" cx="440" cy="396" stroke="black" stroke-width="2" fill="red"/>
<circle r="2" cx="287" cy="90" stroke="black" stroke-width="2" fill="red"/>
<circle r="2" cx="279" cy="397" stroke="black" stroke-width="2" fill="red"/>
<circle r="2" cx="381" cy="43" stroke="black" stroke-width="2" fill="red"/>
<circle r="2" cx="238" cy="451" stroke="black" stroke-width="2" fill="red"/>
<circle r="2" cx="328" cy="154" stroke="black" stroke-width="2" fill="red"/>
<circle r="2" cx="384" cy="247" stroke="black" stroke-width="2" fill="red"/>
</svg>
