<?xml version="1.0" standalone="no"?>
<svg width="1050" height="1050" version="1.1"
xmlns="http://www.w3.org/2000/svg">
<rect width="1050" height="1050" style="fill:rgb(255,255,255); stroke-width:10;  stroke:rgb(255,255,255)"/>
<circle r="2" cx="250" cy="250" stroke="black" stroke-width="2" fill="red"/>
<circle r="2" cx="250" cy="250" stroke="black" stroke-width="2" fill="red"/>
<circle r="2" cx="282" cy="250" stroke="black" stroke-width="2" fill="red"/>
<circle r="2" cx="282" cy="250" stroke="black" stroke-width="2" fill="red"/>
<circle r="2" cx="217" cy="250" stroke="black" stroke-width="2" fill="red"/>
<circle r="2" cx="217" cy="250" stroke="black" stroke-width="2" fill="red"/>
<circle r="2" cx="250" cy="282" stroke="black" stroke-width="2" fill="red"/>
<circle r="2" cx="250" cy="282" stroke="black" stroke-width="2" fill="red"/>
<circle r="2" cx="250" cy="217" stroke="black" stroke-width="2" fill="red"/>
<circle r="2" cx="250" cy="217" stroke="black" stroke-width="2" fill="red"/>
<circle r="2" cx="314" cy="250" stroke="black" stroke-width="2" fill="red"/>
<circle r="2" cx="314" cy="250" stroke="black" stroke-width="2" fill="red"/>
<circle r="2" cx="185" cy="250" stroke="black" stroke-width="2" fill="red"/>
<circle r="2" cx="185" cy="250" stroke="black" stroke-width="2" fill="red"/>
<circle r="2" cx="282" cy="282" stroke="black" stroke-width="2" fill="red"/>
<circle r="2" cx="282" cy="282" stroke="black" stroke-width="2" fill="red"/>
<circle r="2" cx="282" cy="217" stroke="black" stroke-width="2" fill="red"/>
<circle r="2" cx="217" cy="282" stroke="black" stroke-width="2" fill="red"/>
<circle r="2" cx="282" cy="217" stroke="black" stroke-width="2" fill="red"/>
<circle r="2" cx="217" cy="282" stroke="black" stroke-width="2" fill="red"/>
<circle r="2" cx="217" cy="217" stroke="black" stroke-width="2" fill="red"/>
<circle r="2" cx="217" cy="217" stroke="black" stroke-width="2" fill="red"/>
<circle r="2" cx="250" cy="314" stroke="black" stroke-width="2" fill="red"/>
<circle r="2" cx="250" cy="314" stroke="black" stroke-width="2" fill="red"/>
<circle r="2" cx="250" cy="185" stroke="black" stroke-width="2" fill="red"/>
<circle r="2" cx="250" cy="185" stroke="black" stroke-width="2" fill="red"/>
<circle r="2" cx="345" cy="250" stroke="black" stroke-width="2" fill="red"/>
<circle r="2" cx="345" cy="250" stroke="black" stroke-width="2" fill="red"/>
<circle r="2" cx="154" cy="250" stroke="black" stroke-width="2" fill="red"/>
<circle r="2" cx="154" cy="250" stroke="black" stroke-width="2" fill="red"/>
<circle r="2" cx="315" cy="283" stroke="black" stroke-width="2" fill="red"/>
<circle r="2" cx="315" cy="283" stroke="black" stroke-width="2" fill="red"/>
<circle r="2" cx="315" cy="216" stroke="black" stroke-width="2" fill="red"/>
<circle r="2" cx="184" cy="283" stroke="black" stroke-width="2" fill="red"/>
<circle r="2" cx="315" cy="216" stroke="black" stroke-width="2" fill="red"/>
<circle r="2" cx="184" cy="283" stroke="black" stroke-width="2" fill="red"/>
<circle r="2" cx="184" cy="216" stroke="black" stroke-width="2" fill="red"/>
<circle r="2" cx="184" cy="216" stroke="black" stroke-width="2" fill="red"/>
<circle r="2" cx="283" cy="315" stroke="black" stroke-width="2" fill="red"/>
<circle r="2" cx="283" cy="315" stroke="black" stroke-width="2" fill="red"/>
<circle r="2" cx="283" cy="184" stroke="black" stroke-width="2" fill="red"/>
<circle r="2" cx="216" cy="315" stroke="black" stroke-width="2" fill="red"/>
<circle r="2" cx="283" cy="184" stroke="black" stroke-width="2" fill="red"/>
<circle r="2" cx="216" cy="315" stroke="black" stroke-width="2" fill="red"/>
<circle r="2" cx="216" cy="184" stroke="black" stroke-width="2" fill="red"/>
<circle r="2" cx="216" cy="184" stroke="black" stroke-width="2" fill="red"/>
<circle r="2" cx="250" cy="345" stroke="black" stroke-width="2" fill="red"/>
<circle r="2" cx="250" cy="345" stroke="black" stroke-width="2" fill="red"/>
<circle r="2" cx="250" cy="154" stroke="black" stroke-width="2" fill="red"/>
<circle r="2" cx="250" cy="154" stroke="black" stroke-width="2" fill="red"/>
<circle r="2" cx="375" cy="250" stroke="black" stroke-width="2" fill="red"/>
<circle r="2" cx="375" cy="250" stroke="black" stroke-width="2" fill="red"/>
<circle r="2" cx="125" cy="250" stroke="black" stroke-width="2" fill="red"/>
<circle r="2" cx="125" cy="250" stroke="black" stroke-width="2" fill="red"/>
<circle r="2" cx="347" cy="283" stroke="black" stroke-width="2" fill="red"/>
<circle r="2" cx="347" cy="283" stroke="black" stroke-width="2" fill="red"/>
<circle r="2" cx="347" cy="216" stroke="black" stroke-width="2" fill="red"/>
<circle r="2" cx="152" cy="283" stroke="black" stroke-width="2" fill="red"/>
<circle r="2" cx="347" cy="216" stroke="black" stroke-width="2" fill="red"/>
<circle r="2" cx="152" cy="283" stroke="black" stroke-width="2" fill="red"/>
<circle r="2" cx="152" cy="216" stroke="black" stroke-width="2" fill="red"/>
<circle r="2" cx="152" cy="216" stroke="black" stroke-width="2" fill="red"/>
<circle r="2" cx="316" cy="316" stroke="black" stroke-width="2" fill="red"/>
<circle r="2" cx="316" cy="316" stroke="black" stroke-width="2" fill="red"/>
<circle r="2" cx="316" cy="183" stroke="black" stroke-width="2" fill="red"/>
<circle r="2" cx="183" cy="316" stroke="black" stroke-width="2" fill="red"/>
<circle r="2" cx="316" cy="183" stroke="black" stroke-width="2" fill="red"/>
<circle r="2" cx="183" cy="316" stroke="black" stroke-width="2" fill="red"/>
<circle r="2" cx="183" cy="183" stroke="black" stroke-width="2" fill="red"/>
<circle r="2" cx="183" cy="183" stroke="black" stroke-width="2" fill="red"/>
<circle r="2" cx="283" cy="347" stroke="black" stroke-width="2" fill="red"/>
<circle r="2" cx="283" cy="347" stroke="black" stroke-width="2" fill="red"/>
<circle r="2" cx="283" cy="152" stroke="black" stroke-width="2" fill="red"/>
<circle r="2" cx="216" cy="347" stroke="black" stroke-width="2" fill="red"/>
<circle r="2" cx="283" cy="152" stroke="black" stroke-width="2" fill="red"/>
<circle r="2" cx="216" cy="347" stroke="black" stroke-width="2" fill="red"/>
<circle r="2" cx="216" cy="152" stroke="black" stroke-width="2" fill="red"/>
<circle r="2" cx="216" cy="152" stroke="black" stroke-width="2" fill="red"/>
<circle r="2" cx="250" cy="375" stroke="black" stroke-width="2" fill="red"/>
<circle r="2" cx="250" cy="375" stroke="black" stroke-width="2" fill="red"/>
<circle r="2" cx="250" cy="125" stroke="black" stroke-width="2" fill="red"/>
<circle r="2" cx="250" cy="125" stroke="black" stroke-width="2" fill="red"/>
<circle r="2" cx="402" cy="250" stroke="black" stroke-width="2" fill="red"/>
<circle r="2" cx="402" cy="250" stroke="black" stroke-width="2" fill="red"/>
<circle r="2" cx="97" cy="250" stroke="black" stroke-width="2" fill="red"/>
<circle r="2" cx="97" cy="250" stroke="black" stroke-width="2" fill="red"/>
<circle r="2" cx="377" cy="284" stroke="black" stroke-width="2" fill="red"/>
<circle r="2" cx="377" cy="284" stroke="black" stroke-width="2" fill="red"/>
<circle r="2" cx="377" cy="215" stroke="black" stroke-width="2" fill="red"/>
<circle r="2" cx="122" cy="284" stroke="black" stroke-width="2" fill="red"/>
<circle r="2" cx="377" cy="215" stroke="black" stroke-width="2" fill="red"/>
<circle r="2" cx="122" cy="284" stroke="black" stroke-width="2" fill="red"/>
<circle r="2" cx="122" cy="215" stroke="black" stroke-width="2" fill="red"/>
<circle r="2" cx="122" cy="215" stroke="black" stroke-width="2" fill="red"/>
<circle r="2" cx="349" cy="318" stroke="black" stroke-width="2" fill="red"/>
<circle r="2" cx="349" cy="318" stroke="black" stroke-width="2" fill="red"/>
<circle r="2" cx="349" cy="181" stroke="black" stroke-width="2" fill="red"/>
<circle r="2" cx="150" cy="318" stroke="black" stroke-width="2" fill="red"/>
<circle r="2" cx="349" cy="181" stroke="black" stroke-width="2" fill="red"/>
<circle r="2" cx="150" cy="318" stroke="black" stroke-width="2" fill="red"/>
<circle r="2" cx="150" cy="181" stroke="black" stroke-width="2" fill="red"/>
<circle r="2" cx="150" cy="181" stroke="black" stroke-width="2" fill="red"/>
<circle r="2" cx="318" cy="349" stroke="black" stroke-width="2" fill="red"/>
<circle r="2" cx="318" cy="349" stroke="black" stroke-width="2" fill="red"/>
<circle r="2" cx="318" cy="150" stroke="black" stroke-width="2" fill="red"/>
<circle r="2" cx="181" cy="349" stroke="black" stroke-width="2" fill="red"/>
<circle r="2" cx="318" cy="150" stroke="black" stroke-width="2" fill="red"/>
<circle r="2" cx="181" cy="349" stroke="black" stroke-width="2" fill="red"/>
<circle r="2" cx="181" cy="150" stroke="black" stroke-width="2" fill="red"/>
<circle r="2" cx="181" cy="150" stroke="black" stroke-width="2" fill="red"/>
<circle r="2" cx="284" cy="377" stroke="black" stroke-width="2" fill="red"/>
<circle r="2" cx="284" cy="377" stroke="black" stroke-width="2" fill="red"/>
<circle r="2" cx="284" cy="122" stroke="black" stroke-width="2" fill="red"/>
<circle r="2" cx="215" cy="377" stroke="black" stroke-width="2" fill="red"/>
<circle r="2" cx="284" cy="122" stroke="black" stroke-width="2" fill="red"/>
<circle r="2" cx="215" cy="377" stroke="black" stroke-width="2" fill="red"/>
<circle r="2" cx="215" cy="122" stroke="black" stroke-width="2" fill="red"/>
<circle r="2" cx="215" cy="122" stroke="black" stroke-width="2" fill="red"/>
<circle r="2" cx="250" cy="402" stroke="black" stroke-width="2" fill="red"/>
<circle r="2" cx="250" cy="402" stroke="black" stroke-width="2" fill="red"/>
<circle r="2" cx="250" cy="97" stroke="black" stroke-width="2" fill="red"/>
<circle r="2" cx="250" cy="97" stroke="black" stroke-width="2" fill="red"/>
<circle r="2" cx="426" cy="250" stroke="black" stroke-width="2" fill="red"/>
<circle r="2" cx="426" cy="250" stroke="black" stroke-width="2" fill="red"/>
<circle r="2" cx="73" cy="250" stroke="black" stroke-width="2" fill="red"/>
<circle r="2" cx="73" cy="250" stroke="black" stroke-width="2" fill="red"/>
<circle r="2" cx="406" cy="285" stroke="black" stroke-width="2" fill="red"/>
<circle r="2" cx="406" cy="285" stroke="black" stroke-width="2" fill="red"/>
<circle r="2" cx="406" cy="214" stroke="black" stroke-width="2" fill="red"/>
<circle r="2" cx="93" cy="285" stroke="black" stroke-width="2" fill="red"/>
<circle r="2" cx="406" cy="214" stroke="black" stroke-width="2" fill="red"/>
<circle r="2" cx="93" cy="285" stroke="black" stroke-width="2" fill="red"/>
<circle r="2" cx="93" cy="214" stroke="black" stroke-width="2" fill="red"/>
<circle r="2" cx="93" cy="214" stroke="black" stroke-width="2" fill="red"/>
<circle r="2" cx="381" cy="319" stroke="black" stroke-width="2" fill="red"/>
<circle r="2" cx="381" cy="319" stroke="black" stroke-width="2" fill="red"/>
<circle r="2" cx="381" cy="180" stroke="black" stroke-width="2" fill="red"/>
<circle r="2" cx="118" cy="319" stroke="black" stroke-width="2" fill="red"/>
<circle r="2" cx="381" cy="180" stroke="black" stroke-width="2" fill="red"/>
<circle r="2" cx="118" cy="319" stroke="black" stroke-width="2" fill="red"/>
<circle r="2" cx="118" cy="180" stroke="black" stroke-width="2" fill="red"/>
<circle r="2" cx="118" cy="180" stroke="black" stroke-width="2" fill="red"/>
<circle r="2" cx="352" cy="352" stroke="black" stroke-width="2" fill="red"/>
<circle r="2" cx="352" cy="352" stroke="black" stroke-width="2" fill="red"/>
<circle r="2" cx="352" cy="147" stroke="black" stroke-width="2" fill="red"/>
<circle r="2" cx="147" cy="352" stroke="black" stroke-width="2" fill="red"/>
<circle r="2" cx="352" cy="147" stroke="black" stroke-width="2" fill="red"/>
<circle r="2" cx="147" cy="352" stroke="black" stroke-width="2" fill="red"/>
<circle r="2" cx="147" cy="147" stroke="black" stroke-width="2" fill="red"/>
<circle r="2" cx="147" cy="147" stroke="black" stroke-width="2" fill="red"/>
<circle r="2" cx="319" cy="381" stroke="black" stroke-width="2" fill="red"/>
<circle r="2" cx="319" cy="381" stroke="black" stroke-width="2" fill="red"/>
<circle r="2" cx="319" cy="118" stroke="black" stroke-width="2" fill="red"/>
<circle r="2" cx="180" cy="381" stroke="black" stroke-width="2" fill="red"/>
<circle r="2" cx="319" cy="118" stroke="black" stroke-width="2" fill="red"/>
<circle r="2" cx="180" cy="381" stroke="black" stroke-width="2" fill="red"/>
<circle r="2" cx="180" cy="118" stroke="black" stroke-width="2" fill="red"/>
<circle r="2" cx="180" cy="118" stroke="black" stroke-width="2" fill="red"/>
<circle r="2" cx="285" cy="406" stroke="black" stroke-width="2" fill="red"/>
<circle r="2" cx="285" cy="406" stroke="black" stroke-width="2" fill="red"/>
<circle r="2" cx="285" cy="93" stroke="black" stroke-width="2" fill="red"/>
<circle r="2" cx="214" cy="406" stroke="black" stroke-width="2" fill="red"/>
<circle r="2" cx="285" cy="93" stroke="black" stroke-width="2" fill="red"/>
<circle r="2" cx="214" cy="406" stroke="black" stroke-width="2" fill="red"/>
<circle r="2" cx="214" cy="93" stroke="black" stroke-width="2" fill="red"/>
<circle r="2" cx="214" cy="93" stroke="black" stroke-width="2" fill="red"/>
<circle r="2" cx="250" cy="426" stroke="black" stroke-width="2" fill="red"/>
<circle r="2" cx="250" cy="426" stroke="black" stroke-width="2" fill="red"/>
<circle r="2" cx="250" cy="73" stroke="black" stroke-width="2" fill="red"/>
<circle r="2" cx="250" cy="73" stroke="black" stroke-width="2" fill="red"/>
<circle r="2" cx="448" cy="250" stroke="black" stroke-width="2" fill="red"/>
<circle r="2" cx="448" cy="250" stroke="black" stroke-width="2" fill="red"/>
<circle r="2" cx="51" cy="250" stroke="black" stroke-width="2" fill="red"/>
<circle r="2" cx="51" cy="250" stroke="black" stroke-width="2" fill="red"/>
<circle r="2" cx="432" cy="286" stroke="black" stroke-width="2" fill="red"/>
<circle r="2" cx="432" cy="286" stroke="black" stroke-width="2" fill="red"/>
<circle r="2" cx="432" cy="213" stroke="black" stroke-width="2" fill="red"/>
<circle r="2" cx="67" cy="286" stroke="black" stroke-width="2" fill="red"/>
<circle r="2" cx="432" cy="213" stroke="black" stroke-width="2" fill="red"/>
<circle r="2" cx="67" cy="286" stroke="black" stroke-width="2" fill="red"/>
<circle r="2" cx="67" cy="213" stroke="black" stroke-width="2" fill="red"/>
<circle r="2" cx="67" cy="213" stroke="black" stroke-width="2" fill="red"/>
<circle r="2" cx="410" cy="321" stroke="black" stroke-width="2" fill="red"/>
<circle r="2" cx="410" cy="321" stroke="black" stroke-width="2" fill="red"/>
<circle r="2" cx="410" cy="178" stroke="black" stroke-width="2" fill="red"/>
<circle r="2" cx="89" cy="321" stroke="black" stroke-width="2" fill="red"/>
<circle r="2" cx="410" cy="178" stroke="black" stroke-width="2" fill="red"/>
<circle r="2" cx="89" cy="321" stroke="black" stroke-width="2" fill="red"/>
<circle r="2" cx="89" cy="178" stroke="black" stroke-width="2" fill="red"/>
<circle r="2" cx="89" cy="178" stroke="black" stroke-width="2" fill="red"/>
<circle r="2" cx="384" cy="354" stroke="black" stroke-width="2" fill="red"/>
<circle r="2" cx="384" cy="354" stroke="black" stroke-width="2" fill="red"/>
<circle r="2" cx="384" cy="145" stroke="black" stroke-width="2" fill="red"/>
<circle r="2" cx="115" cy="354" stroke="black" stroke-width="2" fill="red"/>
<circle r="2" cx="384" cy="145" stroke="black" stroke-width="2" fill="red"/>
<circle r="2" cx="115" cy="354" stroke="black" stroke-width="2" fill="red"/>
<circle r="2" cx="115" cy="145" stroke="black" stroke-width="2" fill="red"/>
<circle r="2" cx="115" cy="145" stroke="black" stroke-width="2" fill="red"/>
<circle r="2" cx="354" cy="384" stroke="black" stroke-width="2" fill="red"/>
<circle r="2" cx="354" cy="384" stroke="black" stroke-width="2" fill="red"/>
<circle r="2" cx="354" cy="115" stroke="black" stroke-width="2" fill="red"/>
<circle r="2" cx="145" cy="384" stroke="black" stroke-width="2" fill="red"/>
<circle r="2" cx="354" cy="115" stroke="black" stroke-width="2" fill="red"/>
<circle r="2" cx="145" cy="384" stroke="black" stroke-width="2" fill="red"/>
<circle r="2" cx="145" cy="115" stroke="black" stroke-width="2" fill="red"/>
<circle r="2" cx="145" cy="115" stroke="black" stroke-width="2" fill="red"/>
<circle r="2" cx="321" cy="410" stroke="black" stroke-width="2" fill="red"/>
<circle r="2" cx="321" cy="410" stroke="black" stroke-width="2" fill="red"/>
<circle r="2" cx="321" cy="89" stroke="black" stroke-width="2" fill="red"/>
<circle r="2" cx="178" cy="410" stroke="black" stroke-width="2" fill="red"/>
<circle r="2" cx="321" cy="89" stroke="black" stroke-width="2" fill="red"/>
<circle r="2" cx="178" cy="410" stroke="black" stroke-width="2" fill="red"/>
<circle r="2" cx="178" cy="89" stroke="black" stroke-width="2" fill="red"/>
<circle r="2" cx="178" cy="89" stroke="black" stroke-width="2" fill="red"/>
<circle r="2" cx="286" cy="432" stroke="black" stroke-width="2" fill="red"/>
<circle r="2" cx="286" cy="432" stroke="black" stroke-width="2" fill="red"/>
<circle r="2" cx="286" cy="67" stroke="black" stroke-width="2" fill="red"/>
<circle r="2" cx="213" cy="432" stroke="black" stroke-width="2" fill="red"/>
<circle r="2" cx="286" cy="67" stroke="black" stroke-width="2" fill="red"/>
<circle r="2" cx="213" cy="432" stroke="black" stroke-width="2" fill="red"/>
<circle r="2" cx="213" cy="67" stroke="black" stroke-width="2" fill="red"/>
<circle r="2" cx="213" cy="67" stroke="black" stroke-width="2" fill="red"/>
<circle r="2" cx="250" cy="448" stroke="black" stroke-width="2" fill="red"/>
<circle r="2" cx="250" cy="448" stroke="black" stroke-width="2" fill="red"/>
<circle r="2" cx="250" cy="51" stroke="black" stroke-width="2" fill="red"/>
<circle r="2" cx="250" cy="51" stroke="black" stroke-width="2" fill="red"/>
<circle r="2" cx="466" cy="250" stroke="black" stroke-width="2" fill="red"/>
<circle r="2" cx="466" cy="250" stroke="black" stroke-width="2" fill="red"/>
<circle r="2" cx="33" cy="250" stroke="black" stroke-width="2" fill="red"/>
<circle r="2" cx="33" cy="250" stroke="black" stroke-width="2" fill="red"/>
<circle r="2" cx="454" cy="286" stroke="black" stroke-width="2" fill="red"/>
<circle r="2" cx="454" cy="286" stroke="black" stroke-width="2" fill="red"/>
<circle r="2" cx="454" cy="213" stroke="black" stroke-width="2" fill="red"/>
<circle r="2" cx="45" cy="286" stroke="black" stroke-width="2" fill="red"/>
<circle r="2" cx="454" cy="213" stroke="black" stroke-width="2" fill="red"/>
<circle r="2" cx="45" cy="286" stroke="black" stroke-width="2" fill="red"/>
<circle r="2" cx="45" cy="213" stroke="black" stroke-width="2" fill="red"/>
<circle r="2" cx="45" cy="213" stroke="black" stroke-width="2" fill="red"/>
<circle r="2" cx="436" cy="322" stroke="black" stroke-width="2" fill="red"/>
<circle r="2" cx="436" cy="322" stroke="black" stroke-width="2" fill="red"/>
<circle r="2" cx="436" cy="177" stroke="black" stroke-width="2" fill="red"/>
<circle r="2" cx="63" cy="322" stroke="black" stroke-width="2" fill="red"/>
<circle r="2" cx="436" cy="177" stroke="black" stroke-width="2" fill="red"/>
<circle r="2" cx="63" cy="322" stroke="black" stroke-width="2" fill="red"/>
<circle r="2" cx="63" cy="177" stroke="black" stroke-width="2" fill="red"/>
<circle r="2" cx="63" cy="177" stroke="black" stroke-width="2" fill="red"/>
<circle r="2" cx="414" cy="356" stroke="black" stroke-width="2" fill="red"/>
<circle r="2" cx="414" cy="356" stroke="black" stroke-width="2" fill="red"/>
<circle r="2" cx="414" cy="143" stroke="black" stroke-width="2" fill="red"/>
<circle r="2" cx="85" cy="356" stroke="black" stroke-width="2" fill="red"/>
<circle r="2" cx="414" cy="143" stroke="black" stroke-width="2" fill="red"/>
<circle r="2" cx="85" cy="356" stroke="black" stroke-width="2" fill="red"/>
<circle r="2" cx="85" cy="143" stroke="black" stroke-width="2" fill="red"/>
<circle r="2" cx="85" cy="143" stroke="black" stroke-width="2" fill="red"/>
<circle r="2" cx="386" cy="386" stroke="black" stroke-width="2" fill="red"/>
<circle r="2" cx="386" cy="386" stroke="black" stroke-width="2" fill="red"/>
<circle r="2" cx="386" cy="113" stroke="black" stroke-width="2" fill="red"/>
<circle r="2" cx="113" cy="386" stroke="black" stroke-width="2" fill="red"/>
<circle r="2" cx="386" cy="113" stroke="black" stroke-width="2" fill="red"/>
<circle r="2" cx="113" cy="386" stroke="black" stroke-width="2" fill="red"/>
<circle r="2" cx="113" cy="113" stroke="black" stroke-width="2" fill="red"/>
<circle r="2" cx="113" cy="113" stroke="black" stroke-width="2" fill="red"/>
<circle r="2" cx="356" cy="414" stroke="black" stroke-width="2" fill="red"/>
<circle r="2" cx="356" cy="414" stroke="black" stroke-width="2" fill="red"/>
<circle r="2" cx="356" cy="85" stroke="black" stroke-width="2" fill="red"/>
<circle r="2" cx="143" cy="414" stroke="black" stroke-width="2" fill="red"/>
<circle r="2" cx="356" cy="85" stroke="black" stroke-width="2" fill="red"/>
<circle r="2" cx="143" cy="414" stroke="black" stroke-width="2" fill="red"/>
<circle r="2" cx="143" cy="85" stroke="black" stroke-width="2" fill="red"/>
<circle r="2" cx="143" cy="85" stroke="black" stroke-width="2" fill="red"/>
<circle r="2" cx="322" cy="436" stroke="black" stroke-width="2" fill="red"/>
<circle r="2" cx="322" cy="436" stroke="black" stroke-width="2" fill="red"/>
<circle r="2" cx="322" cy="63" stroke="black" stroke-width="2" fill="red"/>
<circle r="2" cx="177" cy="436" stroke="black" stroke-width="2" fill="red"/>
<circle r="2" cx="322" cy="63" stroke="black" stroke-width="2" fill="red"/>
<circle r="2" cx="177" cy="436" stroke="black" stroke-width="2" fill="red"/>
<circle r="2" cx="177" cy="63" stroke="black" stroke-width="2" fill="red"/>
<circle r="2" cx="177" cy="63" stroke="black" stroke-width="2" fill="red"/>
<circle r="2" cx="286" cy="454" stroke="black" stroke-width="2" fill="red"/>
<circle r="2" cx="286" cy="454" stroke="black" stroke-width="2" fill="red"/>
<circle r="2" cx="286" cy="45" stroke="black" stroke-width="2" fill="red"/>
<circle r="2" cx="213" cy="454" stroke="black" stroke-width="2" fill="red"/>
<circle r="2" cx="286" cy="45" stroke="black" stroke-width="2" fill="red"/>
<circle r="2" cx="213" cy="454" stroke="black" stroke-width="2" fill="red"/>
<circle r="2" cx="213" cy="45" stroke="black" stroke-width="2" fill="red"/>
<circle r="2" cx="213" cy="45" stroke="black" stroke-width="2" fill="red"/>
<circle r="2" cx="250" cy="466" stroke="black" stroke-width="2" fill="red"/>
<circle r="2" cx="250" cy="466" stroke="black" stroke-width="2" fill="red"/>
<circle r="2" cx="250" cy="33" stroke="black" stroke-width="2" fill="red"/>
<circle r="2" cx="250" cy="33" stroke="black" stroke-width="2" fill="red"/>
<circle r="2" cx="480" cy="250" stroke="black" stroke-width="2" fill="red"/>
<circle r="2" cx="480" cy="250" stroke="black" stroke-width="2" fill="red"/>
<circle r="2" cx="19" cy="250" stroke="black" stroke-width="2" fill="red"/>
<circle r="2" cx="19" cy="250" stroke="black" stroke-width="2" fill="red"/>
<circle r="2" cx="472" cy="286" stroke="black" stroke-width="2" fill="red"/>
<circle r="2" cx="472" cy="286" stroke="black" stroke-width="2" fill="red"/>
<circle r="2" cx="472" cy="213" stroke="black" stroke-width="2" fill="red"/>
<circle r="2" cx="27" cy="286" stroke="black" stroke-width="2" fill="red"/>
<circle r="2" cx="472" cy="213" stroke="black" stroke-width="2" fill="red"/>
<circle r="2" cx="27" cy="286" stroke="black" stroke-width="2" fill="red"/>
<circle r="2" cx="27" cy="213" stroke="black" stroke-width="2" fill="red"/>
<circle r="2" cx="27" cy="213" stroke="black" stroke-width="2" fill="red"/>
<circle r="2" cx="458" cy="322" stroke="black" stroke-width="2" fill="red"/>
<circle r="2" cx="458" cy="322" stroke="black" stroke-width="2" fill="red"/>
<circle r="2" cx="458" cy="177" stroke="black" stroke-width="2" fill="red"/>
<circle r="2" cx="41" cy="322" stroke="black" stroke-width="2" fill="red"/>
<circle r="2" cx="458" cy="177" stroke="black" stroke-width="2" fill="red"/>
<circle r="2" cx="41" cy="322" stroke="black" stroke-width="2" fill="red"/>
<circle r="2" cx="41" cy="177" stroke="black" stroke-width="2" fill="red"/>
<circle r="2" cx="41" cy="177" stroke="black" stroke-width="2" fill="red"/>
<circle r="2" cx="439" cy="356" stroke="black" stroke-width="2" fill="red"/>
<circle r="2" cx="439" cy="356" stroke="black" stroke-width="2" fill="red"/>
<circle r="2" cx="439" cy="143" stroke="black" stroke-width="2" fill="red"/>
<circle r="2" cx="60" cy="356" stroke="black" stroke-width="2" fill="red"/>
<circle r="2" cx="439" cy="143" stroke="black" stroke-width="2" fill="red"/>
<circle r="2" cx="60" cy="356" stroke="black" stroke-width="2" fill="red"/>
<circle r="2" cx="60" cy="143" stroke="black" stroke-width="2" fill="red"/>
<circle r="2" cx="60" cy="143" stroke="black" stroke-width="2" fill="red"/>
<circle r="2" cx="416" cy="388" stroke="black" stroke-width="2" fill="red"/>
<circle r="2" cx="416" cy="388" stroke="black" stroke-width="2" fill="red"/>
<circle r="2" cx="416" cy="111" stroke="black" stroke-width="2" fill="red"/>
<circle r="2" cx="83" cy="388" stroke="black" stroke-width="2" fill="red"/>
<circle r="2" cx="416" cy="111" stroke="black" stroke-width="2" fill="red"/>
<circle r="2" cx="83" cy="388" stroke="black" stroke-width="2" fill="red"/>
<circle r="2" cx="83" cy="111" stroke="black" stroke-width="2" fill="red"/>
<circle r="2" cx="83" cy="111" stroke="black" stroke-width="2" fill="red"/>
<circle r="2" cx="388" cy="416" stroke="black" stroke-width="2" fill="red"/>
<circle r="2" cx="388" cy="416" stroke="black" stroke-width="2" fill="red"/>
<circle r="2" cx="388" cy="83" stroke="black" stroke-width="2" fill="red"/>
<circle r="2" cx="111" cy="416" stroke="black" stroke-width="2" fill="red"/>
<circle r="2" cx="388" cy="83" stroke="black" stroke-width="2" fill="red"/>
<circle r="2" cx="111" cy="416" stroke="black" stroke-width="2" fill="red"/>
<circle r="2" cx="111" cy="83" stroke="black" stroke-width="2" fill="red"/>
<circle r="2" cx="111" cy="83" stroke="black" stroke-width="2" fill="red"/>
<circle r="2" cx="356" cy="439" stroke="black" stroke-width="2" fill="red"/>
<circle r="2" cx="356" cy="439" stroke="black" stroke-width="2" fill="red"/>
<circle r="2" cx="356" cy="60" stroke="black" stroke-width="2" fill="red"/>
<circle r="2" cx="143" cy="439" stroke="black" stroke-width="2" fill="red"/>
<circle r="2" cx="356" cy="60" stroke="black" stroke-width="2" fill="red"/>
<circle r="2" cx="143" cy="439" stroke="black" stroke-width="2" fill="red"/>
<circle r="2" cx="143" cy="60" stroke="black" stroke-width="2" fill="red"/>
<circle r="2" cx="143" cy="60" stroke="black" stroke-width="2" fill="red"/>
<circle r="2" cx="322" cy="458" stroke="black" stroke-width="2" fill="red"/>
<circle r="2" cx="322" cy="458" stroke="black" stroke-width="2" fill="red"/>
<circle r="2" cx="322" cy="41" stroke="black" stroke-width="2" fill="red"/>
<circle r="2" cx="177" cy="458" stroke="black" stroke-width="2" fill="red"/>
<circle r="2" cx="322" cy="41" stroke="black" stroke-width="2" fill="red"/>
<circle r="2" cx="177" cy="458" stroke="black" stroke-width="2" fill="red"/>
<circle r="2" cx="177" cy="41" stroke="black" stroke-width="2" fill="red"/>
<circle r="2" cx="177" cy="41" stroke="black" stroke-width="2" fill="red"/>
<circle r="2" cx="286" cy="472" stroke="black" stroke-width="2" fill="red"/>
<circle r="2" cx="286" cy="472" stroke="black" stroke-width="2" fill="red"/>
<circle r="2" cx="286" cy="27" stroke="black" stroke-width="2" fill="red"/>
<circle r="2" cx="213" cy="472" stroke="black" stroke-width="2" fill="red"/>
<circle r="2" cx="286" cy="27" stroke="black" stroke-width="2" fill="red"/>
<circle r="2" cx="213" cy="472" stroke="black" stroke-width="2" fill="red"/>
<circle r="2" cx="213" cy="27" stroke="black" stroke-width="2" fill="red"/>
<circle r="2" cx="213" cy="27" stroke="black" stroke-width="2" fill="red"/>
<circle r="2" cx="250" cy="480" stroke="black" stroke-width="2" fill="red"/>
<circle r="2" cx="250" cy="480" stroke="black" stroke-width="2" fill="red"/>
<circle r="2" cx="250" cy="19" stroke="black" stroke-width="2" fill="red"/>
<circle r="2" cx="250" cy="19" stroke="black" stroke-width="2" fill="red"/>
<circle r="2" cx="491" cy="250" stroke="black" stroke-width="2" fill="red"/>
<circle r="2" cx="491" cy="250" stroke="black" stroke-width="2" fill="red"/>
<circle r="2" cx="8" cy="250" stroke="black" stroke-width="2" fill="red"/>
<circle r="2" cx="8" cy="250" stroke="black" stroke-width="2" fill="red"/>
<circle r="2" cx="486" cy="286" stroke="black" stroke-width="2" fill="red"/>
<circle r="2" cx="486" cy="286" stroke="black" stroke-width="2" fill="red"/>
<circle r="2" cx="486" cy="213" stroke="black" stroke-width="2" fill="red"/>
<circle r="2" cx="13" cy="286" stroke="black" stroke-width="2" fill="red"/>
<circle r="2" cx="486" cy="213" stroke="black" stroke-width="2" fill="red"/>
<circle r="2" cx="13" cy="286" stroke="black" stroke-width="2" fill="red"/>
<circle r="2" cx="13" cy="213" stroke="black" stroke-width="2" fill="red"/>
<circle r="2" cx="13" cy="213" stroke="black" stroke-width="2" fill="red"/>
<circle r="2" cx="475" cy="321" stroke="black" stroke-width="2" fill="red"/>
<circle r="2" cx="475" cy="321" stroke="black" stroke-width="2" fill="red"/>
<circle r="2" cx="475" cy="178" stroke="black" stroke-width="2" fill="red"/>
<circle r="2" cx="24" cy="321" stroke="black" stroke-width="2" fill="red"/>
<circle r="2" cx="475" cy="178" stroke="black" stroke-width="2" fill="red"/>
<circle r="2" cx="24" cy="321" stroke="black" stroke-width="2" fill="red"/>
<circle r="2" cx="24" cy="178" stroke="black" stroke-width="2" fill="red"/>
<circle r="2" cx="24" cy="178" stroke="black" stroke-width="2" fill="red"/>
<circle r="2" cx="460" cy="355" stroke="black" stroke-width="2" fill="red"/>
<circle r="2" cx="460" cy="355" stroke="black" stroke-width="2" fill="red"/>
<circle r="2" cx="460" cy="144" stroke="black" stroke-width="2" fill="red"/>
<circle r="2" cx="39" cy="355" stroke="black" stroke-width="2" fill="red"/>
<circle r="2" cx="460" cy="144" stroke="black" stroke-width="2" fill="red"/>
<circle r="2" cx="39" cy="355" stroke="black" stroke-width="2" fill="red"/>
<circle r="2" cx="39" cy="144" stroke="black" stroke-width="2" fill="red"/>
<circle r="2" cx="39" cy="144" stroke="black" stroke-width="2" fill="red"/>
<circle r="2" cx="439" cy="386" stroke="black" stroke-width="2" fill="red"/>
<circle r="2" cx="439" cy="386" stroke="black" stroke-width="2" fill="red"/>
<circle r="2" cx="439" cy="113" stroke="black" stroke-width="2" fill="red"/>
<circle r="2" cx="60" cy="386" stroke="black" stroke-width="2" fill="red"/>
<circle r="2" cx="439" cy="113" stroke="black" stroke-width="2" fill="red"/>
<circle r="2" cx="60" cy="386" stroke="black" stroke-width="2" fill="red"/>
<circle r="2" cx="60" cy="113" stroke="black" stroke-width="2" fill="red"/>
<circle r="2" cx="60" cy="113" stroke="black" stroke-width="2" fill="red"/>
<circle r="2" cx="415" cy="415" stroke="black" stroke-width="2" fill="red"/>
<circle r="2" cx="415" cy="415" stroke="black" stroke-width="2" fill="red"/>
<circle r="2" cx="415" cy="84" stroke="black" stroke-width="2" fill="red"/>
<circle r="2" cx="84" cy="415" stroke="black" stroke-width="2" fill="red"/>
<circle r="2" cx="415" cy="84" stroke="black" stroke-width="2" fill="red"/>
<circle r="2" cx="84" cy="415" stroke="black" stroke-width="2" fill="red"/>
<circle r="2" cx="84" cy="84" stroke="black" stroke-width="2" fill="red"/>
<circle r="2" cx="84" cy="84" stroke="black" stroke-width="2" fill="red"/>
<circle r="2" cx="386" cy="439" stroke="black" stroke-width="2" fill="red"/>
<circle r="2" cx="386" cy="439" stroke="black" stroke-width="2" fill="red"/>
<circle r="2" cx="386" cy="60" stroke="black" stroke-width="2" fill="red"/>
<circle r="2" cx="113" cy="439" stroke="black" stroke-width="2" fill="red"/>
<circle r="2" cx="386" cy="60" stroke="black" stroke-width="2" fill="red"/>
<circle r="2" cx="113" cy="439" stroke="black" stroke-width="2" fill="red"/>
<circle r="2" cx="113" cy="60" stroke="black" stroke-width="2" fill="red"/>
<circle r="2" cx="113" cy="60" stroke="black" stroke-width="2" fill="red"/>
<circle r="2" cx="355" cy="460" stroke="black" stroke-width="2" fill="red"/>
<circle r="2" cx="355" cy="460" stroke="black" stroke-width="2" fill="red"/>
<circle r="2" cx="355" cy="39" stroke="black" stroke-width="2" fill="red"/>
<circle r="2" cx="144" cy="460" stroke="black" stroke-width="2" fill="red"/>
<circle r="2" cx="355" cy="39" stroke="black" stroke-width="2" fill="red"/>
<circle r="2" cx="144" cy="460" stroke="black" stroke-width="2" fill="red"/>
<circle r="2" cx="144" cy="39" stroke="black" stroke-width="2" fill="red"/>
<circle r="2" cx="144" cy="39" stroke="black" stroke-width="2" fill="red"/>
<circle r="2" cx="321" cy="475" stroke="black" stroke-width="2" fill="red"/>
<circle r="2" cx="321" cy="475" stroke="black" stroke-width="2" fill="red"/>
<circle r="2" cx="321" cy="24" stroke="black" stroke-width="2" fill="red"/>
<circle r="2" cx="178" cy="475" stroke="black" stroke-width="2" fill="red"/>
<circle r="2" cx="321" cy="24" stroke="black" stroke-width="2" fill="red"/>
<circle r="2" cx="178" cy="475" stroke="black" stroke-width="2" fill="red"/>
<circle r="2" cx="178" cy="24" stroke="black" stroke-width="2" fill="red"/>
<circle r="2" cx="178" cy="24" stroke="black" stroke-width="2" fill="red"/>
<circle r="2" cx="286" cy="486" stroke="black" stroke-width="2" fill="red"/>
<circle r="2" cx="286" cy="486" stroke="black" stroke-width="2" fill="red"/>
<circle r="2" cx="286" cy="13" stroke="black" stroke-width="2" fill="red"/>
<circle r="2" cx="213" cy="486" stroke="black" stroke-width="2" fill="red"/>
<circle r="2" cx="286" cy="13" stroke="black" stroke-width="2" fill="red"/>
<circle r="2" cx="213" cy="486" stroke="black" stroke-width="2" fill="red"/>
<circle r="2" cx="213" cy="13" stroke="black" stroke-width="2" fill="red"/>
<circle r="2" cx="213" cy="13" stroke="black" stroke-width="2" fill="red"/>
<circle r="2" cx="250" cy="491" stroke="black" stroke-width="2" fill="red"/>
<circle r="2" cx="250" cy="491" stroke="black" stroke-width="2" fill="red"/>
<circle r="2" cx="250" cy="8" stroke="black" stroke-width="2" fill="red"/>
<circle r="2" cx="250" cy="8" stroke="black" stroke-width="2" fill="red"/>
<circle r="2" cx="497" cy="250" stroke="black" stroke-width="2" fill="red"/>
<circle r="2" cx="497" cy="250" stroke="black" stroke-width="2" fill="red"/>
<circle r="2" cx="2" cy="250" stroke="black" stroke-width="2" fill="red"/>
<circle r="2" cx="2" cy="250" stroke="black" stroke-width="2" fill="red"/>
<circle r="2" cx="494" cy="284" stroke="black" stroke-width="2" fill="red"/>
<circle r="2" cx="494" cy="284" stroke="black" stroke-width="2" fill="red"/>
<circle r="2" cx="494" cy="215" stroke="black" stroke-width="2" fill="red"/>
<circle r="2" cx="5" cy="284" stroke="black" stroke-width="2" fill="red"/>
<circle r="2" cx="494" cy="215" stroke="black" stroke-width="2" fill="red"/>
<circle r="2" cx="5" cy="284" stroke="black" stroke-width="2" fill="red"/>
<circle r="2" cx="5" cy="215" stroke="black" stroke-width="2" fill="red"/>
<circle r="2" cx="5" cy="215" stroke="black" stroke-width="2" fill="red"/>
<circle r="2" cx="486" cy="319" stroke="black" stroke-width="2" fill="red"/>
<circle r="2" cx="486" cy="319" stroke="black" stroke-width="2" fill="red"/>
<circle r="2" cx="486" cy="180" stroke="black" stroke-width="2" fill="red"/>
<circle r="2" cx="13" cy="319" stroke="black" stroke-width="2" fill="red"/>
<circle r="2" cx="486" cy="180" stroke="black" stroke-width="2" fill="red"/>
<circle r="2" cx="13" cy="319" stroke="black" stroke-width="2" fill="red"/>
<circle r="2" cx="13" cy="180" stroke="black" stroke-width="2" fill="red"/>
<circle r="2" cx="13" cy="180" stroke="black" stroke-width="2" fill="red"/>
<circle r="2" cx="474" cy="351" stroke="black" stroke-width="2" fill="red"/>
<circle r="2" cx="474" cy="351" stroke="black" stroke-width="2" fill="red"/>
<circle r="2" cx="474" cy="148" stroke="black" stroke-width="2" fill="red"/>
<circle r="2" cx="25" cy="351" stroke="black" stroke-width="2" fill="red"/>
<circle r="2" cx="474" cy="148" stroke="black" stroke-width="2" fill="red"/>
<circle r="2" cx="25" cy="351" stroke="black" stroke-width="2" fill="red"/>
<circle r="2" cx="25" cy="148" stroke="black" stroke-width="2" fill="red"/>
<circle r="2" cx="25" cy="148" stroke="black" stroke-width="2" fill="red"/>
<circle r="2" cx="457" cy="382" stroke="black" stroke-width="2" fill="red"/>
<circle r="2" cx="457" cy="382" stroke="black" stroke-width="2" fill="red"/>
<circle r="2" cx="457" cy="117" stroke="black" stroke-width="2" fill="red"/>
<circle r="2" cx="42" cy="382" stroke="black" stroke-width="2" fill="red"/>
<circle r="2" cx="457" cy="117" stroke="black" stroke-width="2" fill="red"/>
<circle r="2" cx="42" cy="382" stroke="black" stroke-width="2" fill="red"/>
<circle r="2" cx="42" cy="117" stroke="black" stroke-width="2" fill="red"/>
<circle r="2" cx="42" cy="117" stroke="black" stroke-width="2" fill="red"/>
<circle r="2" cx="435" cy="410" stroke="black" stroke-width="2" fill="red"/>
<circle r="2" cx="435" cy="410" stroke="black" stroke-width="2" fill="red"/>
<circle r="2" cx="435" cy="89" stroke="black" stroke-width="2" fill="red"/>
<circle r="2" cx="64" cy="410" stroke="black" stroke-width="2" fill="red"/>
<circle r="2" cx="435" cy="89" stroke="black" stroke-width="2" fill="red"/>
<circle r="2" cx="64" cy="410" stroke="black" stroke-width="2" fill="red"/>
<circle r="2" cx="64" cy="89" stroke="black" stroke-width="2" fill="red"/>
<circle r="2" cx="64" cy="89" stroke="black" stroke-width="2" fill="red"/>
<circle r="2" cx="410" cy="435" stroke="black" stroke-width="2" fill="red"/>
<circle r="2" cx="410" cy="435" stroke="black" stroke-width="2" fill="red"/>
<circle r="2" cx="410" cy="64" stroke="black" stroke-width="2" fill="red"/>
<circle r="2" cx="89" cy="435" stroke="black" stroke-width="2" fill="red"/>
<circle r="2" cx="410" cy="64" stroke="black" stroke-width="2" fill="red"/>
<circle r="2" cx="89" cy="435" stroke="black" stroke-width="2" fill="red"/>
<circle r="2" cx="89" cy="64" stroke="black" stroke-width="2" fill="red"/>
<circle r="2" cx="89" cy="64" stroke="black" stroke-width="2" fill="red"/>
<circle r="2" cx="382" cy="457" stroke="black" stroke-width="2" fill="red"/>
<circle r="2" cx="382" cy="457" stroke="black" stroke-width="2" fill="red"/>
<circle r="2" cx="382" cy="42" stroke="black" stroke-width="2" fill="red"/>
<circle r="2" cx="117" cy="457" stroke="black" stroke-width="2" fill="red"/>
<circle r="2" cx="382" cy="42" stroke="black" stroke-width="2" fill="red"/>
<circle r="2" cx="117" cy="457" stroke="black" stroke-width="2" fill="red"/>
<circle r="2" cx="117" cy="42" stroke="black" stroke-width="2" fill="red"/>
<circle r="2" cx="117" cy="42" stroke="black" stroke-width="2" fill="red"/>
<circle r="2" cx="351" cy="474" stroke="black" stroke-width="2" fill="red"/>
<circle r="2" cx="351" cy="474" stroke="black" stroke-width="2" fill="red"/>
<circle r="2" cx="351" cy="25" stroke="black" stroke-width="2" fill="red"/>
<circle r="2" cx="148" cy="474" stroke="black" stroke-width="2" fill="red"/>
<circle r="2" cx="351" cy="25" stroke="black" stroke-width="2" fill="red"/>
<circle r="2" cx="148" cy="474" stroke="black" stroke-width="2" fill="red"/>
<circle r="2" cx="148" cy="25" stroke="black" stroke-width="2" fill="red"/>
<circle r="2" cx="148" cy="25" stroke="black" stroke-width="2" fill="red"/>
<circle r="2" cx="319" cy="486" stroke="black" stroke-width="2" fill="red"/>
<circle r="2" cx="319" cy="486" stroke="black" stroke-width="2" fill="red"/>
<circle r="2" cx="319" cy="13" stroke="black" stroke-width="2" fill="red"/>
<circle r="2" cx="180" cy="486" stroke="black" stroke-width="2" fill="red"/>
<circle r="2" cx="319" cy="13" stroke="black" stroke-width="2" fill="red"/>
<circle r="2" cx="180" cy="486" stroke="black" stroke-width="2" fill="red"/>
<circle r="2" cx="180" cy="13" stroke="black" stroke-width="2" fill="red"/>
<circle r="2" cx="180" cy="13" stroke="black" stroke-width="2" fill="red"/>
<circle r="2" cx="284" cy="494" stroke="black" stroke-width="2" fill="red"/>
<circle r="2" cx="284" cy="494" stroke="black" stroke-width="2" fill="red"/>
<circle r="2" cx="284" cy="5" stroke="black" stroke-width="2" fill="red"/>
<circle r="2" cx="215" cy="494" stroke="black" stroke-width="2" fill="red"/>
<circle r="2" cx="284" cy="5" stroke="black" stroke-width="2" fill="red"/>
<circle r="2" cx="215" cy="494" stroke="black" stroke-width="2" fill="red"/>
<circle r="2" cx="215" cy="5" stroke="black" stroke-width="2" fill="red"/>
<circle r="2" cx="215" cy="5" stroke="black" stroke-width="2" fill="red"/>
<circle r="2" cx="250" cy="497" stroke="black" stroke-width="2" fill="red"/>
<circle r="2" cx="250" cy="497" stroke="black" stroke-width="2" fill="red"/>
<circle r="2" cx="250" cy="2" stroke="black" stroke-width="2" fill="red"/>
<circle r="2" cx="250" cy="2" stroke="black" stroke-width="2" fill="red"/>
<circle r="2" cx="500" cy="250" stroke="black" stroke-width="2" fill="red"/>
<circle r="2" cx="0" cy="250" stroke="black" stroke-width="2" fill="red"/>
<circle r="2" cx="497" cy="282" stroke="black" stroke-width="2" fill="red"/>
<circle r="2" cx="497" cy="217" stroke="black" stroke-width="2" fill="red"/>
<circle r="2" cx="2" cy="282" stroke="black" stroke-width="2" fill="red"/>
<circle r="2" cx="2" cy="217" stroke="black" stroke-width="2" fill="red"/>
<circle r="2" cx="491" cy="314" stroke="black" stroke-width="2" fill="red"/>
<circle r="2" cx="491" cy="185" stroke="black" stroke-width="2" fill="red"/>
<circle r="2" cx="8" cy="314" stroke="black" stroke-width="2" fill="red"/>
<circle r="2" cx="8" cy="185" stroke="black" stroke-width="2" fill="red"/>
<circle r="2" cx="480" cy="345" stroke="black" stroke-width="2" fill="red"/>
<circle r="2" cx="480" cy="154" stroke="black" stroke-width="2" fill="red"/>
<circle r="2" cx="19" cy="345" stroke="black" stroke-width="2" fill="red"/>
<circle r="2" cx="19" cy="154" stroke="black" stroke-width="2" fill="red"/>
<circle r="2" cx="466" cy="375" stroke="black" stroke-width="2" fill="red"/>
<circle r="2" cx="466" cy="125" stroke="black" stroke-width="2" fill="red"/>
<circle r="2" cx="33" cy="375" stroke="black" stroke-width="2" fill="red"/>
<circle r="2" cx="33" cy="125" stroke="black" stroke-width="2" fill="red"/>
<circle r="2" cx="448" cy="402" stroke="black" stroke-width="2" fill="red"/>
<circle r="2" cx="448" cy="97" stroke="black" stroke-width="2" fill="red"/>
<circle r="2" cx="51" cy="402" stroke="black" stroke-width="2" fill="red"/>
<circle r="2" cx="51" cy="97" stroke="black" stroke-width="2" fill="red"/>
<circle r="2" cx="426" cy="426" stroke="black" stroke-width="2" fill="red"/>
<circle r="2" cx="426" cy="73" stroke="black" stroke-width="2" fill="red"/>
<circle r="2" cx="73" cy="426" stroke="black" stroke-width="2" fill="red"/>
<circle r="2" cx="73" cy="73" stroke="black" stroke-width="2" fill="red"/>
<circle r="2" cx="402" cy="448" stroke="black" stroke-width="2" fill="red"/>
<circle r="2" cx="402" cy="51" stroke="black" stroke-width="2" fill="red"/>
<circle r="2" cx="97" cy="448" stroke="black" stroke-width="2" fill="red"/>
<circle r="2" cx="97" cy="51" stroke="black" stroke-width="2" fill="red"/>
<circle r="2" cx="375" cy="466" stroke="black" stroke-width="2" fill="red"/>
<circle r="2" cx="375" cy="33" stroke="black" stroke-width="2" fill="red"/>
<circle r="2" cx="125" cy="466" stroke="black" stroke-width="2" fill="red"/>
<circle r="2" cx="125" cy="33" stroke="black" stroke-width="2" fill="red"/>
<circle r="2" cx="345" cy="480" stroke="black" stroke-width="2" fill="red"/>
<circle r="2" cx="345" cy="19" stroke="black" stroke-width="2" fill="red"/>
<circle r="2" cx="154" cy="480" stroke="black" stroke-width="2" fill="red"/>
<circle r="2" cx="154" cy="19" stroke="black" stroke-width="2" fill="red"/>
<circle r="2" cx="314" cy="491" stroke="black" stroke-width="2" fill="red"/>
<circle r="2" cx="314" cy="8" stroke="black" stroke-width="2" fill="red"/>
<circle r="2" cx="185" cy="491" stroke="black" stroke-width="2" fill="red"/>
<circle r="2" cx="185" cy="8" stroke="black" stroke-width="2" fill="red"/>
<circle r="2" cx="282" cy="497" stroke="black" stroke-width="2" fill="red"/>
<circle r="2" cx="282" cy="2" stroke="black" stroke-width="2" fill="red"/>
<circle r="2" cx="217" cy="497" stroke="black" stroke-width="2" fill="red"/>
<circle r="2" cx="217" cy="2" stroke="black" stroke-width="2" fill="red"/>
<circle r="2" cx="250" cy="500" stroke="black" stroke-width="2" fill="red"/>
<circle r="2" cx="250" cy="0" stroke="black" stroke-width="2" fill="red"/>
</svg>
