<?xml version="1.0" standalone="no"?>
<svg width="1050" height="1050" version="1.1"
xmlns="http://www.w3.org/2000/svg">
<rect width="1050" height="1050" style="fill:rgb(255,255,255); stroke-width:10;  stroke:rgb(255,255,255)"/>
<circle r="2" cx="0" cy="0" stroke="black" stroke-width="2" fill="red"/>
<circle r="2" cx="251" cy="167" stroke="black" stroke-width="2" fill="red"/>
<circle r="2" cx="125" cy="335" stroke="black" stroke-width="2" fill="red"/>
<circle r="2" cx="377" cy="55" stroke="black" stroke-width="2" fill="red"/>
<circle r="2" cx="62" cy="223" stroke="black" stroke-width="2" fill="red"/>
<circle r="2" cx="314" cy="391" stroke="black" stroke-width="2" fill="red"/>
<circle r="2" cx="188" cy="111" stroke="black" stroke-width="2" fill="red"/>
<circle r="2" cx="440" cy="279" stroke="black" stroke-width="2" fill="red"/>
<circle r="2" cx="31" cy="447" stroke="black" stroke-width="2" fill="red"/>
<circle r="2" cx="283" cy="18" stroke="black" stroke-width="2" fill="red"/>
<circle r="2" cx="157" cy="186" stroke="black" stroke-width="2" fill="red"/>
<circle r="2" cx="409" cy="354" stroke="black" stroke-width="2" fill="red"/>
<circle r="2" cx="94" cy="74" stroke="black" stroke-width="2" fill="red"/>
<circle r="2" cx="346" cy="242" stroke="black" stroke-width="2" fill="red"/>
<circle r="2" cx="220" cy="410" stroke="black" stroke-width="2" fill="red"/>
<circle r="2" cx="472" cy="130" stroke="black" stroke-width="2" fill="red"/>
<circle r="2" cx="15" cy="298" stroke="black" stroke-width="2" fill="red"/>
<circle r="2" cx="267" cy="466" stroke="black" stroke-width="2" fill="red"/>
<circle r="2" cx="141" cy="37" stroke="black" stroke-width="2" fill="red"/>
<circle r="2" cx="393" cy="205" stroke="black" stroke-width="2" fill="red"/>
<circle r="2" cx="78" cy="373" stroke="black" stroke-width="2" fill="red"/>
<circle r="2" cx="330" cy="93" stroke="black" stroke-width="2" fill="red"/>
<circle r="2" cx="204" cy="261" stroke="black" stroke-width="2" fill="red"/>
<circle r="2" cx="456" cy="429" stroke="black" stroke-width="2" fill="red"/>
<circle r="2" cx="47" cy="149" stroke="black" stroke-width="2" fill="red"/>
<circle r="2" cx="299" cy="317" stroke="black" stroke-width="2" fill="red"/>
<circle r="2" cx="173" cy="485" stroke="black" stroke-width="2" fill="red"/>
<circle r="2" cx="425" cy="6" stroke="black" stroke-width="2" fill="red"/>
<circle r="2" cx="110" cy="174" stroke="black" stroke-width="2" fill="red"/>
<circle r="2" cx="362" cy="342" stroke="black" stroke-width="2" fill="red"/>
<circle r="2" cx="236" cy="62" stroke="black" stroke-width="2" fill="red"/>
<circle r="2" cx="488" cy="230" stroke="black" stroke-width="2" fill="red"/>
<circle r="2" cx="7" cy="398" stroke="black" stroke-width="2" fill="red"/>
<circle r="2" cx="259" cy="118" stroke="black" stroke-width="2" fill="red"/>
<circle r="2" cx="133" cy="286" stroke="black" stroke-width="2" fill="red"/>
<circle r="2" cx="385" cy="454" stroke="black" stroke-width="2" fill="red"/>
<circle r="2" cx="70" cy="24" stroke="black" stroke-width="2" fill="red"/>
<circle r="2" cx="322" cy="192" stroke="black" stroke-width="2" fill="red"/>
<circle r="2" cx="196" cy="360" stroke="black" stroke-width="2" fill="red"/>
<circle r="2" cx="448" cy="80" stroke="black" stroke-width="2" fill="red"/>
<circle r="2" cx="39" cy="248" stroke="black" stroke-width="2" fill="red"/>
<circle r="2" cx="291" cy="416" stroke="black" stroke-width="2" fill="red"/>
<circle r="2" cx="165" cy="136" stroke="black" stroke-width="2" fill="red"/>
<circle r="2" cx="417" cy="304" stroke="black" stroke-width="2" fill="red"/>
<circle r="2" cx="102" cy="472" stroke="black" stroke-width="2" fill="red"/>
<circle r="2" cx="354" cy="43" stroke="black" stroke-width="2" fill="red"/>
<circle r="2" cx="228" cy="211" stroke="black" stroke-width="2" fill="red"/>
<circle r="2" cx="480" cy="379" stroke="black" stroke-width="2" fill="red"/>
<circle r="2" cx="23" cy="99" stroke="black" stroke-width="2" fill="red"/>
<circle r="2" cx="275" cy="267" stroke="black" stroke-width="2" fill="red"/>
<circle r="2" cx="149" cy="435" stroke="black" stroke-width="2" fill="red"/>
<circle r="2" cx="401" cy="155" stroke="black" stroke-width="2" fill="red"/>
<circle r="2" cx="86" cy="323" stroke="black" stroke-width="2" fill="red"/>
<circle r="2" cx="338" cy="491" stroke="black" stroke-width="2" fill="red"/>
<circle r="2" cx="212" cy="12" stroke="black" stroke-width="2" fill="red"/>
<circle r="2" cx="464" cy="180" stroke="black" stroke-width="2" fill="red"/>
<circle r="2" cx="55" cy="348" stroke="black" stroke-width="2" fill="red"/>
<circle r="2" cx="307" cy="68" stroke="black" stroke-width="2" fill="red"/>
<circle r="2" cx="181" cy="236" stroke="black" stroke-width="2" fill="red"/>
<circle r="2" cx="433" cy="404" stroke="black" stroke-width="2" fill="red"/>
<circle r="2" cx="118" cy="124" stroke="black" stroke-width="2" fill="red"/>
<circle r="2" cx="370" cy="292" stroke="black" stroke-width="2" fill="red"/>
<circle r="2" cx="244" cy="460" stroke="black" stroke-width="2" fill="red"/>
<circle r="2" cx="496" cy="31" stroke="black" stroke-width="2" fill="red"/>
<circle r="2" cx="3" cy="199" stroke="black" stroke-width="2" fill="red"/>
<circle r="2" cx="255" cy="367" stroke="black" stroke-width="2" fill="red"/>
<circle r="2" cx="129" cy="87" stroke="black" stroke-width="2" fill="red"/>
<circle r="2" cx="381" cy="255" stroke="black" stroke-width="2" fill="red"/>
<circle r="2" cx="66" cy="423" stroke="black" stroke-width="2" fill="red"/>
<circle r="2" cx="318" cy="143" stroke="black" stroke-width="2" fill="red"/>
<circle r="2" cx="192" cy="311" stroke="black" stroke-width="2" fill="red"/>
<circle r="2" cx="444" cy="479" stroke="black" stroke-width="2" fill="red"/>
<circle r="2" cx="35" cy="49" stroke="black" stroke-width="2" fill="red"/>
<circle r="2" cx="287" cy="217" stroke="black" stroke-width="2" fill="red"/>
<circle r="2" cx="161" cy="385" stroke="black" stroke-width="2" fill="red"/>
<circle r="2" cx="413" cy="105" stroke="black" stroke-width="2" fill="red"/>
<circle r="2" cx="98" cy="273" stroke="black" stroke-width="2" fill="red"/>
<circle r="2" cx="350" cy="441" stroke="black" stroke-width="2" fill="red"/>
<circle r="2" cx="224" cy="161" stroke="black" stroke-width="2" fill="red"/>
<circle r="2" cx="476" cy="329" stroke="black" stroke-width="2" fill="red"/>
<circle r="2" cx="19" cy="497" stroke="black" stroke-width="2" fill="red"/>
<circle r="2" cx="271" cy="2" stroke="black" stroke-width="2" fill="red"/>
<circle r="2" cx="145" cy="170" stroke="black" stroke-width="2" fill="red"/>
<circle r="2" cx="397" cy="338" stroke="black" stroke-width="2" fill="red"/>
<circle r="2" cx="82" cy="58" stroke="black" stroke-width="2" fill="red"/>
<circle r="2" cx="334" cy="226" stroke="black" stroke-width="2" fill="red"/>
<circle r="2" cx="208" cy="394" stroke="black" stroke-width="2" fill="red"/>
<circle r="2" cx="460" cy="114" stroke="black" stroke-width="2" fill="red"/>
<circle r="2" cx="51" cy="282" stroke="black" stroke-width="2" fill="red"/>
<circle r="2" cx="303" cy="450" stroke="black" stroke-width="2" fill="red"/>
<circle r="2" cx="177" cy="20" stroke="black" stroke-width="2" fill="red"/>
<circle r="2" cx="429" cy="188" stroke="black" stroke-width="2" fill="red"/>
<circle r="2" cx="114" cy="356" stroke="black" stroke-width="2" fill="red"/>
<circle r="2" cx="366" cy="76" stroke="black" stroke-width="2" fill="red"/>
<circle r="2" cx="240" cy="244" stroke="black" stroke-width="2" fill="red"/>
<circle r="2" cx="492" cy="412" stroke="black" stroke-width="2" fill="red"/>
<circle r="2" cx="11" cy="132" stroke="black" stroke-width="2" fill="red"/>
<circle r="2" cx="263" cy="300" stroke="black" stroke-width="2" fill="red"/>
<circle r="2" cx="137" cy="468" stroke="black" stroke-width="2" fill="red"/>
<circle r="2" cx="389" cy="39" stroke="black" stroke-width="2" fill="red"/>
<circle r="2" cx="74" cy="207" stroke="black" stroke-width="2" fill="red"/>
<circle r="2" cx="326" cy="375" stroke="black" stroke-width="2" fill="red"/>
<circle r="2" cx="200" cy="95" stroke="black" stroke-width="2" fill="red"/>
<circle r="2" cx="452" cy="263" stroke="black" stroke-width="2" fill="red"/>
<circle r="2" cx="43" cy="431" stroke="black" stroke-width="2" fill="red"/>
<circle r="2" cx="295" cy="151" stroke="black" stroke-width="2" fill="red"/>
<circle r="2" cx="169" cy="319" stroke="black" stroke-width="2" fill="red"/>
<circle r="2" cx="421" cy="487" stroke="black" stroke-width="2" fill="red"/>
<circle r="2" cx="106" cy="8" stroke="black" stroke-width="2" fill="red"/>
<circle r="2" cx="358" cy="176" stroke="black" stroke-width="2" fill="red"/>
<circle r="2" cx="232" cy="344" stroke="black" stroke-width="2" fill="red"/>
<circle r="2" cx="484" cy="64" stroke="black" stroke-width="2" fill="red"/>
<circle r="2" cx="27" cy="232" stroke="black" stroke-width="2" fill="red"/>
<circle r="2" cx="279" cy="400" stroke="black" stroke-width="2" fill="red"/>
<circle r="2" cx="153" cy="120" stroke="black" stroke-width="2" fill="red"/>
<circle r="2" cx="405" cy="288" stroke="black" stroke-width="2" fill="red"/>
<circle r="2" cx="90" cy="456" stroke="black" stroke-width="2" fill="red"/>
<circle r="2" cx="342" cy="26" stroke="black" stroke-width="2" fill="red"/>
<circle r="2" cx="216" cy="194" stroke="black" stroke-width="2" fill="red"/>
<circle r="2" cx="468" cy="362" stroke="black" stroke-width="2" fill="red"/>
<circle r="2" cx="59" cy="82" stroke="black" stroke-width="2" fill="red"/>
<circle r="2" cx="311" cy="250" stroke="black" stroke-width="2" fill="red"/>
<circle r="2" cx="185" cy="418" stroke="black" stroke-width="2" fill="red"/>
<circle r="2" cx="437" cy="138" stroke="black" stroke-width="2" fill="red"/>
<circle r="2" cx="122" cy="306" stroke="black" stroke-width="2" fill="red"/>
<circle r="2" cx="374" cy="474" stroke="black" stroke-width="2" fill="red"/>
<circle r="2" cx="248" cy="45" stroke="black" stroke-width="2" fill="red"/>
<circle r="2" cx="500" cy="213" stroke="black" stroke-width="2" fill="red"/>
<circle r="2" cx="1" cy="381" stroke="black" stroke-width="2" fill="red"/>
<circle r="2" cx="253" cy="101" stroke="black" stroke-width="2" fill="red"/>
<circle r="2" cx="127" cy="269" stroke="black" stroke-width="2" fill="red"/>
<circle r="2" cx="379" cy="437" stroke="black" stroke-width="2" fill="red"/>
<circle r="2" cx="64" cy="157" stroke="black" stroke-width="2" fill="red"/>
<circle r="2" cx="316" cy="325" stroke="black" stroke-width="2" fill="red"/>
<circle r="2" cx="190" cy="493" stroke="black" stroke-width="2" fill="red"/>
<circle r="2" cx="442" cy="14" stroke="black" stroke-width="2" fill="red"/>
<circle r="2" cx="33" cy="182" stroke="black" stroke-width="2" fill="red"/>
<circle r="2" cx="285" cy="350" stroke="black" stroke-width="2" fill="red"/>
<circle r="2" cx="159" cy="70" stroke="black" stroke-width="2" fill="red"/>
<circle r="2" cx="411" cy="238" stroke="black" stroke-width="2" fill="red"/>
<circle r="2" cx="96" cy="406" stroke="black" stroke-width="2" fill="red"/>
<circle r="2" cx="348" cy="126" stroke="black" stroke-width="2" fill="red"/>
<circle r="2" cx="222" cy="294" stroke="black" stroke-width="2" fill="red"/>
<circle r="2" cx="474" cy="462" stroke="black" stroke-width="2" fill="red"/>
<circle r="2" cx="17" cy="33" stroke="black" stroke-width="2" fill="red"/>
<circle r="2" cx="269" cy="201" stroke="black" stroke-width="2" fill="red"/>
<circle r="2" cx="143" cy="369" stroke="black" stroke-width="2" fill="red"/>
<circle r="2" cx="395" cy="89" stroke="black" stroke-width="2" fill="red"/>
<circle r="2" cx="80" cy="257" stroke="black" stroke-width="2" fill="red"/>
<circle r="2" cx="332" cy="425" stroke="black" stroke-width="2" fill="red"/>
<circle r="2" cx="206" cy="145" stroke="black" stroke-width="2" fill="red"/>
<circle r="2" cx="458" cy="313" stroke="black" stroke-width="2" fill="red"/>
<circle r="2" cx="49" cy="481" stroke="black" stroke-width="2" fill="red"/>
<circle r="2" cx="301" cy="51" stroke="black" stroke-width="2" fill="red"/>
<circle r="2" cx="175" cy="219" stroke="black" stroke-width="2" fill="red"/>
<circle r="2" cx="427" cy="387" stroke="black" stroke-width="2" fill="red"/>
<circle r="2" cx="112" cy="107" stroke="black" stroke-width="2" fill="red"/>
<circle r="2" cx="364" cy="275" stroke="black" stroke-width="2" fill="red"/>
<circle r="2" cx="238" cy="443" stroke="black" stroke-width="2" fill="red"/>
<circle r="2" cx="490" cy="163" stroke="black" stroke-width="2" fill="red"/>
<circle r="2" cx="9" cy="331" stroke="black" stroke-width="2" fill="red"/>
<circle r="2" cx="261" cy="499" stroke="black" stroke-width="2" fill="red"/>
<circle r="2" cx="135" cy="4" stroke="black" stroke-width="2" fill="red"/>
<circle r="2" cx="387" cy="172" stroke="black" stroke-width="2" fill="red"/>
<circle r="2" cx="72" cy="340" stroke="black" stroke-width="2" fill="red"/>
<circle r="2" cx="324" cy="60" stroke="black" stroke-width="2" fill="red"/>
<circle r="2" cx="198" cy="228" stroke="black" stroke-width="2" fill="red"/>
<circle r="2" cx="450" cy="396" stroke="black" stroke-width="2" fill="red"/>
<circle r="2" cx="41" cy="116" stroke="black" stroke-width="2" fill="red"/>
<circle r="2" cx="293" cy="284" stroke="black" stroke-width="2" fill="red"/>
<circle r="2" cx="167" cy="452" stroke="black" stroke-width="2" fill="red"/>
<circle r="2" cx="419" cy="22" stroke="black" stroke-width="2" fill="red"/>
<circle r="2" cx="104" cy="190" stroke="black" stroke-width="2" fill="red"/>
<circle r="2" cx="356" cy="358" stroke="black" stroke-width="2" fill="red"/>
<circle r="2" cx="230" cy="78" stroke="black" stroke-width="2" fill="red"/>
<circle r="2" cx="482" cy="246" stroke="black" stroke-width="2" fill="red"/>
<circle r="2" cx="25" cy="414" stroke="black" stroke-width="2" fill="red"/>
<circle r="2" cx="277" cy="134" stroke="black" stroke-width="2" fill="red"/>
<circle r="2" cx="151" cy="302" stroke="black" stroke-width="2" fill="red"/>
<circle r="2" cx="403" cy="470" stroke="black" stroke-width="2" fill="red"/>
<circle r="2" cx="88" cy="41" stroke="black" stroke-width="2" fill="red"/>
<circle r="2" cx="340" cy="209" stroke="black" stroke-width="2" fill="red"/>
<circle r="2" cx="214" cy="377" stroke="black" stroke-width="2" fill="red"/>
<circle r="2" cx="466" cy="97" stroke="black" stroke-width="2" fill="red"/>
<circle r="2" cx="57" cy="265" stroke="black" stroke-width="2" fill="red"/>
<circle r="2" cx="309" cy="433" stroke="black" stroke-width="2" fill="red"/>
<circle r="2" cx="183" cy="153" stroke="black" stroke-width="2" fill="red"/>
<circle r="2" cx="435" cy="321" stroke="black" stroke-width="2" fill="red"/>
<circle r="2" cx="120" cy="489" stroke="black" stroke-width="2" fill="red"/>
<circle r="2" cx="372" cy="10" stroke="black" stroke-width="2" fill="red"/>
<circle r="2" cx="246" cy="178" stroke="black" stroke-width="2" fill="red"/>
<circle r="2" cx="498" cy="346" stroke="black" stroke-width="2" fill="red"/>
<circle r="2" cx="5" cy="66" stroke="black" stroke-width="2" fill="red"/>
<circle r="2" cx="257" cy="234" stroke="black" stroke-width="2" fill="red"/>
<circle r="2" cx="131" cy="402" stroke="black" stroke-width="2" fill="red"/>
<circle r="2" cx="383" cy="122" stroke="black" stroke-width="2" fill="red"/>
<circle r="2" cx="68" cy="290" stroke="black" stroke-width="2" fill="red"/>
<circle r="2" cx="320" cy="458" stroke="black" stroke-width="2" fill="red"/>
<circle r="2" cx="194" cy="29" stroke="black" stroke-width="2" fill="red"/>
<circle r="2" cx="446" cy="197" stroke="black" stroke-width="2" fill="red"/>
</svg>
