<?xml version="1.0" standalone="no"?>
<svg width="1050" height="1050" version="1.1"
xmlns="http://www.w3.org/2000/svg">
<rect width="1050" height="1050" style="fill:rgb(255,255,255); stroke-width:10;  stroke:rgb(255,255,255)"/>
<circle r="2" cx="72" cy="90" stroke="black" stroke-width="2" fill="red"/>
<circle r="2" cx="136" cy="234" stroke="black" stroke-width="2" fill="red"/>
<circle r="2" cx="286" cy="162" stroke="black" stroke-width="2" fill="red"/>
<circle r="2" cx="179" cy="408" stroke="black" stroke-width="2" fill="red"/>
<circle r="2" cx="373" cy="228" stroke="black" stroke-width="2" fill="red"/>
<circle r="2" cx="160" cy="188" stroke="black" stroke-width="2" fill="red"/>
<circle r="2" cx="140" cy="218" stroke="black" stroke-width="2" fill="red"/>
<circle r="2" cx="204" cy="362" stroke="black" stroke-width="2" fill="red"/>
<circle r="2" cx="419" cy="128" stroke="black" stroke-width="2" fill="red"/>
<circle r="2" cx="256" cy="409" stroke="black" stroke-width="2" fill="red"/>
<circle r="2" cx="130" cy="152" stroke="black" stroke-width="2" fill="red"/>
<circle r="2" cx="194" cy="296" stroke="black" stroke-width="2" fill="red"/>
<circle r="2" cx="217" cy="219" stroke="black" stroke-width="2" fill="red"/>
<circle r="2" cx="281" cy="363" stroke="black" stroke-width="2" fill="red"/>
<circle r="2" cx="431" cy="291" stroke="black" stroke-width="2" fill="red"/>
<circle r="2" cx="48" cy="353" stroke="black" stroke-width="2" fill="red"/>
<circle r="2" cx="274" cy="92" stroke="black" stroke-width="2" fill="red"/>
<circle r="2" cx="338" cy="236" stroke="black" stroke-width="2" fill="red"/>
<circle r="2" cx="261" cy="300" stroke="black" stroke-width="2" fill="red"/>
<circle r="2" cx="325" cy="444" stroke="black" stroke-width="2" fill="red"/>
<circle r="2" cx="242" cy="80" stroke="black" stroke-width="2" fill="red"/>
<circle r="2" cx="135" cy="326" stroke="black" stroke-width="2" fill="red"/>
<circle r="2" cx="286" cy="254" stroke="black" stroke-width="2" fill="red"/>
<circle r="2" cx="350" cy="398" stroke="black" stroke-width="2" fill="red"/>
<circle r="2" cx="394" cy="267" stroke="black" stroke-width="2" fill="red"/>
<circle r="2" cx="126" cy="190" stroke="black" stroke-width="2" fill="red"/>
<circle r="2" cx="277" cy="118" stroke="black" stroke-width="2" fill="red"/>
<circle r="2" cx="94" cy="409" stroke="black" stroke-width="2" fill="red"/>
<circle r="2" cx="288" cy="230" stroke="black" stroke-width="2" fill="red"/>
<circle r="2" cx="352" cy="373" stroke="black" stroke-width="2" fill="red"/>
<circle r="2" cx="55" cy="220" stroke="black" stroke-width="2" fill="red"/>
<circle r="2" cx="119" cy="364" stroke="black" stroke-width="2" fill="red"/>
<circle r="2" cx="350" cy="89" stroke="black" stroke-width="2" fill="red"/>
<circle r="2" cx="244" cy="335" stroke="black" stroke-width="2" fill="red"/>
<circle r="2" cx="394" cy="263" stroke="black" stroke-width="2" fill="red"/>
<circle r="2" cx="182" cy="223" stroke="black" stroke-width="2" fill="red"/>
<circle r="2" cx="148" cy="180" stroke="black" stroke-width="2" fill="red"/>
<circle r="2" cx="212" cy="324" stroke="black" stroke-width="2" fill="red"/>
<circle r="2" cx="362" cy="252" stroke="black" stroke-width="2" fill="red"/>
<circle r="2" cx="256" cy="498" stroke="black" stroke-width="2" fill="red"/>
<circle r="2" cx="194" cy="80" stroke="black" stroke-width="2" fill="red"/>
<circle r="2" cx="258" cy="224" stroke="black" stroke-width="2" fill="red"/>
<circle r="2" cx="238" cy="254" stroke="black" stroke-width="2" fill="red"/>
<circle r="2" cx="302" cy="398" stroke="black" stroke-width="2" fill="red"/>
<circle r="2" cx="495" cy="218" stroke="black" stroke-width="2" fill="red"/>
<circle r="2" cx="56" cy="314" stroke="black" stroke-width="2" fill="red"/>
<circle r="2" cx="206" cy="242" stroke="black" stroke-width="2" fill="red"/>
<circle r="2" cx="270" cy="386" stroke="black" stroke-width="2" fill="red"/>
<circle r="2" cx="325" cy="228" stroke="black" stroke-width="2" fill="red"/>
<circle r="2" cx="389" cy="372" stroke="black" stroke-width="2" fill="red"/>
<circle r="2" cx="208" cy="79" stroke="black" stroke-width="2" fill="red"/>
<circle r="2" cx="101" cy="325" stroke="black" stroke-width="2" fill="red"/>
<circle r="2" cx="295" cy="145" stroke="black" stroke-width="2" fill="red"/>
<circle r="2" cx="359" cy="289" stroke="black" stroke-width="2" fill="red"/>
<circle r="2" cx="263" cy="365" stroke="black" stroke-width="2" fill="red"/>
<circle r="2" cx="50" cy="325" stroke="black" stroke-width="2" fill="red"/>
<circle r="2" cx="265" cy="91" stroke="black" stroke-width="2" fill="red"/>
<circle r="2" cx="159" cy="337" stroke="black" stroke-width="2" fill="red"/>
<circle r="2" cx="309" cy="265" stroke="black" stroke-width="2" fill="red"/>
<circle r="2" cx="373" cy="409" stroke="black" stroke-width="2" fill="red"/>
<circle r="2" cx="120" cy="147" stroke="black" stroke-width="2" fill="red"/>
<circle r="2" cx="184" cy="291" stroke="black" stroke-width="2" fill="red"/>
<circle r="2" cx="334" cy="219" stroke="black" stroke-width="2" fill="red"/>
<circle r="2" cx="171" cy="499" stroke="black" stroke-width="2" fill="red"/>
<circle r="2" cx="405" cy="218" stroke="black" stroke-width="2" fill="red"/>
<circle r="2" cx="192" cy="178" stroke="black" stroke-width="2" fill="red"/>
<circle r="2" cx="172" cy="208" stroke="black" stroke-width="2" fill="red"/>
<circle r="2" cx="236" cy="352" stroke="black" stroke-width="2" fill="red"/>
<circle r="2" cx="429" cy="173" stroke="black" stroke-width="2" fill="red"/>
<circle r="2" cx="323" cy="419" stroke="black" stroke-width="2" fill="red"/>
<circle r="2" cx="197" cy="163" stroke="black" stroke-width="2" fill="red"/>
<circle r="2" cx="261" cy="307" stroke="black" stroke-width="2" fill="red"/>
<circle r="2" cx="248" cy="209" stroke="black" stroke-width="2" fill="red"/>
<circle r="2" cx="312" cy="353" stroke="black" stroke-width="2" fill="red"/>
<circle r="2" cx="463" cy="281" stroke="black" stroke-width="2" fill="red"/>
<circle r="2" cx="24" cy="306" stroke="black" stroke-width="2" fill="red"/>
<circle r="2" cx="218" cy="126" stroke="black" stroke-width="2" fill="red"/>
<circle r="2" cx="282" cy="270" stroke="black" stroke-width="2" fill="red"/>
<circle r="2" cx="262" cy="301" stroke="black" stroke-width="2" fill="red"/>
<circle r="2" cx="326" cy="445" stroke="black" stroke-width="2" fill="red"/>
<circle r="2" cx="275" cy="0" stroke="black" stroke-width="2" fill="red"/>
<circle r="2" cx="86" cy="295" stroke="black" stroke-width="2" fill="red"/>
<circle r="2" cx="237" cy="223" stroke="black" stroke-width="2" fill="red"/>
<circle r="2" cx="301" cy="367" stroke="black" stroke-width="2" fill="red"/>
<circle r="2" cx="324" cy="289" stroke="black" stroke-width="2" fill="red"/>
<circle r="2" cx="111" cy="249" stroke="black" stroke-width="2" fill="red"/>
<circle r="2" cx="262" cy="177" stroke="black" stroke-width="2" fill="red"/>
<circle r="2" cx="155" cy="423" stroke="black" stroke-width="2" fill="red"/>
<circle r="2" cx="370" cy="190" stroke="black" stroke-width="2" fill="red"/>
<circle r="2" cx="434" cy="334" stroke="black" stroke-width="2" fill="red"/>
<circle r="2" cx="81" cy="214" stroke="black" stroke-width="2" fill="red"/>
<circle r="2" cx="145" cy="358" stroke="black" stroke-width="2" fill="red"/>
<circle r="2" cx="338" cy="178" stroke="black" stroke-width="2" fill="red"/>
<circle r="2" cx="231" cy="424" stroke="black" stroke-width="2" fill="red"/>
<circle r="2" cx="382" cy="352" stroke="black" stroke-width="2" fill="red"/>
<circle r="2" cx="169" cy="312" stroke="black" stroke-width="2" fill="red"/>
<circle r="2" cx="230" cy="140" stroke="black" stroke-width="2" fill="red"/>
<circle r="2" cx="294" cy="284" stroke="black" stroke-width="2" fill="red"/>
<circle r="2" cx="444" cy="212" stroke="black" stroke-width="2" fill="red"/>
<circle r="2" cx="281" cy="492" stroke="black" stroke-width="2" fill="red"/>
<circle r="2" cx="143" cy="91" stroke="black" stroke-width="2" fill="red"/>
<circle r="2" cx="207" cy="235" stroke="black" stroke-width="2" fill="red"/>
<circle r="2" cx="186" cy="265" stroke="black" stroke-width="2" fill="red"/>
<circle r="2" cx="250" cy="409" stroke="black" stroke-width="2" fill="red"/>
<circle r="2" cx="466" cy="176" stroke="black" stroke-width="2" fill="red"/>
<circle r="2" cx="83" cy="238" stroke="black" stroke-width="2" fill="red"/>
<circle r="2" cx="233" cy="166" stroke="black" stroke-width="2" fill="red"/>
<circle r="2" cx="297" cy="310" stroke="black" stroke-width="2" fill="red"/>
<circle r="2" cx="244" cy="277" stroke="black" stroke-width="2" fill="red"/>
<circle r="2" cx="308" cy="421" stroke="black" stroke-width="2" fill="red"/>
<circle r="2" cx="182" cy="165" stroke="black" stroke-width="2" fill="red"/>
<circle r="2" cx="75" cy="411" stroke="black" stroke-width="2" fill="red"/>
<circle r="2" cx="301" cy="151" stroke="black" stroke-width="2" fill="red"/>
<circle r="2" cx="365" cy="295" stroke="black" stroke-width="2" fill="red"/>
<circle r="2" cx="345" cy="325" stroke="black" stroke-width="2" fill="red"/>
<circle r="2" cx="133" cy="285" stroke="black" stroke-width="2" fill="red"/>
<circle r="2" cx="326" cy="105" stroke="black" stroke-width="2" fill="red"/>
<circle r="2" cx="163" cy="385" stroke="black" stroke-width="2" fill="red"/>
<circle r="2" cx="313" cy="313" stroke="black" stroke-width="2" fill="red"/>
<circle r="2" cx="377" cy="457" stroke="black" stroke-width="2" fill="red"/>
<circle r="2" cx="145" cy="141" stroke="black" stroke-width="2" fill="red"/>
<circle r="2" cx="209" cy="285" stroke="black" stroke-width="2" fill="red"/>
<circle r="2" cx="359" cy="213" stroke="black" stroke-width="2" fill="red"/>
<circle r="2" cx="253" cy="460" stroke="black" stroke-width="2" fill="red"/>
<circle r="2" cx="446" cy="280" stroke="black" stroke-width="2" fill="red"/>
<circle r="2" cx="168" cy="195" stroke="black" stroke-width="2" fill="red"/>
<circle r="2" cx="90" cy="260" stroke="black" stroke-width="2" fill="red"/>
<circle r="2" cx="154" cy="404" stroke="black" stroke-width="2" fill="red"/>
<circle r="2" cx="390" cy="119" stroke="black" stroke-width="2" fill="red"/>
<circle r="2" cx="283" cy="365" stroke="black" stroke-width="2" fill="red"/>
<circle r="2" cx="157" cy="109" stroke="black" stroke-width="2" fill="red"/>
<circle r="2" cx="221" cy="253" stroke="black" stroke-width="2" fill="red"/>
<circle r="2" cx="244" cy="176" stroke="black" stroke-width="2" fill="red"/>
<circle r="2" cx="308" cy="319" stroke="black" stroke-width="2" fill="red"/>
<circle r="2" cx="458" cy="247" stroke="black" stroke-width="2" fill="red"/>
<circle r="2" cx="0" cy="355" stroke="black" stroke-width="2" fill="red"/>
<circle r="2" cx="215" cy="121" stroke="black" stroke-width="2" fill="red"/>
<circle r="2" cx="279" cy="265" stroke="black" stroke-width="2" fill="red"/>
<circle r="2" cx="258" cy="295" stroke="black" stroke-width="2" fill="red"/>
<circle r="2" cx="322" cy="439" stroke="black" stroke-width="2" fill="red"/>
<circle r="2" cx="239" cy="75" stroke="black" stroke-width="2" fill="red"/>
<circle r="2" cx="133" cy="322" stroke="black" stroke-width="2" fill="red"/>
<circle r="2" cx="283" cy="250" stroke="black" stroke-width="2" fill="red"/>
<circle r="2" cx="347" cy="393" stroke="black" stroke-width="2" fill="red"/>
<circle r="2" cx="346" cy="269" stroke="black" stroke-width="2" fill="red"/>
<circle r="2" cx="133" cy="229" stroke="black" stroke-width="2" fill="red"/>
<circle r="2" cx="284" cy="157" stroke="black" stroke-width="2" fill="red"/>
<circle r="2" cx="177" cy="403" stroke="black" stroke-width="2" fill="red"/>
<circle r="2" cx="370" cy="223" stroke="black" stroke-width="2" fill="red"/>
<circle r="2" cx="434" cy="367" stroke="black" stroke-width="2" fill="red"/>
<circle r="2" cx="82" cy="176" stroke="black" stroke-width="2" fill="red"/>
<circle r="2" cx="146" cy="320" stroke="black" stroke-width="2" fill="red"/>
<circle r="2" cx="362" cy="86" stroke="black" stroke-width="2" fill="red"/>
<circle r="2" cx="198" cy="367" stroke="black" stroke-width="2" fill="red"/>
<circle r="2" cx="348" cy="295" stroke="black" stroke-width="2" fill="red"/>
<circle r="2" cx="136" cy="255" stroke="black" stroke-width="2" fill="red"/>
<circle r="2" cx="159" cy="177" stroke="black" stroke-width="2" fill="red"/>
<circle r="2" cx="223" cy="321" stroke="black" stroke-width="2" fill="red"/>
<circle r="2" cx="373" cy="249" stroke="black" stroke-width="2" fill="red"/>
<circle r="2" cx="267" cy="495" stroke="black" stroke-width="2" fill="red"/>
<circle r="2" cx="222" cy="37" stroke="black" stroke-width="2" fill="red"/>
<circle r="2" cx="286" cy="181" stroke="black" stroke-width="2" fill="red"/>
<circle r="2" cx="183" cy="260" stroke="black" stroke-width="2" fill="red"/>
<circle r="2" cx="247" cy="404" stroke="black" stroke-width="2" fill="red"/>
<circle r="2" cx="441" cy="224" stroke="black" stroke-width="2" fill="red"/>
<circle r="2" cx="58" cy="286" stroke="black" stroke-width="2" fill="red"/>
<circle r="2" cx="208" cy="214" stroke="black" stroke-width="2" fill="red"/>
<circle r="2" cx="272" cy="358" stroke="black" stroke-width="2" fill="red"/>
<circle r="2" cx="316" cy="227" stroke="black" stroke-width="2" fill="red"/>
<circle r="2" cx="380" cy="371" stroke="black" stroke-width="2" fill="red"/>
<circle r="2" cx="254" cy="115" stroke="black" stroke-width="2" fill="red"/>
<circle r="2" cx="91" cy="395" stroke="black" stroke-width="2" fill="red"/>
<circle r="2" cx="284" cy="215" stroke="black" stroke-width="2" fill="red"/>
<circle r="2" cx="348" cy="359" stroke="black" stroke-width="2" fill="red"/>
<circle r="2" cx="328" cy="389" stroke="black" stroke-width="2" fill="red"/>
<circle r="2" cx="61" cy="312" stroke="black" stroke-width="2" fill="red"/>
<circle r="2" cx="286" cy="51" stroke="black" stroke-width="2" fill="red"/>
<circle r="2" cx="180" cy="298" stroke="black" stroke-width="2" fill="red"/>
<circle r="2" cx="330" cy="226" stroke="black" stroke-width="2" fill="red"/>
<circle r="2" cx="394" cy="370" stroke="black" stroke-width="2" fill="red"/>
<circle r="2" cx="84" cy="142" stroke="black" stroke-width="2" fill="red"/>
<circle r="2" cx="148" cy="286" stroke="black" stroke-width="2" fill="red"/>
<circle r="2" cx="298" cy="214" stroke="black" stroke-width="2" fill="red"/>
<circle r="2" cx="191" cy="460" stroke="black" stroke-width="2" fill="red"/>
<circle r="2" cx="407" cy="226" stroke="black" stroke-width="2" fill="red"/>
<circle r="2" cx="194" cy="186" stroke="black" stroke-width="2" fill="red"/>
<circle r="2" cx="174" cy="216" stroke="black" stroke-width="2" fill="red"/>
<circle r="2" cx="238" cy="360" stroke="black" stroke-width="2" fill="red"/>
<circle r="2" cx="431" cy="180" stroke="black" stroke-width="2" fill="red"/>
<circle r="2" cx="249" cy="472" stroke="black" stroke-width="2" fill="red"/>
<circle r="2" cx="123" cy="216" stroke="black" stroke-width="2" fill="red"/>
<circle r="2" cx="187" cy="360" stroke="black" stroke-width="2" fill="red"/>
<circle r="2" cx="250" cy="181" stroke="black" stroke-width="2" fill="red"/>
<circle r="2" cx="314" cy="325" stroke="black" stroke-width="2" fill="red"/>
<circle r="2" cx="465" cy="253" stroke="black" stroke-width="2" fill="red"/>
<circle r="2" cx="82" cy="315" stroke="black" stroke-width="2" fill="red"/>
<circle r="2" cx="275" cy="135" stroke="black" stroke-width="2" fill="red"/>
<circle r="2" cx="339" cy="279" stroke="black" stroke-width="2" fill="red"/>
<circle r="2" cx="262" cy="344" stroke="black" stroke-width="2" fill="red"/>
<circle r="2" cx="326" cy="488" stroke="black" stroke-width="2" fill="red"/>
</svg>
